<?xml version="1.0" encoding="UTF-8"?>
<!DOCTYPE svg  PUBLIC '-//W3C//DTD SVG 1.1//EN'  'http://www.w3.org/Graphics/SVG/1.1/DTD/svg11.dtd'>
<svg version="1.1" xmlns="http://www.w3.org/2000/svg">
<defs>
<font id="Exo-ExtraLightItalic" horiz-adv-x="609">
<font-face font-family="Exo ExtraLight" font-style="italic" font-weight="250" ascent="800" bbox="-402 -270 1134 986" cap-height="733" descent="-200" panose-1="0 0 0 0 0 0 0 0 0 0" slope="-9" underline-position="-125" underline-thickness="50" unicode-range="U+0020-2212" units-per-em="1000" x-height="532"/>
<missing-glyph/>
<glyph glyph-name="space" horiz-adv-x="236" unicode=" "/>
<glyph d="M146 197l79 535h41l-92 -535h-28zM117 0q-11 0 -11 11v1v1l11 67q2 14 15 14h21q12 0 12 -10v-2v-2l-11 -67q-1 -7 -5.5 -10t-10.5 -3h-21z" glyph-name="exclam" horiz-adv-x="262" unicode="!"/>
<glyph d="M132 513l18 162l10 67h41l-10 -67l-32 -162h-27zM226 513l18 162l10 67h41l-10 -67l-32 -162h-27z" glyph-name="quotedbl" horiz-adv-x="221" unicode='"'/>
<glyph d="M161 0l77 243h-174l8 24h175l62 194h-176l8 24h176l79 247h24l-79 -247h176l79 247h24l-79 -247h177l-8 -24h-178l-61 -194h177l-8 -24h-178l-77 -243h-24l77 243h-176l-77 -243h-24zM271 267h176l61 194h-176z" glyph-name="numbersign" horiz-adv-x="663" unicode="#"/>
<glyph d="M415 731l-14 11l23 82l14 -11zM269 -88l14 92l27 -1l-14 -91h-27zM298 -6q-35 0 -76 2t-79 4.5t-66 7.5l4 29q41 -3 102 -4.5t119 -1.5q52 0 93.5 10t68 39t34.5 84l10 60q1 10 1.5 18.5t0.5 16.5q0 47 -27 68.5t-89 21.5h-104q-69 0 -104.5 27t-35.5 87q0 17 3 38l10 65 q11 71 40.5 108.5t75 51t104.5 13.5q17 0 45 -1.5t59 -4t60 -5.5t47 -6l-4 -30q-32 2 -71.5 4t-76.5 3t-60 1q-52 0 -89 -10.5t-59.5 -40t-31.5 -85.5l-9 -61q-1 -9 -2 -17.5t-1 -16.5q0 -46 26.5 -63t79.5 -17h107q76 0 112 -30.5t36 -91.5q0 -18 -3 -41l-10 -66 q-10 -67 -44 -103t-84.5 -49.5t-111.5 -13.5z" glyph-name="dollar" unicode="$"/>
<glyph d="M237 0l556 732h31l-555 -732h-32zM237 349q-61 0 -86 21.5t-25 64.5q0 19 3 40l21 131q11 64 42.5 95t107.5 31h101q61 0 86.5 -21.5t25.5 -64.5q0 -9 -1 -19t-3 -21l-21 -131q-10 -64 -42 -95t-108 -31h-101zM244 376h96q55 0 83.5 20t37.5 82l20 125q2 10 2.5 18.5 t0.5 16.5q0 36 -20.5 51.5t-69.5 15.5h-96q-55 0 -83.5 -19.5t-38.5 -82.5l-20 -125q-1 -9 -2 -17.5t-1 -16.5q0 -40 22.5 -54t68.5 -14zM672 3q-62 0 -86.5 21.5t-24.5 64.5q0 19 3 40l21 131q10 64 42 95t108 31h101q61 0 86 -21.5t25 -64.5q0 -9 -0.5 -19t-2.5 -21 l-21 -131q-10 -64 -42 -95t-108 -31h-101zM679 30h96q55 0 83.5 20t38.5 82l19 125q2 10 3 18.5t1 16.5q0 36 -20.5 51.5t-70.5 15.5h-96q-54 0 -83 -19.5t-39 -82.5l-20 -125q-1 -9 -2 -17.5t-1 -16.5q0 -40 22.5 -54t68.5 -14z" glyph-name="percent" horiz-adv-x="955" unicode="%"/>
<glyph d="M220 -6q-71 0 -115 43t-44 117q0 54 14.5 95.5t46.5 76.5t88 68l70 42l-17 31q-19 34 -27 65t-8 59q0 47 22.5 78.5t64.5 47.5t99 16q35 0 58.5 -1.5t42 -3.5t35.5 -4l-5 -28h-132q-64 0 -104 -23t-40 -83q0 -24 7 -51.5t26 -60.5l182 -317l178 148l12 -17l-82 -88 l-88 -73l77 -131h-46l-63 108l-36 -28q-62 -50 -113 -68t-103 -18zM230 33q41 0 84.5 14t96.5 58l41 33l-156 268l-59 -33q-54 -31 -83 -62t-40 -67.5t-11 -83.5q0 -58 33.5 -92.5t93.5 -34.5z" glyph-name="ampersand" horiz-adv-x="659" unicode="&amp;"/>
<glyph d="M132 513l18 162l10 67h41l-10 -67l-32 -162h-27z" glyph-name="quotesingle" horiz-adv-x="127" unicode="'"/>
<glyph d="M224 -210q-31 59 -50.5 122.5t-29 131.5t-9.5 138q0 69 10 140t31 142.5t52.5 140.5t72.5 133.5t92 121.5h41q-63 -72 -111 -153.5t-80.5 -168.5t-49 -175.5t-16.5 -172.5q0 -106 21.5 -206.5t67.5 -193.5h-42z" glyph-name="parenleft" horiz-adv-x="325" unicode="("/>
<glyph d="M-8 -210q66 81 115 165t80.5 170.5t47.5 173t16 171.5q0 101 -20 195t-70 195h42q33 -64 52.5 -126.5t28.5 -126t9 -131.5q0 -70 -10 -140t-30.5 -140t-51 -139t-72.5 -136t-95 -131h-42z" glyph-name="parenright" horiz-adv-x="324" unicode=")"/>
<glyph d="M363 530l-18 24l126 83l9 -17zM402 421l-112 70l21 29l105 -84zM203 404l-17 6l53 134l32 -6zM137 589l3 20l143 5l-4 -30zM330 592l-35 131l20 6l46 -124z" glyph-name="asterisk" horiz-adv-x="476" unicode="*"/>
<glyph d="M307 132l70 448h37l-70 -448h-37zM134 338l6 36h448l-6 -36h-448z" glyph-name="plus" unicode="+"/>
<glyph d="M70 -72q-5 0 -8.5 1l-3.5 1l2 12q10 0 14.5 3.5t5.5 11.5l7 44h-7q-11 0 -11 11q0 2 0.5 3t0.5 2l10 62q1 15 15 15h20q11 0 11 -10v-3.5v-3.5l-18 -111q-3 -17 -9 -25t-14 -10.5t-15 -2.5z" glyph-name="comma" horiz-adv-x="180" unicode=","/>
<glyph d="M67 272l6 36h287l-6 -36h-287z" glyph-name="hyphen" horiz-adv-x="333" unicode="-"/>
<glyph d="M80 0q-11 0 -11 11v1v1l11 67q2 14 15 14h21q12 0 12 -10v-2v-2l-11 -67q-1 -7 -5.5 -10t-10.5 -3h-21z" glyph-name="period" horiz-adv-x="180" unicode="."/>
<glyph d="M14 -72l414 842h37l-414 -842h-37z" glyph-name="slash" horiz-adv-x="369" unicode="/"/>
<glyph d="M264 -1q-42 0 -76.5 13t-55 41.5t-20.5 74.5q0 8 1 17.5t2 19.5l64 407q9 56 38.5 93t72 55.5t91.5 18.5h137q79 0 113 -36t34 -92q0 -10 -0.5 -19t-2.5 -20l-64 -407q-14 -89 -68 -127.5t-130 -38.5h-136zM274 37h127q72 0 109.5 35.5t46.5 95.5l63 402q2 9 2.5 17 t0.5 15q0 49 -29 74.5t-87 25.5h-128q-63 0 -106 -34.5t-53 -97.5l-63 -402q-1 -7 -2 -14.5t-1 -13.5q0 -51 32 -77t88 -26z" glyph-name="zero" horiz-adv-x="660" unicode="0"/>
<glyph d="M214 0l110 691l-172 -55l4 26l176 71h39l-116 -733h-41z" glyph-name="one" horiz-adv-x="356" unicode="1"/>
<glyph d="M59 0l5 35l311 269q100 88 143.5 159t43.5 127q0 32 -14.5 57t-50.5 39.5t-101 14.5h-196l6 30q44 3 98 5.5t107 2.5q71 0 113.5 -18.5t60.5 -50.5t18 -74q0 -63 -47.5 -142t-152.5 -171l-279 -244h425l-7 -39h-483z" glyph-name="two" horiz-adv-x="596" unicode="2"/>
<glyph d="M304 -6q-80 0 -145.5 2t-111.5 6l5 29h249q44 0 83 11.5t67 40.5t38 83q6 31 9 52.5t3 28.5q0 38 -20 60t-50 32t-61 11l-189 7l5 27l192 6q59 2 101.5 28t51.5 86q6 37 8.5 54.5t3 24.5t0.5 11q0 51 -37 79.5t-108 28.5h-211l5 29q40 4 95.5 6t128.5 2q60 0 96.5 -17 t54.5 -47t18 -70q0 -5 -0.5 -13.5t-3 -28t-9.5 -58.5q-6 -38 -23 -63t-38 -40.5t-41.5 -22.5t-32.5 -9q13 -2 30.5 -9.5t34.5 -21.5t28.5 -36.5t11.5 -53.5q0 -9 -3.5 -31.5t-8.5 -54.5q-13 -83 -72 -126t-154 -43z" glyph-name="three" horiz-adv-x="589" unicode="3"/>
<glyph d="M400 2l33 203h-360l-8 29l377 499h42l-372 -492h326l36 225l20 59h30l-45 -284h114l-4 -28l-115 -8l-33 -203h-41z" glyph-name="four" horiz-adv-x="581" unicode="4"/>
<glyph d="M350 -4q-64 0 -123.5 1.5t-102.5 5.5l5 30h227q49 0 91.5 16t72 47.5t36.5 77.5l15 98q2 8 2.5 16.5t0.5 15.5q0 49 -32 76.5t-97 27.5h-90q-54 0 -89.5 -23.5t-53.5 -75.5h-38l87 424h402l-6 -37h-364l-64 -313q13 23 48.5 42t89.5 19h91q77 0 117 -36.5t40 -95.5 q0 -9 -0.5 -17.5t-1.5 -17.5l-18 -109q-8 -56 -43 -94.5t-87.5 -58t-114.5 -19.5z" glyph-name="five" horiz-adv-x="643" unicode="5"/>
<glyph d="M275 -1q-44 0 -77.5 17.5t-52 62t-18.5 126.5q0 80 11.5 158t35.5 146t62 119.5t91.5 81t122.5 29.5q39 0 89.5 -2t89.5 -5l-5 -30h-186q-56 0 -107.5 -34t-89.5 -102.5t-55 -174.5q34 3 77 4.5t83 2t64 0.5q57 0 99.5 -9.5t66.5 -34t24 -69.5q0 -8 -1 -16t-3 -16 l-16 -102q-8 -57 -36 -90.5t-68 -47.5t-83 -14h-118zM285 36h109q34 0 64.5 9t53 34.5t29.5 73.5l15 96q2 8 2.5 14t0.5 12q0 37 -20 55.5t-55.5 25t-84.5 6.5h-218q-7 -47 -10.5 -86.5t-3.5 -70.5q0 -66 14 -102.5t40.5 -51.5t63.5 -15z" glyph-name="six" horiz-adv-x="632" unicode="6"/>
<glyph d="M169 0l389 692h-402l7 41h433l14 -28l-393 -705h-48z" glyph-name="seven" horiz-adv-x="538" unicode="7"/>
<glyph d="M264 -1q-50 0 -83.5 13t-50 37.5t-16.5 59.5q0 6 1 13l2 14l17 109q6 40 27.5 66t47.5 40.5t45 18.5q-36 17 -52 44t-16 59q0 7 0.5 13.5t1.5 13.5l13 85q10 56 35.5 89.5t63 48.5t81.5 15h138q60 0 90 -25.5t30 -82.5q0 -10 -1 -21t-3 -24l-13 -85q-3 -19 -11 -38 t-21 -35.5t-30 -29t-37 -18.5q38 -8 57 -35t19 -64q0 -7 -0.5 -13.5t-1.5 -13.5l-18 -116q-8 -46 -31.5 -76.5t-60.5 -46t-86 -15.5h-137zM274 36h127q60 0 94.5 25.5t42.5 76.5l17 108q2 10 2.5 18t0.5 14q0 42 -26 60t-87 18h-121q-17 0 -40.5 -5.5t-46 -18t-40 -33.5 t-22.5 -53l-17 -108q-1 -5 -1.5 -9.5t-0.5 -9.5q0 -45 34 -64t84 -19zM330 392h121q42 0 69 16.5t42.5 41t18.5 46.5l13 82q2 12 3 21.5t1 18.5q0 46 -22.5 65t-68.5 19h-127q-64 0 -96.5 -30t-42.5 -94l-13 -82q-1 -4 -1 -9v-10q0 -35 24.5 -60t78.5 -25z" glyph-name="eight" horiz-adv-x="651" unicode="8"/>
<glyph d="M473 736q45 0 78 -17.5t51.5 -62t18.5 -126.5q0 -81 -11.5 -158.5t-35.5 -145.5t-62 -119.5t-91 -81t-123 -29.5q-38 0 -89 2.5t-90 4.5l5 30h187q56 0 107 34t89 103t55 174q-34 -3 -77 -4.5t-82.5 -2.5t-64.5 -1q-56 0 -99 10t-67 34.5t-24 69.5q0 8 1.5 16t2.5 16 l16 102q9 57 36.5 90t67.5 47.5t83 14.5h118zM463 699h-109q-34 0 -64.5 -9t-52.5 -34.5t-30 -73.5l-15 -96l-2 -14t-1 -12q0 -37 20 -55.5t55.5 -25t84.5 -6.5h218q8 47 11 86t3 71q0 66 -14 102.5t-40.5 51.5t-63.5 15z" glyph-name="nine" horiz-adv-x="632" unicode="9"/>
<glyph d="M80 0q-11 0 -11 11v1v1l11 67q2 14 15 14h21q12 0 12 -10v-2v-2l-11 -67q-1 -7 -5.5 -10t-10.5 -3h-21zM150 438q-11 0 -11 11v1v1l11 67q2 14 15 14h21q12 0 12 -10v-2v-2l-11 -67q-1 -7 -5.5 -10t-10.5 -3h-21z" glyph-name="colon" horiz-adv-x="180" unicode=":"/>
<glyph d="M150 438q-11 0 -11 11v1v1l11 67q2 14 15 14h21q12 0 12 -10v-2v-2l-11 -67q-1 -7 -5.5 -10t-10.5 -3h-21zM70 -72q-5 0 -8.5 1l-3.5 1l2 12q10 0 14.5 3.5t5.5 11.5l7 44h-7q-11 0 -11 11q0 2 0.5 3t0.5 2l10 62q1 15 15 15h20q11 0 11 -10v-3.5v-3.5l-18 -111 q-3 -17 -9 -25t-14 -10.5t-15 -2.5z" glyph-name="semicolon" horiz-adv-x="180" unicode=";"/>
<glyph d="M528 193l-394 136l6 39l436 135l-5 -35l-397 -120l359 -120z" glyph-name="less" unicode="&lt;"/>
<glyph d="M115 218l6 36h448l-6 -36h-448zM153 458l6 36h448l-6 -36h-448z" glyph-name="equal" unicode="="/>
<glyph d="M143 193l5 35l397 121l-359 119l5 35l394 -135l-6 -39z" glyph-name="greater" unicode="&gt;"/>
<glyph d="M213 196l21 136h40q65 0 106.5 12t64 41.5t30.5 79.5l12 75q3 15 3.5 28t0.5 25q0 59 -31 84t-97 25q-54 0 -103.5 -9.5t-108.5 -31.5l4 27q63 29 118.5 40t107.5 11q84 0 118.5 -36t34.5 -99q0 -28 -6 -61l-12 -78q-13 -86 -72 -127.5t-181 -41.5l-16 -100h-34zM192 0 q-11 0 -11 11v1v1l10 67q3 14 16 14h21q11 0 11 -10v-2v-2l-11 -67q-1 -7 -5.5 -10t-9.5 -3h-21z" glyph-name="question" horiz-adv-x="532" unicode="?"/>
<glyph d="M217 -181q-50 0 -85 20.5t-54 56t-19 80.5q0 9 1 18.5t3 19.5l81 507q6 38 20.5 71t40 58t62.5 39t90 14h391q50 0 83.5 -17t49.5 -48.5t16 -75.5q0 -22 -3 -47l-52 -345q-3 -17 -13 -45t-31.5 -57t-57.5 -48.5t-88 -19.5h-38l-1 62q-13 -14 -37.5 -26.5t-54.5 -22 t-61 -14.5t-55 -5q-43 0 -79.5 16.5t-58 56.5t-21.5 110q0 117 36 199t96 125t131 43q59 0 112.5 -15.5t87.5 -47.5l-66 -449q18 0 42.5 4t49.5 18t44.5 42t26.5 76l52 345q2 12 3 22.5t1 20.5q0 63 -33.5 85.5t-85.5 22.5h-389q-59 0 -95.5 -21t-54.5 -55t-25 -75l-80 -505 q-3 -18 -3 -34q0 -60 35.5 -92t91.5 -32h385l-4 -23q-25 -3 -69 -6t-101 -4.5t-120 -1.5h-97zM409 30q46 0 100.5 10t105.5 49l57 381q-46 24 -83.5 32t-78.5 8q-62 0 -114 -39t-83 -112t-31 -177q0 -62 18.5 -94.5t47.5 -45t61 -12.5z" glyph-name="at" horiz-adv-x="905" unicode="@"/>
<glyph d="M42 0l385 733h55l141 -733h-42l-47 240h-322l-128 -240h-42zM230 278h298l-80 415z" glyph-name="A" horiz-adv-x="665" unicode="A"/>
<glyph d="M78 0l116 733h240q59 0 97 -16.5t55 -47t17 -73.5q0 -12 -1 -24t-3 -26q-10 -70 -48.5 -110.5t-87.5 -51.5q21 -5 46 -22.5t43 -49t18 -78.5q0 -10 -1 -24t-5 -31q-17 -85 -72 -132t-156 -47h-258zM124 37h218q59 0 95.5 19t57 54t30.5 80q3 14 4 25.5t1 20.5 q0 61 -37.5 95t-96.5 34h-220zM181 400h218q66 0 105.5 36.5t53.5 103.5q3 14 4.5 26t1.5 24q0 57 -36 81.5t-102 24.5h-198z" glyph-name="B" horiz-adv-x="602" unicode="B"/>
<glyph d="M307 -6q-104 0 -150 56t-46 165q0 39 5 83t11 80q18 115 53 196t93.5 123t144.5 42q72 0 124.5 -8t93.5 -17l-7 -29q-49 8 -99 12.5t-110 4.5q-55 0 -95.5 -20t-70.5 -61t-51 -104.5t-35 -150.5q-6 -35 -10.5 -76.5t-4.5 -74.5q0 -97 37 -140.5t126 -43.5q78 0 124 3.5 t87 10.5l-5 -30q-48 -11 -105 -16t-110 -5z" glyph-name="C" horiz-adv-x="589" unicode="C"/>
<glyph d="M78 0l116 733h256q82 0 129.5 -29t67.5 -85.5t20 -140.5q0 -31 -3 -62.5t-8 -61.5q-12 -75 -35.5 -139t-61.5 -112.5t-92.5 -75.5t-127.5 -27h-261zM124 37h216q65 0 112 26t80 71.5t53.5 104.5t30.5 126q5 32 8 61.5t3 53.5q0 71 -16.5 119t-56.5 72.5t-114 24.5h-212z " glyph-name="D" horiz-adv-x="666" unicode="D"/>
<glyph d="M219 -6q-25 0 -49.5 5t-43 20t-27 42.5t-1.5 70.5l75 470q8 51 31.5 80t55.5 40.5t66 10.5q74 -1 148.5 -2.5t148.5 -4.5l-5 -31h-292q-44 0 -74.5 -22.5t-39.5 -79.5l-33 -210l348 -6l-6 -30l-349 -2l-32 -212q-6 -43 4.5 -64.5t33 -29t53.5 -7.5h284l-5 -31 q-72 -1 -144.5 -3t-146.5 -4z" glyph-name="E" horiz-adv-x="569" unicode="E"/>
<glyph d="M78 0l94 595q9 58 32.5 88t54.5 40.5t66 9.5q75 -1 150 -2.5t148 -4.5l-5 -31h-295q-47 0 -74.5 -23.5t-36.5 -78.5l-34 -213l348 -6l-5 -30l-348 -2l-55 -342h-40z" glyph-name="F" horiz-adv-x="547" unicode="F"/>
<glyph d="M301 -6q-102 0 -145.5 54.5t-43.5 169.5q0 36 4 77t11 85q17 108 51.5 189t95 126.5t153.5 45.5q77 0 131 -9t98 -22l-5 -29q-44 9 -101 16t-124 7q-80 0 -131.5 -40t-81 -115t-45.5 -181q-15 -91 -15 -155q0 -94 37 -137.5t122 -43.5q26 0 58.5 5t65 12.5t58.5 16 t41 14.5l41 260h-203l5 30q26 5 68 5.5t102 0.5q12 0 24 -0.5t25 -1t25 -1.5l-60 -373h-28v53q-13 -7 -39 -16.5t-59 -19t-68.5 -16.5t-66.5 -7z" glyph-name="G" horiz-adv-x="639" unicode="G"/>
<glyph d="M78 0l116 733h41l-57 -359h416l57 359h41l-116 -733h-41l53 337h-416l-54 -337h-40z" glyph-name="H" horiz-adv-x="652" unicode="H"/>
<glyph d="M78 0l116 733h41l-117 -733h-40z" glyph-name="I" horiz-adv-x="196" unicode="I"/>
<glyph d="M133 -6q-33 0 -59 7.5t-43 17.5l5 29q23 -9 48 -12.5t46 -3.5q53 0 87.5 33.5t46.5 106.5l90 561h40l-89 -566q-15 -90 -57 -131.5t-115 -41.5z" glyph-name="J" horiz-adv-x="329" unicode="J"/>
<glyph d="M78 0l116 733h41l-55 -347h147l273 347h45l-286 -366l181 -367h-43l-173 349h-151l-55 -349h-40z" glyph-name="K" horiz-adv-x="572" unicode="K"/>
<glyph d="M214 0q-54 0 -86 20t-32 77q0 10 1 18.5t2 17.5l95 600h41l-95 -597q-1 -9 -2 -16.5t-1 -16.5q0 -41 25 -53.5t59 -12.5h279l-6 -37h-280z" glyph-name="L" horiz-adv-x="519" unicode="L"/>
<glyph d="M67 0l198 733h38l113 -666l325 666h37l-31 -733h-40l30 654l-312 -654h-37l-106 653l-173 -653h-42z" glyph-name="M" horiz-adv-x="784" unicode="M"/>
<glyph d="M78 0l116 733h35l319 -663l106 663h41l-117 -733h-35l-319 664l-106 -664h-40z" glyph-name="N" horiz-adv-x="655" unicode="N"/>
<glyph d="M337 -6q-54 0 -96 8.5t-71.5 31t-45 63.5t-15.5 106q0 35 4 76.5t12 91.5q18 113 45.5 185.5t67.5 112t94.5 55t125.5 15.5q53 0 95 -9.5t72 -34t45.5 -66.5t15.5 -108q0 -34 -4 -76.5t-12 -92.5q-18 -113 -46.5 -183.5t-68.5 -108.5t-94 -52t-124 -14zM346 31 q61 0 107 13t79 47.5t56.5 99.5t40.5 170q8 49 11.5 89t3.5 72q0 76 -23 114.5t-66 52t-104 13.5q-60 0 -106 -13.5t-80 -49.5t-58 -103t-41 -174q-7 -48 -11.5 -87.5t-4.5 -70.5q0 -72 21.5 -109.5t64.5 -50.5t110 -13z" glyph-name="O" horiz-adv-x="681" unicode="O"/>
<glyph d="M78 0l116 733h270q43 0 78 -14t56 -47t21 -91q0 -13 -2.5 -32t-4.5 -35q-10 -68 -33 -111t-54 -67t-66.5 -33.5t-69.5 -9.5q-51 0 -111 2.5t-112 5.5l-48 -301h-40zM170 330h218q41 0 78.5 15.5t65.5 56.5t40 114q2 15 3.5 33t1.5 29q0 65 -31.5 91.5t-89.5 26.5h-228z " glyph-name="P" horiz-adv-x="594" unicode="P"/>
<glyph d="M484 -157q-38 0 -68.5 12.5t-48 40t-20.5 70.5h28q10 -50 37.5 -70t72.5 -20q17 0 34.5 3t32.5 8l-5 -34q-31 -10 -63 -10zM337 -6q-54 0 -96 8.5t-71.5 31t-45 63.5t-15.5 106q0 35 4 76.5t12 91.5q18 113 45.5 185.5t67.5 112t94.5 55t125.5 15.5q53 0 95 -9.5t72 -34 t45.5 -66.5t15.5 -108q0 -34 -4 -76.5t-12 -92.5q-18 -113 -46.5 -183.5t-68.5 -108.5t-94 -52t-124 -14zM346 31q61 0 107 13t79 47.5t56.5 99.5t40.5 170q8 49 11.5 89t3.5 72q0 76 -23 114.5t-66 52t-104 13.5q-60 0 -106 -13.5t-80 -49.5t-58 -103t-41 -174 q-7 -48 -11.5 -87.5t-4.5 -70.5q0 -72 21.5 -109.5t64.5 -50.5t110 -13z" glyph-name="Q" horiz-adv-x="681" unicode="Q"/>
<glyph d="M78 0l116 733h259q28 0 57 -6.5t53.5 -23.5t39.5 -48.5t15 -82.5q0 -13 -1.5 -27t-3.5 -30q-10 -61 -30 -98.5t-45.5 -57t-52 -27t-48.5 -10.5l106 -322h-41l-105 318q-19 0 -48 1t-63 1.5t-64.5 1.5t-52.5 2l-51 -324h-40zM174 353h226q38 0 72.5 12t61 47t37.5 107 q2 14 3 26t1 23q0 54 -20 81.5t-49.5 37t-59.5 9.5h-218z" glyph-name="R" horiz-adv-x="608" unicode="R"/>
<glyph d="M298 -6q-35 0 -76 2t-79 4.5t-66 7.5l4 29q41 -3 102 -4.5t119 -1.5q52 0 93.5 10t68 39t34.5 84l10 60q1 10 1.5 18.5t0.5 16.5q0 47 -27 68.5t-89 21.5h-104q-69 0 -104.5 27t-35.5 87q0 17 3 38l10 65q11 71 40.5 108.5t75 51t104.5 13.5q17 0 45 -1.5t59 -4t60 -5.5 t47 -6l-4 -30q-32 2 -71.5 4t-76.5 3t-60 1q-52 0 -89 -10.5t-59.5 -40t-31.5 -85.5l-9 -61q-1 -9 -2 -17.5t-1 -16.5q0 -46 26.5 -63t79.5 -17h107q76 0 112 -30.5t36 -91.5q0 -18 -3 -41l-10 -66q-10 -67 -44 -103t-84.5 -49.5t-111.5 -13.5z" glyph-name="S" horiz-adv-x="566" unicode="S"/>
<glyph d="M276 0l110 696h-247l6 37h535l-6 -37h-247l-110 -696h-41z" glyph-name="T" horiz-adv-x="603" unicode="T"/>
<glyph d="M335 -6q-106 0 -162 44t-56 152q0 26 3 61.5t9 71.5l65 410h41l-66 -413q-5 -35 -8.5 -69.5t-3.5 -59.5q0 -91 46 -125.5t133 -34.5q53 0 95.5 10t75 39.5t56.5 87t39 152.5l66 413h41l-66 -416q-17 -105 -45 -169t-67 -97.5t-88 -45t-108 -11.5z" glyph-name="U" horiz-adv-x="670" unicode="U"/>
<glyph d="M300 0l-142 733h43l133 -689l363 689h42l-385 -733h-54z" glyph-name="V" horiz-adv-x="665" unicode="V"/>
<glyph d="M268 0l-110 733h43l102 -681l280 681h48l54 -681l329 681h43l-353 -733h-49l-56 677l-281 -677h-50z" glyph-name="W" horiz-adv-x="987" unicode="W"/>
<glyph d="M504 0l-165 349l-182 384h46l166 -354l181 -379h-46zM44 0l292 379l18 -42l-261 -337h-49zM371 350l-19 39l270 344h50z" glyph-name="X" horiz-adv-x="595" unicode="X"/>
<glyph d="M268 0l41 254l-165 479h46l145 -429l302 429h48l-336 -479l-40 -254h-41z" glyph-name="Y" horiz-adv-x="597" unicode="Y"/>
<glyph d="M44 0l5 36l515 660h-411l7 37h458l-7 -36l-515 -660h421l-6 -37h-467z" glyph-name="Z" horiz-adv-x="555" unicode="Z"/>
<glyph d="M217 -210q-48 0 -73.5 19.5t-35 48.5t-9.5 59q0 14 1.5 26.5t2.5 23.5l111 700q4 26 14 55.5t29 57t50 45t76 17.5h54l-5 -35h-48q-47 0 -82 -33t-48 -110l-110 -696q-1 -11 -2.5 -21.5t-1.5 -20.5q0 -45 20.5 -73t67.5 -28h48l-5 -35h-54z" glyph-name="bracketleft" horiz-adv-x="329" unicode="["/>
<glyph d="M295 -72l-148 842h37l148 -842h-37z" glyph-name="backslash" horiz-adv-x="369" unicode="\"/>
<glyph d="M-8 -210l5 35h49q39 0 65.5 19t42.5 52t21 72l111 696q1 13 2 23.5t1 20.5q0 52 -23.5 75.5t-64.5 23.5h-48l5 35h54q49 0 74 -19t35 -47.5t10 -59.5q0 -13 -1 -25.5t-3 -23.5l-111 -700q-4 -24 -13.5 -54t-28 -58.5t-50 -46.5t-78.5 -18h-54z" glyph-name="bracketright" horiz-adv-x="329" unicode="]"/>
<glyph d="M148 531l150 131h31l96 -131h-27l-89 109l-134 -109h-27z" glyph-name="asciicircum" horiz-adv-x="404" unicode="^"/>
<glyph d="M-23 -148l5 37h609l-5 -37h-609z" glyph-name="underscore" unicode="_"/>
<glyph d="M256 631l-109 134h38l95 -134h-24z" glyph-name="grave" horiz-adv-x="205" unicode="`"/>
<glyph d="M253 -6q-46 0 -83 18t-59 58t-22 102q0 24 3.5 50.5t7.5 48.5q13 92 44.5 151t86 87.5t138.5 28.5q31 0 66.5 -5.5t68.5 -18t56 -33.5l-76 -481h-31v58q-14 -9 -47 -24.5t-74 -27.5t-79 -12zM262 29q57 0 103 17.5t92 38.5l60 382q-18 11 -57 23.5t-94 12.5 q-75 0 -120 -25.5t-69.5 -78.5t-37.5 -138q-4 -27 -6.5 -47t-2.5 -37q0 -77 37 -112.5t95 -35.5z" glyph-name="a" horiz-adv-x="561" unicode="a"/>
<glyph d="M312 -6q-34 0 -69 9t-65 23.5t-52 29.5l-18 -56h-32l121 763h41l-45 -287q51 30 108 46t96 16q70 0 115 -43.5t45 -130.5q0 -24 -3 -52.5t-8 -60.5q-12 -76 -42.5 -134t-78.5 -90.5t-113 -32.5zM306 29q88 0 135 60.5t65 172.5q5 28 7.5 52t2.5 45q0 78 -36.5 111 t-91.5 33q-49 0 -99 -15.5t-101 -39.5l-57 -365q34 -19 76.5 -36.5t98.5 -17.5z" glyph-name="b" horiz-adv-x="564" unicode="b"/>
<glyph d="M275 -6q-54 0 -95.5 15.5t-65 56t-23.5 116.5q0 19 3 43t7 51q14 94 47.5 151.5t83.5 84t115 26.5q36 0 83.5 -3t85.5 -6l-5 -26h-161q-52 0 -93.5 -20.5t-71.5 -72.5t-45 -147q-4 -24 -6.5 -43.5t-2.5 -35.5q0 -63 17.5 -96.5t52 -46.5t83.5 -13h165l-4 -25 q-31 -3 -74 -6t-96 -3z" glyph-name="c" horiz-adv-x="484" unicode="c"/>
<glyph d="M249 -6q-68 0 -113 43t-45 130q0 55 10 107q15 80 41 139.5t78.5 92t145.5 32.5q46 0 84 -8.5t74 -27.5l42 261h40l-121 -763h-31v58q-23 -14 -56 -29t-70.5 -25t-78.5 -10zM257 29q56 0 105.5 17t95.5 39l60 382q-33 18 -68.5 27t-83.5 9q-77 0 -121 -26t-67 -79 t-37 -134q-4 -25 -7 -47t-3 -41q0 -54 17.5 -86t46 -46.5t62.5 -14.5z" glyph-name="d" horiz-adv-x="562" unicode="d"/>
<glyph d="M311 -6q-76 0 -124.5 20t-71.5 60.5t-23 99.5q0 32 3.5 61t7.5 57q12 77 42.5 133t85.5 86t138 30q44 0 78 -7.5t57 -23.5t36 -42.5t13 -64.5q0 -52 -22 -85.5t-59 -52.5t-83 -26.5t-95 -7.5q-53 0 -95 6t-61 11q-3 -18 -4 -37t-1 -38q0 -76 43 -110.5t145 -34.5h156 l-4 -26q-27 -2 -71.5 -5t-90.5 -3zM273 262q70 0 124 11t85 41t31 85q0 60 -36.5 84t-110.5 24q-75 0 -120.5 -27.5t-70 -80t-34.5 -126.5q25 -5 60 -8t72 -3z" glyph-name="e" horiz-adv-x="548" unicode="e"/>
<glyph d="M116 0l78 495h-85l4 27l87 10l14 84q4 22 10 48.5t20.5 50.5t42.5 39t74 15q28 0 60 -1.5t56 -4.5l-4 -28h-111q-39 0 -60.5 -15.5t-31.5 -43.5t-16 -66l-13 -78h180l-6 -37h-180l-78 -495h-41z" glyph-name="f" horiz-adv-x="364" unicode="f"/>
<glyph d="M211 -237l-152 6l5 28h158q50 0 95 14t77 45.5t40 81.5l20 120q-35 -22 -72.5 -36.5t-73.5 -21t-68 -6.5q-39 0 -73 19.5t-55 58t-21 94.5q0 26 3.5 55t7.5 58q10 64 29 112.5t50.5 80.5t79 49t115.5 17q65 0 115.5 -5.5t76.5 -10.5l-93 -589q-9 -53 -37 -87.5 t-66.5 -52.5t-81 -24.5t-79.5 -5.5zM253 29q52 0 99 13.5t106 42.5l64 411l-74 4t-75 3q-72 3 -118.5 -21.5t-73 -76t-39.5 -132.5q-4 -30 -7 -55t-3 -47q0 -73 35.5 -107.5t85.5 -34.5z" glyph-name="g" horiz-adv-x="561" unicode="g"/>
<glyph d="M76 0l121 763h41l-46 -292q46 30 103.5 49.5t121.5 19.5q67 0 101.5 -33t34.5 -95q0 -20 -3 -45l-59 -367h-41l57 359q2 12 2.5 22.5t0.5 19.5q0 56 -29 79t-82 23q-62 0 -109 -15.5t-103 -46.5l-70 -441h-41z" glyph-name="h" horiz-adv-x="568" unicode="h"/>
<glyph d="M185 637q-5 0 -8.5 3.5t-2.5 9.5l11 67q2 13 16 13h25q6 0 8.5 -4t0.5 -9l-10 -67q-2 -13 -15 -13h-25zM76 0l85 532h40l-84 -532h-41z" glyph-name="i" horiz-adv-x="194" unicode="i"/>
<glyph d="M185 637q-5 0 -8.5 3.5t-2.5 9.5l11 67q2 13 16 13h25q6 0 8.5 -4t0.5 -9l-10 -67q-2 -13 -15 -13h-25zM38 -237l123 769h40l-85 -536q-9 -58 -21 -117t-28 -116h-29z" glyph-name="j" horiz-adv-x="194" unicode="j"/>
<glyph d="M76 0l121 763h41l-73 -459q68 1 124.5 22.5t99.5 71.5t68 134h41q-20 -71 -50.5 -117.5t-66.5 -75t-74 -43.5l165 -296h-45l-157 284q-26 -7 -57 -10.5t-53 -3.5l-43 -270h-41z" glyph-name="k" horiz-adv-x="506" unicode="k"/>
<glyph d="M201 0q-51 0 -78 25.5t-27 73.5q0 23 3 43t6 38l92 583h41l-91 -576q-1 -10 -3.5 -23.5t-4 -28t-1.5 -29.5q0 -37 17.5 -53t47.5 -19l59 -6l-5 -28h-56z" glyph-name="l" horiz-adv-x="276" unicode="l"/>
<glyph d="M76 0l85 532h30l1 -61q47 28 104 48.5t118 20.5q62 0 91 -22t43 -59q50 36 112.5 58.5t125.5 22.5q66 0 103.5 -30.5t37.5 -99.5q0 -9 -1 -22t-3 -23l-59 -365h-40l58 365q2 7 2.5 17t0.5 19q0 102 -113 102q-65 0 -116 -19.5t-105 -52.5q1 -15 1 -33.5t-4 -42.5 l-57 -355h-41l57 355q2 15 3 24t1 23q0 44 -24.5 72.5t-87.5 28.5q-62 0 -109 -16.5t-103 -45.5l-70 -441h-41z" glyph-name="m" horiz-adv-x="941" unicode="m"/>
<glyph d="M76 0l85 532h30l1 -61q47 30 104 49.5t118 19.5q52 0 82.5 -17t43.5 -46t13 -64q0 -11 -1.5 -27t-7.5 -57l-53 -329h-41l52 328q6 36 7.5 50t1.5 24q0 43 -24.5 72t-87.5 29q-62 0 -109 -15.5t-103 -46.5l-70 -441h-41z" glyph-name="n" horiz-adv-x="568" unicode="n"/>
<glyph d="M280 -6q-55 0 -98 16.5t-67 55.5t-24 105q0 23 2 47t6 49q13 80 34 132.5t52.5 82.5t75.5 43t105 13q69 0 110 -20.5t59.5 -61.5t18.5 -101q0 -23 -2.5 -50t-6.5 -56q-15 -97 -46.5 -153t-84 -79t-134.5 -23zM286 29q47 0 82.5 9t61.5 33.5t44 70t30 116.5q5 29 7 53 t2 45q0 80 -35 113.5t-119 33.5q-49 0 -85 -10.5t-61.5 -36.5t-43 -74t-29.5 -124q-4 -24 -6 -45.5t-2 -40.5q0 -59 20 -89.5t54.5 -42t79.5 -11.5z" glyph-name="o" horiz-adv-x="562" unicode="o"/>
<glyph d="M38 -237l122 764q39 5 95.5 8t132.5 3q80 0 123.5 -43.5t43.5 -134.5q0 -26 -3 -52.5t-7 -48.5q-12 -80 -40.5 -139.5t-78.5 -92.5t-129 -33q-50 0 -91 8t-84 29l-43 -268h-41zM295 30q68 0 109.5 27.5t65 81t35.5 130.5q3 18 6.5 41t3.5 45q0 73 -32.5 110.5 t-101.5 37.5l-186 -2l-69 -440q36 -11 61 -18t49.5 -10t58.5 -3z" glyph-name="p" horiz-adv-x="562" unicode="p"/>
<glyph d="M406 -237l47 295q-55 -34 -114 -49t-100 -15q-67 0 -107.5 48t-40.5 125q0 26 3 53t7 56q10 65 29.5 114t51.5 81.5t81.5 49.5t120.5 17q47 0 99 -5t85 -11l-121 -759h-41zM253 29q53 0 102 15.5t103 40.5l64 411q-33 2 -66.5 4t-67.5 3q-80 3 -130 -21.5t-76.5 -77 t-39.5 -134.5q-4 -27 -7 -52t-3 -47q0 -69 34 -105.5t87 -36.5z" glyph-name="q" horiz-adv-x="561" unicode="q"/>
<glyph d="M77 0l84 532h31l-1 -63q35 26 78.5 47.5t94.5 21.5q22 0 40.5 -1.5t31.5 -6.5l-6 -41q-16 4 -34 5.5t-39 1.5q-50 0 -92 -17.5t-78 -39.5l-70 -439h-40z" glyph-name="r" horiz-adv-x="382" unicode="r"/>
<glyph d="M276 -6q-18 0 -48 0.5t-62.5 1.5t-60 3t-40.5 3l4 26h215q59 0 96 19.5t45 69.5l8 46q1 5 1 8.5v7.5q0 67 -84 67h-109q-44 0 -72.5 8.5t-42.5 26.5t-14 46q0 10 1 20t3 21l8 45q7 39 25.5 66.5t54.5 43t94 15.5q25 0 62.5 -1.5t75 -3.5t60.5 -4l-5 -25h-200 q-63 0 -91.5 -23t-37.5 -69l-7 -42q-2 -14 -3 -22.5t-1 -15.5q0 -27 22.5 -38t73.5 -11h109q52 0 85 -25t33 -74q0 -6 -0.5 -12t-1.5 -13l-8 -49q-10 -64 -59.5 -90t-128.5 -26z" glyph-name="s" horiz-adv-x="503" unicode="s"/>
<glyph d="M261 0q-60 0 -90 28.5t-30 80.5q0 22 3 42t7 41l50 305h-85l3 26l86 9l34 149h30l-24 -149h168l-5 -35h-168l-49 -305q-3 -18 -5.5 -38.5t-2.5 -38.5q0 -37 18.5 -56.5t58.5 -23.5l66 -6l-5 -29h-60z" glyph-name="t" horiz-adv-x="372" unicode="t"/>
<glyph d="M238 -6q-70 0 -104.5 33t-34.5 90q0 15 1.5 28.5t2.5 23.5l57 363h41l-57 -364q-1 -9 -2.5 -18.5t-1.5 -20.5q0 -46 26.5 -72t86.5 -26q61 0 108.5 15.5t102.5 44.5l70 441h41l-84 -532h-32l1 61q-31 -19 -64.5 -34t-72 -24t-85.5 -9z" glyph-name="u" horiz-adv-x="568" unicode="u"/>
<glyph d="M231 0l-130 532h42l116 -488l215 378q17 29 26 57t15 61h32q0 -32 -10.5 -66.5t-31.5 -71.5l-230 -402h-44z" glyph-name="v" horiz-adv-x="532" unicode="v"/>
<glyph d="M210 0l-109 532h42l97 -485l206 485h36l86 -487l188 393q6 12 12.5 29.5t12 37t7.5 35.5h33q0 -18 -4.5 -39.5t-11.5 -42.5t-17 -41l-204 -417h-44l-83 471l-204 -471h-43z" glyph-name="w" horiz-adv-x="805" unicode="w"/>
<glyph d="M431 0l-145 249l-163 283h42l150 -258l158 -274h-42zM40 0l244 279l12 -39l-211 -240h-45zM314 253l-14 37l210 242h46z" glyph-name="x" horiz-adv-x="513" unicode="x"/>
<glyph d="M97 -237v33q42 11 94 56.5t100 147.5q-23 3 -45 11t-39 31.5t-27 72.5l-78 417h42l74 -408q7 -36 20.5 -54t31.5 -24t38 -8l193 410q8 19 17 43.5t11 48.5h33q0 -27 -5.5 -54t-20.5 -59l-204 -425q-39 -83 -77 -132.5t-76.5 -74t-81.5 -32.5z" glyph-name="y" horiz-adv-x="547" unicode="y"/>
<glyph d="M62 1l5 33l396 463h-337l5 35h384l-5 -34l-397 -462h342l-0.5 -4t-1.5 -9l-2 -10t-1.5 -8.5l-0.5 -3.5h-387z" glyph-name="z" horiz-adv-x="497" unicode="z"/>
<glyph d="M269 -210q-59 0 -90.5 16t-43.5 43t-12 58q0 15 5 51t13 81t16 89.5t13 77.5t5 43q0 34 -18 49t-60 15l7 41q17 2 38 8t38.5 20.5t21.5 42.5l36 231q10 60 30 101t60.5 63t107.5 22l-6 -35q-41 0 -71 -10.5t-49.5 -44t-30.5 -100.5l-36 -230q-7 -38 -34.5 -60.5 t-62.5 -27.5q36 -4 54 -26t18 -50q0 -7 -4 -32t-10 -60t-12.5 -74l-12.5 -75t-10 -62t-4 -36q0 -54 27.5 -74.5t81.5 -20.5z" glyph-name="braceleft" horiz-adv-x="306" unicode="{"/>
<glyph d="M97 -72l133 842h37l-133 -842h-37z" glyph-name="bar" horiz-adv-x="254" unicode="|"/>
<glyph d="M-5 -210l5 34q44 0 74 13t49 44t28 84l42 264q5 33 29.5 56.5t65.5 28.5q-30 4 -50 23t-20 50q0 13 4.5 45.5t11.5 74t13.5 83t11 73t4.5 42.5q0 57 -28 79.5t-79 22.5l6 35q55 0 86 -17t44 -46.5t13 -66.5q0 -6 -3.5 -29.5t-8.5 -57t-11 -71t-10.5 -72t-8 -58.5 t-3.5 -30q0 -23 12.5 -35.5t30.5 -17.5t33 -7l-6 -41q-34 0 -62.5 -16t-35.5 -55l-41 -260q-4 -31 -14.5 -62t-31.5 -56t-57 -39.5t-93 -14.5z" glyph-name="braceright" horiz-adv-x="306" unicode="}"/>
<glyph d="M382 540q-16 0 -31 10.5t-29 24t-28 24t-26 10.5q-28 0 -54 -14t-55 -34l-4 14q29 23 58 41t59 18q15 0 30 -10.5t29.5 -24t28.5 -24t26 -10.5q20 0 39.5 9t37 21t30.5 22l6 -14q-28 -25 -56 -44t-61 -19z" glyph-name="asciitilde" horiz-adv-x="466" unicode="~"/>
<glyph glyph-name="uni00A0" horiz-adv-x="236" unicode=" "/>
<glyph d="M200 335l-79 -535h-41l92 535h28zM229 532q11 0 11 -11v-1v-1l-11 -67q-1 -13 -15 -13h-22q-11 0 -11 9v2.5v1.5l11 67q1 7 5.5 10t10.5 3h21z" glyph-name="exclamdown" horiz-adv-x="262" unicode="¡"/>
<glyph d="M235 -83l12 78q-45 1 -82 14.5t-59 51t-22 106.5q0 73 18 139.5t51.5 118t79.5 81.5t100 30l14 84h27l-14 -85q35 -2 76 -9t75 -17l-4 -24q-37 7 -78.5 12t-90.5 5q-48 0 -87.5 -27t-67.5 -74t-43 -107t-15 -126q0 -57 16.5 -87t46 -41t70.5 -11q39 0 69 3t58 7.5 t59 11.5l-3 -26q-50 -15 -86.5 -20.5t-80.5 -8.5l-12 -79h-27z" glyph-name="cent" horiz-adv-x="488" unicode="¢"/>
<glyph d="M67 0l5 29l118 8l49 307l-117 4l3 23l120 6l24 153q13 84 45 128t78.5 60t103.5 16q37 0 75 -2.5t64 -4.5l-6 -30h-137q-50 0 -87 -12.5t-60.5 -48t-34.5 -104.5l-24 -155l231 -5l-4 -24l-233 -4l-49 -307h310l-5 -37h-469z" glyph-name="sterling" unicode="£"/>
<glyph d="M339 198q-39 0 -70 18.5t-49 49.5t-18 69q0 52 24 92.5t65 63.5t92 23q40 0 71 -18.5t49 -49.5t18 -69q0 -51 -24.5 -92t-65.5 -64t-92 -23zM129 136l-19 23l125 108l20 -23zM524 136l-90 106l26 23l89 -106zM341 229q41 0 74.5 17t54 50t20.5 79t-30.5 77t-78.5 31 q-40 0 -73.5 -18.5t-53.5 -51t-20 -76.5q0 -45 30 -76.5t77 -31.5zM260 449l-87 104l25 23l88 -104zM489 447l-19 23l123 106l19 -23z" glyph-name="currency" unicode="¤"/>
<glyph d="M92 260l6 31h449l-5 -31h-450zM74 141l5 31h450l-6 -31h-449zM256 0l40 254l-164 479h45l146 -429l302 429h48l-336 -479l-40 -254h-41z" glyph-name="yen" unicode="¥"/>
<glyph d="M176 429l54 341h37l-54 -341h-37zM97 -72l52 328h37l-52 -328h-37z" glyph-name="brokenbar" horiz-adv-x="254" unicode="¦"/>
<glyph d="M316 -6q-18 0 -47 0.5t-61.5 1.5t-60 2.5t-40.5 2.5l5 28h206q56 0 86 11.5t43 31t17 44.5q7 44 10.5 64.5t3.5 29.5q0 24 -19 32t-74 8h-142q-67 0 -98 18.5t-31 56.5q0 6 1 14.5t3 23.5l8 46q8 49 28 67.5t52 24.5q-25 9 -34 25.5t-9 39.5q0 7 1 14t2 18l9 60 q8 48 29.5 75.5t57.5 39t87 11.5q18 0 49 -0.5t66.5 -1t65 -2t42.5 -3.5l-3 -28h-222q-36 0 -63.5 -6.5t-44.5 -27t-24 -60.5t-9.5 -57.5t-2.5 -24.5q0 -31 23 -40t66 -9h160q64 0 88.5 -16.5t24.5 -54.5q0 -16 -3 -34l-9 -59q-7 -44 -24 -63.5t-53 -24.5q26 -7 34.5 -21.5 t8.5 -33.5q0 -8 -1 -18.5t-5 -31.5l-9 -52q-6 -45 -30 -71.5t-64 -38t-94 -11.5zM254 284h137q50 0 73.5 4t33 19t14.5 49l10 59q1 7 1.5 13.5t0.5 11.5q0 30 -18 39.5t-64 9.5h-155q-63 0 -88 -15t-32 -61l-10 -58q-1 -5 -1.5 -9t-0.5 -9q0 -25 21 -39t78 -14z" glyph-name="section" horiz-adv-x="556" unicode="§"/>
<glyph d="M394 662q-11 0 -11 11q0 1 0.5 4t2.5 17.5t8 47.5q2 13 16 13h19q11 0 11 -10l-0.5 -3.5t-3.5 -17.5t-8 -49q-1 -13 -15 -13h-19zM187 662q-11 0 -11 11q0 1 0.5 4t2.5 17.5t8 47.5q2 13 16 13h19q11 0 11 -10l-0.5 -3.5t-3.5 -17.5t-8 -49q-1 -13 -15 -13h-19z" glyph-name="dieresis" horiz-adv-x="421" unicode="¨"/>
<glyph d="M317 0q-55 0 -93 24.5t-61.5 64.5t-33.5 89.5t-10 98.5q0 69 16.5 135.5t46.5 124t69.5 101.5t85.5 69t93 25h248q66 0 105.5 -33t57 -86.5t17.5 -116.5q0 -97 -24 -186t-65 -159t-94 -110.5t-110 -40.5h-248zM415 147q-33 0 -60 11.5t-42.5 42t-15.5 85.5q0 64 15 118 t41.5 94t60 62.5t70.5 22.5q21 0 51 -2t63.5 -6t60.5 -10l-4 -17q-29 5 -63 7.5t-62.5 3.5t-45.5 1q-33 0 -63 -22.5t-52 -61t-34 -86.5t-12 -100q0 -58 23 -89t76 -31t99.5 4t82.5 12l-2 -17q-49 -14 -93.5 -18t-93.5 -4zM318 23h249q53 0 100.5 38.5t85 104.5t59 150.5 t21.5 175.5q0 63 -15.5 112t-49.5 77t-91 28h-250q-50 0 -100 -34t-91.5 -93t-66.5 -137t-25 -166q0 -49 8.5 -95t28.5 -82.5t53.5 -57.5t83.5 -21z" glyph-name="copyright" horiz-adv-x="857" unicode="©"/>
<glyph d="M96 269l4 26h318l-4 -26h-318zM233 356q-52 0 -87.5 30.5t-35.5 100.5q0 17 2.5 37t5.5 36q16 102 61.5 149t139.5 47q36 0 78 -9.5t69 -32.5l-56 -354h-29v42q-11 -7 -35.5 -18t-54.5 -19.5t-58 -8.5zM242 386q41 0 75 12.5t67 28.5l44 274q-14 7 -42.5 16t-67.5 9 q-55 0 -88 -18t-50 -56t-27 -99q-8 -38 -8 -62q0 -54 27 -79.5t70 -25.5z" glyph-name="ordfeminine" horiz-adv-x="407" unicode="ª"/>
<glyph d="M276 69l-179 210l241 205l20 -24l-214 -183l158 -185zM526 69l-179 210l241 205l20 -24l-214 -183l158 -185z" glyph-name="guillemotleft" horiz-adv-x="606" unicode="«"/>
<glyph d="M526 218l43 268h37l-43 -268h-37zM153 458l6 36h448l-6 -36h-448z" glyph-name="logicalnot" unicode="¬"/>
<glyph d="M67 272l6 36h287l-6 -36h-287z" glyph-name="uni00AD" horiz-adv-x="333" unicode="­"/>
<glyph d="M317 0q-55 0 -93 24.5t-61.5 64.5t-33.5 89.5t-10 98.5q0 69 16.5 135.5t46.5 124t69.5 101.5t85.5 69t93 25h248q66 0 105.5 -33t57 -86.5t17.5 -116.5q0 -97 -24 -186t-65 -159t-94 -110.5t-110 -40.5h-248zM304 153l68 427h178q29 0 54 -7t39.5 -26.5t14.5 -57.5 t-16.5 -70.5t-45 -52.5t-65.5 -23l78 -190h-23l-77 189l-150 5l-31 -194h-24zM318 23h249q53 0 100.5 38.5t85 104.5t59 150.5t21.5 175.5q0 63 -15.5 112t-49.5 77t-91 28h-250q-50 0 -100 -34t-91.5 -93t-66.5 -137t-25 -166q0 -49 8.5 -95t28.5 -82.5t53.5 -57.5 t83.5 -21zM362 363h158q33 0 58.5 17t40.5 44.5t15 58.5q0 42 -22 58t-60 16h-159z" glyph-name="registered" horiz-adv-x="857" unicode="®"/>
<glyph d="M172 685l5 25h256l-5 -25h-256z" glyph-name="macron" horiz-adv-x="383" unicode="¯"/>
<glyph d="M249 506q-48 0 -78 29t-30 74q0 44 19 77.5t52 52t77 18.5q48 0 76.5 -29t28.5 -75q0 -44 -18 -77.5t-51 -51.5t-76 -18zM252 527q53 0 86.5 35t33.5 88q0 38 -23.5 62t-63.5 24q-53 0 -87.5 -36t-34.5 -87q0 -38 24.5 -62t64.5 -24z" glyph-name="degree" horiz-adv-x="335" unicode="°"/>
<glyph d="M102 138l6 36h448l-6 -36h-448zM331 282l70 448h37l-70 -448h-37zM158 488l6 36h448l-6 -36h-448z" glyph-name="plusminus" unicode="±"/>
<glyph d="M107 355l3 29l219 177q63 51 86.5 96t23.5 87q0 30 -22.5 50t-85.5 20h-132l4 25q30 3 67.5 5t74.5 2q72 0 101.5 -26t29.5 -68q0 -49 -26.5 -101t-95.5 -109l-191 -155h276l-5 -32h-327z" glyph-name="uni00B2" horiz-adv-x="420" unicode="²"/>
<glyph d="M274 351q-53 0 -98.5 2t-76.5 5l4 25h167q30 0 56 7t44 25.5t22 52.5l7 37q0 4 0.5 7.5t0.5 7.5q0 24 -13 37.5t-32 20t-38 6.5l-130 5l5 24l129 4q39 2 66 18t34 54l6 40q1 5 1 9v8q0 32 -23.5 50t-71.5 18h-143l4 25q29 3 68 5t88 2q59 0 86.5 -25.5t27.5 -64.5v-10.5 t-2 -12.5l-6 -43q-5 -33 -22.5 -51.5t-36 -27t-31.5 -10.5q12 -3 28.5 -11t29 -25t12.5 -44q0 -4 -0.5 -9t-1.5 -10l-6 -38q-9 -56 -48.5 -84.5t-105.5 -28.5z" glyph-name="uni00B3" horiz-adv-x="420" unicode="³"/>
<glyph d="M125 631l136 134h40l-151 -134h-25z" glyph-name="acute" horiz-adv-x="205" unicode="´"/>
<glyph d="M255 -6q-36 0 -63.5 10t-45 28.5t-26.5 44t-9 56.5q0 12 1 23.5t2 23.5l56 353h41l-58 -368q-1 -10 -2 -19t-1 -18q0 -56 33 -76.5t86 -20.5q58 0 104 14.5t101 42.5l70 445h41l-84 -533h-29l-1 61q-45 -28 -101 -47.5t-115 -19.5zM44 -268l78 491h41l-78 -491h-41z" glyph-name="uni00B5" horiz-adv-x="584" unicode="µ"/>
<glyph d="M245 -270l94 594q-8 -5 -31.5 -7.5t-52.5 -2.5q-72 0 -107 36t-35 88q0 8 1 15t2 16l20 124q8 48 36.5 79t68.5 46t82 15h342l-6 -36h-85l-110 -697h-34l110 699h-108l-153 -969h-34zM263 348h80l55 351h-80q-64 0 -103 -31.5t-47 -79.5l-17 -116q-1 -8 -2 -14.5 t-1 -12.5q0 -43 18 -63.5t44.5 -27t52.5 -6.5z" glyph-name="paragraph" horiz-adv-x="572" unicode="¶"/>
<glyph d="M146 358q-5 0 -8.5 4t-2.5 9l4 23q2 13 15 13h22q13 0 10 -13l-3 -23q-1 -6 -5 -9.5t-10 -3.5h-22z" glyph-name="periodcentered" horiz-adv-x="279" unicode="·"/>
<glyph d="M35 -185l3 17l25 2q25 2 40.5 13t23.5 24t8 23q0 16 -14 27t-57 12l22 10q40 0 57 -12.5t17 -36.5q0 -15 -11 -33.5t-33.5 -32t-56.5 -13.5h-24zM64 -67l65 78h21l-65 -78h-21z" glyph-name="cedilla" horiz-adv-x="264" unicode="¸"/>
<glyph d="M255 355l73 458l-128 -35l5 23l131 46h32l-78 -492h-35zM126 355l5 31h293l-5 -31h-293z" glyph-name="uni00B9" horiz-adv-x="420" unicode="¹"/>
<glyph d="M96 269l4 26h318l-4 -26h-318zM254 356q-41 0 -73.5 12t-50.5 41t-18 78q0 17 1.5 34.5t4.5 36.5q13 78 36 121t63.5 60t100.5 17q52 0 83 -15t45.5 -45.5t14.5 -74.5q0 -17 -2 -37t-5 -41q-11 -72 -34.5 -112.5t-63.5 -57.5t-102 -17zM260 386q46 0 77 12.5t50.5 48 t30.5 103.5q3 21 4.5 38.5t1.5 32.5q0 57 -25.5 81t-86.5 24q-48 0 -79 -14t-49.5 -51.5t-31.5 -109.5q-2 -19 -3 -34t-1 -29q0 -42 14 -64t39.5 -30t58.5 -8z" glyph-name="ordmasculine" horiz-adv-x="434" unicode="º"/>
<glyph d="M85 69l-19 24l214 182l-159 187l27 22l178 -210zM335 69l-19 24l214 182l-159 187l27 22l178 -210z" glyph-name="guillemotright" horiz-adv-x="606" unicode="»"/>
<glyph d="M341 0l506 770h31l-506 -770h-31zM998 -6l22 131h-241l-6 23l250 332h38l-245 -324h208l23 144l15 41h27l-30 -185h75l-4 -24l-75 -7l-22 -131h-35zM264 355l73 458l-128 -35l5 23l131 46h32l-78 -492h-35zM135 355l5 31h293l-5 -31h-293z" glyph-name="onequarter" horiz-adv-x="1146" unicode="¼"/>
<glyph d="M341 0l506 770h31l-506 -770h-31zM754 -7l3 29l219 177q63 51 86.5 96t23.5 87q0 30 -22.5 50t-85.5 20h-132l4 25q30 3 67.5 5t74.5 2q72 0 101.5 -26t29.5 -68q0 -49 -26.5 -101t-95.5 -109l-191 -155h276l-5 -32h-327zM264 355l73 458l-128 -35l5 23l131 46h32 l-78 -492h-35zM135 355l5 31h293l-5 -31h-293z" glyph-name="onehalf" horiz-adv-x="1146" unicode="½"/>
<glyph d="M341 0l506 770h31l-506 -770h-31zM998 -5l22 131h-241l-6 23l250 332h38l-245 -324h208l23 144l15 41h27l-30 -185h75l-4 -24l-75 -7l-22 -131h-35zM284 351q-53 0 -98.5 2t-76.5 5l4 25h167q30 0 56 7t44 25.5t22 52.5l7 37q0 4 0.5 7.5t0.5 7.5q0 24 -13 37.5t-32 20 t-38 6.5l-130 5l5 24l129 4q39 2 66 18t34 54l6 40q1 5 1 9v8q0 32 -23.5 50t-71.5 18h-143l4 25q29 3 68 5t88 2q59 0 86.5 -25.5t27.5 -64.5v-10.5t-2 -12.5l-6 -43q-5 -33 -22.5 -51.5t-36 -27t-31.5 -10.5q12 -3 28.5 -11t29 -25t12.5 -44q0 -4 -0.5 -9t-1.5 -10l-6 -38 q-9 -56 -48.5 -84.5t-105.5 -28.5z" glyph-name="threequarters" horiz-adv-x="1146" unicode="¾"/>
<glyph d="M387 336l-22 -136h-40q-65 0 -106 -12t-63.5 -41t-30.5 -80l-12 -75q-3 -14 -4 -27.5t-1 -25.5q0 -59 31 -84t98 -25q54 0 103 10t108 31l-4 -27q-61 -29 -117 -40t-108 -11q-84 0 -118.5 36t-34.5 99q0 29 5 61l13 78q14 86 72.5 127.5t180.5 41.5l16 100h34zM408 532 q11 0 11 -11v-1v-1l-11 -67q-1 -13 -15 -13h-21q-11 0 -11 9v2.5v1.5l10 67q2 7 6 10t10 3h21z" glyph-name="questiondown" horiz-adv-x="532" unicode="¿"/>
<glyph d="M42 0l385 733h55l141 -733h-42l-47 240h-322l-128 -240h-42zM230 278h298l-80 415zM465 791l-109 134h38l95 -134h-24z" glyph-name="Agrave" horiz-adv-x="665" unicode="À"/>
<glyph d="M42 0l385 733h55l141 -733h-42l-47 240h-322l-128 -240h-42zM230 278h298l-80 415zM432 791l136 134h40l-151 -134h-25z" glyph-name="Aacute" horiz-adv-x="665" unicode="Á"/>
<glyph d="M42 0l385 733h55l141 -733h-42l-47 240h-322l-128 -240h-42zM230 278h298l-80 415zM309 791l150 132h31l96 -132h-27l-89 110l-134 -110h-27z" glyph-name="Acircumflex" horiz-adv-x="665" unicode="Â"/>
<glyph d="M42 0l385 733h55l141 -733h-42l-47 240h-322l-128 -240h-42zM230 278h298l-80 415zM312 817q9 53 40.5 73.5t64.5 20.5q23 0 42.5 -10.5t36.5 -24t35.5 -23.5t38.5 -10q29 0 50.5 17.5t27.5 51.5h22q-7 -43 -33.5 -68.5t-70.5 -25.5q-22 0 -40.5 10t-36 24t-36.5 24 t-41 10q-27 0 -50 -16t-28 -53h-22z" glyph-name="Atilde" horiz-adv-x="665" unicode="Ã"/>
<glyph d="M42 0l385 733h55l141 -733h-42l-47 240h-322l-128 -240h-42zM230 278h298l-80 415zM536 822q-11 0 -11 11q0 1 0.5 4t2.5 17.5t8 47.5q2 13 16 13h19q11 0 11 -10l-0.5 -3.5t-3.5 -17.5t-8 -49q-1 -13 -15 -13h-19zM329 822q-11 0 -11 11q0 1 0.5 4t2.5 17.5t8 47.5 q2 13 16 13h19q11 0 11 -10l-0.5 -3.5t-3.5 -17.5t-8 -49q-1 -13 -15 -13h-19z" glyph-name="Adieresis" horiz-adv-x="665" unicode="Ä"/>
<glyph d="M42 0l385 733h55l141 -733h-42l-47 240h-322l-128 -240h-42zM230 278h298l-80 415zM458 778q-37 0 -65 18.5t-28 66.5q0 32 14.5 60t42 45.5t67.5 17.5q35 0 62 -19t27 -65q0 -50 -30.5 -87t-89.5 -37zM459 799q50 0 73 30.5t23 70.5q0 38 -21.5 51.5t-46.5 13.5 q-51 0 -75 -30.5t-24 -71.5q0 -37 22 -50.5t49 -13.5z" glyph-name="Aring" horiz-adv-x="665" unicode="Å"/>
<glyph d="M625 -3q-26 -1 -51.5 2.5t-45 16t-29.5 37.5t-3 66l19 120h-254l-188 -239h-45l459 586q41 53 74 85.5t70.5 47.5t93.5 14q66 -1 133.5 -2.5t136.5 -4.5l-6 -31h-266q-41 0 -63 -7.5t-31.5 -21.5t-12.5 -35t-8 -49l-32 -200l323 -3l-5 -30l-324 -4l-34 -212 q-6 -44 6.5 -64.5t36.5 -27t50 -6.5h256l-5 -31q-26 -1 -52.5 -2t-52.5 -1.5l-52 -1t-50.5 -1t-47.5 -1.5zM288 275h232l59 373z" glyph-name="AE" horiz-adv-x="907" unicode="Æ"/>
<glyph d="M307 -6q-104 0 -150 56t-46 165q0 39 5 83t11 80q18 115 53 196t93.5 123t144.5 42q72 0 124.5 -8t93.5 -17l-7 -29q-49 8 -99 12.5t-110 4.5q-55 0 -95.5 -20t-70.5 -61t-51 -104.5t-35 -150.5q-6 -35 -10.5 -76.5t-4.5 -74.5q0 -97 37 -140.5t126 -43.5q78 0 124 3.5 t87 10.5l-5 -30q-48 -11 -105 -16t-110 -5zM219 -194l3 17l25 2q25 2 40.5 13t23.5 24t8 23q0 16 -14 27t-57 12l22 10q40 0 57 -12.5t17 -36.5q0 -15 -11 -33.5t-33.5 -32t-56.5 -13.5h-24zM248 -76l65 78h21l-65 -78h-21z" glyph-name="Ccedilla" horiz-adv-x="589" unicode="Ç"/>
<glyph d="M219 -6q-25 0 -49.5 5t-43 20t-27 42.5t-1.5 70.5l75 470q8 51 31.5 80t55.5 40.5t66 10.5q74 -1 148.5 -2.5t148.5 -4.5l-5 -31h-292q-44 0 -74.5 -22.5t-39.5 -79.5l-33 -210l348 -6l-6 -30l-349 -2l-32 -212q-6 -43 4.5 -64.5t33 -29t53.5 -7.5h284l-5 -31 q-72 -1 -144.5 -3t-146.5 -4zM433 791l-109 134h38l95 -134h-24z" glyph-name="Egrave" horiz-adv-x="569" unicode="È"/>
<glyph d="M219 -6q-25 0 -49.5 5t-43 20t-27 42.5t-1.5 70.5l75 470q8 51 31.5 80t55.5 40.5t66 10.5q74 -1 148.5 -2.5t148.5 -4.5l-5 -31h-292q-44 0 -74.5 -22.5t-39.5 -79.5l-33 -210l348 -6l-6 -30l-349 -2l-32 -212q-6 -43 4.5 -64.5t33 -29t53.5 -7.5h284l-5 -31 q-72 -1 -144.5 -3t-146.5 -4zM400 791l136 134h40l-151 -134h-25z" glyph-name="Eacute" horiz-adv-x="569" unicode="É"/>
<glyph d="M219 -6q-25 0 -49.5 5t-43 20t-27 42.5t-1.5 70.5l75 470q8 51 31.5 80t55.5 40.5t66 10.5q74 -1 148.5 -2.5t148.5 -4.5l-5 -31h-292q-44 0 -74.5 -22.5t-39.5 -79.5l-33 -210l348 -6l-6 -30l-349 -2l-32 -212q-6 -43 4.5 -64.5t33 -29t53.5 -7.5h284l-5 -31 q-72 -1 -144.5 -3t-146.5 -4zM277 791l150 132h31l96 -132h-27l-89 110l-134 -110h-27z" glyph-name="Ecircumflex" horiz-adv-x="569" unicode="Ê"/>
<glyph d="M219 -6q-25 0 -49.5 5t-43 20t-27 42.5t-1.5 70.5l75 470q8 51 31.5 80t55.5 40.5t66 10.5q74 -1 148.5 -2.5t148.5 -4.5l-5 -31h-292q-44 0 -74.5 -22.5t-39.5 -79.5l-33 -210l348 -6l-6 -30l-349 -2l-32 -212q-6 -43 4.5 -64.5t33 -29t53.5 -7.5h284l-5 -31 q-72 -1 -144.5 -3t-146.5 -4zM504 822q-11 0 -11 11q0 1 0.5 4t2.5 17.5t8 47.5q2 13 16 13h19q11 0 11 -10l-0.5 -3.5t-3.5 -17.5t-8 -49q-1 -13 -15 -13h-19zM297 822q-11 0 -11 11q0 1 0.5 4t2.5 17.5t8 47.5q2 13 16 13h19q11 0 11 -10l-0.5 -3.5t-3.5 -17.5t-8 -49 q-1 -13 -15 -13h-19z" glyph-name="Edieresis" horiz-adv-x="569" unicode="Ë"/>
<glyph d="M78 0l116 733h41l-117 -733h-40zM230 791l-109 134h38l95 -134h-24z" glyph-name="Igrave" horiz-adv-x="196" unicode="Ì"/>
<glyph d="M78 0l116 733h41l-117 -733h-40zM197 791l136 134h40l-151 -134h-25z" glyph-name="Iacute" horiz-adv-x="196" unicode="Í"/>
<glyph d="M78 0l116 733h41l-117 -733h-40zM73 791l150 132h31l96 -132h-27l-89 110l-134 -110h-27z" glyph-name="Icircumflex" horiz-adv-x="196" unicode="Î"/>
<glyph d="M78 0l116 733h41l-117 -733h-40zM301 822q-11 0 -11 11q0 1 0.5 4t2.5 17.5t8 47.5q2 13 16 13h19q11 0 11 -10l-0.5 -3.5t-3.5 -17.5t-8 -49q-1 -13 -15 -13h-19zM94 822q-11 0 -11 11q0 1 0.5 4t2.5 17.5t8 47.5q2 13 16 13h19q11 0 11 -10l-0.5 -3.5t-3.5 -17.5 t-8 -49q-1 -13 -15 -13h-19z" glyph-name="Idieresis" horiz-adv-x="196" unicode="Ï"/>
<glyph d="M61 357l6 32h324l-6 -32h-324zM78 0l116 733h256q82 0 129.5 -29t67.5 -85.5t20 -140.5q0 -31 -3 -62.5t-8 -61.5q-12 -75 -35.5 -139t-61.5 -112.5t-92.5 -75.5t-127.5 -27h-261zM124 37h216q65 0 112 26t80 71.5t53.5 104.5t30.5 126q5 32 8 61.5t3 53.5 q0 71 -16.5 119t-56.5 72.5t-114 24.5h-212z" glyph-name="Eth" horiz-adv-x="666" unicode="Ð"/>
<glyph d="M78 0l116 733h35l319 -663l106 663h41l-117 -733h-35l-319 664l-106 -664h-40zM301 817q9 53 40.5 73.5t64.5 20.5q23 0 42.5 -10.5t36.5 -24t35.5 -23.5t38.5 -10q29 0 50.5 17.5t27.5 51.5h22q-7 -43 -33.5 -68.5t-70.5 -25.5q-22 0 -40.5 10t-36 24t-36.5 24t-41 10 q-27 0 -50 -16t-28 -53h-22z" glyph-name="Ntilde" horiz-adv-x="655" unicode="Ñ"/>
<glyph d="M337 -6q-54 0 -96 8.5t-71.5 31t-45 63.5t-15.5 106q0 35 4 76.5t12 91.5q18 113 45.5 185.5t67.5 112t94.5 55t125.5 15.5q53 0 95 -9.5t72 -34t45.5 -66.5t15.5 -108q0 -34 -4 -76.5t-12 -92.5q-18 -113 -46.5 -183.5t-68.5 -108.5t-94 -52t-124 -14zM346 31 q61 0 107 13t79 47.5t56.5 99.5t40.5 170q8 49 11.5 89t3.5 72q0 76 -23 114.5t-66 52t-104 13.5q-60 0 -106 -13.5t-80 -49.5t-58 -103t-41 -174q-7 -48 -11.5 -87.5t-4.5 -70.5q0 -72 21.5 -109.5t64.5 -50.5t110 -13zM476 791l-109 134h38l95 -134h-24z" glyph-name="Ograve" horiz-adv-x="681" unicode="Ò"/>
<glyph d="M337 -6q-54 0 -96 8.5t-71.5 31t-45 63.5t-15.5 106q0 35 4 76.5t12 91.5q18 113 45.5 185.5t67.5 112t94.5 55t125.5 15.5q53 0 95 -9.5t72 -34t45.5 -66.5t15.5 -108q0 -34 -4 -76.5t-12 -92.5q-18 -113 -46.5 -183.5t-68.5 -108.5t-94 -52t-124 -14zM346 31 q61 0 107 13t79 47.5t56.5 99.5t40.5 170q8 49 11.5 89t3.5 72q0 76 -23 114.5t-66 52t-104 13.5q-60 0 -106 -13.5t-80 -49.5t-58 -103t-41 -174q-7 -48 -11.5 -87.5t-4.5 -70.5q0 -72 21.5 -109.5t64.5 -50.5t110 -13zM443 791l136 134h40l-151 -134h-25z" glyph-name="Oacute" horiz-adv-x="681" unicode="Ó"/>
<glyph d="M337 -6q-54 0 -96 8.5t-71.5 31t-45 63.5t-15.5 106q0 35 4 76.5t12 91.5q18 113 45.5 185.5t67.5 112t94.5 55t125.5 15.5q53 0 95 -9.5t72 -34t45.5 -66.5t15.5 -108q0 -34 -4 -76.5t-12 -92.5q-18 -113 -46.5 -183.5t-68.5 -108.5t-94 -52t-124 -14zM346 31 q61 0 107 13t79 47.5t56.5 99.5t40.5 170q8 49 11.5 89t3.5 72q0 76 -23 114.5t-66 52t-104 13.5q-60 0 -106 -13.5t-80 -49.5t-58 -103t-41 -174q-7 -48 -11.5 -87.5t-4.5 -70.5q0 -72 21.5 -109.5t64.5 -50.5t110 -13zM319 791l150 132h31l96 -132h-27l-89 110l-134 -110 h-27z" glyph-name="Ocircumflex" horiz-adv-x="681" unicode="Ô"/>
<glyph d="M337 -6q-54 0 -96 8.5t-71.5 31t-45 63.5t-15.5 106q0 35 4 76.5t12 91.5q18 113 45.5 185.5t67.5 112t94.5 55t125.5 15.5q53 0 95 -9.5t72 -34t45.5 -66.5t15.5 -108q0 -34 -4 -76.5t-12 -92.5q-18 -113 -46.5 -183.5t-68.5 -108.5t-94 -52t-124 -14zM346 31 q61 0 107 13t79 47.5t56.5 99.5t40.5 170q8 49 11.5 89t3.5 72q0 76 -23 114.5t-66 52t-104 13.5q-60 0 -106 -13.5t-80 -49.5t-58 -103t-41 -174q-7 -48 -11.5 -87.5t-4.5 -70.5q0 -72 21.5 -109.5t64.5 -50.5t110 -13zM323 817q9 53 40.5 73.5t64.5 20.5q23 0 42.5 -10.5 t36.5 -24t35.5 -23.5t38.5 -10q29 0 50.5 17.5t27.5 51.5h22q-7 -43 -33.5 -68.5t-70.5 -25.5q-22 0 -40.5 10t-36 24t-36.5 24t-41 10q-27 0 -50 -16t-28 -53h-22z" glyph-name="Otilde" horiz-adv-x="681" unicode="Õ"/>
<glyph d="M337 -6q-54 0 -96 8.5t-71.5 31t-45 63.5t-15.5 106q0 35 4 76.5t12 91.5q18 113 45.5 185.5t67.5 112t94.5 55t125.5 15.5q53 0 95 -9.5t72 -34t45.5 -66.5t15.5 -108q0 -34 -4 -76.5t-12 -92.5q-18 -113 -46.5 -183.5t-68.5 -108.5t-94 -52t-124 -14zM346 31 q61 0 107 13t79 47.5t56.5 99.5t40.5 170q8 49 11.5 89t3.5 72q0 76 -23 114.5t-66 52t-104 13.5q-60 0 -106 -13.5t-80 -49.5t-58 -103t-41 -174q-7 -48 -11.5 -87.5t-4.5 -70.5q0 -72 21.5 -109.5t64.5 -50.5t110 -13zM547 822q-11 0 -11 11q0 1 0.5 4t2.5 17.5t8 47.5 q2 13 16 13h19q11 0 11 -10l-0.5 -3.5t-3.5 -17.5t-8 -49q-1 -13 -15 -13h-19zM340 822q-11 0 -11 11q0 1 0.5 4t2.5 17.5t8 47.5q2 13 16 13h19q11 0 11 -10l-0.5 -3.5t-3.5 -17.5t-8 -49q-1 -13 -15 -13h-19z" glyph-name="Odieresis" horiz-adv-x="681" unicode="Ö"/>
<glyph d="M189 184l-22 27l367 317l22 -27zM480 184l-267 317l30 27l267 -317z" glyph-name="multiply" unicode="×"/>
<glyph d="M62 0l640 733h33l-640 -733h-33zM337 -6q-54 0 -96 8.5t-71.5 31t-45 63.5t-15.5 106q0 35 4 76.5t12 91.5q18 113 45.5 185.5t67.5 112t94.5 55t125.5 15.5q53 0 95 -9.5t72 -34t45.5 -66.5t15.5 -108q0 -34 -4 -76.5t-12 -92.5q-18 -113 -46.5 -183.5t-68.5 -108.5 t-94 -52t-124 -14zM346 31q61 0 107 13t79 47.5t56.5 99.5t40.5 170q8 49 11.5 89t3.5 72q0 76 -23 114.5t-66 52t-104 13.5q-60 0 -106 -13.5t-80 -49.5t-58 -103t-41 -174q-7 -48 -11.5 -87.5t-4.5 -70.5q0 -72 21.5 -109.5t64.5 -50.5t110 -13z" glyph-name="Oslash" horiz-adv-x="681" unicode="Ø"/>
<glyph d="M335 -6q-106 0 -162 44t-56 152q0 26 3 61.5t9 71.5l65 410h41l-66 -413q-5 -35 -8.5 -69.5t-3.5 -59.5q0 -91 46 -125.5t133 -34.5q53 0 95.5 10t75 39.5t56.5 87t39 152.5l66 413h41l-66 -416q-17 -105 -45 -169t-67 -97.5t-88 -45t-108 -11.5zM455 791l-109 134h38 l95 -134h-24z" glyph-name="Ugrave" horiz-adv-x="670" unicode="Ù"/>
<glyph d="M335 -6q-106 0 -162 44t-56 152q0 26 3 61.5t9 71.5l65 410h41l-66 -413q-5 -35 -8.5 -69.5t-3.5 -59.5q0 -91 46 -125.5t133 -34.5q53 0 95.5 10t75 39.5t56.5 87t39 152.5l66 413h41l-66 -416q-17 -105 -45 -169t-67 -97.5t-88 -45t-108 -11.5zM422 791l136 134h40 l-151 -134h-25z" glyph-name="Uacute" horiz-adv-x="670" unicode="Ú"/>
<glyph d="M335 -6q-106 0 -162 44t-56 152q0 26 3 61.5t9 71.5l65 410h41l-66 -413q-5 -35 -8.5 -69.5t-3.5 -59.5q0 -91 46 -125.5t133 -34.5q53 0 95.5 10t75 39.5t56.5 87t39 152.5l66 413h41l-66 -416q-17 -105 -45 -169t-67 -97.5t-88 -45t-108 -11.5zM299 791l150 132h31 l96 -132h-27l-89 110l-134 -110h-27z" glyph-name="Ucircumflex" horiz-adv-x="670" unicode="Û"/>
<glyph d="M335 -6q-106 0 -162 44t-56 152q0 26 3 61.5t9 71.5l65 410h41l-66 -413q-5 -35 -8.5 -69.5t-3.5 -59.5q0 -91 46 -125.5t133 -34.5q53 0 95.5 10t75 39.5t56.5 87t39 152.5l66 413h41l-66 -416q-17 -105 -45 -169t-67 -97.5t-88 -45t-108 -11.5zM526 822q-11 0 -11 11 q0 1 0.5 4t2.5 17.5t8 47.5q2 13 16 13h19q11 0 11 -10l-0.5 -3.5t-3.5 -17.5t-8 -49q-1 -13 -15 -13h-19zM319 822q-11 0 -11 11q0 1 0.5 4t2.5 17.5t8 47.5q2 13 16 13h19q11 0 11 -10l-0.5 -3.5t-3.5 -17.5t-8 -49q-1 -13 -15 -13h-19z" glyph-name="Udieresis" horiz-adv-x="670" unicode="Ü"/>
<glyph d="M268 0l41 254l-165 479h46l145 -429l302 429h48l-336 -479l-40 -254h-41zM383 791l136 134h40l-151 -134h-25z" glyph-name="Yacute" horiz-adv-x="597" unicode="Ý"/>
<glyph d="M78 0l116 733h39l-115 -733h-40zM312 177q-43 0 -86.5 2.5t-89.5 4.5l5 30h170q41 0 79.5 13t66 47t38.5 97q2 15 3.5 33t1.5 29q0 64 -34.5 90t-96.5 26h-178l4 37h182q46 0 83.5 -13.5t59.5 -46.5t22 -90q0 -13 -2.5 -32t-4.5 -35q-9 -59 -32 -97t-54 -58.5t-67 -28.5 t-70 -8z" glyph-name="Thorn" horiz-adv-x="540" unicode="Þ"/>
<glyph d="M385 -6q-50 0 -96 4t-72 9l4 26q29 -1 72.5 -3t92.5 -2q48 0 75 17t39 39.5t15 40.5q3 17 4.5 28t1.5 20q0 28 -18 43.5t-44.5 26t-53 23t-44.5 32t-18 52.5q0 31 18 57.5t44.5 51.5t53 49.5t44.5 53t18 61.5q0 52 -34 80.5t-91 28.5q-81 0 -128 -40.5t-62 -135.5 l-89 -556h-41l90 565q11 68 39.5 113.5t77 68t116.5 22.5q57 0 92 -19.5t52 -51.5t17 -71q0 -37 -17.5 -68t-44 -57t-53 -49.5t-44 -47t-17.5 -49.5q0 -27 18 -42t44.5 -25.5t52.5 -22.5t44 -32t18 -56q0 -5 -0.5 -16t-5.5 -38q-6 -33 -21 -57.5t-37.5 -41t-51 -24 t-60.5 -7.5z" glyph-name="germandbls" horiz-adv-x="571" unicode="ß"/>
<glyph d="M253 -6q-46 0 -83 18t-59 58t-22 102q0 24 3.5 50.5t7.5 48.5q13 92 44.5 151t86 87.5t138.5 28.5q31 0 66.5 -5.5t68.5 -18t56 -33.5l-76 -481h-31v58q-14 -9 -47 -24.5t-74 -27.5t-79 -12zM262 29q57 0 103 17.5t92 38.5l60 382q-18 11 -57 23.5t-94 12.5 q-75 0 -120 -25.5t-69.5 -78.5t-37.5 -138q-4 -27 -6.5 -47t-2.5 -37q0 -77 37 -112.5t95 -35.5zM396 631l-109 134h38l95 -134h-24z" glyph-name="agrave" horiz-adv-x="561" unicode="à"/>
<glyph d="M253 -6q-46 0 -83 18t-59 58t-22 102q0 24 3.5 50.5t7.5 48.5q13 92 44.5 151t86 87.5t138.5 28.5q31 0 66.5 -5.5t68.5 -18t56 -33.5l-76 -481h-31v58q-14 -9 -47 -24.5t-74 -27.5t-79 -12zM262 29q57 0 103 17.5t92 38.5l60 382q-18 11 -57 23.5t-94 12.5 q-75 0 -120 -25.5t-69.5 -78.5t-37.5 -138q-4 -27 -6.5 -47t-2.5 -37q0 -77 37 -112.5t95 -35.5zM364 631l136 134h40l-151 -134h-25z" glyph-name="aacute" horiz-adv-x="561" unicode="á"/>
<glyph d="M253 -6q-46 0 -83 18t-59 58t-22 102q0 24 3.5 50.5t7.5 48.5q13 92 44.5 151t86 87.5t138.5 28.5q31 0 66.5 -5.5t68.5 -18t56 -33.5l-76 -481h-31v58q-14 -9 -47 -24.5t-74 -27.5t-79 -12zM262 29q57 0 103 17.5t92 38.5l60 382q-18 11 -57 23.5t-94 12.5 q-75 0 -120 -25.5t-69.5 -78.5t-37.5 -138q-4 -27 -6.5 -47t-2.5 -37q0 -77 37 -112.5t95 -35.5zM249 631l150 132h31l96 -132h-27l-89 110l-134 -110h-27z" glyph-name="acircumflex" horiz-adv-x="561" unicode="â"/>
<glyph d="M253 -6q-46 0 -83 18t-59 58t-22 102q0 24 3.5 50.5t7.5 48.5q13 92 44.5 151t86 87.5t138.5 28.5q31 0 66.5 -5.5t68.5 -18t56 -33.5l-76 -481h-31v58q-14 -9 -47 -24.5t-74 -27.5t-79 -12zM262 29q57 0 103 17.5t92 38.5l60 382q-18 11 -57 23.5t-94 12.5 q-75 0 -120 -25.5t-69.5 -78.5t-37.5 -138q-4 -27 -6.5 -47t-2.5 -37q0 -77 37 -112.5t95 -35.5zM234 657q9 53 40.5 73.5t64.5 20.5q23 0 42.5 -10.5t36.5 -24t35.5 -23.5t38.5 -10q29 0 50.5 17.5t27.5 51.5h22q-7 -43 -33.5 -68.5t-70.5 -25.5q-22 0 -40.5 10t-36 24 t-36.5 24t-41 10q-27 0 -50 -16t-28 -53h-22z" glyph-name="atilde" horiz-adv-x="561" unicode="ã"/>
<glyph d="M253 -6q-46 0 -83 18t-59 58t-22 102q0 24 3.5 50.5t7.5 48.5q13 92 44.5 151t86 87.5t138.5 28.5q31 0 66.5 -5.5t68.5 -18t56 -33.5l-76 -481h-31v58q-14 -9 -47 -24.5t-74 -27.5t-79 -12zM262 29q57 0 103 17.5t92 38.5l60 382q-18 11 -57 23.5t-94 12.5 q-75 0 -120 -25.5t-69.5 -78.5t-37.5 -138q-4 -27 -6.5 -47t-2.5 -37q0 -77 37 -112.5t95 -35.5zM468 662q-11 0 -11 11q0 1 0.5 4t2.5 17.5t8 47.5q2 13 16 13h19q11 0 11 -10l-0.5 -3.5t-3.5 -17.5t-8 -49q-1 -13 -15 -13h-19zM261 662q-11 0 -11 11q0 1 0.5 4t2.5 17.5 t8 47.5q2 13 16 13h19q11 0 11 -10l-0.5 -3.5t-3.5 -17.5t-8 -49q-1 -13 -15 -13h-19z" glyph-name="adieresis" horiz-adv-x="561" unicode="ä"/>
<glyph d="M253 -6q-46 0 -83 18t-59 58t-22 102q0 24 3.5 50.5t7.5 48.5q13 92 44.5 151t86 87.5t138.5 28.5q31 0 66.5 -5.5t68.5 -18t56 -33.5l-76 -481h-31v58q-14 -9 -47 -24.5t-74 -27.5t-79 -12zM262 29q57 0 103 17.5t92 38.5l60 382q-18 11 -57 23.5t-94 12.5 q-75 0 -120 -25.5t-69.5 -78.5t-37.5 -138q-4 -27 -6.5 -47t-2.5 -37q0 -77 37 -112.5t95 -35.5zM390 598q-37 0 -65 18.5t-28 66.5q0 32 14.5 60t42 45.5t67.5 17.5q35 0 62 -19t27 -65q0 -50 -30.5 -87t-89.5 -37zM391 619q50 0 73 30.5t23 70.5q0 38 -21.5 51.5 t-46.5 13.5q-51 0 -75 -30.5t-24 -71.5q0 -37 22 -50.5t49 -13.5z" glyph-name="aring" horiz-adv-x="561" unicode="å"/>
<glyph d="M248 -6q-46 0 -81.5 18t-55 57.5t-19.5 102.5q0 69 14 134.5t45.5 117.5t84.5 83t133 31q29 0 63.5 -6t66.5 -18t53 -30q17 15 36.5 25.5t42.5 18t48.5 10.5t51.5 3q90 0 136.5 -37.5t46.5 -110.5q0 -47 -29 -83.5t-83 -57.5t-128 -21q-40 0 -77 3.5t-63.5 7.5t-35.5 7 q-3 -26 -3.5 -39t-0.5 -33q0 -48 11.5 -81t42 -50.5t84.5 -17.5h208l-4 -26q-31 -2 -66 -4t-71.5 -3t-72.5 -1q-44 0 -76.5 12t-53 34t-30.5 49q-21 -19 -56 -41t-77 -38t-85 -16zM250 29q40 0 79.5 14t73 35t56.5 42q-3 11 -4 24.5t-1 27.5q0 44 7 96t24 102t46 90 q-23 13 -66 28t-95 15q-72 0 -118.5 -29.5t-72.5 -78t-36 -105t-10 -112.5q0 -71 28 -110t89 -39zM654 262q100 0 160 30.5t60 95.5q0 56 -35 87.5t-101 31.5q-65 0 -107 -15.5t-67 -45.5t-39 -74t-24 -100l22 -2.5t57 -5t74 -2.5z" glyph-name="ae" horiz-adv-x="910" unicode="æ"/>
<glyph d="M275 -6q-54 0 -95.5 15.5t-65 56t-23.5 116.5q0 19 3 43t7 51q14 94 47.5 151.5t83.5 84t115 26.5q36 0 83.5 -3t85.5 -6l-5 -26h-161q-52 0 -93.5 -20.5t-71.5 -72.5t-45 -147q-4 -24 -6.5 -43.5t-2.5 -35.5q0 -63 17.5 -96.5t52 -46.5t83.5 -13h165l-4 -25 q-31 -3 -74 -6t-96 -3zM150 -194l3 17l25 2q25 2 40.5 13t23.5 24t8 23q0 16 -14 27t-57 12l22 10q40 0 57 -12.5t17 -36.5q0 -15 -11 -33.5t-33.5 -32t-56.5 -13.5h-24zM179 -76l65 78h21l-65 -78h-21z" glyph-name="ccedilla" horiz-adv-x="484" unicode="ç"/>
<glyph d="M311 -6q-76 0 -124.5 20t-71.5 60.5t-23 99.5q0 32 3.5 61t7.5 57q12 77 42.5 133t85.5 86t138 30q44 0 78 -7.5t57 -23.5t36 -42.5t13 -64.5q0 -52 -22 -85.5t-59 -52.5t-83 -26.5t-95 -7.5q-53 0 -95 6t-61 11q-3 -18 -4 -37t-1 -38q0 -76 43 -110.5t145 -34.5h156 l-4 -26q-27 -2 -71.5 -5t-90.5 -3zM273 262q70 0 124 11t85 41t31 85q0 60 -36.5 84t-110.5 24q-75 0 -120.5 -27.5t-70 -80t-34.5 -126.5q25 -5 60 -8t72 -3zM394 631l-109 134h38l95 -134h-24z" glyph-name="egrave" horiz-adv-x="548" unicode="è"/>
<glyph d="M311 -6q-76 0 -124.5 20t-71.5 60.5t-23 99.5q0 32 3.5 61t7.5 57q12 77 42.5 133t85.5 86t138 30q44 0 78 -7.5t57 -23.5t36 -42.5t13 -64.5q0 -52 -22 -85.5t-59 -52.5t-83 -26.5t-95 -7.5q-53 0 -95 6t-61 11q-3 -18 -4 -37t-1 -38q0 -76 43 -110.5t145 -34.5h156 l-4 -26q-27 -2 -71.5 -5t-90.5 -3zM273 262q70 0 124 11t85 41t31 85q0 60 -36.5 84t-110.5 24q-75 0 -120.5 -27.5t-70 -80t-34.5 -126.5q25 -5 60 -8t72 -3zM362 631l136 134h40l-151 -134h-25z" glyph-name="eacute" horiz-adv-x="548" unicode="é"/>
<glyph d="M311 -6q-76 0 -124.5 20t-71.5 60.5t-23 99.5q0 32 3.5 61t7.5 57q12 77 42.5 133t85.5 86t138 30q44 0 78 -7.5t57 -23.5t36 -42.5t13 -64.5q0 -52 -22 -85.5t-59 -52.5t-83 -26.5t-95 -7.5q-53 0 -95 6t-61 11q-3 -18 -4 -37t-1 -38q0 -76 43 -110.5t145 -34.5h156 l-4 -26q-27 -2 -71.5 -5t-90.5 -3zM273 262q70 0 124 11t85 41t31 85q0 60 -36.5 84t-110.5 24q-75 0 -120.5 -27.5t-70 -80t-34.5 -126.5q25 -5 60 -8t72 -3zM247 631l150 132h31l96 -132h-27l-89 110l-134 -110h-27z" glyph-name="ecircumflex" horiz-adv-x="548" unicode="ê"/>
<glyph d="M311 -6q-76 0 -124.5 20t-71.5 60.5t-23 99.5q0 32 3.5 61t7.5 57q12 77 42.5 133t85.5 86t138 30q44 0 78 -7.5t57 -23.5t36 -42.5t13 -64.5q0 -52 -22 -85.5t-59 -52.5t-83 -26.5t-95 -7.5q-53 0 -95 6t-61 11q-3 -18 -4 -37t-1 -38q0 -76 43 -110.5t145 -34.5h156 l-4 -26q-27 -2 -71.5 -5t-90.5 -3zM273 262q70 0 124 11t85 41t31 85q0 60 -36.5 84t-110.5 24q-75 0 -120.5 -27.5t-70 -80t-34.5 -126.5q25 -5 60 -8t72 -3zM466 662q-11 0 -11 11q0 1 0.5 4t2.5 17.5t8 47.5q2 13 16 13h19q11 0 11 -10l-0.5 -3.5t-3.5 -17.5t-8 -49 q-1 -13 -15 -13h-19zM259 662q-11 0 -11 11q0 1 0.5 4t2.5 17.5t8 47.5q2 13 16 13h19q11 0 11 -10l-0.5 -3.5t-3.5 -17.5t-8 -49q-1 -13 -15 -13h-19z" glyph-name="edieresis" horiz-adv-x="548" unicode="ë"/>
<glyph d="M77 0l84 532h41l-85 -532h-40zM213 631l-109 134h38l95 -134h-24z" glyph-name="igrave" horiz-adv-x="194" unicode="ì"/>
<glyph d="M77 0l84 532h41l-85 -532h-40zM181 631l136 134h40l-151 -134h-25z" glyph-name="iacute" horiz-adv-x="194" unicode="í"/>
<glyph d="M77 0l84 532h41l-85 -532h-40zM66 631l150 132h31l96 -132h-27l-89 110l-134 -110h-27z" glyph-name="icircumflex" horiz-adv-x="194" unicode="î"/>
<glyph d="M77 0l84 532h41l-85 -532h-40zM285 662q-11 0 -11 11q0 1 0.5 4t2.5 17.5t8 47.5q2 13 16 13h19q11 0 11 -10l-0.5 -3.5t-3.5 -17.5t-8 -49q-1 -13 -15 -13h-19zM78 662q-11 0 -11 11q0 1 0.5 4t2.5 17.5t8 47.5q2 13 16 13h19q11 0 11 -10l-0.5 -3.5t-3.5 -17.5t-8 -49 q-1 -13 -15 -13h-19z" glyph-name="idieresis" horiz-adv-x="194" unicode="ï"/>
<glyph d="M99 265q13 80 33.5 132.5t51.5 82.5t74.5 43t102.5 13q60 0 99 -20.5t58.5 -60t19.5 -97.5q1 -24 5 -49.5t3 -45.5q-15 -104 -47 -162.5t-84.5 -82.5t-134.5 -24q-55 0 -98 16.5t-67 55.5t-24 105q0 23 2 46t6 48zM140 256q-4 -23 -6 -44t-2 -40q0 -59 20 -89.5t54.5 -42 t79.5 -11.5q47 0 82.5 9t61.5 34t44.5 71t30.5 121q4 24 6 47t2 44q0 79 -37 112.5t-117 33.5q-49 0 -85 -10.5t-62 -36.5t-43 -74t-29 -124zM255 763q91 -1 160 -34t107.5 -104t38.5 -184q0 -39 -3 -83.5t-12 -94.5l-32 9q7 47 10 88.5t3 77.5q0 108 -35 171.5t-96.5 92 t-145.5 29.5zM616 756l5 -19l-333 -125l-5 19z" glyph-name="eth" horiz-adv-x="562" unicode="ð"/>
<glyph d="M76 0l85 532h30l1 -61q47 30 104 49.5t118 19.5q52 0 82.5 -17t43.5 -46t13 -64q0 -11 -1.5 -27t-7.5 -57l-53 -329h-41l52 328q6 36 7.5 50t1.5 24q0 43 -24.5 72t-87.5 29q-62 0 -109 -15.5t-103 -46.5l-70 -441h-41zM237 657q9 53 40.5 73.5t64.5 20.5 q23 0 42.5 -10.5t36.5 -24t35.5 -23.5t38.5 -10q29 0 50.5 17.5t27.5 51.5h22q-7 -43 -33.5 -68.5t-70.5 -25.5q-22 0 -40.5 10t-36 24t-36.5 24t-41 10q-27 0 -50 -16t-28 -53h-22z" glyph-name="ntilde" horiz-adv-x="568" unicode="ñ"/>
<glyph d="M280 -6q-55 0 -98 16.5t-67 55.5t-24 105q0 23 2 47t6 49q13 80 34 132.5t52.5 82.5t75.5 43t105 13q69 0 110 -20.5t59.5 -61.5t18.5 -101q0 -23 -2.5 -50t-6.5 -56q-15 -97 -46.5 -153t-84 -79t-134.5 -23zM286 29q47 0 82.5 9t61.5 33.5t44 70t30 116.5q5 29 7 53 t2 45q0 80 -35 113.5t-119 33.5q-49 0 -85 -10.5t-61.5 -36.5t-43 -74t-29.5 -124q-4 -24 -6 -45.5t-2 -40.5q0 -59 20 -89.5t54.5 -42t79.5 -11.5zM390 631l-109 134h38l95 -134h-24z" glyph-name="ograve" horiz-adv-x="562" unicode="ò"/>
<glyph d="M280 -6q-55 0 -98 16.5t-67 55.5t-24 105q0 23 2 47t6 49q13 80 34 132.5t52.5 82.5t75.5 43t105 13q69 0 110 -20.5t59.5 -61.5t18.5 -101q0 -23 -2.5 -50t-6.5 -56q-15 -97 -46.5 -153t-84 -79t-134.5 -23zM286 29q47 0 82.5 9t61.5 33.5t44 70t30 116.5q5 29 7 53 t2 45q0 80 -35 113.5t-119 33.5q-49 0 -85 -10.5t-61.5 -36.5t-43 -74t-29.5 -124q-4 -24 -6 -45.5t-2 -40.5q0 -59 20 -89.5t54.5 -42t79.5 -11.5zM358 631l136 134h40l-151 -134h-25z" glyph-name="oacute" horiz-adv-x="562" unicode="ó"/>
<glyph d="M280 -6q-55 0 -98 16.5t-67 55.5t-24 105q0 23 2 47t6 49q13 80 34 132.5t52.5 82.5t75.5 43t105 13q69 0 110 -20.5t59.5 -61.5t18.5 -101q0 -23 -2.5 -50t-6.5 -56q-15 -97 -46.5 -153t-84 -79t-134.5 -23zM286 29q47 0 82.5 9t61.5 33.5t44 70t30 116.5q5 29 7 53 t2 45q0 80 -35 113.5t-119 33.5q-49 0 -85 -10.5t-61.5 -36.5t-43 -74t-29.5 -124q-4 -24 -6 -45.5t-2 -40.5q0 -59 20 -89.5t54.5 -42t79.5 -11.5zM244 631l150 132h31l96 -132h-27l-89 110l-134 -110h-27z" glyph-name="ocircumflex" horiz-adv-x="562" unicode="ô"/>
<glyph d="M280 -6q-55 0 -98 16.5t-67 55.5t-24 105q0 23 2 47t6 49q13 80 34 132.5t52.5 82.5t75.5 43t105 13q69 0 110 -20.5t59.5 -61.5t18.5 -101q0 -23 -2.5 -50t-6.5 -56q-15 -97 -46.5 -153t-84 -79t-134.5 -23zM286 29q47 0 82.5 9t61.5 33.5t44 70t30 116.5q5 29 7 53 t2 45q0 80 -35 113.5t-119 33.5q-49 0 -85 -10.5t-61.5 -36.5t-43 -74t-29.5 -124q-4 -24 -6 -45.5t-2 -40.5q0 -59 20 -89.5t54.5 -42t79.5 -11.5zM228 657q9 53 40.5 73.5t64.5 20.5q23 0 42.5 -10.5t36.5 -24t35.5 -23.5t38.5 -10q29 0 50.5 17.5t27.5 51.5h22 q-7 -43 -33.5 -68.5t-70.5 -25.5q-22 0 -40.5 10t-36 24t-36.5 24t-41 10q-27 0 -50 -16t-28 -53h-22z" glyph-name="otilde" horiz-adv-x="562" unicode="õ"/>
<glyph d="M280 -6q-55 0 -98 16.5t-67 55.5t-24 105q0 23 2 47t6 49q13 80 34 132.5t52.5 82.5t75.5 43t105 13q69 0 110 -20.5t59.5 -61.5t18.5 -101q0 -23 -2.5 -50t-6.5 -56q-15 -97 -46.5 -153t-84 -79t-134.5 -23zM286 29q47 0 82.5 9t61.5 33.5t44 70t30 116.5q5 29 7 53 t2 45q0 80 -35 113.5t-119 33.5q-49 0 -85 -10.5t-61.5 -36.5t-43 -74t-29.5 -124q-4 -24 -6 -45.5t-2 -40.5q0 -59 20 -89.5t54.5 -42t79.5 -11.5zM462 662q-11 0 -11 11q0 1 0.5 4t2.5 17.5t8 47.5q2 13 16 13h19q11 0 11 -10l-0.5 -3.5t-3.5 -17.5t-8 -49q-1 -13 -15 -13 h-19zM255 662q-11 0 -11 11q0 1 0.5 4t2.5 17.5t8 47.5q2 13 16 13h19q11 0 11 -10l-0.5 -3.5t-3.5 -17.5t-8 -49q-1 -13 -15 -13h-19z" glyph-name="odieresis" horiz-adv-x="562" unicode="ö"/>
<glyph d="M312 119q-23 0 -20 23l5 34q5 25 28 25h22q26 0 21 -25l-5 -34q-2 -13 -10 -18t-19 -5h-22zM374 511q-10 0 -16 6.5t-4 16.5l5 34q3 25 28 25h22q24 0 21 -25l-5 -34q-2 -13 -10 -18t-19 -5h-22zM134 338l6 36h448l-6 -36h-448z" glyph-name="divide" unicode="÷"/>
<glyph d="M65 0l488 532h28l-488 -532h-28zM280 -6q-55 0 -98 16.5t-67 55.5t-24 105q0 23 2 47t6 49q13 80 34 132.5t52.5 82.5t75.5 43t105 13q69 0 110 -20.5t59.5 -61.5t18.5 -101q0 -23 -2.5 -50t-6.5 -56q-15 -97 -46.5 -153t-84 -79t-134.5 -23zM286 29q47 0 82.5 9 t61.5 33.5t44 70t30 116.5q5 29 7 53t2 45q0 80 -35 113.5t-119 33.5q-49 0 -85 -10.5t-61.5 -36.5t-43 -74t-29.5 -124q-4 -24 -6 -45.5t-2 -40.5q0 -59 20 -89.5t54.5 -42t79.5 -11.5z" glyph-name="oslash" horiz-adv-x="561" unicode="ø"/>
<glyph d="M238 -6q-70 0 -104.5 33t-34.5 90q0 15 1.5 28.5t2.5 23.5l57 363h41l-57 -364q-1 -9 -2.5 -18.5t-1.5 -20.5q0 -46 26.5 -72t86.5 -26q61 0 108.5 15.5t102.5 44.5l70 441h41l-84 -532h-32l1 61q-31 -19 -64.5 -34t-72 -24t-85.5 -9zM398 631l-109 134h38l95 -134h-24z " glyph-name="ugrave" horiz-adv-x="568" unicode="ù"/>
<glyph d="M238 -6q-70 0 -104.5 33t-34.5 90q0 15 1.5 28.5t2.5 23.5l57 363h41l-57 -364q-1 -9 -2.5 -18.5t-1.5 -20.5q0 -46 26.5 -72t86.5 -26q61 0 108.5 15.5t102.5 44.5l70 441h41l-84 -532h-32l1 61q-31 -19 -64.5 -34t-72 -24t-85.5 -9zM366 631l136 134h40l-151 -134h-25z " glyph-name="uacute" horiz-adv-x="568" unicode="ú"/>
<glyph d="M238 -6q-70 0 -104.5 33t-34.5 90q0 15 1.5 28.5t2.5 23.5l57 363h41l-57 -364q-1 -9 -2.5 -18.5t-1.5 -20.5q0 -46 26.5 -72t86.5 -26q61 0 108.5 15.5t102.5 44.5l70 441h41l-84 -532h-32l1 61q-31 -19 -64.5 -34t-72 -24t-85.5 -9zM251 631l150 132h31l96 -132h-27 l-89 110l-134 -110h-27z" glyph-name="ucircumflex" horiz-adv-x="568" unicode="û"/>
<glyph d="M238 -6q-70 0 -104.5 33t-34.5 90q0 15 1.5 28.5t2.5 23.5l57 363h41l-57 -364q-1 -9 -2.5 -18.5t-1.5 -20.5q0 -46 26.5 -72t86.5 -26q61 0 108.5 15.5t102.5 44.5l70 441h41l-84 -532h-32l1 61q-31 -19 -64.5 -34t-72 -24t-85.5 -9zM470 662q-11 0 -11 11q0 1 0.5 4 t2.5 17.5t8 47.5q2 13 16 13h19q11 0 11 -10l-0.5 -3.5t-3.5 -17.5t-8 -49q-1 -13 -15 -13h-19zM263 662q-11 0 -11 11q0 1 0.5 4t2.5 17.5t8 47.5q2 13 16 13h19q11 0 11 -10l-0.5 -3.5t-3.5 -17.5t-8 -49q-1 -13 -15 -13h-19z" glyph-name="udieresis" horiz-adv-x="568" unicode="ü"/>
<glyph d="M97 -237v33q42 11 94 56.5t100 147.5q-23 3 -45 11t-39 31.5t-27 72.5l-78 417h42l74 -408q7 -36 20.5 -54t31.5 -24t38 -8l193 410q8 19 17 43.5t11 48.5h33q0 -27 -5.5 -54t-20.5 -59l-204 -425q-39 -83 -77 -132.5t-76.5 -74t-81.5 -32.5zM328 631l136 134h40 l-151 -134h-25z" glyph-name="yacute" horiz-adv-x="547" unicode="ý"/>
<glyph d="M38 -237l159 1000h41l-36 -231q33 3 79.5 4.5t106.5 1.5q80 0 123.5 -43.5t43.5 -134.5q0 -26 -3 -52.5t-7 -48.5q-12 -80 -40.5 -139.5t-78.5 -92.5t-129 -33q-50 0 -91.5 8t-83.5 29l-43 -268h-41zM295 30q68 0 109.5 27.5t65 81t35.5 130.5q3 18 6.5 41t3.5 45 q0 73 -32.5 110.5t-101.5 37.5l-185 -2l-69 -440q35 -11 60 -18t49.5 -10t58.5 -3z" glyph-name="thorn" horiz-adv-x="562" unicode="þ"/>
<glyph d="M77 0l84 532h41l-85 -532h-40z" glyph-name="dotlessi" horiz-adv-x="194" unicode="ı"/>
<glyph d="M164 631l150 132h31l96 -132h-27l-89 110l-134 -110h-27z" glyph-name="circumflex" horiz-adv-x="404" unicode="ˆ"/>
<glyph d="M266 598q-37 0 -65 18.5t-28 66.5q0 32 14.5 60t42 45.5t67.5 17.5q35 0 62 -19t27 -65q0 -50 -30.5 -87t-89.5 -37zM267 619q50 0 73 30.5t23 70.5q0 38 -21.5 51.5t-46.5 13.5q-51 0 -75 -30.5t-24 -71.5q0 -37 22 -50.5t49 -13.5z" glyph-name="ring" horiz-adv-x="336" unicode="˚"/>
<glyph d="M167 657q9 53 40.5 73.5t64.5 20.5q23 0 42.5 -10.5t36.5 -24t35.5 -23.5t38.5 -10q29 0 50.5 17.5t27.5 51.5h22q-7 -43 -33.5 -68.5t-70.5 -25.5q-22 0 -40.5 10t-36 24t-36.5 24t-41 10q-27 0 -50 -16t-28 -53h-22z" glyph-name="tilde" horiz-adv-x="466" unicode="˜"/>
<glyph d="M-184 662q-11 0 -11 11q0 1 0.5 4t2.5 17.5t8 47.5q2 13 16 13h19q11 0 11 -10l-0.5 -3.5t-3.5 -17.5t-8 -49q-1 -13 -15 -13h-19zM-391 662q-11 0 -11 11q0 1 0.5 4t2.5 17.5t8 47.5q2 13 16 13h19q11 0 11 -10l-0.5 -3.5t-3.5 -17.5t-8 -49q-1 -13 -15 -13h-19z" glyph-name="uni0308" horiz-adv-x="0" unicode="̈"/>
<glyph d="M255 -6q-36 0 -63.5 10t-45 28.5t-26.5 44t-9 56.5q0 12 1 23.5t2 23.5l56 353h41l-58 -368q-1 -10 -2 -19t-1 -18q0 -56 33 -76.5t86 -20.5q58 0 104 14.5t101 42.5l70 445h41l-84 -533h-29l-1 61q-45 -28 -101 -47.5t-115 -19.5zM44 -268l78 491h41l-78 -491h-41z" glyph-name="uni03BC" horiz-adv-x="584" unicode="μ"/>
<glyph d="M276 69l-179 210l241 205l20 -24l-214 -183l158 -185z" glyph-name="guilsinglleft" horiz-adv-x="356" unicode="‹"/>
<glyph d="M85 69l-19 24l214 182l-159 187l27 22l178 -210z" glyph-name="guilsinglright" horiz-adv-x="356" unicode="›"/>
<glyph d="M76 0l506 770h31l-506 -770h-31z" glyph-name="fraction" horiz-adv-x="718" unicode="⁄"/>
<glyph d="M344 356l22 131h-241l-6 23l250 332h38l-245 -324h208l23 144l15 41h27l-30 -185h75l-4 -24l-75 -7l-22 -131h-35z" glyph-name="uni2074" horiz-adv-x="420" unicode="⁴"/>
<glyph d="M134 338l6 36h448l-6 -36h-448z" glyph-name="minus" unicode="−"/>
</font>
</defs>
</svg>
