<?xml version="1.0" encoding="UTF-8"?>
<!DOCTYPE svg  PUBLIC '-//W3C//DTD SVG 1.1//EN'  'http://www.w3.org/Graphics/SVG/1.1/DTD/svg11.dtd'>
<svg version="1.1" xmlns="http://www.w3.org/2000/svg">
<defs>
<font id="Exo-BlackItalic" horiz-adv-x="609">
<font-face font-family="Exo Black" font-style="italic" font-weight="900" ascent="800" bbox="-431 -270 1146 995" cap-height="743" descent="-200" panose-1="0 0 0 0 0 0 0 0 0 0" slope="-9" underline-position="-125" underline-thickness="50" unicode-range="U+0020-2212" units-per-em="1000" x-height="539"/>
<missing-glyph/>
<glyph glyph-name="space" horiz-adv-x="250" unicode=" "/>
<glyph d="M97 206l62 536h194l-112 -536h-144zM82 -2q-21 0 -21 19v2v2l19 117q3 25 28 25h113q21 0 21 -18v-3v-4l-19 -117q-2 -13 -9.5 -18t-18.5 -5h-113z" glyph-name="exclam" horiz-adv-x="277" unicode="!"/>
<glyph d="M120 491l21 201l10 67h185l-10 -67l-42 -201h-164zM340 491l21 201l10 67h185l-10 -67l-42 -201h-164z" glyph-name="quotedbl" horiz-adv-x="476" unicode='"'/>
<glyph d="M116 0l67 191h-142l41 132h147l30 86h-149l42 132h154l67 191h132l-67 -191h88l66 191h132l-66 -191h167l-40 -132h-168l-30 -86h168l-39 -132h-180l-67 -191h-132l67 191h-89l-67 -191h-132zM361 323h94l30 86h-94z" glyph-name="numbersign" horiz-adv-x="749" unicode="#"/>
<glyph d="M361 718l17 106h108l-17 -106h-108zM233 -90l16 102h108l-16 -102h-108zM309 -6q-60 0 -107.5 4.5t-83.5 11t-62 13.5l24 154q47 -4 106.5 -6.5t117.5 -2.5q38 0 60.5 4.5t33 15t13.5 28.5l2 11q1 4 1 7v6q0 20 -16.5 28t-53.5 8h-40q-91 0 -141.5 49.5t-50.5 125.5 q0 21 3 43l9 57q12 72 48.5 115.5t96 63t138.5 19.5q27 0 55 -1.5t57 -5t59 -9t61 -13.5l-24 -154q-36 4 -77.5 5.5t-82 2.5t-73.5 1q-21 0 -37 -4.5t-26.5 -14.5t-13.5 -28l-2 -11q-1 -4 -1.5 -8.5t-0.5 -8.5q0 -20 12 -30.5t39 -10.5h44q101 0 154 -48.5t53 -122.5 q0 -18 -3 -39l-11 -70q-9 -60 -37.5 -101t-86 -62.5t-156.5 -21.5z" glyph-name="dollar" unicode="$"/>
<glyph d="M192 0l570 732h124l-563 -732h-131zM216 349q-62 0 -90 26t-28 74q0 17 3 35l18 113q10 64 47 99.5t113 35.5h101q63 0 91 -26t28 -74q0 -8 -0.5 -17t-2.5 -18l-18 -113q-10 -64 -47.5 -99.5t-113.5 -35.5h-101zM261 474h51q26 0 34.5 12t10.5 28l9 53q1 4 1 7.5v6.5 q0 16 -8 21t-24 5h-51q-16 0 -28.5 -7t-16.5 -33l-9 -53q0 -4 -0.5 -7.5t-0.5 -6.5q0 -11 6.5 -18.5t25.5 -7.5zM704 3q-62 0 -89.5 26t-27.5 74q0 16 3 35l18 113q10 64 46.5 99.5t112.5 35.5h102q63 0 91 -26t28 -74q0 -8 -0.5 -17t-2.5 -18l-18 -113q-10 -64 -47.5 -99.5 t-113.5 -35.5h-102zM750 128h50q26 0 35 12t12 28l8 53q1 4 1 7.5v6.5q0 16 -8.5 21t-24.5 5h-50q-16 0 -28.5 -7t-16.5 -33l-8 -53q-1 -4 -1.5 -7.5t-0.5 -6.5q0 -11 6.5 -18.5t25.5 -7.5z" glyph-name="percent" horiz-adv-x="968" unicode="%"/>
<glyph d="M236 -6q-81 0 -130 48t-49 126q0 54 14 95t41 71.5t67 53.5l72 41l-8 16q-17 34 -21.5 60t-4.5 47q0 49 23.5 91.5t74 69t131.5 26.5q35 0 70.5 -4.5t66 -11.5t48.5 -13l-22 -142h-152q-28 0 -38 -12t-10 -26q0 -13 8.5 -31t24.5 -46l77 -136l158 121l56 -88l-76 -121 l-56 -48l107 -181h-198l-56 85l-45 -34q-40 -30 -80.5 -43.5t-92.5 -13.5zM296 171q14 0 27.5 4.5t26.5 16.5l24 21l-52 84l-26 -14q-16 -9 -25.5 -19.5t-13 -22t-3.5 -24.5q0 -20 11.5 -33t30.5 -13z" glyph-name="ampersand" horiz-adv-x="715" unicode="&amp;"/>
<glyph d="M120 491l21 201l10 67h185l-10 -67l-42 -201h-164z" glyph-name="quotesingle" horiz-adv-x="256" unicode="'"/>
<glyph d="M198 -210q-31 40 -58 92.5t-43.5 121t-16.5 156.5q0 79 17 161.5t46 162t66 151t77.5 129.5t80.5 96h171q-48 -61 -95 -142t-85 -173.5t-61 -188.5t-23 -187q0 -108 26 -197.5t69 -181.5h-171z" glyph-name="parenleft" horiz-adv-x="413" unicode="("/>
<glyph d="M-22 -210q48 61 95 142t85 173.5t61 188.5t23 187q0 108 -26 197.5t-69 181.5h171q31 -40 58 -92.5t43.5 -120.5t16.5 -157q0 -79 -17 -161.5t-46 -162t-66 -151t-77.5 -129.5t-80.5 -96h-171z" glyph-name="parenright" horiz-adv-x="413" unicode=")"/>
<glyph d="M367 498l-47 73l132 81l32 -57zM361 393l-113 66l64 79l99 -89zM205 397l-63 21l46 138l88 -24zM117 566l11 70l142 19l-10 -94zM289 584l-18 138l70 22l41 -126z" glyph-name="asterisk" horiz-adv-x="417" unicode="*"/>
<glyph d="M248 132l70 448h154l-70 -448h-154zM124 279l24 154h448l-24 -154h-448z" glyph-name="plus" unicode="+"/>
<glyph d="M100 -97q-25 0 -43 4.5l-18 4.5l10 62q16 0 24 4t10 17l3 19h-11q-21 0 -21 20q0 3 1 9t2 15l13 78q3 27 29 27h111q20 0 20 -20q0 -3 -0.5 -10t-2.5 -16l-21 -128q-6 -35 -23 -54t-39 -25.5t-44 -6.5z" glyph-name="comma" horiz-adv-x="257" unicode=","/>
<glyph d="M54 213l24 154h314l-24 -154h-314z" glyph-name="hyphen" horiz-adv-x="353" unicode="-"/>
<glyph d="M72 -2q-21 0 -21 19v2v2l19 117q3 25 28 25h113q21 0 21 -18v-3v-4l-19 -117q-2 -13 -9.5 -18t-18.5 -5h-113z" glyph-name="period" horiz-adv-x="257" unicode="."/>
<glyph d="M0 -72l414 842h199l-414 -842h-199z" glyph-name="slash" horiz-adv-x="502" unicode="/"/>
<glyph d="M242 -6q-59 0 -98 18t-58 52.5t-19 83.5q0 11 1 23t3 25l54 341q11 69 42.5 116t81 71.5t114.5 24.5h162q81 0 123.5 -41t42.5 -118q0 -12 -1.5 -25.5t-3.5 -27.5l-54 -341q-15 -94 -74 -148t-154 -54h-162zM318 168h60q27 0 43.5 13.5t21.5 44.5l46 291q1 5 1 9.5v8.5 q0 24 -11.5 32t-28.5 8h-75q-26 0 -40 -14t-19 -44l-46 -290q-1 -5 -1.5 -9t-0.5 -9q0 -22 12.5 -31.5t37.5 -9.5z" glyph-name="zero" horiz-adv-x="641" unicode="0"/>
<glyph d="M140 0l90 569l-119 -10l19 124l150 60h172l-118 -743h-194z" glyph-name="one" horiz-adv-x="379" unicode="1"/>
<glyph d="M40 0l24 154l269 236q38 34 57.5 67.5t19.5 61.5q0 16 -5.5 26t-16 15t-26.5 5h-221l25 154q46 10 103.5 20t131.5 10q75 0 119.5 -22.5t64 -61t19.5 -88.5q0 -76 -27 -144t-95 -128l-148 -131h248l-28 -174h-514z" glyph-name="two" horiz-adv-x="582" unicode="2"/>
<glyph d="M327 -6q-80 0 -154 7t-136 20l23 146h218q39 0 61 4.5t32 15.5t13 29q3 16 3.5 20.5t0.5 5.5q0 16 -11 27.5t-31.5 18.5t-50.5 8l-152 7l22 140l171 11q40 2 61 15t25 36l1.5 10.5t0.5 6v4.5q0 31 -24.5 40t-60.5 9h-204l23 146q62 11 131 19.5t139 8.5q62 0 106 -12.5 t68 -44.5t24 -91q0 -6 -0.5 -14.5t-3 -26.5t-7.5 -50q-4 -25 -12 -46.5t-20.5 -39t-31 -30.5t-42.5 -21q18 -6 31.5 -17t22.5 -26.5t13.5 -35t4.5 -41.5q0 -10 -1.5 -24.5t-6.5 -47.5q-14 -91 -79.5 -139t-166.5 -48z" glyph-name="three" horiz-adv-x="575" unicode="3"/>
<glyph d="M364 0l22 137h-309l-21 87l298 519h198l-252 -442h112l17 110l52 96h157l-32 -206h60l-22 -134l-64 -30l-22 -137h-194z" glyph-name="four" horiz-adv-x="635" unicode="4"/>
<glyph d="M297 -6q-56 0 -122.5 6.5t-129.5 13.5l25 154h264q31 0 45 10.5t18 25t5 24.5l5 31q1 5 1.5 9.5t0.5 8.5q0 17 -8.5 26t-31.5 9h-44q-24 0 -34.5 -8.5t-15.5 -26.5h-186l95 466h463l-28 -174h-277l-22 -113q17 11 35.5 15.5t35.5 4.5h76q75 0 109 -39.5t34 -100.5 q0 -10 -0.5 -20t-2.5 -21l-18 -109q-10 -68 -45.5 -110.5t-96.5 -62t-150 -19.5z" glyph-name="five" horiz-adv-x="592" unicode="5"/>
<glyph d="M270 -6q-62 0 -104.5 19t-64.5 66t-22 132q0 97 12.5 180t39.5 149t70.5 112.5t104.5 71.5t142 25q53 0 101.5 -4.5t86.5 -15.5l-24 -154h-169q-45 0 -74 -15t-45 -44t-23 -71q20 9 39.5 13.5t45 6t62.5 1.5q65 0 101 -17t51 -46.5t15 -67.5q0 -11 -1.5 -23.5t-3.5 -25.5 l-17 -108q-10 -65 -40 -105.5t-76 -59.5t-104 -19h-103zM338 168h17q17 0 27 6t15.5 17.5t8.5 27.5l4 28q1 6 1.5 11.5t0.5 10.5q0 13 -4.5 20t-14.5 10t-28 3h-86q-3 -19 -5 -35.5t-2 -29.5q0 -26 7 -41.5t21.5 -21.5t37.5 -6z" glyph-name="six" horiz-adv-x="597" unicode="6"/>
<glyph d="M90 0l291 549h-277l31 194h481l34 -78l-334 -665h-226z" glyph-name="seven" horiz-adv-x="561" unicode="7"/>
<glyph d="M237 -6q-74 0 -111.5 18.5t-50 46.5t-12.5 56q0 12 1.5 23t2.5 21l17 105q4 24 14.5 48t29.5 43t48 25q-26 15 -35 34t-9 41q0 13 2 27l4 28l13 86q10 62 40.5 95t74 45.5t91.5 12.5h156q71 0 108.5 -26t37.5 -88q0 -9 -1 -19.5t-3 -21.5l-13 -84q-2 -10 -7 -28 t-14 -37.5t-23.5 -33.5t-34.5 -17q36 -9 47 -36t11 -55q0 -11 -1 -21t-2 -18l-16 -99q-11 -73 -42.5 -109.5t-75 -49t-92.5 -12.5h-155zM308 158h52q33 0 42 12.5t12 33.5l8 47q0 2 0.5 4.5t0.5 4.5q0 17 -9.5 27.5t-29.5 10.5h-54q-12 0 -21.5 -3.5t-16 -10t-10.5 -15 t-6 -18.5l-8 -47q-1 -4 -1 -8v-8q0 -16 9.5 -23t31.5 -7zM356 462h52q18 0 26.5 5.5t12.5 17.5t7 30l4 31q1 4 1.5 7.5t0.5 5.5q0 19 -10 22.5t-22 3.5h-52q-18 0 -28.5 -5.5t-15.5 -33.5l-4 -31q-1 -8 -2 -14.5t-1 -11.5q0 -18 7.5 -22.5t23.5 -4.5z" glyph-name="eight" horiz-adv-x="618" unicode="8"/>
<glyph d="M443 749q62 0 104.5 -19t64.5 -66t22 -132q0 -97 -12.5 -180t-39.5 -149t-70.5 -112.5t-104.5 -71.5t-142 -25q-53 0 -101.5 5t-86.5 15l24 154h169q46 0 74.5 15t44.5 44.5t23 70.5q-20 -8 -39.5 -13t-45 -6.5t-62.5 -1.5q-64 0 -100.5 17t-51.5 46.5t-15 67.5 q0 11 1.5 23.5t3.5 25.5l17 108q10 65 40 105.5t76 59.5t104 19h103zM375 575h-17q-16 0 -26.5 -6t-16 -17t-8.5 -28l-4 -28q-1 -6 -1.5 -11.5t-0.5 -10.5q0 -12 4.5 -19.5t15 -10.5t27.5 -3h86q3 20 5 36t2 29q0 27 -7 42t-21.5 21t-37.5 6z" glyph-name="nine" horiz-adv-x="597" unicode="9"/>
<glyph d="M72 -2q-21 0 -21 19v2v2l19 117q3 25 28 25h113q21 0 21 -18v-3v-4l-19 -117q-2 -13 -9.5 -18t-18.5 -5h-113zM132 376q-21 0 -21 19v2v2l19 117q3 25 28 25h113q21 0 21 -18v-3v-4l-19 -117q-2 -13 -9.5 -18t-18.5 -5h-113z" glyph-name="colon" horiz-adv-x="257" unicode=":"/>
<glyph d="M132 376q-21 0 -21 19v2v2l19 117q3 25 28 25h113q21 0 21 -18v-3v-4l-19 -117q-2 -13 -9.5 -18t-18.5 -5h-113zM100 -97q-25 0 -43 4.5l-18 4.5l10 62q16 0 24 4t10 17l3 19h-11q-21 0 -21 20q0 3 1 9t2 15l13 78q3 27 29 27h111q20 0 20 -20q0 -3 -0.5 -10t-2.5 -16 l-21 -128q-6 -35 -23 -54t-39 -25.5t-44 -6.5z" glyph-name="semicolon" horiz-adv-x="257" unicode=";"/>
<glyph d="M526 130l-393 136l27 170l436 130l-27 -170l-232 -43l216 -53z" glyph-name="less" unicode="&lt;"/>
<glyph d="M105 159l25 154h448l-25 -154h-448zM143 399l25 154h448l-25 -154h-448z" glyph-name="equal" unicode="="/>
<glyph d="M113 130l27 170l234 53l-218 43l27 170l394 -130l-27 -170z" glyph-name="greater" unicode="&gt;"/>
<glyph d="M167 206l35 224h82q21 0 38.5 5t29 17.5t14.5 34.5l3 15v6v5q0 28 -23 40t-64 12q-39 0 -77.5 -8.5t-78.5 -21.5l23 144q38 23 94 41.5t127 18.5q98 0 149.5 -47.5t51.5 -121.5q0 -18 -3 -36l-9 -51q-15 -96 -74 -146.5t-162 -50.5l-12 -80h-144zM152 -2q-21 0 -21 19v2 v2l19 117q3 25 28 25h113q21 0 21 -18v-3v-4l-19 -117q-2 -13 -9.5 -18t-18.5 -5h-113z" glyph-name="question" horiz-adv-x="528" unicode="?"/>
<glyph d="M270 -199q-88 0 -137.5 27.5t-69 72t-19.5 95.5q0 16 1.5 31.5t3.5 31.5l74 462q11 70 36.5 113t64 66t87.5 31t107 8h355q70 0 115 -26t67.5 -71t22.5 -102q0 -38 -6 -79l-39 -263q-8 -53 -27 -90.5t-49.5 -61.5t-71 -35t-90.5 -11h-114l-34 53q-6 -8 -17 -18.5 t-27.5 -19.5t-38.5 -15t-48 -6q-38 0 -71 20t-53 63t-20 112q0 112 40 189.5t105 117.5t140 40q67 0 114 -20t84 -49l-54 -340q18 0 32 3t25 12t18.5 27t11.5 48l39 264q2 12 3 22.5t1 20.5q0 41 -29 60.5t-73 19.5h-342q-47 0 -72 -19t-35 -47t-15 -57l-70 -442 q-3 -15 -3 -29q0 -30 18.5 -52.5t70.5 -22.5h386l-17 -107q-25 -5 -69.5 -11.5t-102 -11t-120.5 -4.5h-88zM470 140q28 0 54 12t39 28l32 208q-16 2 -30 3.5t-21 1.5q-40 0 -68 -23t-43 -64t-15 -95q0 -18 4.5 -34.5t15.5 -26.5t32 -10z" glyph-name="at" horiz-adv-x="942" unicode="@"/>
<glyph d="M15 0l338 743h242l102 -743h-201l-11 118h-223l-48 -118h-199zM334 292h133l-21 286z" glyph-name="A" horiz-adv-x="709" unicode="A"/>
<glyph d="M57 0l116 743h306q81 0 124 -20.5t59.5 -56t16.5 -81.5q0 -13 -1 -26t-3 -27q-8 -51 -43 -92t-93 -54q38 -10 62 -28t35.5 -46.5t11.5 -71.5q0 -10 -0.5 -24.5t-5.5 -40.5q-16 -100 -88 -137.5t-194 -37.5h-303zM278 174h107q26 0 42.5 6t25.5 20.5t12 39.5q1 5 1 10v10 q0 23 -14.5 33.5t-49.5 10.5h-104zM321 451h104q30 0 41.5 14.5t15.5 31.5q2 11 3.5 19t1.5 15q0 21 -12 29.5t-37 8.5h-98z" glyph-name="B" horiz-adv-x="649" unicode="B"/>
<glyph d="M348 -6q-133 0 -197.5 71t-64.5 193q0 32 3 67.5t9 73.5q18 117 56 194.5t103 116.5t163 39q93 0 154.5 -16.5t93.5 -32.5l-25 -154q-40 12 -91 20.5t-96 8.5q-32 0 -58 -5.5t-46 -25.5t-35 -62t-27 -116q-5 -34 -8.5 -61.5t-3.5 -48.5q0 -46 26.5 -67t95.5 -21 q63 0 103 3.5t82 7.5l-24 -153q-51 -20 -107 -26t-106 -6z" glyph-name="C" horiz-adv-x="592" unicode="C"/>
<glyph d="M55 0l118 743h291q104 0 161 -33t79 -91.5t22 -135.5q0 -32 -2.5 -67t-8.5 -72q-15 -97 -45.5 -163t-77 -106t-109.5 -57.5t-143 -17.5h-285zM277 174h84q34 0 60.5 11.5t45.5 35.5t32 62t22 92q5 35 8 60.5t3 38.5q0 37 -12 57.5t-37.5 29t-66.5 8.5h-77z" glyph-name="D" horiz-adv-x="696" unicode="D"/>
<glyph d="M251 -6q-28 0 -60.5 6.5t-60.5 25.5t-42.5 54.5t-5.5 92.5l61 383q11 71 41.5 111.5t76 58t99.5 17.5q75 0 150 -4t154 -11l-26 -164h-248q-31 0 -43.5 -14.5t-17.5 -42.5l-7 -47l246 -10l-24 -154l-250 -10l-9 -58q-2 -16 1.5 -28t14.5 -18t30 -6h246l-26 -164 q-70 -7 -143 -12.5t-157 -5.5z" glyph-name="E" horiz-adv-x="604" unicode="E"/>
<glyph d="M55 0l89 563q12 72 45.5 111t78.5 54t90 15q90 0 161.5 -4t142.5 -12l-26 -164h-246q-31 0 -44 -14.5t-17 -40.5l-12 -79l248 -9l-25 -154l-250 -10l-41 -256h-194z" glyph-name="F" horiz-adv-x="572" unicode="F"/>
<glyph d="M275 -6q-106 0 -149.5 57.5t-43.5 179.5q0 45 5.5 91t12.5 88q19 117 62 192t110.5 111t159.5 36q99 0 159 -10.5t106 -25.5l-24 -152q-27 5 -80 10t-136 5q-57 0 -89 -18t-48.5 -63t-29.5 -127q-12 -76 -12 -118q0 -35 15.5 -56t51.5 -21q15 0 32.5 1t34 2.5t30 3 t22.5 3.5l15 96h-103l25 154q26 2 68.5 6t97.5 4q17 0 42 -0.5t47.5 -1t34.5 -0.5l-70 -441h-146l-18 49q-15 -9 -38 -19t-48.5 -18t-50.5 -13t-45 -5z" glyph-name="G" horiz-adv-x="666" unicode="G"/>
<glyph d="M55 0l118 743h194l-46 -286h220l46 286h194l-118 -743h-194l45 283h-220l-45 -283h-194z" glyph-name="H" horiz-adv-x="708" unicode="H"/>
<glyph d="M55 0l118 743h194l-118 -743h-194z" glyph-name="I" horiz-adv-x="304" unicode="I"/>
<glyph d="M157 -6q-31 0 -66 6t-57 15l25 155h32h32q42 0 59.5 16.5t22.5 45.5l81 511h194l-88 -554q-17 -107 -71.5 -151t-163.5 -44z" glyph-name="J" horiz-adv-x="417" unicode="J"/>
<glyph d="M55 0l118 743h194l-45 -283h76l174 283h197l-229 -374l131 -369h-192l-98 286h-87l-45 -286h-194z" glyph-name="K" horiz-adv-x="671" unicode="K"/>
<glyph d="M243 0q-73 0 -116.5 37t-43.5 113q0 12 1 24.5t3 25.5l86 543h194l-82 -517q-1 -4 -1 -7v-6q0 -19 11 -29t36 -10h214l-28 -174h-274z" glyph-name="L" horiz-adv-x="537" unicode="L"/>
<glyph d="M30 0l211 743h182l70 -522l236 522h180l-29 -743h-187l16 400l-162 -400h-182l-35 392l-108 -392h-192z" glyph-name="M" horiz-adv-x="906" unicode="M"/>
<glyph d="M55 0l118 743h154l195 -414l66 414h194l-118 -743h-154l-195 414l-66 -414h-194z" glyph-name="N" horiz-adv-x="709" unicode="N"/>
<glyph d="M350 -6q-58 0 -107 10t-85 36.5t-55.5 74.5t-19.5 124q0 34 4 76.5t11 82.5q16 101 44.5 168.5t73 107.5t107 57.5t147.5 17.5q57 0 105.5 -10t84.5 -37.5t56.5 -78t20.5 -131.5q0 -31 -4 -73t-11 -83q-16 -105 -44.5 -172t-72.5 -104t-107 -51.5t-148 -14.5zM380 169 q37 0 62.5 12t42 36t27 60t17.5 84q6 38 10 73t4 56q0 35 -10 53t-32 25t-58 7q-35 0 -60 -9.5t-42 -32t-29 -61.5t-21 -99q-6 -36 -10 -70t-4 -54q0 -30 10 -47.5t33 -25t60 -7.5z" glyph-name="O" horiz-adv-x="704" unicode="O"/>
<glyph d="M55 0l118 743h306q59 0 106.5 -19t75.5 -66t28 -133q0 -16 -3.5 -39.5t-6.5 -42.5q-10 -67 -34 -112.5t-57 -73.5t-71 -40.5t-77 -12.5q-46 0 -90 7t-65 15l-36 -226h-194zM309 378h103q22 0 37.5 12t24.5 32t12 43q2 13 3.5 25t1.5 16q0 35 -12.5 49t-37.5 14h-102z" glyph-name="P" horiz-adv-x="616" unicode="P"/>
<glyph d="M500 -212q-56 0 -101.5 17.5t-72 55t-26.5 98.5h134q2 -20 17 -28.5t48 -8.5q21 0 44 3t42 7l-22 -140q-24 -4 -63 -4zM350 -6q-58 0 -107 10t-85 36.5t-55.5 74.5t-19.5 124q0 34 4 76.5t11 82.5q16 101 44.5 168.5t73 107.5t107 57.5t147.5 17.5q57 0 105.5 -10 t84.5 -37.5t56.5 -78t20.5 -131.5q0 -31 -4 -73t-11 -83q-16 -105 -44.5 -172t-72.5 -104t-107 -51.5t-148 -14.5zM380 169q37 0 62.5 12t42 36t27 60t17.5 84q6 38 10 73t4 56q0 35 -10 53t-32 25t-58 7q-35 0 -60 -9.5t-42 -32t-29 -61.5t-21 -99q-6 -36 -10 -70t-4 -54 q0 -30 10 -47.5t33 -25t60 -7.5z" glyph-name="Q" horiz-adv-x="704" unicode="Q"/>
<glyph d="M55 0l118 743h292q53 0 93.5 -11.5t67.5 -35t41 -60t14 -87.5q0 -15 -1.5 -31.5t-4.5 -34.5q-7 -50 -23.5 -84t-36.5 -55.5t-40 -34.5t-34 -21l83 -288h-197l-63 256h-18.5h-18.5h-18.5h-18.5l-41 -256h-194zM314 410h81q32 0 48.5 9.5t24.5 28t12 46.5q2 8 2 14.5v12.5 q0 15 -5 25.5t-17.5 16.5t-33.5 6h-87z" glyph-name="R" horiz-adv-x="644" unicode="R"/>
<glyph d="M309 -6q-60 0 -107.5 4.5t-83.5 11t-62 13.5l24 154q47 -4 106.5 -6.5t117.5 -2.5q38 0 60.5 4.5t33 15t13.5 28.5l2 11q1 4 1 7v6q0 20 -16.5 28t-53.5 8h-40q-91 0 -141.5 49.5t-50.5 125.5q0 21 3 43l9 57q12 72 48.5 115.5t96 63t138.5 19.5q27 0 55 -1.5t57 -5 t59 -9t61 -13.5l-24 -154q-36 4 -77.5 5.5t-82 2.5t-73.5 1q-21 0 -37 -4.5t-26.5 -14.5t-13.5 -28l-2 -11q-1 -4 -1.5 -8.5t-0.5 -8.5q0 -20 12 -30.5t39 -10.5h44q101 0 154 -48.5t53 -122.5q0 -18 -3 -39l-11 -70q-9 -60 -37.5 -101t-86 -62.5t-156.5 -21.5z" glyph-name="S" horiz-adv-x="576" unicode="S"/>
<glyph d="M204 0l90 569h-184l28 174h562l-28 -174h-184l-90 -569h-194z" glyph-name="T" horiz-adv-x="612" unicode="T"/>
<glyph d="M350 -6q-126 0 -189.5 55.5t-63.5 178.5q0 26 4 57.5t9 64.5l63 393h194l-67 -423q-3 -21 -6 -40t-3 -35q0 -37 19 -57t68 -20q26 0 45.5 7t33.5 24t24 46.5t17 74.5l67 423h194l-72 -453q-15 -94 -43 -152.5t-69.5 -89.5t-97.5 -42.5t-127 -11.5z" glyph-name="U" horiz-adv-x="696" unicode="U"/>
<glyph d="M234 0l-102 743h201l56 -532l226 532h199l-338 -743h-242z" glyph-name="V" horiz-adv-x="710" unicode="V"/>
<glyph d="M185 0l-52 743h201l20 -452l183 452h174l38 -452l164 452h201l-288 -743h-194l-54 454l-199 -454h-194z" glyph-name="W" horiz-adv-x="1050" unicode="W"/>
<glyph d="M470 0l-139 305l-209 438h211l145 -315l202 -428h-210zM8 0l319 417l74 -163l-179 -254h-214zM475 316l-73 161l187 266h214z" glyph-name="X" horiz-adv-x="680" unicode="X"/>
<glyph d="M227 0l32 200l-131 543h211l49 -335l161 335h219l-315 -543l-32 -200h-194z" glyph-name="Y" horiz-adv-x="660" unicode="Y"/>
<glyph d="M30 0l26 164l345 405h-281l28 174h503l-26 -164l-344 -405h290l-28 -174h-513z" glyph-name="Z" horiz-adv-x="573" unicode="Z"/>
<glyph d="M211 -210q-67 0 -103 23t-50 59.5t-14 76.5q0 16 2 32t4 31l99 628q8 50 25 87.5t44.5 63t67 38.5t91.5 13h90l-24 -154h-30q-28 0 -47.5 -16.5t-26.5 -61.5l-94 -588q-1 -7 -1.5 -13.5t-0.5 -12.5q0 -29 14 -40.5t38 -11.5h30l-24 -154h-90z" glyph-name="bracketleft" horiz-adv-x="344" unicode="["/>
<glyph d="M281 -72l-148 842h199l148 -842h-199z" glyph-name="backslash" horiz-adv-x="502" unicode="\"/>
<glyph d="M-22 -210l24 154h30q19 0 34 7t25.5 24t14.5 47l94 588q1 8 1.5 14t0.5 12q0 29 -14 40.5t-38 11.5h-30l24 154h90q59 0 96.5 -16.5t55 -49t17.5 -80.5q0 -13 -1 -27t-4 -29l-99 -628q-6 -37 -19.5 -76t-39 -72t-67.5 -53.5t-105 -20.5h-90z" glyph-name="bracketright" horiz-adv-x="344" unicode="]"/>
<glyph d="M112 531l122 140h131l69 -140h-111l-41 51l-58 -51h-112z" glyph-name="asciicircum" horiz-adv-x="378" unicode="^"/>
<glyph d="M-33 -211l24 154h609l-24 -154h-609z" glyph-name="underscore" unicode="_"/>
<glyph d="M219 631l-85 143h154l45 -143h-114z" glyph-name="grave" horiz-adv-x="244" unicode="`"/>
<glyph d="M203 -6q-37 0 -68.5 19.5t-50.5 61t-19 107.5q0 31 4.5 64t7.5 53q13 82 48 136.5t95 82t147 27.5q52 0 98 -9t83 -24t61 -33l-76 -479h-174l-12 52q-14 -13 -37 -26.5t-50.5 -22.5t-56.5 -9zM302 149q23 0 39.5 10t24.5 19l33 205q-4 2 -15.5 4.5t-25.5 2.5 q-26 0 -44.5 -13t-30 -36t-16.5 -53q-4 -21 -6 -40.5t-2 -29.5q0 -25 8.5 -47t34.5 -22z" glyph-name="a" horiz-adv-x="575" unicode="a"/>
<glyph d="M398 -6q-30 0 -58 6.5t-51.5 19t-41.5 29.5l-29 -49h-174l121 763h194l-39 -248q28 14 60 22t56 8q81 0 126.5 -51t45.5 -143q0 -22 -4 -56t-10 -72q-11 -75 -38.5 -126t-67.5 -77t-90 -26zM335 149q27 0 46 25.5t29 98.5q2 14 3 26t1 21q0 41 -13 55.5t-32 14.5 q-16 0 -36.5 -3.5t-34.5 -11.5l-32 -204q12 -12 27 -17t42 -5z" glyph-name="b" horiz-adv-x="589" unicode="b"/>
<glyph d="M270 -6q-62 0 -107.5 20t-69.5 65.5t-24 124.5q0 17 2.5 42.5t6.5 53.5q14 91 49 144.5t87 77t115 23.5q47 0 95 -10.5t95 -25.5l-18 -111h-125q-37 0 -58.5 -16t-32.5 -45t-18 -67q-3 -19 -4 -30.5t-1 -16.5q0 -28 8 -46.5t24 -28t40 -9.5h133l-17 -109q-35 -16 -77 -26 t-103 -10z" glyph-name="c" horiz-adv-x="471" unicode="c"/>
<glyph d="M215 -6q-76 0 -111.5 51.5t-35.5 140.5q0 56 12 117q15 76 43 130t82 83t146 29q20 0 40 -1t36 -3l35 222h194l-121 -763h-174l-12 52q-18 -17 -39.5 -30t-45.5 -20.5t-49 -7.5zM305 149q23 0 38 9t26 20l33 205q-5 2 -16 4.5t-25 2.5q-16 0 -34.5 -7t-34.5 -32t-26 -80 q-2 -14 -3.5 -27t-1.5 -27q0 -27 6 -41.5t16 -20.5t22 -6z" glyph-name="d" horiz-adv-x="580" unicode="d"/>
<glyph d="M278 -6q-78 0 -124 25t-66 72t-20 112q0 26 2.5 50t6.5 46q15 92 53 145.5t97.5 77t136.5 23.5q38 0 76 -7t69 -25t50 -51t19 -86q0 -58 -17 -95t-47.5 -56.5t-70.5 -27t-86 -7.5q-30 0 -55 2t-42 6q-1 -4 -1.5 -9.5t-0.5 -10.5q0 -22 23.5 -32.5t75.5 -10.5h179 l-18 -113q-45 -11 -107 -19.5t-133 -8.5zM311 295q37 0 55.5 7.5t25 21t6.5 31.5q0 20 -11.5 31.5t-35.5 11.5q-22 0 -37.5 -11t-25.5 -33t-16 -55q10 -1 20 -2.5t19 -1.5z" glyph-name="e" horiz-adv-x="548" unicode="e"/>
<glyph d="M80 0l61 385h-71l20 124l75 30l13 77q8 45 25 74.5t44 47t63.5 24.5t81.5 7q38 0 70 -3t54 -8l-23 -143h-63q-21 0 -36 -4.5t-23 -16t-10 -34.5l-2 -21h109l-24 -154h-109l-61 -385h-194z" glyph-name="f" horiz-adv-x="401" unicode="f"/>
<glyph d="M151 -232l-125 11l21 134h174q34 0 58 4.5t38.5 18.5t18.5 40l12 76q-13 -14 -37.5 -27.5t-53 -22t-54.5 -8.5q-50 0 -80.5 27.5t-43.5 71t-13 90.5q0 26 5 63t9 67q11 71 39 116.5t67.5 70.5t85 35t92.5 10q80 0 145 -13t105 -27l-89 -559q-9 -55 -34 -93t-70 -59.5 t-111.5 -27.5t-158.5 2zM305 149q20 0 36 9t26 20l33 205q-10 4 -22 5.5t-23 1.5q-17 0 -34.5 -9.5t-31 -31t-20.5 -58.5q-5 -31 -7 -44t-2 -30q0 -34 11.5 -51t33.5 -17z" glyph-name="g" horiz-adv-x="582" unicode="g"/>
<glyph d="M44 0l121 763h194l-44 -276q26 22 69.5 40t101.5 18q63 0 97.5 -31t34.5 -105q0 -30 -6 -69l-54 -340h-194l50 318q1 4 1 7.5v7.5q0 23 -12 30.5t-29 7.5q-25 0 -46 -10t-37 -27l-53 -334h-194z" glyph-name="h" horiz-adv-x="600" unicode="h"/>
<glyph d="M162 607q-10 0 -16 6.5t-4 16.5l17 111q5 25 28 25h152q11 0 15.5 -7t2.5 -18l-17 -111q-5 -23 -26 -23h-152zM44 0l85 539h194l-85 -539h-194z" glyph-name="i" horiz-adv-x="280" unicode="i"/>
<glyph d="M162 607q-10 0 -16 6.5t-4 16.5l17 111q5 25 28 25h152q11 0 15.5 -7t2.5 -18l-17 -111q-5 -23 -26 -23h-152zM6 -237l123 776h194l-86 -543q-10 -63 -35.5 -124t-51.5 -109h-144z" glyph-name="j" horiz-adv-x="280" unicode="j"/>
<glyph d="M44 0l121 763h194l-63 -397q38 11 67 33.5t49 57.5t31 82h194q-20 -75 -47.5 -124.5t-57.5 -79.5t-58 -47l131 -288h-198l-94 228q-9 -2 -20.5 -4t-19.5 -2l-35 -222h-194z" glyph-name="k" horiz-adv-x="587" unicode="k"/>
<glyph d="M256 0q-92 0 -138.5 36.5t-46.5 92.5q0 17 0.5 32t2.5 28l91 574h194l-80 -505q-1 -6 -3 -20t-3.5 -27.5t-1.5 -21.5q0 -24 12 -31.5t34 -11.5l29 -5l-22 -141h-68z" glyph-name="l" horiz-adv-x="342" unicode="l"/>
<glyph d="M44 0l85 539h162l24 -52q32 25 71.5 41.5t100.5 16.5q42 0 73.5 -17t53.5 -61q43 44 92 61t88 17q82 0 112.5 -36t30.5 -92q0 -25 -2 -48.5t-6 -46.5l-51 -322h-194l50 317q1 4 1 7.5v6.5q0 40 -46 40q-19 0 -39.5 -9.5t-38.5 -27.5q-1 -4 -1.5 -9t-1.5 -10l-50 -315 h-194l50 317q1 5 1 8.5v6.5q0 23 -12.5 31t-32.5 8q-28 0 -46.5 -11.5t-32.5 -25.5l-53 -334h-194z" glyph-name="m" horiz-adv-x="921" unicode="m"/>
<glyph d="M44 0l85 539h162l24 -52q30 24 72 41t97 17q42 0 72 -15t46 -41.5t16 -61.5q0 -19 -1.5 -43.5t-10.5 -79.5l-48 -304h-194l47 298q2 14 3 22.5t1 13.5q0 18 -10.5 27.5t-34.5 9.5q-22 0 -43 -10.5t-36 -26.5l-53 -334h-194z" glyph-name="n" horiz-adv-x="600" unicode="n"/>
<glyph d="M289 -6q-75 0 -124 22.5t-73 65t-24 103.5q0 31 2 56t6 48q13 81 36 131.5t59 77.5t86.5 37t117.5 10q92 0 139.5 -21.5t64 -66t16.5 -113.5q0 -24 -2 -52t-7 -57q-15 -98 -51.5 -150.5t-96.5 -71.5t-149 -19zM309 149q21 0 35 5t22.5 17t14.5 34.5t12 56.5q4 28 6.5 50 t2.5 41q0 24 -12.5 32.5t-39.5 8.5q-21 0 -34.5 -5.5t-22.5 -20t-15 -40.5t-12 -66q-3 -20 -4.5 -36.5t-1.5 -31.5q0 -17 5 -27t15.5 -14t28.5 -4z" glyph-name="o" horiz-adv-x="579" unicode="o"/>
<glyph d="M6 -237l119 748q79 15 146.5 24.5t140.5 9.5q103 0 142.5 -50t39.5 -147q0 -25 -2.5 -52.5t-7.5 -57.5q-14 -87 -51 -140.5t-89 -78.5t-111 -25q-28 0 -54.5 4t-39.5 11l-39 -246h-194zM309 158q23 0 40.5 10.5t30 36t19.5 69.5q2 11 3 20.5t1 18.5q0 41 -10.5 59 t-36.5 18h-57l-36 -225q4 -2 11 -3.5t16 -2.5t19 -1z" glyph-name="p" horiz-adv-x="576" unicode="p"/>
<glyph d="M300 -237l46 289q-20 -22 -59 -40t-82 -18q-74 0 -106.5 47.5t-32.5 137.5q0 26 3 53.5t7 57.5q12 77 39 127t64.5 78t81.5 39t91 11q80 0 151 -11.5t109 -28.5l-118 -742h-194zM302 149q20 0 37 9t27 20l33 205q-13 4 -23.5 5.5t-20.5 1.5q-29 0 -46.5 -13t-27 -38.5 t-16.5 -61.5q-4 -20 -5.5 -35t-1.5 -24q0 -35 11.5 -52t32.5 -17z" glyph-name="q" horiz-adv-x="573" unicode="q"/>
<glyph d="M45 0l85 539h174l9 -72q26 32 59 55t77 23q14 0 24.5 -1t21.5 -4l-29 -194h-29h-29q-42 0 -72.5 -11t-47.5 -25l-49 -310h-194z" glyph-name="r" horiz-adv-x="435" unicode="r"/>
<glyph d="M262 -6q-39 0 -69.5 2t-56 6t-47.5 10t-43 13l18 113h242q13 0 21 5.5t9 12.5l2 12q1 5 1 6.5v2.5q0 15 -25 15h-68q-44 0 -81 12.5t-59 39t-22 68.5q0 11 0.5 23t2.5 25l6 35q8 43 32 77t74 53.5t134 19.5q35 0 73 -4t73.5 -11t61.5 -17l-18 -113h-227q-15 0 -22 -4 t-10 -15l-1 -4q-1 -4 -1.5 -7.5t-0.5 -6.5q0 -7 4.5 -12t20.5 -5h81q69 0 110 -30t41 -80q0 -12 -0.5 -25t-2.5 -26l-7 -47q-12 -79 -77 -111.5t-169 -32.5z" glyph-name="s" horiz-adv-x="516" unicode="s"/>
<glyph d="M289 0q-89 0 -134.5 30.5t-45.5 96.5q0 17 2 41.5t8 56.5l31 160h-83l20 124l95 30l48 151h154l-24 -151h109l-24 -154h-109l-26 -161q-1 -6 -3 -19t-2 -22q0 -18 9.5 -24.5t29.5 -8.5l59 -6l-23 -144h-91z" glyph-name="t" horiz-adv-x="424" unicode="t"/>
<glyph d="M196 -6q-69 0 -99 34t-30 94q0 23 1.5 38.5t3.5 30.5l55 348h194l-50 -321q-1 -4 -1 -7v-8q0 -22 13.5 -28.5t28.5 -6.5q26 0 46.5 11t35.5 26l53 334h194l-85 -539h-174l-12 52q-27 -19 -51.5 -32t-53 -19.5t-69.5 -6.5z" glyph-name="u" horiz-adv-x="600" unicode="u"/>
<glyph d="M156 0l-81 539h200l25 -360l79 199q17 42 28 80.5t15 88.5h181q-2 -68 -27.5 -131.5t-51.5 -118.5l-144 -297h-224z" glyph-name="v" horiz-adv-x="557" unicode="v"/>
<glyph d="M152 0l-77 539h200l24 -360l141 360h123l63 -360l61 216q5 15 12.5 41.5t14 56t8.5 54.5h192q0 -37 -9.5 -78.5t-23 -79t-25.5 -63.5l-150 -326h-205l-45 222l-99 -222h-205z" glyph-name="w" horiz-adv-x="869" unicode="w"/>
<glyph d="M382 0l-121 208l-193 331h198l139 -236l176 -303h-199zM-6 0l265 321l53 -175l-120 -146h-198zM393 202l-70 157l124 180h208z" glyph-name="x" horiz-adv-x="575" unicode="x"/>
<glyph d="M96 -237v136q69 14 112 36t65 65q-58 5 -90.5 25t-46.5 53t-18 78l-32 383h200l3 -342q0 -15 6.5 -24t16.5 -12.5t19 -4.5l86 238q13 35 23 74t11 79h184q0 -66 -18 -137.5t-56 -152.5l-116 -247q-42 -89 -93 -141t-114 -76.5t-142 -29.5z" glyph-name="y" horiz-adv-x="587" unicode="y"/>
<glyph d="M31 0l22 138l256 247h-228l24 154h452l-21 -138l-257 -247h217l-2 -16t-6 -38.5t-7.5 -45.5t-6 -38.5l-2.5 -15.5h-441z" glyph-name="z" horiz-adv-x="502" unicode="z"/>
<glyph d="M291 -210q-77 0 -125 13t-70 42t-22 75q0 18 4 49.5t10.5 68.5t12.5 72.5t10 61t4 32.5q0 22 -11.5 31.5t-40.5 9.5l28 177q17 2 31.5 7t24 16t12.5 30l29 181q12 75 44.5 115.5t88 55.5t137.5 15l-25 -154q-21 0 -32 -7.5t-16.5 -23.5t-9.5 -43l-27 -174 q-8 -55 -40 -78.5t-82 -27.5q42 -9 65.5 -30t23.5 -56q0 -9 -3 -30.5t-7.5 -49.5t-9 -58.5t-9 -58.5t-7.5 -48.5t-3 -28.5q0 -19 8 -29.5t30 -10.5z" glyph-name="braceleft" horiz-adv-x="322" unicode="{"/>
<glyph d="M37 -72l133 842h154l-133 -842h-154z" glyph-name="bar" horiz-adv-x="250" unicode="|"/>
<glyph d="M-23 -210l23 144q23 0 34 9.5t15.5 24t6.5 28.5l35 215q7 43 38.5 68t81.5 35q-42 3 -66 21t-24 59q0 10 3.5 37t9 61.5t10.5 68.5t8.5 58.5t3.5 30.5q0 23 -8.5 30.5t-28.5 7.5l24 154q73 0 120.5 -17t70.5 -50t23 -81q0 -3 -2.5 -21.5t-6.5 -45t-9 -56t-9 -56.5 t-6.5 -46t-2.5 -24q0 -15 7 -24t19.5 -13t26.5 -6l-28 -177q-28 0 -45 -12t-22 -41l-33 -210q-9 -54 -27.5 -88t-50 -52t-78.5 -25t-113 -7z" glyph-name="braceright" horiz-adv-x="322" unicode="}"/>
<glyph d="M348 531q-16 0 -30 5.5t-26.5 12t-25.5 12t-28 5.5q-29 0 -51 -8.5t-48 -26.5l-16 67q23 27 57.5 50.5t76.5 23.5q15 0 29 -5.5t27.5 -12t26 -12t24.5 -5.5q19 0 35.5 5.5t31 14.5t26.5 20l15 -74q-21 -25 -53.5 -48.5t-70.5 -23.5z" glyph-name="asciitilde" horiz-adv-x="404" unicode="~"/>
<glyph glyph-name="uni00A0" horiz-adv-x="250" unicode=" "/>
<glyph d="M266 337l-62 -536h-194l112 536h144zM281 545q21 0 21 -19v-2v-2l-19 -117q-3 -25 -28 -25h-113q-21 0 -21 18v4v3l19 117q2 14 10 18.5t18 4.5h113z" glyph-name="exclamdown" horiz-adv-x="277" unicode="¡"/>
<glyph d="M197 -95l14 90q-44 6 -79.5 24t-55.5 59.5t-20 120.5q0 82 19 144t53 104t78 64.5t95 24.5l15 98h108l-15 -100q30 -3 62 -11.5t64 -22.5l-18 -114l-41 3t-108 3q-31 0 -53 -14t-36 -39t-20.5 -59.5t-6.5 -75.5q0 -26 7.5 -40t24.5 -19.5t44 -5.5q46 0 81.5 2t55.5 4 l20 2l-18 -114q-34 -20 -72 -28t-76 -11l-14 -89h-108z" glyph-name="cent" horiz-adv-x="485" unicode="¢"/>
<glyph d="M54 0l24 149l86 25l20 130l-80 13l15 95l87 27l6 43q15 94 51 152.5t98 86.5t155 28q56 0 99 -5.5t71 -10.5l-25 -157h-165q-27 0 -44.5 -6.5t-27 -22t-14.5 -43.5l-10 -65l158 -17l-17 -105l-163 -13l-20 -130h239l-28 -174h-515z" glyph-name="sterling" unicode="£"/>
<glyph d="M338 171q-46 0 -83 22t-58.5 59t-21.5 81q0 54 27.5 101.5t75 77t106.5 29.5q46 0 83 -22.5t59 -59t22 -80.5q0 -53 -27.5 -101t-75 -77.5t-107.5 -29.5zM152 109l-65 77l125 108l71 -77zM492 109l-89 106l89 77l89 -106zM347 265q29 0 53.5 12.5t38.5 36t14 56.5 q0 32 -22 54.5t-56 22.5q-29 0 -52.5 -12.5t-37.5 -35.5t-14 -57q0 -32 21.5 -54.5t54.5 -22.5zM228 422l-87 104l89 77l88 -104zM512 420l-65 77l123 106l65 -77z" glyph-name="currency" unicode="¤"/>
<glyph d="M115 261l15 94h454l-15 -94h-454zM92 114l15 94h454l-15 -94h-454zM204 0l32 200l-131 543h211l49 -335l161 335h219l-315 -543l-32 -200h-194z" glyph-name="yen" unicode="¥"/>
<glyph d="M116 429l54 341h154l-54 -341h-154zM37 -72l52 328h154l-52 -328h-154z" glyph-name="brokenbar" horiz-adv-x="250" unicode="¦"/>
<glyph d="M313 -6q-30 0 -61.5 0.5t-63 2.5t-61.5 5.5t-57 8.5l21 137h204q15 0 23 2t12 6t5 11q2 8 2.5 14t0.5 7q0 6 -5.5 9t-19.5 3h-80q-68 0 -110 20.5t-42 76.5q0 6 0.5 12.5t1.5 13.5l5 32q7 42 27.5 65t63.5 39q-27 15 -37.5 38t-10.5 52q0 10 1 20.5t2 20.5l8 48 q7 40 30.5 73t68.5 53t114 20q26 0 57 -1t63 -3.5t61 -6t50 -9.5l-21 -134h-204q-14 0 -22.5 -3t-12.5 -8.5t-5 -12.5q-1 -6 -1.5 -9.5t-0.5 -5.5q0 -7 4.5 -11.5t20.5 -4.5h77q76 0 116 -22.5t40 -75.5q0 -12 -3 -27l-5 -32q-4 -29 -26 -58t-62 -45q26 -9 39 -29.5 t13 -52.5q0 -7 -0.5 -14.5t-2.5 -15.5l-7 -43q-10 -64 -39 -100.5t-72.5 -51t-98.5 -14.5zM305 344h30q13 0 21.5 2t14 8.5t7.5 19.5l5 29v3v2q0 11 -8.5 16.5t-25.5 5.5h-30q-19 0 -28 -7.5t-11 -21.5l-5 -28v-2.5v-2.5q0 -12 8.5 -18t21.5 -6z" glyph-name="section" horiz-adv-x="532" unicode="§"/>
<glyph d="M346 627q-20 0 -20 19q0 1 1 6t5 29t13 80q3 25 26 25h90q20 0 20 -20l-0.5 -5.5t-4.5 -29.5t-13 -81q-3 -23 -27 -23h-90zM149 627q-20 0 -20 19q0 1 1 6t5 29t13 80q3 25 26 25h90q20 0 20 -20l-0.5 -5.5t-4.5 -29.5t-13 -81q-3 -23 -27 -23h-90z" glyph-name="dieresis" horiz-adv-x="390" unicode="¨"/>
<glyph d="M338 0q-60 0 -107.5 18t-81 52t-51.5 81.5t-18 106.5q0 61 9.5 127t32.5 128t62 111.5t98.5 78.5t141.5 29h170q79 0 132 -28t80 -79t27 -121q0 -97 -24 -187.5t-67.5 -162t-103 -113t-130.5 -41.5h-170zM393 147q-35 0 -66 12.5t-49.5 44.5t-18.5 91q0 51 15 102t42 93 t64.5 67.5t82.5 25.5q19 0 48 -2t60.5 -7t56.5 -15l-15 -92q-27 4 -50 6.5t-42 4t-34 1.5q-30 0 -51.5 -13.5t-35 -36t-19.5 -50.5t-6 -58q0 -39 18 -54.5t55 -15.5q41 0 76 5.5t63 10.5l-14 -92q-41 -20 -87 -24t-93 -4zM324 104h190q41 0 79 27t68.5 77t48.5 121t18 159 q0 39 -12 70.5t-38.5 50.5t-70.5 19h-200q-54 0 -95.5 -28.5t-69.5 -77.5t-42.5 -112.5t-14.5 -133.5q0 -40 9 -71.5t26.5 -54t43.5 -34.5t60 -12z" glyph-name="copyright" horiz-adv-x="792" unicode="©"/>
<glyph d="M60 248l14 88h372l-14 -88h-372zM189 356q-40 0 -70 32.5t-30 105.5q0 23 3.5 48t5.5 39q14 86 66.5 130.5t149.5 44.5q61 0 109 -15t76 -34l-55 -347h-144l-11 37q-10 -10 -26 -19.5t-35 -15.5t-39 -6zM272 488q12 0 20.5 5.5t12.5 10.5l20 120h-8.5h-10.5 q-14 0 -24 -7.5t-15.5 -19t-9.5 -24.5q-8 -30 -8 -52q0 -9 3.5 -21t19.5 -12z" glyph-name="ordfeminine" horiz-adv-x="412" unicode="ª"/>
<glyph d="M259 56l-195 228l261 223l82 -95l-150 -128l111 -130zM509 56l-195 228l261 223l82 -95l-150 -128l111 -130z" glyph-name="guillemotleft" horiz-adv-x="626" unicode="«"/>
<glyph d="M399 159l49 308h154l-49 -308h-154zM143 399l25 154h448l-25 -154h-448z" glyph-name="logicalnot" unicode="¬"/>
<glyph d="M54 213l24 154h314l-24 -154h-314z" glyph-name="uni00AD" horiz-adv-x="353" unicode="­"/>
<glyph d="M338 0q-60 0 -107.5 18t-81 52t-51.5 81.5t-18 106.5q0 61 9.5 127t32.5 128t62 111.5t98.5 78.5t141.5 29h170q79 0 132 -28t80 -79t27 -121q0 -97 -24 -187.5t-67.5 -162t-103 -113t-130.5 -41.5h-170zM261 153l68 427h187q29 0 55.5 -8.5t43 -31t16.5 -63.5 q0 -35 -10.5 -70t-30 -60.5t-47.5 -35.5l59 -158h-114l-51 162h-36l-26 -162h-114zM324 104h190q41 0 79 27t68.5 77t48.5 121t18 159q0 39 -12 70.5t-38.5 50.5t-70.5 19h-200q-54 0 -95.5 -28.5t-69.5 -77.5t-42.5 -112.5t-14.5 -133.5q0 -40 9 -71.5t26.5 -54t43.5 -34.5 t60 -12zM414 399h69q9 0 16 8.5t11.5 21.5t4.5 25q0 13 -5.5 17.5t-14.5 4.5h-69z" glyph-name="registered" horiz-adv-x="792" unicode="®"/>
<glyph d="M128 631l18 114h292l-18 -114h-292z" glyph-name="macron" horiz-adv-x="348" unicode="¯"/>
<glyph d="M230 470q-58 0 -94 36.5t-36 97.5q0 43 19 82t59 64t101 25q60 0 94.5 -36.5t34.5 -96.5q0 -44 -18 -83.5t-57.5 -64t-102.5 -24.5zM244 557q34 0 55 21t21 58q0 24 -14.5 38t-40.5 14q-34 0 -55.5 -22t-21.5 -57q0 -24 15.5 -38t40.5 -14z" glyph-name="degree" horiz-adv-x="311" unicode="°"/>
<glyph d="M92 79l25 154h448l-25 -154h-448zM272 282l70 448h154l-70 -448h-154zM148 429l24 154h448l-24 -154h-448z" glyph-name="plusminus" unicode="±"/>
<glyph d="M95 355l19 119l157 149q20 21 33 38.5t13 24.5q0 11 -6.5 14t-19.5 3h-136l19 120q33 8 74 15.5t96 7.5q75 0 106 -25.5t31 -75.5q0 -52 -22.5 -97t-81.5 -101l-58 -57h137l-22 -135h-339z" glyph-name="uni00B2" horiz-adv-x="414" unicode="²"/>
<glyph d="M295 351q-54 0 -104.5 5.5t-94.5 15.5l20 122h140q25 0 36.5 1.5t15.5 4t4 5.5l1 6v3v2q0 6 -3.5 10t-11.5 6.5t-21 2.5l-116 5l19 118l110 8q23 2 33.5 5t11.5 10l1 6v1.5v1.5q0 8 -10.5 10.5t-38.5 2.5h-135l19 121q54 10 104 16t98 6q56 0 89 -23.5t34 -75.5 q0 -6 -0.5 -13t-1.5 -15l-5 -30q-3 -19 -9 -36.5t-19 -31t-38 -22.5q18 -6 27 -17.5t12.5 -27t3.5 -33.5q0 -7 -0.5 -15t-2.5 -16l-3 -18q-10 -60 -53.5 -90.5t-111.5 -30.5z" glyph-name="uni00B3" horiz-adv-x="414" unicode="³"/>
<glyph d="M111 631l81 143h164l-121 -143h-124z" glyph-name="acute" horiz-adv-x="244" unicode="´"/>
<glyph d="M265 -6q-30 0 -64 10.5t-64 31.5t-48.5 52.5t-18.5 73.5q0 8 0.5 15t1.5 14l55 348h194l-51 -322q0 -4 -0.5 -7.5t-0.5 -7.5q0 -22 13 -29.5t33 -7.5q23 0 44 9t34 22l54 343h194l-85 -539h-162l-14 52q-22 -28 -49 -43t-66 -15zM-1 -270l83 525h194l-83 -525h-194z" glyph-name="uni00B5" horiz-adv-x="600" unicode="µ"/>
<glyph d="M189 -270l94 589q-9 -5 -27 -11t-44 -6q-65 0 -93.5 32.5t-28.5 80.5q0 8 1 18t5 32l22 138q8 48 32 79t61.5 46t84.5 15h406l-20 -126h-50l-98 -617h-124l98 619h-54l-141 -889h-124zM255 426h44l31 193h-44q-27 0 -36 -10t-14 -40l-14 -87q-2 -13 -3 -20.5t-1 -11.5 q0 -10 4.5 -15t13 -7t19.5 -2z" glyph-name="paragraph" horiz-adv-x="574" unicode="¶"/>
<glyph d="M120 305q-10 0 -16 6.5t-5 16.5l19 117q3 25 28 25h113q26 0 21 -25l-19 -117q-2 -13 -9.5 -18t-18.5 -5h-113z" glyph-name="periodcentered" horiz-adv-x="256" unicode="·"/>
<glyph d="M-4 -203l12 79l16 3q14 3 22 8t11 11.5t3 12.5q0 8 -6 15.5t-21 11.5l78 15q27 0 49.5 -14.5t22.5 -51.5q0 -24 -13 -44.5t-41 -33t-74 -12.5h-59zM33 -62l63 82h86l-63 -82h-86z" glyph-name="cedilla" horiz-adv-x="238" unicode="¸"/>
<glyph d="M195 355l57 357h-85l15 96l108 38h137l-78 -491h-154zM103 355l22 135h337l-22 -135h-337z" glyph-name="uni00B9" horiz-adv-x="414" unicode="¹"/>
<glyph d="M60 248l14 88h372l-14 -88h-372zM259 356q-58 0 -95 17t-54.5 48.5t-18.5 74.5q0 24 2 42.5t4 34.5q13 79 39.5 118t72 52t112.5 13q71 0 106.5 -16t48 -48.5t12.5 -84.5q0 -17 -1.5 -37.5t-5.5 -41.5q-11 -71 -38 -108.5t-72.5 -50.5t-111.5 -13zM276 488q16 0 24.5 5.5 t13 19t8.5 37.5q4 21 4.5 34.5t0.5 26.5q-1 9 -7 12.5t-20 3.5q-16 0 -24.5 -5.5t-12 -19.5t-7.5 -39q-4 -23 -4 -34v-22q1 -5 2.5 -9.5t6.5 -7t15 -2.5z" glyph-name="ordmasculine" horiz-adv-x="424" unicode="º"/>
<glyph d="M131 56l-77 98l151 130l-110 128l112 95l191 -223zM381 56l-77 98l151 130l-110 128l112 95l191 -223z" glyph-name="guillemotright" horiz-adv-x="626" unicode="»"/>
<glyph d="M289 0l488 770h131l-488 -770h-131zM924 -75l13 79h-198l-16 66l185 342h157l-148 -281h40l8 54l40 68h125l-19 -122h32l-18 -104l-34 -23l-13 -79h-154zM195 355l57 357h-85l15 96l108 38h137l-78 -491h-154zM103 355l22 135h337l-22 -135h-337z" glyph-name="onequarter" horiz-adv-x="1157" unicode="¼"/>
<glyph d="M289 0l488 770h131l-488 -770h-131zM760 -75l19 119l157 149q20 21 33 38.5t13 24.5q0 11 -6.5 14t-19.5 3h-136l19 120q33 8 74 15.5t96 7.5q75 0 106 -25.5t31 -75.5q0 -52 -22.5 -97t-81.5 -101l-58 -57h137l-22 -135h-339zM195 355l57 357h-85l15 96l108 38h137 l-78 -491h-154zM103 355l22 135h337l-22 -135h-337z" glyph-name="onehalf" horiz-adv-x="1157" unicode="½"/>
<glyph d="M289 0l488 770h131l-488 -770h-131zM924 -65l13 79h-198l-16 66l185 342h157l-148 -281h40l8 54l40 68h125l-19 -122h32l-18 -104l-34 -23l-13 -79h-154zM305 351q-54 0 -104.5 5.5t-94.5 15.5l20 122h140q25 0 36.5 1.5t15.5 4t4 5.5l1 6v3v2q0 6 -3.5 10t-11.5 6.5 t-21 2.5l-116 5l19 118l110 8q23 2 33.5 5t11.5 10l1 6v1.5v1.5q0 8 -10.5 10.5t-38.5 2.5h-135l19 121q54 10 104 16t98 6q56 0 89 -23.5t34 -75.5q0 -6 -0.5 -13t-1.5 -15l-5 -30q-3 -19 -9 -36.5t-19 -31t-38 -22.5q18 -6 27 -17.5t12.5 -27t3.5 -33.5q0 -7 -0.5 -15 t-2.5 -16l-3 -18q-10 -60 -53.5 -90.5t-111.5 -30.5z" glyph-name="threequarters" horiz-adv-x="1156" unicode="¾"/>
<glyph d="M447 337l-35 -224h-82q-21 0 -38.5 -5t-28.5 -17t-15 -35l-3 -15v-6v-5q0 -28 23 -40t64 -12q39 0 77.5 8.5t78.5 21.5l-23 -144q-38 -23 -94 -41.5t-127 -18.5q-98 0 -149.5 47.5t-51.5 121.5q0 18 3 36l9 51q15 96 74 146.5t162 50.5l12 80h144zM462 545q21 0 21 -19 v-2v-2l-19 -117q-3 -25 -28 -25h-113q-21 0 -21 18v4v3l19 117q2 14 10 18.5t18 4.5h113z" glyph-name="questiondown" horiz-adv-x="528" unicode="¿"/>
<glyph d="M15 0l338 743h242l102 -743h-201l-11 118h-223l-48 -118h-199zM334 292h133l-21 286zM438 791l-85 143h154l45 -143h-114z" glyph-name="Agrave" horiz-adv-x="709" unicode="À"/>
<glyph d="M15 0l338 743h242l102 -743h-201l-11 118h-223l-48 -118h-199zM334 292h133l-21 286zM410 791l81 143h164l-121 -143h-124z" glyph-name="Aacute" horiz-adv-x="709" unicode="Á"/>
<glyph d="M15 0l338 743h242l102 -743h-201l-11 118h-223l-48 -118h-199zM334 292h133l-21 286zM305 791l123 146h131l68 -146h-111l-39 61l-60 -61h-112z" glyph-name="Acircumflex" horiz-adv-x="709" unicode="Â"/>
<glyph d="M15 0l338 743h242l102 -743h-201l-11 118h-223l-48 -118h-199zM334 292h133l-21 286zM281 785q20 78 55 107.5t78 29.5q23 0 42 -4.5t36 -10t31.5 -10t27.5 -4.5q15 0 23.5 10t11.5 26h96q-20 -77 -51 -109.5t-80 -32.5q-21 0 -41.5 4.5t-38.5 10t-33 10t-25 4.5 q-16 0 -24 -10.5t-12 -20.5h-96z" glyph-name="Atilde" horiz-adv-x="709" unicode="Ã"/>
<glyph d="M15 0l338 743h242l102 -743h-201l-11 118h-223l-48 -118h-199zM334 292h133l-21 286zM527 787q-20 0 -20 19q0 1 1 6t5 29t13 80q3 25 26 25h90q20 0 20 -20l-0.5 -5.5t-4.5 -29.5t-13 -81q-3 -23 -27 -23h-90zM330 787q-20 0 -20 19q0 1 1 6t5 29t13 80q3 25 26 25h90 q20 0 20 -20l-0.5 -5.5t-4.5 -29.5t-13 -81q-3 -23 -27 -23h-90z" glyph-name="Adieresis" horiz-adv-x="709" unicode="Ä"/>
<glyph d="M15 0l338 743h242l102 -743h-201l-11 118h-223l-48 -118h-199zM334 292h133l-21 286zM477 760q-58 0 -89 23t-31 80q0 37 17.5 66.5t50.5 47.5t81 18q59 0 89 -23.5t30 -79.5t-37.5 -94t-110.5 -38zM486 829q26 0 38 18t12 42q0 20 -10.5 28.5t-27.5 8.5q-28 0 -40 -18.5 t-12 -41.5q0 -20 10.5 -28.5t29.5 -8.5z" glyph-name="Aring" horiz-adv-x="709" unicode="Å"/>
<glyph d="M655 -6q-44 0 -76.5 5.5t-53.5 18.5t-31.5 34t-10.5 51v15h-202l-86 -118h-189l370 552q55 82 121 122.5t137.5 54.5t140.5 14q53 0 132.5 -4t164.5 -12l-26 -163h-259q-19 0 -32 -3.5t-20 -11t-11.5 -20.5t-7.5 -33l-6 -38l268 -10l-24 -154l-271 -10l-9 -56 q-4 -26 6 -37t26.5 -13t30.5 -2h248l-26 -162q-31 -4 -71 -7.5t-81 -5.5t-75.5 -4t-55.5 -2.5zM392 282h117l38 245z" glyph-name="AE" horiz-adv-x="1011" unicode="Æ"/>
<glyph d="M348 -6q-133 0 -197.5 71t-64.5 193q0 32 3 67.5t9 73.5q18 117 56 194.5t103 116.5t163 39q93 0 154.5 -16.5t93.5 -32.5l-25 -154q-40 12 -91 20.5t-96 8.5q-32 0 -58 -5.5t-46 -25.5t-35 -62t-27 -116q-5 -34 -8.5 -61.5t-3.5 -48.5q0 -46 26.5 -67t95.5 -21 q63 0 103 3.5t82 7.5l-24 -153q-51 -20 -107 -26t-106 -6zM195 -203l12 79l16 3q14 3 22 8t11 11.5t3 12.5q0 8 -6 15.5t-21 11.5l78 15q27 0 49.5 -14.5t22.5 -51.5q0 -24 -13 -44.5t-41 -33t-74 -12.5h-59zM232 -62l63 82h86l-63 -82h-86z" glyph-name="Ccedilla" horiz-adv-x="592" unicode="Ç"/>
<glyph d="M251 -6q-28 0 -60.5 6.5t-60.5 25.5t-42.5 54.5t-5.5 92.5l61 383q11 71 41.5 111.5t76 58t99.5 17.5q75 0 150 -4t154 -11l-26 -164h-248q-31 0 -43.5 -14.5t-17.5 -42.5l-7 -47l246 -10l-24 -154l-250 -10l-9 -58q-2 -16 1.5 -28t14.5 -18t30 -6h246l-26 -164 q-70 -7 -143 -12.5t-157 -5.5zM388 791l-85 143h154l45 -143h-114z" glyph-name="Egrave" horiz-adv-x="604" unicode="È"/>
<glyph d="M251 -6q-28 0 -60.5 6.5t-60.5 25.5t-42.5 54.5t-5.5 92.5l61 383q11 71 41.5 111.5t76 58t99.5 17.5q75 0 150 -4t154 -11l-26 -164h-248q-31 0 -43.5 -14.5t-17.5 -42.5l-7 -47l246 -10l-24 -154l-250 -10l-9 -58q-2 -16 1.5 -28t14.5 -18t30 -6h246l-26 -164 q-70 -7 -143 -12.5t-157 -5.5zM360 791l81 143h164l-121 -143h-124z" glyph-name="Eacute" horiz-adv-x="604" unicode="É"/>
<glyph d="M251 -6q-28 0 -60.5 6.5t-60.5 25.5t-42.5 54.5t-5.5 92.5l61 383q11 71 41.5 111.5t76 58t99.5 17.5q75 0 150 -4t154 -11l-26 -164h-248q-31 0 -43.5 -14.5t-17.5 -42.5l-7 -47l246 -10l-24 -154l-250 -10l-9 -58q-2 -16 1.5 -28t14.5 -18t30 -6h246l-26 -164 q-70 -7 -143 -12.5t-157 -5.5zM255 791l123 146h131l68 -146h-111l-39 61l-60 -61h-112z" glyph-name="Ecircumflex" horiz-adv-x="604" unicode="Ê"/>
<glyph d="M251 -6q-28 0 -60.5 6.5t-60.5 25.5t-42.5 54.5t-5.5 92.5l61 383q11 71 41.5 111.5t76 58t99.5 17.5q75 0 150 -4t154 -11l-26 -164h-248q-31 0 -43.5 -14.5t-17.5 -42.5l-7 -47l246 -10l-24 -154l-250 -10l-9 -58q-2 -16 1.5 -28t14.5 -18t30 -6h246l-26 -164 q-70 -7 -143 -12.5t-157 -5.5zM477 787q-20 0 -20 19q0 1 1 6t5 29t13 80q3 25 26 25h90q20 0 20 -20l-0.5 -5.5t-4.5 -29.5t-13 -81q-3 -23 -27 -23h-90zM280 787q-20 0 -20 19q0 1 1 6t5 29t13 80q3 25 26 25h90q20 0 20 -20l-0.5 -5.5t-4.5 -29.5t-13 -81q-3 -23 -27 -23 h-90z" glyph-name="Edieresis" horiz-adv-x="604" unicode="Ë"/>
<glyph d="M55 0l118 743h194l-118 -743h-194zM238 791l-85 143h154l45 -143h-114z" glyph-name="Igrave" horiz-adv-x="304" unicode="Ì"/>
<glyph d="M55 0l118 743h194l-118 -743h-194zM210 791l81 143h164l-121 -143h-124z" glyph-name="Iacute" horiz-adv-x="304" unicode="Í"/>
<glyph d="M55 0l118 743h194l-118 -743h-194zM105 791l123 146h131l68 -146h-111l-39 61l-60 -61h-112z" glyph-name="Icircumflex" horiz-adv-x="304" unicode="Î"/>
<glyph d="M55 0l118 743h194l-118 -743h-194zM327 787q-20 0 -20 19q0 1 1 6t5 29t13 80q3 25 26 25h90q20 0 20 -20l-0.5 -5.5t-4.5 -29.5t-13 -81q-3 -23 -27 -23h-90zM130 787q-20 0 -20 19q0 1 1 6t5 29t13 80q3 25 26 25h90q20 0 20 -20l-0.5 -5.5t-4.5 -29.5t-13 -81 q-3 -23 -27 -23h-90z" glyph-name="Idieresis" horiz-adv-x="304" unicode="Ï"/>
<glyph d="M54 311l20 124h324l-20 -124h-324zM55 0l118 743h291q104 0 161 -33t79 -91.5t22 -135.5q0 -32 -2.5 -67t-8.5 -72q-15 -97 -45.5 -163t-77 -106t-109.5 -57.5t-143 -17.5h-285zM277 174h84q34 0 60.5 11.5t45.5 35.5t32 62t22 92q5 35 8 60.5t3 38.5q0 37 -12 57.5 t-37.5 29t-66.5 8.5h-77z" glyph-name="Eth" horiz-adv-x="696" unicode="Ð"/>
<glyph d="M55 0l118 743h154l195 -414l66 414h194l-118 -743h-154l-195 414l-66 -414h-194zM263 785q20 78 55 107.5t78 29.5q23 0 42 -4.5t36 -10t31.5 -10t27.5 -4.5q15 0 23.5 10t11.5 26h96q-20 -77 -51 -109.5t-80 -32.5q-21 0 -41.5 4.5t-38.5 10t-33 10t-25 4.5 q-16 0 -24 -10.5t-12 -20.5h-96z" glyph-name="Ntilde" horiz-adv-x="709" unicode="Ñ"/>
<glyph d="M350 -6q-58 0 -107 10t-85 36.5t-55.5 74.5t-19.5 124q0 34 4 76.5t11 82.5q16 101 44.5 168.5t73 107.5t107 57.5t147.5 17.5q57 0 105.5 -10t84.5 -37.5t56.5 -78t20.5 -131.5q0 -31 -4 -73t-11 -83q-16 -105 -44.5 -172t-72.5 -104t-107 -51.5t-148 -14.5zM380 169 q37 0 62.5 12t42 36t27 60t17.5 84q6 38 10 73t4 56q0 35 -10 53t-32 25t-58 7q-35 0 -60 -9.5t-42 -32t-29 -61.5t-21 -99q-6 -36 -10 -70t-4 -54q0 -30 10 -47.5t33 -25t60 -7.5zM439 791l-85 143h154l45 -143h-114z" glyph-name="Ograve" horiz-adv-x="704" unicode="Ò"/>
<glyph d="M350 -6q-58 0 -107 10t-85 36.5t-55.5 74.5t-19.5 124q0 34 4 76.5t11 82.5q16 101 44.5 168.5t73 107.5t107 57.5t147.5 17.5q57 0 105.5 -10t84.5 -37.5t56.5 -78t20.5 -131.5q0 -31 -4 -73t-11 -83q-16 -105 -44.5 -172t-72.5 -104t-107 -51.5t-148 -14.5zM380 169 q37 0 62.5 12t42 36t27 60t17.5 84q6 38 10 73t4 56q0 35 -10 53t-32 25t-58 7q-35 0 -60 -9.5t-42 -32t-29 -61.5t-21 -99q-6 -36 -10 -70t-4 -54q0 -30 10 -47.5t33 -25t60 -7.5zM411 791l81 143h164l-121 -143h-124z" glyph-name="Oacute" horiz-adv-x="704" unicode="Ó"/>
<glyph d="M350 -6q-58 0 -107 10t-85 36.5t-55.5 74.5t-19.5 124q0 34 4 76.5t11 82.5q16 101 44.5 168.5t73 107.5t107 57.5t147.5 17.5q57 0 105.5 -10t84.5 -37.5t56.5 -78t20.5 -131.5q0 -31 -4 -73t-11 -83q-16 -105 -44.5 -172t-72.5 -104t-107 -51.5t-148 -14.5zM380 169 q37 0 62.5 12t42 36t27 60t17.5 84q6 38 10 73t4 56q0 35 -10 53t-32 25t-58 7q-35 0 -60 -9.5t-42 -32t-29 -61.5t-21 -99q-6 -36 -10 -70t-4 -54q0 -30 10 -47.5t33 -25t60 -7.5zM306 791l123 146h131l68 -146h-111l-39 61l-60 -61h-112z" glyph-name="Ocircumflex" horiz-adv-x="704" unicode="Ô"/>
<glyph d="M350 -6q-58 0 -107 10t-85 36.5t-55.5 74.5t-19.5 124q0 34 4 76.5t11 82.5q16 101 44.5 168.5t73 107.5t107 57.5t147.5 17.5q57 0 105.5 -10t84.5 -37.5t56.5 -78t20.5 -131.5q0 -31 -4 -73t-11 -83q-16 -105 -44.5 -172t-72.5 -104t-107 -51.5t-148 -14.5zM380 169 q37 0 62.5 12t42 36t27 60t17.5 84q6 38 10 73t4 56q0 35 -10 53t-32 25t-58 7q-35 0 -60 -9.5t-42 -32t-29 -61.5t-21 -99q-6 -36 -10 -70t-4 -54q0 -30 10 -47.5t33 -25t60 -7.5zM282 785q20 78 55 107.5t78 29.5q23 0 42 -4.5t36 -10t31.5 -10t27.5 -4.5q15 0 23.5 10 t11.5 26h96q-20 -77 -51 -109.5t-80 -32.5q-21 0 -41.5 4.5t-38.5 10t-33 10t-25 4.5q-16 0 -24 -10.5t-12 -20.5h-96z" glyph-name="Otilde" horiz-adv-x="704" unicode="Õ"/>
<glyph d="M350 -6q-58 0 -107 10t-85 36.5t-55.5 74.5t-19.5 124q0 34 4 76.5t11 82.5q16 101 44.5 168.5t73 107.5t107 57.5t147.5 17.5q57 0 105.5 -10t84.5 -37.5t56.5 -78t20.5 -131.5q0 -31 -4 -73t-11 -83q-16 -105 -44.5 -172t-72.5 -104t-107 -51.5t-148 -14.5zM380 169 q37 0 62.5 12t42 36t27 60t17.5 84q6 38 10 73t4 56q0 35 -10 53t-32 25t-58 7q-35 0 -60 -9.5t-42 -32t-29 -61.5t-21 -99q-6 -36 -10 -70t-4 -54q0 -30 10 -47.5t33 -25t60 -7.5zM528 787q-20 0 -20 19q0 1 1 6t5 29t13 80q3 25 26 25h90q20 0 20 -20l-0.5 -5.5 t-4.5 -29.5t-13 -81q-3 -23 -27 -23h-90zM331 787q-20 0 -20 19q0 1 1 6t5 29t13 80q3 25 26 25h90q20 0 20 -20l-0.5 -5.5t-4.5 -29.5t-13 -81q-3 -23 -27 -23h-90z" glyph-name="Odieresis" horiz-adv-x="704" unicode="Ö"/>
<glyph d="M226 143l-91 109l367 317l91 -109zM434 143l-267 317l127 109l267 -317z" glyph-name="multiply" unicode="×"/>
<glyph d="M35 0l650 743h105l-650 -743h-105zM350 -6q-58 0 -107 10t-85 36.5t-55.5 74.5t-19.5 124q0 34 4 76.5t11 82.5q16 101 44.5 168.5t73 107.5t107 57.5t147.5 17.5q57 0 105.5 -10t84.5 -37.5t56.5 -78t20.5 -131.5q0 -31 -4 -73t-11 -83q-16 -105 -44.5 -172t-72.5 -104 t-107 -51.5t-148 -14.5zM380 169q37 0 62.5 12t42 36t27 60t17.5 84q6 38 10 73t4 56q0 35 -10 53t-32 25t-58 7q-35 0 -60 -9.5t-42 -32t-29 -61.5t-21 -99q-6 -36 -10 -70t-4 -54q0 -30 10 -47.5t33 -25t60 -7.5z" glyph-name="Oslash" horiz-adv-x="708" unicode="Ø"/>
<glyph d="M350 -6q-126 0 -189.5 55.5t-63.5 178.5q0 26 4 57.5t9 64.5l63 393h194l-67 -423q-3 -21 -6 -40t-3 -35q0 -37 19 -57t68 -20q26 0 45.5 7t33.5 24t24 46.5t17 74.5l67 423h194l-72 -453q-15 -94 -43 -152.5t-69.5 -89.5t-97.5 -42.5t-127 -11.5zM430 791l-85 143h154 l45 -143h-114z" glyph-name="Ugrave" horiz-adv-x="696" unicode="Ù"/>
<glyph d="M350 -6q-126 0 -189.5 55.5t-63.5 178.5q0 26 4 57.5t9 64.5l63 393h194l-67 -423q-3 -21 -6 -40t-3 -35q0 -37 19 -57t68 -20q26 0 45.5 7t33.5 24t24 46.5t17 74.5l67 423h194l-72 -453q-15 -94 -43 -152.5t-69.5 -89.5t-97.5 -42.5t-127 -11.5zM402 791l81 143h164 l-121 -143h-124z" glyph-name="Uacute" horiz-adv-x="696" unicode="Ú"/>
<glyph d="M350 -6q-126 0 -189.5 55.5t-63.5 178.5q0 26 4 57.5t9 64.5l63 393h194l-67 -423q-3 -21 -6 -40t-3 -35q0 -37 19 -57t68 -20q26 0 45.5 7t33.5 24t24 46.5t17 74.5l67 423h194l-72 -453q-15 -94 -43 -152.5t-69.5 -89.5t-97.5 -42.5t-127 -11.5zM297 791l123 146h131 l68 -146h-111l-39 61l-60 -61h-112z" glyph-name="Ucircumflex" horiz-adv-x="696" unicode="Û"/>
<glyph d="M350 -6q-126 0 -189.5 55.5t-63.5 178.5q0 26 4 57.5t9 64.5l63 393h194l-67 -423q-3 -21 -6 -40t-3 -35q0 -37 19 -57t68 -20q26 0 45.5 7t33.5 24t24 46.5t17 74.5l67 423h194l-72 -453q-15 -94 -43 -152.5t-69.5 -89.5t-97.5 -42.5t-127 -11.5zM519 787q-20 0 -20 19 q0 1 1 6t5 29t13 80q3 25 26 25h90q20 0 20 -20l-0.5 -5.5t-4.5 -29.5t-13 -81q-3 -23 -27 -23h-90zM322 787q-20 0 -20 19q0 1 1 6t5 29t13 80q3 25 26 25h90q20 0 20 -20l-0.5 -5.5t-4.5 -29.5t-13 -81q-3 -23 -27 -23h-90z" glyph-name="Udieresis" horiz-adv-x="696" unicode="Ü"/>
<glyph d="M227 0l32 200l-131 543h211l49 -335l161 335h219l-315 -543l-32 -200h-194zM390 791l81 143h164l-121 -143h-124z" glyph-name="Yacute" horiz-adv-x="660" unicode="Ý"/>
<glyph d="M55 0l118 743h194l-118 -743h-194zM390 124q-44 0 -86.5 9t-72.5 18l23 147h108q22 0 37.5 9.5t25 24.5t11.5 33q2 13 3.5 25t1.5 16q0 26 -15 36.5t-45 10.5h-113l28 174h123q62 0 111.5 -17.5t79 -61.5t29.5 -123q0 -16 -3.5 -39.5t-6.5 -42.5q-10 -61 -33.5 -103 t-57 -67.5t-71.5 -37t-77 -11.5z" glyph-name="Thorn" horiz-adv-x="582" unicode="Þ"/>
<glyph d="M410 -6q-43 0 -80 4.5t-58 11.5l20 131q31 -2 51 -2.5t38 -0.5q21 0 32.5 2t16 6t5.5 10q1 5 1 7.5v3.5q0 11 -8.5 20.5t-20.5 20.5t-24.5 25.5t-21 34.5t-8.5 48q0 30 11 57t27.5 51t32.5 46t27 42t11 38q0 23 -18.5 35.5t-52.5 12.5q-38 0 -58 -30.5t-32 -106.5 l-73 -461h-194l87 551q9 58 44 107.5t95.5 80t147.5 30.5q84 0 135 -27t73.5 -69.5t22.5 -89.5q0 -32 -9.5 -58.5t-23 -47.5t-27.5 -38.5t-23.5 -33t-9.5 -29.5q0 -10 8 -21.5t20 -25.5t23.5 -30.5t19.5 -37.5t8 -48q0 -7 -1 -19.5t-8 -51.5q-7 -49 -30 -78.5t-54 -44.5 t-63.5 -20t-58.5 -5z" glyph-name="germandbls" horiz-adv-x="620" unicode="ß"/>
<glyph d="M203 -6q-37 0 -68.5 19.5t-50.5 61t-19 107.5q0 31 4.5 64t7.5 53q13 82 48 136.5t95 82t147 27.5q52 0 98 -9t83 -24t61 -33l-76 -479h-174l-12 52q-14 -13 -37 -26.5t-50.5 -22.5t-56.5 -9zM302 149q23 0 39.5 10t24.5 19l33 205q-4 2 -15.5 4.5t-25.5 2.5 q-26 0 -44.5 -13t-30 -36t-16.5 -53q-4 -21 -6 -40.5t-2 -29.5q0 -25 8.5 -47t34.5 -22zM338 631l-85 143h154l45 -143h-114z" glyph-name="agrave" horiz-adv-x="575" unicode="à"/>
<glyph d="M203 -6q-37 0 -68.5 19.5t-50.5 61t-19 107.5q0 31 4.5 64t7.5 53q13 82 48 136.5t95 82t147 27.5q52 0 98 -9t83 -24t61 -33l-76 -479h-174l-12 52q-14 -13 -37 -26.5t-50.5 -22.5t-56.5 -9zM302 149q23 0 39.5 10t24.5 19l33 205q-4 2 -15.5 4.5t-25.5 2.5 q-26 0 -44.5 -13t-30 -36t-16.5 -53q-4 -21 -6 -40.5t-2 -29.5q0 -25 8.5 -47t34.5 -22zM320 631l81 143h164l-121 -143h-124z" glyph-name="aacute" horiz-adv-x="575" unicode="á"/>
<glyph d="M203 -6q-37 0 -68.5 19.5t-50.5 61t-19 107.5q0 31 4.5 64t7.5 53q13 82 48 136.5t95 82t147 27.5q52 0 98 -9t83 -24t61 -33l-76 -479h-174l-12 52q-14 -13 -37 -26.5t-50.5 -22.5t-56.5 -9zM302 149q23 0 39.5 10t24.5 19l33 205q-4 2 -15.5 4.5t-25.5 2.5 q-26 0 -44.5 -13t-30 -36t-16.5 -53q-4 -21 -6 -40.5t-2 -29.5q0 -25 8.5 -47t34.5 -22zM214 631l123 146h131l68 -146h-111l-39 61l-60 -61h-112z" glyph-name="acircumflex" horiz-adv-x="575" unicode="â"/>
<glyph d="M203 -6q-37 0 -68.5 19.5t-50.5 61t-19 107.5q0 31 4.5 64t7.5 53q13 82 48 136.5t95 82t147 27.5q52 0 98 -9t83 -24t61 -33l-76 -479h-174l-12 52q-14 -13 -37 -26.5t-50.5 -22.5t-56.5 -9zM302 149q23 0 39.5 10t24.5 19l33 205q-4 2 -15.5 4.5t-25.5 2.5 q-26 0 -44.5 -13t-30 -36t-16.5 -53q-4 -21 -6 -40.5t-2 -29.5q0 -25 8.5 -47t34.5 -22zM181 625q20 78 55 107.5t78 29.5q23 0 42 -4.5t36 -10t31.5 -10t27.5 -4.5q15 0 23.5 10t11.5 26h96q-20 -77 -51 -109.5t-80 -32.5q-21 0 -41.5 4.5t-38.5 10t-33 10t-25 4.5 q-16 0 -24 -10.5t-12 -20.5h-96z" glyph-name="atilde" horiz-adv-x="575" unicode="ã"/>
<glyph d="M203 -6q-37 0 -68.5 19.5t-50.5 61t-19 107.5q0 31 4.5 64t7.5 53q13 82 48 136.5t95 82t147 27.5q52 0 98 -9t83 -24t61 -33l-76 -479h-174l-12 52q-14 -13 -37 -26.5t-50.5 -22.5t-56.5 -9zM302 149q23 0 39.5 10t24.5 19l33 205q-4 2 -15.5 4.5t-25.5 2.5 q-26 0 -44.5 -13t-30 -36t-16.5 -53q-4 -21 -6 -40.5t-2 -29.5q0 -25 8.5 -47t34.5 -22zM435 627q-20 0 -20 19q0 1 1 6t5 29t13 80q3 25 26 25h90q20 0 20 -20l-0.5 -5.5t-4.5 -29.5t-13 -81q-3 -23 -27 -23h-90zM238 627q-20 0 -20 19q0 1 1 6t5 29t13 80q3 25 26 25h90 q20 0 20 -20l-0.5 -5.5t-4.5 -29.5t-13 -81q-3 -23 -27 -23h-90z" glyph-name="adieresis" horiz-adv-x="575" unicode="ä"/>
<glyph d="M203 -6q-37 0 -68.5 19.5t-50.5 61t-19 107.5q0 31 4.5 64t7.5 53q13 82 48 136.5t95 82t147 27.5q52 0 98 -9t83 -24t61 -33l-76 -479h-174l-12 52q-14 -13 -37 -26.5t-50.5 -22.5t-56.5 -9zM302 149q23 0 39.5 10t24.5 19l33 205q-4 2 -15.5 4.5t-25.5 2.5 q-26 0 -44.5 -13t-30 -36t-16.5 -53q-4 -21 -6 -40.5t-2 -29.5q0 -25 8.5 -47t34.5 -22zM387 580q-58 0 -89 23t-31 80q0 37 17.5 66.5t50.5 47.5t81 18q59 0 89 -23.5t30 -79.5t-37.5 -94t-110.5 -38zM396 649q26 0 38 18t12 42q0 20 -10.5 28.5t-27.5 8.5q-28 0 -40 -18.5 t-12 -41.5q0 -20 10.5 -28.5t29.5 -8.5z" glyph-name="aring" horiz-adv-x="575" unicode="å"/>
<glyph d="M210 -6q-38 0 -71 18t-52.5 58.5t-19.5 108.5q0 112 25 183.5t66.5 111.5t92.5 55.5t104 15.5q25 0 53 -2.5t57 -9t55 -19.5q11 8 32 14t44 9.5t41 5.5t23 2q115 0 171.5 -41t56.5 -132q0 -58 -22 -99t-69.5 -62t-126.5 -21q-17 0 -38 1t-38.5 3t-24.5 4q-1 -4 -1.5 -9.5 t-0.5 -9.5q0 -13 8.5 -23t30.5 -15.5t60 -5.5h179l-18 -113q-29 -8 -70 -14.5t-87 -10t-88 -3.5q-35 0 -69 8t-60.5 23.5t-38.5 37.5q-38 -25 -71 -40t-65 -22t-68 -7zM302 151q15 0 30.5 6t28 15t17.5 18v13v13q0 31 4 60.5t11 57t16 51.5q-5 2 -16.5 3.5t-18.5 1.5 q-29 0 -50.5 -11.5t-35.5 -34t-21 -54.5t-7 -74q0 -28 10 -46.5t32 -18.5zM630 295q50 0 64 17.5t14 38.5q0 25 -12 36t-34 11q-18 0 -31.5 -6.5t-22.5 -19.5t-15 -31.5t-11 -41.5q5 -1 12.5 -2t16.5 -1.5t19 -0.5z" glyph-name="ae" horiz-adv-x="861" unicode="æ"/>
<glyph d="M270 -6q-62 0 -107.5 20t-69.5 65.5t-24 124.5q0 17 2.5 42.5t6.5 53.5q14 91 49 144.5t87 77t115 23.5q47 0 95 -10.5t95 -25.5l-18 -111h-125q-37 0 -58.5 -16t-32.5 -45t-18 -67q-3 -19 -4 -30.5t-1 -16.5q0 -28 8 -46.5t24 -28t40 -9.5h133l-17 -109q-35 -16 -77 -26 t-103 -10zM123 -203l12 79l16 3q14 3 22 8t11 11.5t3 12.5q0 8 -6 15.5t-21 11.5l78 15q27 0 49.5 -14.5t22.5 -51.5q0 -24 -13 -44.5t-41 -33t-74 -12.5h-59zM160 -62l63 82h86l-63 -82h-86z" glyph-name="ccedilla" horiz-adv-x="471" unicode="ç"/>
<glyph d="M278 -6q-78 0 -124 25t-66 72t-20 112q0 26 2.5 50t6.5 46q15 92 53 145.5t97.5 77t136.5 23.5q38 0 76 -7t69 -25t50 -51t19 -86q0 -58 -17 -95t-47.5 -56.5t-70.5 -27t-86 -7.5q-30 0 -55 2t-42 6q-1 -4 -1.5 -9.5t-0.5 -10.5q0 -22 23.5 -32.5t75.5 -10.5h179 l-18 -113q-45 -11 -107 -19.5t-133 -8.5zM311 295q37 0 55.5 7.5t25 21t6.5 31.5q0 20 -11.5 31.5t-35.5 11.5q-22 0 -37.5 -11t-25.5 -33t-16 -55q10 -1 20 -2.5t19 -1.5zM337 631l-85 143h154l45 -143h-114z" glyph-name="egrave" horiz-adv-x="548" unicode="è"/>
<glyph d="M278 -6q-78 0 -124 25t-66 72t-20 112q0 26 2.5 50t6.5 46q15 92 53 145.5t97.5 77t136.5 23.5q38 0 76 -7t69 -25t50 -51t19 -86q0 -58 -17 -95t-47.5 -56.5t-70.5 -27t-86 -7.5q-30 0 -55 2t-42 6q-1 -4 -1.5 -9.5t-0.5 -10.5q0 -22 23.5 -32.5t75.5 -10.5h179 l-18 -113q-45 -11 -107 -19.5t-133 -8.5zM311 295q37 0 55.5 7.5t25 21t6.5 31.5q0 20 -11.5 31.5t-35.5 11.5q-22 0 -37.5 -11t-25.5 -33t-16 -55q10 -1 20 -2.5t19 -1.5zM319 631l81 143h164l-121 -143h-124z" glyph-name="eacute" horiz-adv-x="548" unicode="é"/>
<glyph d="M278 -6q-78 0 -124 25t-66 72t-20 112q0 26 2.5 50t6.5 46q15 92 53 145.5t97.5 77t136.5 23.5q38 0 76 -7t69 -25t50 -51t19 -86q0 -58 -17 -95t-47.5 -56.5t-70.5 -27t-86 -7.5q-30 0 -55 2t-42 6q-1 -4 -1.5 -9.5t-0.5 -10.5q0 -22 23.5 -32.5t75.5 -10.5h179 l-18 -113q-45 -11 -107 -19.5t-133 -8.5zM311 295q37 0 55.5 7.5t25 21t6.5 31.5q0 20 -11.5 31.5t-35.5 11.5q-22 0 -37.5 -11t-25.5 -33t-16 -55q10 -1 20 -2.5t19 -1.5zM213 631l123 146h131l68 -146h-111l-39 61l-60 -61h-112z" glyph-name="ecircumflex" horiz-adv-x="548" unicode="ê"/>
<glyph d="M278 -6q-78 0 -124 25t-66 72t-20 112q0 26 2.5 50t6.5 46q15 92 53 145.5t97.5 77t136.5 23.5q38 0 76 -7t69 -25t50 -51t19 -86q0 -58 -17 -95t-47.5 -56.5t-70.5 -27t-86 -7.5q-30 0 -55 2t-42 6q-1 -4 -1.5 -9.5t-0.5 -10.5q0 -22 23.5 -32.5t75.5 -10.5h179 l-18 -113q-45 -11 -107 -19.5t-133 -8.5zM311 295q37 0 55.5 7.5t25 21t6.5 31.5q0 20 -11.5 31.5t-35.5 11.5q-22 0 -37.5 -11t-25.5 -33t-16 -55q10 -1 20 -2.5t19 -1.5zM434 627q-20 0 -20 19q0 1 1 6t5 29t13 80q3 25 26 25h90q20 0 20 -20l-0.5 -5.5t-4.5 -29.5 t-13 -81q-3 -23 -27 -23h-90zM237 627q-20 0 -20 19q0 1 1 6t5 29t13 80q3 25 26 25h90q20 0 20 -20l-0.5 -5.5t-4.5 -29.5t-13 -81q-3 -23 -27 -23h-90z" glyph-name="edieresis" horiz-adv-x="548" unicode="ë"/>
<glyph d="M45 0l85 539h194l-85 -539h-194zM201 631l-85 143h154l45 -143h-114z" glyph-name="igrave" horiz-adv-x="281" unicode="ì"/>
<glyph d="M45 0l85 539h194l-85 -539h-194zM183 631l81 143h164l-121 -143h-124z" glyph-name="iacute" horiz-adv-x="281" unicode="í"/>
<glyph d="M45 0l85 539h194l-85 -539h-194zM77 631l123 146h131l68 -146h-111l-39 61l-60 -61h-112z" glyph-name="icircumflex" horiz-adv-x="281" unicode="î"/>
<glyph d="M45 0l85 539h194l-85 -539h-194zM298 627q-20 0 -20 19q0 1 1 6t5 29t13 80q3 25 26 25h90q20 0 20 -20l-0.5 -5.5t-4.5 -29.5t-13 -81q-3 -23 -27 -23h-90zM101 627q-20 0 -20 19q0 1 1 6t5 29t13 80q3 25 26 25h90q20 0 20 -20l-0.5 -5.5t-4.5 -29.5t-13 -81 q-3 -23 -27 -23h-90z" glyph-name="idieresis" horiz-adv-x="281" unicode="ï"/>
<glyph d="M73 269q13 81 34 131.5t51.5 77.5t71.5 37t94 10q51 0 94.5 -20t70 -54t26.5 -77q18 -34 35.5 -69t35.5 -70q-14 -98 -50.5 -150.5t-97 -71.5t-149.5 -19q-75 0 -124 22.5t-73 65t-24 103.5q0 25 1 45t4 39zM263 242q-2 -14 -2.5 -25.5t-0.5 -22.5q0 -17 5 -27t15.5 -14 t28.5 -4q21 0 35 5t22.5 17t14.5 34.5t12 56.5q3 25 5.5 44t2.5 35q0 19 -12.5 26t-41.5 7q-21 0 -35 -5.5t-22.5 -20t-14.5 -40t-12 -66.5zM212 763q138 0 225.5 -30.5t128.5 -98.5t41 -182q0 -47 -5.5 -101t-15.5 -116l-147 110q5 34 8 63.5t3 54.5q0 71 -26 109t-83 52.5 t-149 14.5zM602 762l16 -59l-395 -161l-17 59z" glyph-name="eth" horiz-adv-x="579" unicode="ð"/>
<glyph d="M44 0l85 539h162l24 -52q30 24 72 41t97 17q42 0 72 -15t46 -41.5t16 -61.5q0 -19 -1.5 -43.5t-10.5 -79.5l-48 -304h-194l47 298q2 14 3 22.5t1 13.5q0 18 -10.5 27.5t-34.5 9.5q-22 0 -43 -10.5t-36 -26.5l-53 -334h-194zM193 625q20 78 55 107.5t78 29.5q23 0 42 -4.5 t36 -10t31.5 -10t27.5 -4.5q15 0 23.5 10t11.5 26h96q-20 -77 -51 -109.5t-80 -32.5q-21 0 -41.5 4.5t-38.5 10t-33 10t-25 4.5q-16 0 -24 -10.5t-12 -20.5h-96z" glyph-name="ntilde" horiz-adv-x="600" unicode="ñ"/>
<glyph d="M289 -6q-75 0 -124 22.5t-73 65t-24 103.5q0 31 2 56t6 48q13 81 36 131.5t59 77.5t86.5 37t117.5 10q92 0 139.5 -21.5t64 -66t16.5 -113.5q0 -24 -2 -52t-7 -57q-15 -98 -51.5 -150.5t-96.5 -71.5t-149 -19zM309 149q21 0 35 5t22.5 17t14.5 34.5t12 56.5q4 28 6.5 50 t2.5 41q0 24 -12.5 32.5t-39.5 8.5q-21 0 -34.5 -5.5t-22.5 -20t-15 -40.5t-12 -66q-3 -20 -4.5 -36.5t-1.5 -31.5q0 -17 5 -27t15.5 -14t28.5 -4zM337 631l-85 143h154l45 -143h-114z" glyph-name="ograve" horiz-adv-x="579" unicode="ò"/>
<glyph d="M289 -6q-75 0 -124 22.5t-73 65t-24 103.5q0 31 2 56t6 48q13 81 36 131.5t59 77.5t86.5 37t117.5 10q92 0 139.5 -21.5t64 -66t16.5 -113.5q0 -24 -2 -52t-7 -57q-15 -98 -51.5 -150.5t-96.5 -71.5t-149 -19zM309 149q21 0 35 5t22.5 17t14.5 34.5t12 56.5q4 28 6.5 50 t2.5 41q0 24 -12.5 32.5t-39.5 8.5q-21 0 -34.5 -5.5t-22.5 -20t-15 -40.5t-12 -66q-3 -20 -4.5 -36.5t-1.5 -31.5q0 -17 5 -27t15.5 -14t28.5 -4zM319 631l81 143h164l-121 -143h-124z" glyph-name="oacute" horiz-adv-x="579" unicode="ó"/>
<glyph d="M289 -6q-75 0 -124 22.5t-73 65t-24 103.5q0 31 2 56t6 48q13 81 36 131.5t59 77.5t86.5 37t117.5 10q92 0 139.5 -21.5t64 -66t16.5 -113.5q0 -24 -2 -52t-7 -57q-15 -98 -51.5 -150.5t-96.5 -71.5t-149 -19zM309 149q21 0 35 5t22.5 17t14.5 34.5t12 56.5q4 28 6.5 50 t2.5 41q0 24 -12.5 32.5t-39.5 8.5q-21 0 -34.5 -5.5t-22.5 -20t-15 -40.5t-12 -66q-3 -20 -4.5 -36.5t-1.5 -31.5q0 -17 5 -27t15.5 -14t28.5 -4zM213 631l123 146h131l68 -146h-111l-39 61l-60 -61h-112z" glyph-name="ocircumflex" horiz-adv-x="579" unicode="ô"/>
<glyph d="M289 -6q-75 0 -124 22.5t-73 65t-24 103.5q0 31 2 56t6 48q13 81 36 131.5t59 77.5t86.5 37t117.5 10q92 0 139.5 -21.5t64 -66t16.5 -113.5q0 -24 -2 -52t-7 -57q-15 -98 -51.5 -150.5t-96.5 -71.5t-149 -19zM309 149q21 0 35 5t22.5 17t14.5 34.5t12 56.5q4 28 6.5 50 t2.5 41q0 24 -12.5 32.5t-39.5 8.5q-21 0 -34.5 -5.5t-22.5 -20t-15 -40.5t-12 -66q-3 -20 -4.5 -36.5t-1.5 -31.5q0 -17 5 -27t15.5 -14t28.5 -4zM180 625q20 78 55 107.5t78 29.5q23 0 42 -4.5t36 -10t31.5 -10t27.5 -4.5q15 0 23.5 10t11.5 26h96q-20 -77 -51 -109.5 t-80 -32.5q-21 0 -41.5 4.5t-38.5 10t-33 10t-25 4.5q-16 0 -24 -10.5t-12 -20.5h-96z" glyph-name="otilde" horiz-adv-x="579" unicode="õ"/>
<glyph d="M289 -6q-75 0 -124 22.5t-73 65t-24 103.5q0 31 2 56t6 48q13 81 36 131.5t59 77.5t86.5 37t117.5 10q92 0 139.5 -21.5t64 -66t16.5 -113.5q0 -24 -2 -52t-7 -57q-15 -98 -51.5 -150.5t-96.5 -71.5t-149 -19zM309 149q21 0 35 5t22.5 17t14.5 34.5t12 56.5q4 28 6.5 50 t2.5 41q0 24 -12.5 32.5t-39.5 8.5q-21 0 -34.5 -5.5t-22.5 -20t-15 -40.5t-12 -66q-3 -20 -4.5 -36.5t-1.5 -31.5q0 -17 5 -27t15.5 -14t28.5 -4zM434 627q-20 0 -20 19q0 1 1 6t5 29t13 80q3 25 26 25h90q20 0 20 -20l-0.5 -5.5t-4.5 -29.5t-13 -81q-3 -23 -27 -23h-90z M237 627q-20 0 -20 19q0 1 1 6t5 29t13 80q3 25 26 25h90q20 0 20 -20l-0.5 -5.5t-4.5 -29.5t-13 -81q-3 -23 -27 -23h-90z" glyph-name="odieresis" horiz-adv-x="579" unicode="ö"/>
<glyph d="M263 74q-23 0 -20 23l15 97q5 25 28 25h112q26 0 21 -25l-15 -97q-2 -13 -10 -18t-19 -5h-112zM330 493q-10 0 -16 6.5t-5 16.5l16 97q3 25 28 25h112q24 0 21 -25l-16 -97q-2 -13 -9.5 -18t-18.5 -5h-112zM124 279l25 154h448l-25 -154h-448z" glyph-name="divide" unicode="÷"/>
<glyph d="M15 0l543 539h86l-543 -539h-86zM289 -6q-75 0 -124 22.5t-73 65t-24 103.5q0 31 2 56t6 48q13 81 36 131.5t59 77.5t86.5 37t117.5 10q92 0 139.5 -21.5t64 -66t16.5 -113.5q0 -24 -2 -52t-7 -57q-15 -98 -51.5 -150.5t-96.5 -71.5t-149 -19zM309 149q21 0 35 5t22.5 17 t14.5 34.5t12 56.5q4 28 6.5 50t2.5 41q0 24 -12.5 32.5t-39.5 8.5q-21 0 -34.5 -5.5t-22.5 -20t-15 -40.5t-12 -66q-3 -20 -4.5 -36.5t-1.5 -31.5q0 -17 5 -27t15.5 -14t28.5 -4z" glyph-name="oslash" horiz-adv-x="574" unicode="ø"/>
<glyph d="M196 -6q-69 0 -99 34t-30 94q0 23 1.5 38.5t3.5 30.5l55 348h194l-50 -321q-1 -4 -1 -7v-8q0 -22 13.5 -28.5t28.5 -6.5q26 0 46.5 11t35.5 26l53 334h194l-85 -539h-174l-12 52q-27 -19 -51.5 -32t-53 -19.5t-69.5 -6.5zM361 631l-85 143h154l45 -143h-114z" glyph-name="ugrave" horiz-adv-x="600" unicode="ù"/>
<glyph d="M196 -6q-69 0 -99 34t-30 94q0 23 1.5 38.5t3.5 30.5l55 348h194l-50 -321q-1 -4 -1 -7v-8q0 -22 13.5 -28.5t28.5 -6.5q26 0 46.5 11t35.5 26l53 334h194l-85 -539h-174l-12 52q-27 -19 -51.5 -32t-53 -19.5t-69.5 -6.5zM343 631l81 143h164l-121 -143h-124z" glyph-name="uacute" horiz-adv-x="600" unicode="ú"/>
<glyph d="M196 -6q-69 0 -99 34t-30 94q0 23 1.5 38.5t3.5 30.5l55 348h194l-50 -321q-1 -4 -1 -7v-8q0 -22 13.5 -28.5t28.5 -6.5q26 0 46.5 11t35.5 26l53 334h194l-85 -539h-174l-12 52q-27 -19 -51.5 -32t-53 -19.5t-69.5 -6.5zM237 631l123 146h131l68 -146h-111l-39 61 l-60 -61h-112z" glyph-name="ucircumflex" horiz-adv-x="600" unicode="û"/>
<glyph d="M196 -6q-69 0 -99 34t-30 94q0 23 1.5 38.5t3.5 30.5l55 348h194l-50 -321q-1 -4 -1 -7v-8q0 -22 13.5 -28.5t28.5 -6.5q26 0 46.5 11t35.5 26l53 334h194l-85 -539h-174l-12 52q-27 -19 -51.5 -32t-53 -19.5t-69.5 -6.5zM458 627q-20 0 -20 19q0 1 1 6t5 29t13 80 q3 25 26 25h90q20 0 20 -20l-0.5 -5.5t-4.5 -29.5t-13 -81q-3 -23 -27 -23h-90zM261 627q-20 0 -20 19q0 1 1 6t5 29t13 80q3 25 26 25h90q20 0 20 -20l-0.5 -5.5t-4.5 -29.5t-13 -81q-3 -23 -27 -23h-90z" glyph-name="udieresis" horiz-adv-x="600" unicode="ü"/>
<glyph d="M96 -237v136q69 14 112 36t65 65q-58 5 -90.5 25t-46.5 53t-18 78l-32 383h200l3 -342q0 -15 6.5 -24t16.5 -12.5t19 -4.5l86 238q13 35 23 74t11 79h184q0 -66 -18 -137.5t-56 -152.5l-116 -247q-42 -89 -93 -141t-114 -76.5t-142 -29.5zM323 631l81 143h164l-121 -143 h-124z" glyph-name="yacute" horiz-adv-x="587" unicode="ý"/>
<glyph d="M5 -237l159 1000h195l-35 -222q21 2 43.5 3t45.5 1q102 0 141.5 -50t39.5 -147q0 -25 -2.5 -52.5t-7.5 -57.5q-14 -87 -51 -140.5t-88.5 -78.5t-110.5 -25q-29 0 -55.5 3.5t-39.5 11.5l-39 -246h-195zM308 158q23 0 40.5 10.5t30.5 36t20 69.5q2 11 3 20.5t1 18.5 q0 39 -11 58t-37 19h-56l-36 -225q4 -2 11 -3.5t15.5 -2.5t18.5 -1z" glyph-name="thorn" horiz-adv-x="581" unicode="þ"/>
<glyph d="M45 0l85 539h194l-85 -539h-194z" glyph-name="dotlessi" horiz-adv-x="281" unicode="ı"/>
<glyph d="M128 631l123 146h131l68 -146h-111l-39 61l-60 -61h-112z" glyph-name="circumflex" horiz-adv-x="378" unicode="ˆ"/>
<glyph d="M256 580q-58 0 -89 23t-31 80q0 37 17.5 66.5t50.5 47.5t81 18q59 0 89 -23.5t30 -79.5t-37.5 -94t-110.5 -38zM265 649q26 0 38 18t12 42q0 20 -10.5 28.5t-27.5 8.5q-28 0 -40 -18.5t-12 -41.5q0 -20 10.5 -28.5t29.5 -8.5z" glyph-name="ring" horiz-adv-x="319" unicode="˚"/>
<glyph d="M117 625q20 78 55 107.5t78 29.5q23 0 42 -4.5t36 -10t31.5 -10t27.5 -4.5q15 0 23.5 10t11.5 26h96q-20 -77 -51 -109.5t-80 -32.5q-21 0 -41.5 4.5t-38.5 10t-33 10t-25 4.5q-16 0 -24 -10.5t-12 -20.5h-96z" glyph-name="tilde" horiz-adv-x="404" unicode="˜"/>
<glyph d="M-214 627q-20 0 -20 19q0 1 1 6t5 29t13 80q3 25 26 25h90q20 0 20 -20l-0.5 -5.5t-4.5 -29.5t-13 -81q-3 -23 -27 -23h-90zM-411 627q-20 0 -20 19q0 1 1 6t5 29t13 80q3 25 26 25h90q20 0 20 -20l-0.5 -5.5t-4.5 -29.5t-13 -81q-3 -23 -27 -23h-90z" glyph-name="uni0308" horiz-adv-x="0" unicode="̈"/>
<glyph d="M265 -6q-30 0 -64 10.5t-64 31.5t-48.5 52.5t-18.5 73.5q0 8 0.5 15t1.5 14l55 348h194l-51 -322q0 -4 -0.5 -7.5t-0.5 -7.5q0 -22 13 -29.5t33 -7.5q23 0 44 9t34 22l54 343h194l-85 -539h-162l-14 52q-22 -28 -49 -43t-66 -15zM-1 -270l83 525h194l-83 -525h-194z" glyph-name="uni03BC" horiz-adv-x="600" unicode="μ"/>
<glyph d="M259 56l-195 228l261 223l82 -95l-150 -128l111 -130z" glyph-name="guilsinglleft" horiz-adv-x="376" unicode="‹"/>
<glyph d="M131 56l-77 98l151 130l-110 128l112 95l191 -223z" glyph-name="guilsinglright" horiz-adv-x="376" unicode="›"/>
<glyph d="M-51 0l488 770h131l-488 -770h-131z" glyph-name="fraction" horiz-adv-x="395" unicode="⁄"/>
<glyph d="M279 355l13 79h-198l-16 66l185 342h157l-148 -281h40l8 54l40 68h125l-19 -122h32l-18 -104l-34 -23l-13 -79h-154z" glyph-name="uni2074" horiz-adv-x="414" unicode="⁴"/>
<glyph d="M124 279l25 154h448l-25 -154h-448z" glyph-name="minus" unicode="−"/>
</font>
</defs>
</svg>
