<?xml version="1.0" encoding="UTF-8"?>
<!DOCTYPE svg  PUBLIC '-//W3C//DTD SVG 1.1//EN'  'http://www.w3.org/Graphics/SVG/1.1/DTD/svg11.dtd'>
<svg version="1.1" xmlns="http://www.w3.org/2000/svg">
<defs>
<font id="Exo-BoldItalic" horiz-adv-x="609">
<font-face font-family="Exo" font-style="italic" font-weight="700" ascent="800" bbox="-422 -270 1141 992" cap-height="740" descent="-200" panose-1="0 0 0 0 0 0 0 0 0 0" slope="-9" underline-position="-125" underline-thickness="50" unicode-range="U+0020-2212" units-per-em="1000" x-height="537"/>
<missing-glyph/>
<glyph glyph-name="space" horiz-adv-x="246" unicode=" "/>
<glyph d="M112 203l67 536h148l-106 -536h-109zM92 -1q-18 0 -18 16v2v2l17 102q3 21 24 21h86q18 0 18 -15v-2.5v-3.5l-17 -102q-1 -12 -8 -16t-16 -4h-86z" glyph-name="exclam" horiz-adv-x="272" unicode="!"/>
<glyph d="M123 497l21 190l10 67h142l-10 -67l-39 -190h-124zM305 497l21 190l10 67h142l-10 -67l-39 -190h-124z" glyph-name="quotedbl" horiz-adv-x="400" unicode='"'/>
<glyph d="M129 0l70 207h-151l31 99h155l40 119h-157l32 99h160l71 208h100l-71 -208h114l70 208h100l-70 -208h170l-30 -99h-171l-40 -119h171l-30 -99h-179l-70 -207h-100l70 207h-115l-70 -207h-100zM334 306h119l39 119h-118z" glyph-name="numbersign" horiz-adv-x="723" unicode="#"/>
<glyph d="M377 722l8 78l82 24l-7 -78zM244 -89l15 99l84 -1l-15 -98h-84zM306 -6q-53 0 -98.5 3.5t-82 9t-63.5 11.5l18 117q45 -3 105 -5.5t118 -2.5q42 0 70.5 6t43.5 22t20 45l4 26q1 6 1.5 10.5t0.5 9.5q0 28 -20 40t-64 12h-59q-85 0 -131 42.5t-46 113.5q0 20 3 42l10 60 q11 71 45.5 113t90 59.5t128.5 17.5q24 0 52 -1.5t57.5 -4.5t59 -8t57.5 -11l-19 -117q-34 3 -75 4.5t-80.5 2.5t-69.5 1t-52.5 -6t-36.5 -22t-19 -45l-4 -26q-1 -6 -1.5 -11.5t-0.5 -10.5q0 -28 16.5 -40.5t50.5 -12.5h63q94 0 141.5 -43t47.5 -113q0 -18 -3 -40l-10 -69 q-10 -62 -40 -101.5t-85.5 -58.5t-142.5 -19z" glyph-name="dollar" unicode="$"/>
<glyph d="M205 0l566 732h96l-560 -732h-102zM222 349q-62 0 -89 24.5t-27 71.5q0 18 3 36l19 119q10 64 45.5 98t111.5 34h101q63 0 90 -24.5t27 -71.5q0 -8 -0.5 -17.5t-2.5 -18.5l-19 -119q-10 -64 -46 -98t-112 -34h-101zM256 445h64q35 0 49.5 14.5t18.5 43.5l12 75q2 6 2 11 v9q0 22 -12 30t-38 8h-64q-28 0 -45 -10.5t-23 -47.5l-12 -75q0 -5 -1 -10t-1 -10q0 -19 11.5 -28.5t38.5 -9.5zM694 3q-61 0 -88 24.5t-27 71.5q0 17 3 36l19 119q10 64 45 98t111 34h102q63 0 90 -24.5t27 -71.5q0 -8 -0.5 -17.5t-2.5 -18.5l-19 -119q-10 -64 -46 -98 t-112 -34h-102zM729 99h63q35 0 50 14.5t20 43.5l11 75q2 6 2 11v9q0 22 -12 30t-38 8h-64q-27 0 -44.5 -10.5t-23.5 -47.5l-11 -75l-2 -10t-1 -10q0 -19 11.5 -28.5t38.5 -9.5z" glyph-name="percent" horiz-adv-x="964" unicode="%"/>
<glyph d="M231 -6q-78 0 -125.5 46.5t-47.5 123.5q0 54 14 95t43 73t73 58l72 41l-11 20q-18 34 -23.5 62t-5.5 51q0 48 23.5 87.5t71.5 62.5t121 23q35 0 67 -3.5t59 -9t45 -10.5l-17 -108h-146q-39 0 -58 -15t-19 -43q0 -16 8 -37t25 -50l109 -190l163 129l44 -67l-78 -112 l-66 -55l98 -166h-152l-59 92l-42 -32q-47 -36 -90.5 -51t-95.5 -15zM276 130q22 0 44.5 7.5t47.5 28.5l29 25l-83 139l-35 -20q-28 -16 -43.5 -32.5t-21 -35.5t-5.5 -42q0 -31 18 -50.5t49 -19.5z" glyph-name="ampersand" horiz-adv-x="698" unicode="&amp;"/>
<glyph d="M123 497l21 190l10 67h142l-10 -67l-39 -190h-124z" glyph-name="quotesingle" horiz-adv-x="218" unicode="'"/>
<glyph d="M206 -210q-31 46 -56 101.5t-39.5 124t-14.5 150.5q0 76 15 155.5t42 156.5t62 148t76 130.5t84 103.5h132q-52 -64 -99.5 -145t-84 -172t-57.5 -185t-21 -183q0 -107 24.5 -200t68.5 -185h-132z" glyph-name="parenleft" horiz-adv-x="387" unicode="("/>
<glyph d="M-18 -210q54 67 101.5 149t83.5 172.5t57 183.5t21 183q0 106 -24.5 196.5t-69.5 185.5h133q31 -47 56 -102.5t39 -122t14 -149.5q0 -77 -14.5 -155.5t-41 -155t-62 -147.5t-76 -131.5t-84.5 -106.5h-133z" glyph-name="parenright" horiz-adv-x="386" unicode=")"/>
<glyph d="M366 507l-38 59l130 81l25 -44zM373 401l-112 68l51 64l100 -88zM204 399l-49 17l48 137l71 -19zM123 573l8 55l143 15l-8 -75zM301 586l-23 136l55 17l43 -125z" glyph-name="asterisk" horiz-adv-x="435" unicode="*"/>
<glyph d="M266 132l70 448h119l-70 -448h-119zM127 296l19 120h448l-19 -120h-448z" glyph-name="plus" unicode="+"/>
<glyph d="M91 -89q-19 0 -32.5 3l-13.5 3l7 47q14 0 21 4t9 16l4 26h-9q-18 0 -18 18q0 2 0.5 6.5t1.5 11.5l12 73q2 23 25 23h84q17 0 17 -17q0 -2 -0.5 -7.5t-1.5 -12.5l-20 -123q-5 -29 -19 -45t-31.5 -21t-35.5 -5z" glyph-name="comma" horiz-adv-x="234" unicode=","/>
<glyph d="M58 230l18 120h306l-18 -120h-306z" glyph-name="hyphen" horiz-adv-x="347" unicode="-"/>
<glyph d="M74 -1q-18 0 -18 16v2v2l17 102q3 21 24 21h86q18 0 18 -15v-2.5v-3.5l-17 -102q-1 -12 -8 -16t-16 -4h-86z" glyph-name="period" horiz-adv-x="234" unicode="."/>
<glyph d="M4 -72l414 842h151l-414 -842h-151z" glyph-name="slash" horiz-adv-x="462" unicode="/"/>
<glyph d="M248 -4q-53 0 -91 16.5t-57.5 49t-19.5 80.5q0 10 1 21.5t3 23.5l57 360q11 65 41.5 109.5t78 67t107.5 22.5h155q80 0 120 -39.5t40 -110.5q0 -11 -1 -23.5t-3 -25.5l-57 -360q-15 -93 -72.5 -142t-146.5 -49h-155zM305 129h80q40 0 63 20t29 60l51 324q2 6 2 11.5v10.5 q0 31 -17 44.5t-46 13.5h-91q-37 0 -59.5 -20t-29.5 -60l-51 -323q-1 -6 -1.5 -11t-0.5 -11q0 -30 18.5 -44.5t52.5 -14.5z" glyph-name="zero" horiz-adv-x="647" unicode="0"/>
<glyph d="M162 0l96 606l-135 -24l15 95l158 63h132l-118 -740h-148z" glyph-name="one" horiz-adv-x="372" unicode="1"/>
<glyph d="M46 0l18 119l282 245q56 50 82.5 95t26.5 81q0 21 -8 35.5t-26 22.5t-49 8h-213l19 116q45 8 101.5 16t124.5 8q74 0 118 -21.5t63 -58t19 -83.5q0 -73 -33.5 -144t-112.5 -140l-187 -165h301l-21 -134h-505z" glyph-name="two" horiz-adv-x="586" unicode="2"/>
<glyph d="M320 -6q-80 0 -151.5 5.5t-128.5 15.5l18 111h227q40 0 67.5 6.5t42.5 23t20 45.5q4 21 5.5 30.5t1.5 11.5q0 23 -14 37.5t-37 22.5t-54 9l-163 7l17 106l178 10q45 2 72.5 19t33.5 51q2 16 3 23.5t1 11.5v6q0 37 -28 52t-74 15h-206l17 111q55 9 120 15.5t137 6.5 q61 0 102.5 -14t64 -45.5t22.5 -84.5q0 -6 -0.5 -14t-3 -26.5t-8.5 -53.5q-4 -28 -15 -51t-26 -39.5t-34 -28t-39 -17.5q16 -5 30.5 -15t26 -25t18 -35t6.5 -45q0 -10 -2 -27t-7 -49q-14 -89 -77.5 -135.5t-162.5 -46.5z" glyph-name="three" horiz-adv-x="579" unicode="3"/>
<glyph d="M375 1l25 156h-324l-17 70l321 513h152l-288 -457h176l22 144l43 85h119l-36 -229h76l-16 -102l-80 -24l-25 -156h-148z" glyph-name="four" horiz-adv-x="619" unicode="4"/>
<glyph d="M313 -5q-59 0 -123 5t-121 11l19 117h252q37 0 59.5 12t34 31.5t14.5 40.5l8 51q1 6 1.5 11.5t0.5 10.5q0 27 -15.5 41.5t-50.5 14.5h-58q-33 0 -51 -13t-27 -42h-142l93 454h445l-22 -133h-303l-34 -173q16 15 39.5 24t51.5 9h80q76 0 112 -39t36 -99q0 -10 -0.5 -19.5 t-2.5 -19.5l-18 -109q-10 -65 -45 -106t-93.5 -60.5t-139.5 -19.5z" glyph-name="five" horiz-adv-x="607" unicode="5"/>
<glyph d="M272 -5q-57 0 -97 19t-61 65t-21 130q0 92 12.5 173.5t38.5 148t68 114.5t100.5 74.5t136.5 26.5q49 0 98 -4t87 -12l-19 -117h-174q-48 0 -83.5 -20.5t-58 -61.5t-32.5 -102q24 7 50.5 10.5t56 5t63.5 1.5q62 0 100 -15t55.5 -43t17.5 -68q0 -10 -1 -21t-3 -23l-17 -106 q-9 -63 -38.5 -101t-73.5 -56t-98 -18h-107zM322 128h45q22 0 38 7t26.5 23t14.5 41l8 49q1 6 1.5 12t0.5 11q0 20 -9 30.5t-27 14.5t-45 4h-125q-4 -28 -6.5 -51t-2.5 -42q0 -37 9 -59t27 -31t45 -9z" glyph-name="six" horiz-adv-x="607" unicode="6"/>
<glyph d="M114 0l320 592h-314l23 148h467l28 -63l-352 -677h-172z" glyph-name="seven" horiz-adv-x="554" unicode="7"/>
<glyph d="M245 -4q-67 0 -103 16.5t-50 43.5t-14 57q0 11 1.5 20.5t2.5 18.5l17 106q5 29 18.5 53.5t34.5 42.5t47 23q-29 16 -40 37t-11 46q0 11 1.5 23t3.5 24l13 86q10 60 39 93t70.5 46.5t88.5 13.5h151q67 0 102.5 -26t35.5 -87q0 -9 -1 -19.5t-3 -22.5l-13 -84q-2 -13 -8 -31 t-16 -37t-25.5 -32t-35.5 -18q37 -8 50.5 -35t13.5 -58q0 -10 -1 -18.5t-2 -16.5l-17 -104q-10 -65 -39 -100t-70.5 -48t-90.5 -13h-150zM298 121h74q41 0 57.5 16.5t21.5 46.5l11 66q0 4 0.5 8t0.5 7q0 25 -14.5 37.5t-46.5 12.5h-74q-13 0 -27 -4t-25 -12t-19 -20.5 t-11 -28.5l-11 -66q-1 -4 -1 -8v-9q0 -24 16.5 -35t47.5 -11zM348 441h73q25 0 39 9t21.5 24.5t10.5 34.5l7 47q1 6 1.5 11.5t0.5 9.5q0 27 -13.5 35t-35.5 8h-75q-32 0 -49 -13t-23 -51l-7 -47q-1 -7 -1.5 -12.5t-0.5 -10.5q0 -24 12.5 -34.5t39.5 -10.5z" glyph-name="eight" horiz-adv-x="628" unicode="8"/>
<glyph d="M452 745q57 0 96.5 -18.5t60.5 -65t21 -130.5q0 -92 -12 -173t-38 -148t-68 -115t-101 -74t-136 -26q-49 0 -98 4t-87 12l18 117h174q49 0 84.5 20.5t58 62t32.5 101.5q-24 -7 -50.5 -11t-56.5 -5t-63 -1q-62 0 -100.5 14.5t-56 42.5t-17.5 69q0 10 1.5 21t3.5 23l16 106 q10 62 39.5 100.5t73.5 56t98 17.5h107zM401 612h-44q-21 0 -38 -7t-27 -22t-15 -42l-7 -48q-1 -6 -1.5 -12t-0.5 -11q0 -20 9 -30.5t27 -14.5t44 -4h126q4 28 6.5 51t2.5 41q0 39 -9 60.5t-27.5 30t-45.5 8.5z" glyph-name="nine" horiz-adv-x="607" unicode="9"/>
<glyph d="M74 -1q-18 0 -18 16v2v2l17 102q3 21 24 21h86q18 0 18 -15v-2.5v-3.5l-17 -102q-1 -12 -8 -16t-16 -4h-86zM137 395q-18 0 -18 16v2v2l17 102q3 21 24 21h86q18 0 18 -15v-2.5v-3.5l-17 -102q-1 -12 -8 -16t-16 -4h-86z" glyph-name="colon" horiz-adv-x="234" unicode=":"/>
<glyph d="M137 395q-18 0 -18 16v2v2l17 102q3 21 24 21h86q18 0 18 -15v-2.5v-3.5l-17 -102q-1 -12 -8 -16t-16 -4h-86zM91 -89q-19 0 -32.5 3l-13.5 3l7 47q14 0 21 4t9 16l4 26h-9q-18 0 -18 18q0 2 0.5 6.5t1.5 11.5l12 73q2 23 25 23h84q17 0 17 -17q0 -2 -0.5 -7.5 t-1.5 -12.5l-20 -123q-5 -29 -19 -45t-31.5 -21t-35.5 -5z" glyph-name="semicolon" horiz-adv-x="234" unicode=";"/>
<glyph d="M527 149l-394 136l21 131l436 131l-20 -130l-282 -66l259 -72z" glyph-name="less" unicode="&lt;"/>
<glyph d="M108 176l19 120h448l-19 -120h-448zM146 416l19 120h448l-19 -120h-448z" glyph-name="equal" unicode="="/>
<glyph d="M122 149l20 130l283 73l-260 65l20 130l394 -131l-20 -131z" glyph-name="greater" unicode="&gt;"/>
<glyph d="M181 203l31 198h69q34 0 58.5 7t39.5 24.5t20 48.5l5 32q1 7 1.5 13t0.5 11q0 37 -25.5 53t-74.5 16q-43 0 -85 -9t-87 -24l17 109q45 25 101 41t121 16q94 0 140.5 -44t46.5 -115q0 -21 -4 -43l-10 -59q-14 -93 -73 -141t-168 -48l-13 -86h-111zM164 -1q-18 0 -18 16v2 v2l16 102q3 21 25 21h85q18 0 18 -15v-2.5v-3.5l-16 -102q-2 -12 -8.5 -16t-16.5 -4h-85z" glyph-name="question" horiz-adv-x="529" unicode="?"/>
<glyph d="M254 -194q-77 0 -122 25.5t-64 67.5t-19 91q0 14 1 27.5t3 28.5l76 475q10 61 32 100.5t56.5 63.5t80 33.5t102.5 9.5h365q65 0 106.5 -23t62 -64t20.5 -95q0 -33 -5 -69l-43 -287q-7 -43 -23 -77.5t-44 -60t-67 -39t-90 -13.5h-91l-24 56q-9 -10 -24 -21t-35.5 -20.5 t-45 -15t-49.5 -5.5q-40 0 -74 19t-54.5 61t-20.5 112q0 113 39 192t102.5 119.5t137.5 40.5q64 0 113 -18.5t85 -48.5l-57 -372q18 0 35 3t32 13.5t26.5 31.5t15.5 57l43 288q2 12 3 22.5t1 20.5q0 47 -30.5 67.5t-76.5 20.5h-356q-50 0 -78.5 -19.5t-41 -49.5t-18.5 -62 l-73 -461q-3 -16 -3 -31q0 -39 23.5 -64t77.5 -25h385l-13 -82q-25 -5 -69 -10.5t-101.5 -9t-120.5 -3.5h-91zM452 107q33 0 67.5 11.5t59.5 34.5l39 259q-25 9 -46 12.5t-38 3.5q-47 0 -82 -28t-55 -78.5t-20 -119.5q0 -31 9 -52t25.5 -32t40.5 -11z" glyph-name="at" horiz-adv-x="931" unicode="@"/>
<glyph d="M23 0l352 740h186l114 -740h-154l-21 155h-253l-72 -155h-152zM303 288h182l-38 324z" glyph-name="A" horiz-adv-x="696" unicode="A"/>
<glyph d="M63 0l116 740h287q74 0 115.5 -19.5t58 -53.5t16.5 -79q0 -13 -1 -25.5t-3 -26.5q-8 -56 -44 -97t-92 -54q33 -8 57.5 -26t38 -47.5t13.5 -73.5q0 -10 -1 -24t-5 -38q-17 -95 -83.5 -135.5t-182.5 -40.5h-290zM232 133h140q36 0 58.5 10t35 30.5t17.5 51.5q2 8 2 15v13 q0 34 -21.5 51.5t-63.5 17.5h-138zM279 436h138q41 0 61 21t27 53l3.5 21t1.5 17q0 32 -19 45.5t-56 13.5h-128z" glyph-name="B" horiz-adv-x="635" unicode="B"/>
<glyph d="M336 -6q-124 0 -183 66.5t-59 184.5q0 34 3.5 72t9.5 76q18 116 55 194.5t100 118.5t157 40q87 0 146 -14t93 -28l-19 -117q-43 11 -93.5 18.5t-100.5 7.5q-38 0 -68.5 -10t-53.5 -36t-40 -74.5t-30 -126.5q-5 -34 -8.5 -66t-3.5 -56q0 -61 29.5 -89t104.5 -28 q67 0 109 3.5t84 8.5l-19 -116q-50 -18 -106 -23.5t-107 -5.5z" glyph-name="C" horiz-adv-x="591" unicode="C"/>
<glyph d="M62 0l117 740h281q97 0 151.5 -32t76 -89.5t21.5 -136.5q0 -32 -3 -66t-9 -69q-14 -90 -42.5 -155.5t-72.5 -108t-104 -63t-138 -20.5h-278zM231 133h124q43 0 75.5 16t56 46.5t38.5 74.5t24 102q5 34 8 61t3 43q0 47 -13 75.5t-43 42t-81 13.5h-117z" glyph-name="D" horiz-adv-x="687" unicode="D"/>
<glyph d="M242 -6q-28 0 -58 6t-55 24t-38 51t-4 86l65 409q10 65 38.5 102t70 52.5t89.5 15.5q75 0 149.5 -3.5t152.5 -9.5l-20 -124h-261q-35 0 -53 -17t-24 -53l-15 -96l277 -9l-19 -117l-279 -8l-16 -103q-4 -24 2 -39t20.5 -21.5t36.5 -6.5h257l-19 -124q-71 -6 -144 -10 t-153 -5z" glyph-name="E" horiz-adv-x="594" unicode="E"/>
<glyph d="M62 0l90 572q12 68 42 104.5t71 50t83 13.5q86 0 158.5 -3.5t143.5 -9.5l-19 -124h-261q-36 0 -53 -17.5t-23 -52.5l-18 -119l277 -8l-19 -117l-279 -7l-45 -282h-148z" glyph-name="F" horiz-adv-x="564" unicode="F"/>
<glyph d="M283 -6q-105 0 -148.5 56.5t-43.5 176.5q0 43 5 87t12 87q19 114 59 191t105.5 116t158.5 39q92 0 150 -10.5t104 -24.5l-18 -115q-33 6 -87 11.5t-132 5.5q-64 0 -102 -24.5t-58 -78.5t-35 -143q-12 -81 -12 -129q0 -53 22 -80.5t72 -27.5q19 0 40.5 2t43 5.5t38.5 7 t28 6.5l23 145h-133l19 117q26 3 68.5 6t98.5 3q16 0 37 -0.5t40.5 -1t31.5 -0.5l-66 -421h-112l-12 50q-14 -8 -38 -18t-52 -18.5t-56 -14t-51 -5.5z" glyph-name="G" horiz-adv-x="658" unicode="G"/>
<glyph d="M62 0l117 740h148l-49 -308h279l49 308h148l-117 -740h-148l47 299h-279l-47 -299h-148z" glyph-name="H" horiz-adv-x="691" unicode="H"/>
<glyph d="M62 0l117 740h148l-117 -740h-148z" glyph-name="I" horiz-adv-x="272" unicode="I"/>
<glyph d="M150 -6q-32 0 -64 6.5t-53 15.5l19 118q18 -3 37 -4t36 -1q45 0 68 21.5t30 63.5l83 526h148l-88 -557q-16 -102 -67 -145.5t-149 -43.5z" glyph-name="J" horiz-adv-x="391" unicode="J"/>
<glyph d="M62 0l117 740h148l-47 -302h97l203 302h152l-246 -372l146 -368h-148l-120 305h-106l-48 -305h-148z" glyph-name="K" horiz-adv-x="641" unicode="K"/>
<glyph d="M234 0q-67 0 -107 32t-40 102q0 12 1 23t2 23l89 560h148l-85 -541q-1 -5 -1.5 -9.5t-0.5 -9.5q0 -26 15.5 -36.5t42.5 -10.5h234l-22 -133h-276z" glyph-name="L" horiz-adv-x="532" unicode="L"/>
<glyph d="M41 0l207 740h139l83 -565l262 565h138l-30 -740h-143l20 476l-206 -476h-139l-56 470l-128 -470h-147z" glyph-name="M" horiz-adv-x="869" unicode="M"/>
<glyph d="M62 0l117 740h119l232 -488l78 488h148l-118 -740h-118l-232 489l-78 -489h-148z" glyph-name="N" horiz-adv-x="693" unicode="N"/>
<glyph d="M346 -6q-57 0 -104 9.5t-81 35t-52 71t-18 118.5q0 35 4 77t11 85q17 104 45 173t71 109t103.5 57t141.5 17q55 0 101.5 -10t81 -36.5t53.5 -74.5t19 -124q0 -32 -4 -74t-12 -86q-16 -108 -44.5 -176t-71.5 -105t-103 -51.5t-141 -14.5zM370 128q44 0 75.5 12t53 39.5 t36 72t24.5 109.5q6 41 10 77.5t4 60.5q0 48 -14 72t-42 33t-72 9q-42 0 -73.5 -11t-53.5 -37.5t-37.5 -73.5t-26.5 -121q-7 -40 -11 -75.5t-4 -58.5q0 -43 13.5 -66.5t42.5 -32.5t75 -9z" glyph-name="O" horiz-adv-x="697" unicode="O"/>
<glyph d="M62 0l117 740h295q55 0 98.5 -17.5t69.5 -60.5t26 -120q0 -15 -3 -37.5t-6 -40.5q-10 -67 -33.5 -112t-56 -71.5t-70 -38t-74.5 -11.5q-48 0 -96.5 5.5t-78.5 11.5l-40 -248h-148zM268 364h137q28 0 50 13t36.5 39t20.5 64q2 14 3.5 27.5t1.5 19.5q0 44 -18.5 62 t-52.5 18h-140z" glyph-name="P" horiz-adv-x="610" unicode="P"/>
<glyph d="M495 -196q-50 0 -91 16t-65 51t-25 90h102q5 -29 23.5 -41t55.5 -12q20 0 41 3t39 8l-17 -109q-26 -6 -63 -6zM346 -6q-57 0 -104 9.5t-81 35t-52 71t-18 118.5q0 35 4 77t11 85q17 104 45 173t71 109t103.5 57t141.5 17q55 0 101.5 -10t81 -36.5t53.5 -74.5t19 -124 q0 -32 -4 -74t-12 -86q-16 -108 -44.5 -176t-71.5 -105t-103 -51.5t-141 -14.5zM370 128q44 0 75.5 12t53 39.5t36 72t24.5 109.5q6 41 10 77.5t4 60.5q0 48 -14 72t-42 33t-72 9q-42 0 -73.5 -11t-53.5 -37.5t-37.5 -73.5t-26.5 -121q-7 -40 -11 -75.5t-4 -58.5 q0 -43 13.5 -66.5t42.5 -32.5t75 -9z" glyph-name="Q" horiz-adv-x="697" unicode="Q"/>
<glyph d="M62 0l117 740h283q45 0 82 -10t63.5 -31.5t40.5 -56.5t14 -86q0 -14 -1.5 -30t-4.5 -34q-7 -53 -24.5 -88t-39.5 -56t-44 -32t-38 -18l90 -298h-151l-75 275h-27.5h-32t-32 0.5t-28.5 0.5l-44 -276h-148zM272 393h125q33 0 55 10t35.5 33.5t19.5 65.5q2 9 2.5 17.5 t0.5 15.5q0 27 -9.5 42.5t-27 22.5t-41.5 7h-126z" glyph-name="R" horiz-adv-x="633" unicode="R"/>
<glyph d="M306 -6q-53 0 -98.5 3.5t-82 9t-63.5 11.5l18 117q45 -3 105 -5.5t118 -2.5q42 0 70.5 6t43.5 22t20 45l4 26q1 6 1.5 10.5t0.5 9.5q0 28 -20 40t-64 12h-59q-85 0 -131 42.5t-46 113.5q0 20 3 42l10 60q11 71 45.5 113t90 59.5t128.5 17.5q24 0 52 -1.5t57.5 -4.5t59 -8 t57.5 -11l-19 -117q-34 3 -75 4.5t-80.5 2.5t-69.5 1t-52.5 -6t-36.5 -22t-19 -45l-4 -26q-1 -6 -1.5 -11.5t-0.5 -10.5q0 -28 16.5 -40.5t50.5 -12.5h63q94 0 141.5 -43t47.5 -113q0 -18 -3 -40l-10 -69q-10 -62 -40 -101.5t-85.5 -58.5t-142.5 -19z" glyph-name="S" horiz-adv-x="573" unicode="S"/>
<glyph d="M225 0l96 607h-202l21 133h554l-21 -133h-203l-96 -607h-149z" glyph-name="T" unicode="T"/>
<glyph d="M345 -6q-119 0 -180.5 52t-61.5 171q0 26 3.5 58.5t9.5 66.5l63 398h148l-66 -420q-4 -25 -7 -48.5t-3 -42.5q0 -53 27 -77.5t87 -24.5q34 0 60.5 8t46 28.5t34 58.5t23.5 98l67 420h148l-70 -442q-16 -97 -44 -157.5t-68.5 -92t-94.5 -43t-122 -11.5z" glyph-name="U" horiz-adv-x="688" unicode="U"/>
<glyph d="M254 0l-114 740h153l80 -579l266 579h153l-352 -740h-186z" glyph-name="V" horiz-adv-x="697" unicode="V"/>
<glyph d="M210 0l-69 740h153l45 -520l212 520h136l43 -520l213 520h154l-307 -740h-151l-55 521l-223 -521h-151z" glyph-name="W" horiz-adv-x="1031" unicode="W"/>
<glyph d="M480 0l-147 318l-201 422h162l151 -327l196 -413h-161zM19 0l311 406l57 -127l-203 -279h-165zM444 326l-57 125l212 289h165z" glyph-name="X" horiz-adv-x="655" unicode="X"/>
<glyph d="M239 0l35 216l-141 524h161l78 -363l203 363h168l-321 -524l-34 -216h-149z" glyph-name="Y" horiz-adv-x="641" unicode="Y"/>
<glyph d="M34 0l20 126l396 481h-320l21 133h490l-20 -126l-395 -481h329l-21 -133h-500z" glyph-name="Z" horiz-adv-x="568" unicode="Z"/>
<glyph d="M213 -210q-61 0 -94 22t-46 56.5t-13 71.5q0 15 2 30t4 29l102 649q7 43 22 78t40 61t62 40.5t87 14.5h79l-18 -119h-36q-33 0 -57.5 -21t-32.5 -76l-99 -620l-2 -16t-1 -15q0 -34 16 -50t47 -16h35l-18 -119h-79z" glyph-name="bracketleft" horiz-adv-x="339" unicode="["/>
<glyph d="M285 -72l-148 842h151l148 -842h-151z" glyph-name="backslash" horiz-adv-x="462" unicode="\"/>
<glyph d="M-18 -210l19 119h35q25 0 43.5 10.5t30.5 32t17 54.5l99 620q1 9 1.5 16.5t0.5 14.5q0 36 -17 51t-46 15h-35l18 119h80q55 0 89 -17t49.5 -48.5t15.5 -74.5q0 -13 -1 -26.5t-4 -27.5l-103 -649q-5 -33 -17.5 -69.5t-36 -68t-62 -51.5t-96.5 -20h-80z" glyph-name="bracketright" horiz-adv-x="339" unicode="]"/>
<glyph d="M123 531l130 137h101l77 -137h-86l-55 68l-81 -68h-86z" glyph-name="asciicircum" horiz-adv-x="386" unicode="^"/>
<glyph d="M-30 -192l18 119h609l-18 -119h-609z" glyph-name="underscore" unicode="_"/>
<glyph d="M230 631l-92 140h119l60 -140h-87z" glyph-name="grave" horiz-adv-x="232" unicode="`"/>
<glyph d="M218 -6q-40 0 -73 19t-53 60t-20 106q0 29 4 60t8 52q13 85 47 140.5t92.5 83.5t144.5 28q45 0 88 -8t79 -22t59 -33l-76 -480h-131l-8 54q-14 -12 -40 -26t-57.5 -24t-63.5 -10zM290 113q33 0 58.5 12.5t44.5 24.5l41 258q-8 5 -27.5 10.5t-46.5 5.5q-40 0 -66.5 -17 t-42 -49t-22.5 -78q-4 -23 -6 -42.5t-2 -31.5q0 -41 17 -67t52 -26z" glyph-name="a" horiz-adv-x="571" unicode="a"/>
<glyph d="M372 -6q-31 0 -61 7.5t-55.5 20.5t-44.5 29l-26 -51h-131l121 763h148l-41 -260q35 19 74.5 29.5t67.5 10.5q78 0 123.5 -49t45.5 -139q0 -23 -4 -55.5t-9 -68.5q-12 -75 -40 -128t-70.5 -81t-97.5 -28zM326 113q45 0 72.5 36t40.5 121q3 18 4 33.5t1 28.5q0 52 -20 72 t-49 20q-26 0 -55.5 -7t-54.5 -20l-39 -252q18 -14 41.5 -23t58.5 -9z" glyph-name="b" horiz-adv-x="581" unicode="b"/>
<glyph d="M271 -6q-59 0 -103.5 18.5t-68.5 62.5t-24 123q0 17 3 42t7 53q14 92 48.5 146.5t86 79t114.5 24.5q44 0 92 -8.5t92 -19.5l-14 -86h-136q-41 0 -68.5 -17t-44 -53t-26.5 -91q-3 -20 -4.5 -34t-1.5 -23q0 -38 11 -61t32.5 -33.5t52.5 -10.5h143l-13 -84 q-34 -12 -76.5 -20t-101.5 -8z" glyph-name="c" horiz-adv-x="475" unicode="c"/>
<glyph d="M225 -6q-73 0 -111.5 49t-38.5 137q0 56 11 114q15 77 42.5 133t81 86t146.5 30q27 0 52.5 -3t47.5 -11l37 234h148l-121 -763h-131l-9 54q-19 -16 -44 -29.5t-53 -22t-58 -8.5zM291 113q32 0 57.5 11.5t47.5 25.5l41 258q-14 7 -32 11.5t-43 4.5q-34 0 -60 -13t-44 -46 t-29 -96q-3 -17 -5 -33t-2 -31q0 -35 9.5 -55t25 -28.5t34.5 -8.5z" glyph-name="d" horiz-adv-x="575" unicode="d"/>
<glyph d="M288 -6q-78 0 -124.5 23.5t-67.5 68.5t-21 108q0 28 3 53.5t7 49.5q14 88 49.5 142t94 79.5t137.5 25.5q39 0 76 -7t65.5 -24.5t45.5 -49t17 -79.5q0 -56 -18 -92t-50.5 -55.5t-74.5 -27t-89 -7.5q-37 0 -67 3.5t-48 7.5q-1 -8 -1.5 -17.5t-0.5 -18.5q0 -38 29 -56 t96 -18h173l-14 -87q-40 -8 -97 -15t-120 -7zM300 285q46 0 75.5 8.5t43 27t13.5 47.5q0 32 -19 47.5t-57 15.5t-62.5 -16t-39 -47t-21.5 -77q14 -2 31.5 -4t35.5 -2z" glyph-name="e" horiz-adv-x="548" unicode="e"/>
<glyph d="M91 0l66 418h-75l15 95l78 24l14 79q6 38 20 66.5t37 48t57 29t80 9.5q35 0 67 -2.5t54 -6.5l-17 -109h-77q-27 0 -44 -8t-25.5 -24.5t-11.5 -43.5l-5 -38h130l-19 -119h-130l-66 -418h-148z" glyph-name="f" horiz-adv-x="390" unicode="f"/>
<glyph d="M169 -233l-133 9l16 102h169q39 0 69.5 7.5t50 26.5t24.5 53l15 89q-20 -17 -48.5 -30.5t-59 -21.5t-58.5 -8q-47 0 -78.5 25t-46.5 67t-15 92q0 26 4 60.5t8 64.5q11 69 36.5 115.5t62.5 73.5t83 39t99 12q76 0 136.5 -11t96.5 -22l-90 -568q-9 -54 -35 -91t-69 -57.5 t-102 -26.5t-135 0zM289 113q30 0 55.5 10.5t49.5 26.5l43 267q-19 3 -38.5 4.5t-38.5 2.5q-33 1 -59 -13t-43.5 -44.5t-26.5 -80.5q-5 -31 -7 -47.5t-2 -35.5q0 -45 18.5 -67.5t48.5 -22.5z" glyph-name="g" horiz-adv-x="576" unicode="g"/>
<glyph d="M54 0l121 763h148l-45 -281q32 25 80 43.5t107 18.5q65 0 99.5 -32t34.5 -102q0 -27 -6 -62l-55 -348h-148l52 330q1 7 1 12.5v10.5q0 33 -17 45.5t-44 12.5q-36 0 -65 -12t-57 -33l-58 -366h-148z" glyph-name="h" horiz-adv-x="590" unicode="h"/>
<glyph d="M169 616q-9 0 -14 5.5t-3 14.5l15 98q4 21 24 21h114q10 0 13.5 -6t2.5 -15l-15 -98q-4 -20 -23 -20h-114zM54 0l84 537h149l-85 -537h-148z" glyph-name="i" horiz-adv-x="254" unicode="i"/>
<glyph d="M169 616q-9 0 -14 5.5t-3 14.5l15 98q4 21 24 21h114q10 0 13.5 -6t2.5 -15l-15 -98q-4 -20 -23 -20h-114zM16 -237l122 774h149l-86 -541q-10 -61 -31.5 -121.5t-44.5 -111.5h-109z" glyph-name="j" horiz-adv-x="254" unicode="j"/>
<glyph d="M54 0l121 763h148l-66 -416q47 9 84 31t64 61.5t42 97.5h149q-20 -74 -48.5 -122.5t-60.5 -78t-63 -46.5l141 -290h-152l-113 245q-14 -4 -31.5 -6.5t-29.5 -2.5l-37 -236h-148z" glyph-name="k" horiz-adv-x="563" unicode="k"/>
<glyph d="M240 0q-80 0 -120.5 33.5t-40.5 86.5q0 19 1 35.5t3 30.5l92 577h148l-84 -526l-3 -21t-3.5 -28t-1.5 -24q0 -28 13.5 -38t38.5 -13l38 -6l-17 -107h-64z" glyph-name="l" horiz-adv-x="322" unicode="l"/>
<glyph d="M54 0l84 537h123l17 -55q37 26 81.5 44t105.5 18q48 0 79 -19t50 -60q46 41 99 60t99 19q77 0 109.5 -34.5t32.5 -94.5q0 -20 -1.5 -40.5t-5.5 -39.5l-53 -335h-148l52 331q1 5 1.5 10.5t0.5 10.5q0 59 -66 59q-33 0 -62.5 -13t-58.5 -35q0 -7 -0.5 -16t-2.5 -20 l-52 -327h-148l52 328q1 8 1.5 13.5t0.5 11.5q0 29 -16.5 43.5t-48.5 14.5q-39 0 -66 -13.5t-53 -31.5l-58 -366h-148z" glyph-name="m" horiz-adv-x="927" unicode="m"/>
<glyph d="M54 0l84 537h123l17 -55q35 26 81.5 44t103.5 18q45 0 75 -16t45.5 -43t15.5 -62q0 -17 -1.5 -39t-10.5 -72l-49 -312h-148l48 307q3 21 4.5 31t1.5 16q0 26 -15 41.5t-50 15.5q-34 0 -63 -12.5t-56 -32.5l-58 -366h-148z" glyph-name="n" horiz-adv-x="590" unicode="n"/>
<glyph d="M286 -6q-69 0 -116 21t-71 62t-24 104q0 29 2 53.5t6 48.5q13 80 35.5 131t57 79t83 39t113.5 11q85 0 131 -21.5t63 -64.5t17 -110q0 -24 -2.5 -51.5t-6.5 -56.5q-15 -97 -50 -151t-93 -74t-145 -20zM302 113q29 0 49.5 6.5t34 22t23 45t17.5 74.5q4 28 6.5 50.5 t2.5 42.5q0 40 -19 56.5t-63 16.5q-30 0 -50 -7t-34 -25t-23.5 -51t-17.5 -83q-3 -21 -4.5 -39t-1.5 -34q0 -30 9.5 -46t27 -22.5t43.5 -6.5z" glyph-name="o" horiz-adv-x="574" unicode="o"/>
<glyph d="M16 -237l119 753q68 12 132 19.5t138 7.5q96 0 136.5 -48t40.5 -144q0 -25 -2.5 -52t-7.5 -55q-13 -85 -47.5 -140t-86 -82.5t-116.5 -27.5q-34 0 -65 5t-53 16l-40 -252h-148zM305 120q36 0 61 15.5t40.5 49.5t24.5 87q2 14 3.5 27.5t1.5 26.5q0 50 -17 74t-55 24 l-96 -1l-46 -289q14 -5 26 -8t26 -4.5t31 -1.5z" glyph-name="p" horiz-adv-x="572" unicode="p"/>
<glyph d="M332 -237l46 291q-31 -26 -75.5 -43t-87.5 -17q-72 0 -106.5 47.5t-34.5 134.5q0 26 3 53t7 57q11 73 35.5 123t60.5 79t81.5 42t100.5 13q70 0 135 -9.5t102 -23.5l-119 -747h-148zM287 113q30 0 56.5 11t49.5 26l43 267q-19 3 -36.5 4.5t-34.5 2.5q-44 1 -71.5 -15.5 t-42 -50t-23.5 -83.5q-4 -22 -6 -40t-2 -31q0 -45 18.5 -68t48.5 -23z" glyph-name="q" horiz-adv-x="570" unicode="q"/>
<glyph d="M54 0l85 537h132l6 -69q28 30 64.5 52.5t82.5 22.5q16 0 29 -1t25 -5l-23 -148q-14 1 -30 1.5t-32 0.5q-44 0 -78 -13t-57 -30l-55 -348h-149z" glyph-name="r" horiz-adv-x="419" unicode="r"/>
<glyph d="M266 -6q-33 0 -63 1.5t-58 4.5t-51.5 8t-41.5 10l14 87h234q26 0 42.5 10t20.5 29l3 22q1 5 1 7.5v4.5q0 30 -42 30h-80q-44 0 -79 11.5t-54.5 35.5t-19.5 62q0 10 1 21.5t3 23.5l6 38q8 42 30.5 74t68 50.5t122.5 18.5q32 0 69.5 -3.5t73.5 -9t62 -12.5l-15 -87h-219 q-29 0 -42.5 -9.5t-17.5 -31.5l-3 -15q-2 -7 -2.5 -12t-0.5 -9q0 -13 10 -20t36 -7h90q64 0 102.5 -28.5t38.5 -78.5q0 -10 -0.5 -21t-2.5 -22l-7 -47q-12 -75 -72 -105.5t-157 -30.5z" glyph-name="s" horiz-adv-x="512" unicode="s"/>
<glyph d="M281 0q-81 0 -121.5 30t-40.5 92q0 18 2 41.5t7 51.5l37 203h-83l15 95l92 24l44 150h117l-24 -150h126l-18 -119h-127l-32 -204q-2 -9 -4.5 -24t-2.5 -27q0 -24 12.5 -34.5t38.5 -12.5l61 -6l-18 -110h-81z" glyph-name="t" horiz-adv-x="408" unicode="t"/>
<glyph d="M209 -6q-70 0 -101.5 33.5t-31.5 92.5q0 21 1.5 36t3.5 29l56 352h148l-52 -334q-1 -5 -1.5 -10t-0.5 -12q0 -29 17.5 -41.5t45.5 -12.5q37 0 65.5 12.5t55.5 31.5l58 366h148l-84 -537h-132l-8 55q-28 -19 -55.5 -33t-59 -21t-73.5 -7z" glyph-name="u" horiz-adv-x="590" unicode="u"/>
<glyph d="M178 0l-95 537h152l53 -398l119 252q17 38 27.5 73.5t15.5 80.5h136q-1 -57 -22 -112t-46 -105l-169 -328h-171z" glyph-name="v" horiz-adv-x="549" unicode="v"/>
<glyph d="M169 0l-86 537h152l46 -398l161 398h97l70 -398l99 269q5 14 12 37.5t13.5 50.5t8.5 49h144q0 -32 -8 -67t-19.5 -68t-22.5 -57l-166 -353h-157l-57 296l-130 -296h-157z" glyph-name="w" horiz-adv-x="850" unicode="w"/>
<glyph d="M397 0l-128 220l-185 317h152l142 -243l171 -294h-152zM8 0l259 308l40 -134l-147 -174h-152zM369 217l-53 121l150 199h159z" glyph-name="x" horiz-adv-x="556" unicode="x"/>
<glyph d="M96 -237v105q61 13 107 42.5t75 89.5q-47 4 -76.5 20.5t-44.5 47t-20 76.5l-46 393h153l24 -362q2 -21 10.5 -32.5t21 -16t24.5 -5.5l118 289q12 30 21.5 65t10.5 70h139q0 -54 -14 -112.5t-46 -124.5l-142 -300q-41 -88 -88 -139t-102.5 -75.5t-124.5 -30.5z" glyph-name="y" horiz-adv-x="575" unicode="y"/>
<glyph d="M40 0l17 107l298 311h-261l19 119h431l-16 -107l-298 -311h254l-1.5 -12.5t-5 -29.5t-6 -35t-4.5 -30l-2 -12h-425z" glyph-name="z" horiz-adv-x="501" unicode="z"/>
<glyph d="M285 -210q-72 0 -115 14t-62 42.5t-19 69.5q0 17 4 50t11 72.5t13.5 77.5t11 66t4.5 35q0 26 -13.5 37t-46.5 11l22 137q17 2 33.5 7t28.5 17.5t15 33.5l31 196q11 70 40 111t80 58t129 17l-20 -119q-27 0 -43.5 -8t-26.5 -29.5t-16 -60.5l-29 -190q-8 -50 -38.5 -73.5 t-76.5 -27.5q40 -8 62 -29t22 -54q0 -9 -3.5 -31t-8 -52.5t-10 -63.5t-10.5 -63.5t-8 -52.5t-3 -30q0 -30 14 -43.5t45 -13.5z" glyph-name="braceleft" horiz-adv-x="317" unicode="{"/>
<glyph d="M55 -72l133 842h119l-133 -842h-119z" glyph-name="bar" horiz-adv-x="251" unicode="|"/>
<glyph d="M-18 -210l18 111q29 0 46 10.5t25.5 30t12.5 45.5l37 229q7 40 36.5 65t76.5 33q-38 3 -61 21.5t-23 56.5q0 11 4 39.5t9.5 65l11 73t9.5 63t4 33.5q0 34 -14.5 45.5t-43.5 11.5l19 119q67 0 110 -17t62.5 -49t19.5 -77q0 -3 -2.5 -23t-7 -49t-9.5 -61t-9.5 -61t-7 -49.5 t-2.5 -25.5q0 -18 8.5 -28t22.5 -14t29 -6l-22 -137q-29 0 -49.5 -13t-26.5 -45l-35 -225q-8 -47 -24 -80t-44.5 -53t-72 -29.5t-107.5 -9.5z" glyph-name="braceright" horiz-adv-x="317" unicode="}"/>
<glyph d="M358 534q-16 0 -30 7t-27 15.5t-26.5 15.5t-27.5 7q-29 0 -52 -10.5t-50 -28.5l-12 51q24 26 57 48t72 22q15 0 29 -7t28 -16t26.5 -15.5t24.5 -6.5q20 0 37.5 6.5t32.5 16.5t28 20l12 -56q-23 -25 -54 -47t-68 -22z" glyph-name="asciitilde" horiz-adv-x="423" unicode="~"/>
<glyph glyph-name="uni00A0" horiz-adv-x="246" unicode=" "/>
<glyph d="M246 336l-67 -535h-148l106 535h109zM265 541q18 0 18 -16v-2v-2l-16 -102q-3 -22 -24 -22h-86q-18 0 -18 16v3.5v2.5l17 102q1 12 8 16t16 4h85z" glyph-name="exclamdown" horiz-adv-x="272" unicode="¡"/>
<glyph d="M208 -92l14 87q-45 4 -81 21t-56.5 57.5t-20.5 116.5q0 79 19 142.5t53 108t78.5 69.5t96.5 26l14 94h84l-15 -96q32 -2 66.5 -10.5t67.5 -20.5l-14 -87q-11 2 -52 5.5t-103 3.5q-36 0 -63 -18t-45.5 -49.5t-27.5 -73.5t-9 -91q0 -35 10 -54t31 -26t52 -7q44 0 78 2.5 t56.5 5t31.5 4.5l-14 -87q-39 -19 -76.5 -26t-76.5 -10l-14 -87h-84z" glyph-name="cent" horiz-adv-x="486" unicode="¢"/>
<glyph d="M58 0l18 113l96 20l28 183l-91 10l12 74l97 20l11 76q14 91 49 145.5t92.5 78.5t139.5 24q50 0 91.5 -4.5t69.5 -8.5l-19 -119h-157q-34 0 -57.5 -8t-37 -29.5t-20.5 -62.5l-14 -92l180 -13l-13 -81l-184 -10l-29 -183h260l-21 -133h-501z" glyph-name="sterling" unicode="£"/>
<glyph d="M338 179q-44 0 -79 21t-55.5 56t-20.5 78q0 53 26.5 98.5t72 73t102.5 27.5q44 0 79 -21.5t56 -56t21 -77.5q0 -52 -26.5 -98t-72 -73.5t-103.5 -27.5zM145 117l-51 61l125 108l56 -61zM501 117l-89 106l71 61l89 -106zM345 254q33 0 60 14t43 40.5t16 63.5 q0 36 -24.5 61t-62.5 25q-33 0 -59.5 -14.5t-42 -40.5t-15.5 -63q0 -35 24 -60.5t61 -25.5zM237 430l-87 104l71 61l88 -104zM505 428l-51 61l123 106l51 -61z" glyph-name="currency" unicode="¤"/>
<glyph d="M108 261l12 75h453l-12 -75h-453zM87 122l12 75h452l-12 -75h-452zM220 0l34 216l-141 524h162l77 -363l204 363h168l-322 -524l-34 -216h-148z" glyph-name="yen" unicode="¥"/>
<glyph d="M134 429l54 341h119l-54 -341h-119zM55 -72l52 328h119l-52 -328h-119z" glyph-name="brokenbar" horiz-adv-x="251" unicode="¦"/>
<glyph d="M314 -6q-26 0 -57 0.5t-63 2t-61 4.5t-52 7l16 105h205q27 0 41.5 4.5t21.5 13t8 21.5q4 18 5.5 28.5t1.5 13.5q0 12 -9.5 16.5t-36.5 4.5h-98q-68 0 -106.5 20t-38.5 70q0 6 0.5 13.5t1.5 16.5l6 36q8 44 28 66t60 35q-26 13 -36 34t-10 48q0 9 0.5 18.5t1.5 19.5l9 52 q7 42 30 73.5t65 49t106 17.5q24 0 55 -1t64 -3t62 -4.5t48 -7.5l-16 -103h-209q-21 0 -35 -4t-22 -14t-11 -26q-2 -16 -3.5 -24t-1.5 -11q0 -15 10 -20.5t34 -5.5h102q73 0 108.5 -21t35.5 -69q0 -13 -3 -29l-7 -40q-5 -34 -25.5 -60t-58.5 -39q25 -8 37 -27t12 -47 q0 -7 -1 -15.5t-3 -20.5l-8 -45q-9 -59 -36.5 -92.5t-69.5 -47t-97 -13.5zM290 326h62q24 0 37 2.5t19.5 11.5t9.5 29l6 37q1 4 1 6.5v5.5q0 16 -11 23t-37 7h-68q-32 0 -45.5 -10t-17.5 -34l-6 -36q0 -2 -0.5 -4.5t-0.5 -4.5q0 -16 12.5 -24.5t38.5 -8.5z" glyph-name="section" horiz-adv-x="539" unicode="§"/>
<glyph d="M360 637q-17 0 -17 17q0 1 0.5 5.5t4 25.5t11.5 70q3 22 23 22h69q17 0 17 -17l-0.5 -5t-4 -26t-11.5 -71q-2 -21 -23 -21h-69zM160 637q-17 0 -17 17q0 1 0.5 5.5t4 25.5t11.5 70q3 22 23 22h69q17 0 17 -17l-0.5 -5t-4 -26t-11.5 -71q-2 -21 -23 -21h-69z" glyph-name="dieresis" horiz-adv-x="399" unicode="¨"/>
<glyph d="M332 0q-59 0 -103.5 20t-75 56t-46 84t-15.5 104q0 63 11.5 129t36.5 127t64 108.5t94.5 75.5t127.5 28h193q75 0 124 -29.5t73.5 -81.5t24.5 -119q0 -97 -24 -187t-67 -161.5t-100.5 -112.5t-124.5 -41h-193zM399 147q-34 0 -63.5 12t-47.5 43.5t-18 89.5q0 55 15 107 t42 93.5t63.5 66t78.5 24.5q20 0 49.5 -2t61.5 -6.5t57 -13.5l-11 -70q-28 4 -54.5 6.5t-48 4t-37.5 1.5q-31 0 -55 -16t-40 -43.5t-24 -61.5t-8 -70q0 -45 19.5 -65t61.5 -20q45 0 83.5 5t68.5 11l-10 -70q-44 -18 -89.5 -22t-93.5 -4zM322 80h208q44 0 85 30.5t73.5 85 t51.5 129.5t19 164q0 46 -13 83t-41.5 58.5t-76.5 21.5h-215q-53 0 -97 -30t-76 -82t-49.5 -120t-17.5 -143q0 -43 8.5 -78.5t27 -62.5t47 -41.5t66.5 -14.5z" glyph-name="copyright" horiz-adv-x="811" unicode="©"/>
<glyph d="M71 254l11 70h356l-11 -70h-356zM202 356q-43 0 -75 32t-32 104q0 21 3.5 44.5t5.5 38.5q14 90 64.5 135.5t147.5 45.5q53 0 99.5 -13.5t73.5 -33.5l-55 -349h-110l-8 39q-10 -10 -28.5 -19.5t-40.5 -16.5t-45 -7zM263 458q21 0 37 7.5t29 15.5l27 166q-7 2 -19 4.5 t-28 2.5q-26 0 -42.5 -10.5t-25.5 -30t-15 -46.5q-8 -32 -8 -55q0 -22 10.5 -38t34.5 -16z" glyph-name="ordfeminine" horiz-adv-x="410" unicode="ª"/>
<glyph d="M264 60l-190 222l255 218l63 -74l-169 -144l125 -147zM514 60l-190 222l255 218l63 -74l-169 -144l125 -147z" glyph-name="guillemotleft" horiz-adv-x="620" unicode="«"/>
<glyph d="M437 176l47 297h119l-47 -297h-119zM146 416l19 120h448l-19 -120h-448z" glyph-name="logicalnot" unicode="¬"/>
<glyph d="M58 230l18 120h306l-18 -120h-306z" glyph-name="uni00AD" horiz-adv-x="347" unicode="­"/>
<glyph d="M332 0q-59 0 -103.5 20t-75 56t-46 84t-15.5 104q0 63 11.5 129t36.5 127t64 108.5t94.5 75.5t127.5 28h193q75 0 124 -29.5t73.5 -81.5t24.5 -119q0 -97 -24 -187t-67 -161.5t-100.5 -112.5t-124.5 -41h-193zM274 153l68 427h184q29 0 55 -8t42 -29.5t16 -62.5 q0 -35 -12 -69.5t-34.5 -58t-52.5 -32.5l64 -167h-87l-59 170l-70 1l-27 -171h-87zM322 80h208q44 0 85 30.5t73.5 85t51.5 129.5t19 164q0 46 -13 83t-41.5 58.5t-76.5 21.5h-215q-53 0 -97 -30t-76 -82t-49.5 -120t-17.5 -143q0 -43 8.5 -78.5t27 -62.5t47 -41.5 t66.5 -14.5zM398 388h96q16 0 28.5 11t20 28.5t7.5 35.5q0 21 -10 29t-28 8h-96z" glyph-name="registered" horiz-adv-x="811" unicode="®"/>
<glyph d="M141 647l14 88h281l-14 -88h-281z" glyph-name="macron" horiz-adv-x="358" unicode="¯"/>
<glyph d="M236 481q-55 0 -89.5 34t-34.5 91q0 43 19 80t57 60.5t94 23.5t89 -34.5t33 -90.5q0 -44 -18 -81.5t-55.5 -60t-94.5 -22.5zM246 548q40 0 65 25t25 67q0 28 -17.5 45t-47.5 17q-40 0 -65.5 -26t-25.5 -66q0 -28 18.5 -45t47.5 -17z" glyph-name="degree" horiz-adv-x="318" unicode="°"/>
<glyph d="M95 96l19 120h448l-19 -120h-448zM290 282l70 448h119l-70 -448h-119zM151 446l19 120h448l-19 -120h-448z" glyph-name="plusminus" unicode="±"/>
<glyph d="M98 355l15 92l175 157q33 31 49.5 56.5t16.5 42.5t-11.5 25t-39.5 8h-135l15 92q32 6 72 12t89 6q74 0 104.5 -25.5t30.5 -73.5q0 -51 -23.5 -98t-85.5 -103l-97 -87h178l-17 -104h-336z" glyph-name="uni00B2" horiz-adv-x="416" unicode="²"/>
<glyph d="M289 351q-54 0 -103 4.5t-89 12.5l15 93h148q27 0 42.5 3t24 10.5t9.5 19.5l3 15v4.5v3.5q0 11 -6.5 18t-17.5 11t-26 4l-120 5l14 90l116 6q28 2 43.5 9t18.5 23l2 17v3.5v3.5q0 15 -14 22t-48 7h-138l15 93q46 7 93 12t95 5q57 0 88.5 -24t32.5 -72q0 -6 -0.5 -12.5 t-1.5 -14.5l-6 -34q-3 -23 -12.5 -41t-24.5 -30t-36 -18q16 -5 27.5 -16t17.5 -26.5t6 -36.5q0 -6 -0.5 -13t-2.5 -15l-4 -23q-9 -59 -51.5 -89t-109.5 -30z" glyph-name="uni00B3" horiz-adv-x="416" unicode="³"/>
<glyph d="M115 631l98 140h127l-130 -140h-95z" glyph-name="acute" horiz-adv-x="232" unicode="´"/>
<glyph d="M262 -6q-32 0 -64 10.5t-58.5 30.5t-42 50t-15.5 68q0 9 1 17.5t2 17.5l55 349h148l-53 -336q0 -5 -0.5 -10.5t-0.5 -10.5q0 -32 18.5 -43.5t48.5 -11.5q34 0 62.5 10.5t53.5 28.5l59 373h148l-84 -537h-123l-10 55q-29 -28 -64.5 -44.5t-80.5 -16.5zM12 -269l82 514h148 l-81 -514h-149z" glyph-name="uni00B5" horiz-adv-x="595" unicode="µ"/>
<glyph d="M206 -270l94 591q-9 -5 -28.5 -10.5t-46.5 -5.5q-67 0 -97.5 34t-30.5 83q0 8 1 17t4 27l21 134q8 48 33.5 79t64 46t83.5 15h387l-16 -99h-60l-102 -641h-97l102 643h-70l-145 -913h-97zM257 403h55l38 240h-54q-38 0 -56 -16.5t-24 -51.5l-15 -96q-2 -11 -3 -18.5 t-1 -11.5q0 -20 8.5 -30t22.5 -13t29 -3z" glyph-name="paragraph" horiz-adv-x="573" unicode="¶"/>
<glyph d="M128 321q-9 0 -14 5.5t-4 14.5l14 89q3 21 24 21h86q22 0 18 -21l-14 -89q-2 -11 -8.5 -15.5t-15.5 -4.5h-86z" glyph-name="periodcentered" horiz-adv-x="263" unicode="·"/>
<glyph d="M8 -198l9 61l19 3q17 2 27 9t14.5 15.5t4.5 15.5q0 10 -8.5 18.5t-31.5 11.5l61 14q32 0 52.5 -14t20.5 -47q0 -21 -12.5 -41t-38.5 -33t-69 -13h-48zM42 -64l64 81h67l-64 -81h-67z" glyph-name="cedilla" horiz-adv-x="246" unicode="¸"/>
<glyph d="M213 355l62 387l-98 -10l12 74l115 40h106l-78 -491h-119zM110 355l17 104h324l-17 -104h-324z" glyph-name="uni00B9" horiz-adv-x="416" unicode="¹"/>
<glyph d="M71 254l11 70h356l-11 -70h-356zM258 356q-54 0 -89.5 15.5t-53 46t-18.5 75.5q0 22 2 40.5t4 34.5q13 79 38.5 119.5t69.5 54.5t109 14q66 0 100 -15.5t47 -47.5t13 -82q0 -17 -1.5 -37t-5.5 -41q-11 -72 -37 -110.5t-70 -52.5t-108 -14zM271 458q25 0 40 7.5t24.5 27.5 t15.5 57q3 21 4 35.5t1 28.5q-1 23 -12.5 33t-40.5 10q-25 0 -40 -8.5t-23 -29.5t-15 -59q-3 -22 -3.5 -34.5t-0.5 -24.5q1 -16 6 -25.5t16 -13.5t28 -4z" glyph-name="ordmasculine" horiz-adv-x="427" unicode="º"/>
<glyph d="M117 60l-60 76l170 145l-124 146l86 73l188 -219zM367 60l-60 76l170 145l-124 146l86 73l188 -219z" glyph-name="guillemotright" horiz-adv-x="620" unicode="»"/>
<glyph d="M305 0l493 770h101l-493 -770h-101zM946 -55l16 95h-211l-13 53l205 339h121l-177 -294h90l13 81l32 60h96l-22 -141h45l-14 -80l-46 -18l-16 -95h-119zM216 355l62 387l-98 -10l12 74l115 40h106l-78 -491h-119zM113 355l17 104h324l-17 -104h-324z" glyph-name="onequarter" horiz-adv-x="1154" unicode="¼"/>
<glyph d="M305 0l493 770h101l-493 -770h-101zM758 -55l15 92l175 157q33 31 49.5 56.5t16.5 42.5t-11.5 25t-39.5 8h-135l15 92q32 6 72 12t89 6q74 0 104.5 -25.5t30.5 -73.5q0 -51 -23.5 -98t-85.5 -103l-97 -87h178l-17 -104h-336zM216 355l62 387l-98 -10l12 74l115 40h106 l-78 -491h-119zM113 355l17 104h324l-17 -104h-324z" glyph-name="onehalf" horiz-adv-x="1154" unicode="½"/>
<glyph d="M305 0l493 770h101l-493 -770h-101zM946 -48l16 95h-211l-13 53l205 339h121l-177 -294h90l13 81l32 60h96l-22 -141h45l-14 -80l-46 -18l-16 -95h-119zM299 351q-54 0 -103 4.5t-89 12.5l15 93h148q27 0 42.5 3t24 10.5t9.5 19.5l3 15v4.5v3.5q0 11 -6.5 18t-17.5 11 t-26 4l-120 5l14 90l116 6q28 2 43.5 9t18.5 23l2 17v3.5v3.5q0 15 -14 22t-48 7h-138l15 93q46 7 93 12t95 5q57 0 88.5 -24t32.5 -72q0 -6 -0.5 -12.5t-1.5 -14.5l-6 -34q-3 -23 -12.5 -41t-24.5 -30t-36 -18q16 -5 27.5 -16t17.5 -26.5t6 -36.5q0 -6 -0.5 -13t-2.5 -15 l-4 -23q-9 -59 -51.5 -89t-109.5 -30z" glyph-name="threequarters" horiz-adv-x="1153" unicode="¾"/>
<glyph d="M429 337l-31 -198h-69q-35 0 -59.5 -7t-38.5 -24t-20 -49l-6 -33q0 -6 -0.5 -12t-0.5 -11q0 -37 25.5 -53t74.5 -16q43 0 85 9t87 24l-17 -109q-45 -25 -101 -41t-122 -16q-93 0 -139.5 44t-46.5 115q0 21 4 43l10 59q14 93 73 141t168 48l13 86h111zM446 541 q18 0 18 -16v-2v-2l-17 -102q-2 -22 -24 -22h-85q-19 0 -19 16v3.5v2.5l17 102q2 12 9 16t15 4h86z" glyph-name="questiondown" horiz-adv-x="529" unicode="¿"/>
<glyph d="M23 0l352 740h186l114 -740h-154l-21 155h-253l-72 -155h-152zM303 288h182l-38 324zM446 791l-92 140h119l60 -140h-87z" glyph-name="Agrave" horiz-adv-x="696" unicode="À"/>
<glyph d="M23 0l352 740h186l114 -740h-154l-21 155h-253l-72 -155h-152zM303 288h182l-38 324zM416 791l98 140h127l-130 -140h-95z" glyph-name="Aacute" horiz-adv-x="696" unicode="Á"/>
<glyph d="M23 0l352 740h186l114 -740h-154l-21 155h-253l-72 -155h-152zM303 288h182l-38 324zM306 791l131 142h101l76 -142h-86l-53 76l-83 -76h-86z" glyph-name="Acircumflex" horiz-adv-x="696" unicode="Â"/>
<glyph d="M23 0l352 740h186l114 -740h-154l-21 155h-253l-72 -155h-152zM303 288h182l-38 324zM290 795q17 70 50.5 97t73.5 27q23 0 42.5 -6.5t36.5 -14.5t32.5 -14t30.5 -6q20 0 32 12.5t16 33.5h74q-16 -67 -45.5 -97.5t-77.5 -30.5q-21 0 -41 6.5t-38 14t-34 14t-30 6.5 q-19 0 -31.5 -12t-16.5 -30h-74z" glyph-name="Atilde" horiz-adv-x="696" unicode="Ã"/>
<glyph d="M23 0l352 740h186l114 -740h-154l-21 155h-253l-72 -155h-152zM303 288h182l-38 324zM530 797q-17 0 -17 17q0 1 0.5 5.5t4 25.5t11.5 70q3 22 23 22h69q17 0 17 -17l-0.5 -5t-4 -26t-11.5 -71q-2 -21 -23 -21h-69zM330 797q-17 0 -17 17q0 1 0.5 5.5t4 25.5t11.5 70 q3 22 23 22h69q17 0 17 -17l-0.5 -5t-4 -26t-11.5 -71q-2 -21 -23 -21h-69z" glyph-name="Adieresis" horiz-adv-x="696" unicode="Ä"/>
<glyph d="M23 0l352 740h186l114 -740h-154l-21 155h-253l-72 -155h-152zM303 288h182l-38 324zM471 765q-52 0 -82 22t-30 76q0 36 16.5 65t48 46.5t76.5 17.5q53 0 82 -22t29 -75q0 -54 -35.5 -92t-104.5 -38zM478 820q33 0 48 21.5t15 50.5q0 26 -13.5 36t-33.5 10 q-34 0 -50 -22t-16 -51q0 -25 14 -35t36 -10z" glyph-name="Aring" horiz-adv-x="696" unicode="Å"/>
<glyph d="M646 -5q-38 0 -68.5 4.5t-51.5 17.5t-31 35.5t-8 55.5l5 46h-217l-116 -154h-147l397 562q51 74 107 112t117.5 52t126.5 14q57 0 133 -3.5t156 -9.5l-20 -124h-261q-26 0 -41.5 -4.5t-23.5 -14t-12 -25t-7 -37.5l-14 -87l284 -8l-18 -117l-287 -8l-16 -102q-5 -32 6 -46 t29.5 -17t36.5 -3h250l-20 -123q-29 -3 -65 -6t-72.5 -4.5t-68.5 -3t-54 -2t-29 -0.5zM361 280h151l45 283z" glyph-name="AE" horiz-adv-x="980" unicode="Æ"/>
<glyph d="M336 -6q-124 0 -183 66.5t-59 184.5q0 34 3.5 72t9.5 76q18 116 55 194.5t100 118.5t157 40q87 0 146 -14t93 -28l-19 -117q-43 11 -93.5 18.5t-100.5 7.5q-38 0 -68.5 -10t-53.5 -36t-40 -74.5t-30 -126.5q-5 -34 -8.5 -66t-3.5 -56q0 -61 29.5 -89t104.5 -28 q67 0 109 3.5t84 8.5l-19 -116q-50 -18 -106 -23.5t-107 -5.5zM202 -201l9 61l19 3q17 2 27 9t14.5 15.5t4.5 15.5q0 10 -8.5 18.5t-31.5 11.5l61 14q32 0 52.5 -14t20.5 -47q0 -21 -12.5 -41t-38.5 -33t-69 -13h-48zM236 -67l64 81h67l-64 -81h-67z" glyph-name="Ccedilla" horiz-adv-x="591" unicode="Ç"/>
<glyph d="M242 -6q-28 0 -58 6t-55 24t-38 51t-4 86l65 409q10 65 38.5 102t70 52.5t89.5 15.5q75 0 149.5 -3.5t152.5 -9.5l-20 -124h-261q-35 0 -53 -17t-24 -53l-15 -96l277 -9l-19 -117l-279 -8l-16 -103q-4 -24 2 -39t20.5 -21.5t36.5 -6.5h257l-19 -124q-71 -6 -144 -10 t-153 -5zM401 791l-92 140h119l60 -140h-87z" glyph-name="Egrave" horiz-adv-x="594" unicode="È"/>
<glyph d="M242 -6q-28 0 -58 6t-55 24t-38 51t-4 86l65 409q10 65 38.5 102t70 52.5t89.5 15.5q75 0 149.5 -3.5t152.5 -9.5l-20 -124h-261q-35 0 -53 -17t-24 -53l-15 -96l277 -9l-19 -117l-279 -8l-16 -103q-4 -24 2 -39t20.5 -21.5t36.5 -6.5h257l-19 -124q-71 -6 -144 -10 t-153 -5zM372 791l98 140h127l-130 -140h-95z" glyph-name="Eacute" horiz-adv-x="594" unicode="É"/>
<glyph d="M242 -6q-28 0 -58 6t-55 24t-38 51t-4 86l65 409q10 65 38.5 102t70 52.5t89.5 15.5q75 0 149.5 -3.5t152.5 -9.5l-20 -124h-261q-35 0 -53 -17t-24 -53l-15 -96l277 -9l-19 -117l-279 -8l-16 -103q-4 -24 2 -39t20.5 -21.5t36.5 -6.5h257l-19 -124q-71 -6 -144 -10 t-153 -5zM262 791l131 142h101l76 -142h-86l-53 76l-83 -76h-86z" glyph-name="Ecircumflex" horiz-adv-x="594" unicode="Ê"/>
<glyph d="M242 -6q-28 0 -58 6t-55 24t-38 51t-4 86l65 409q10 65 38.5 102t70 52.5t89.5 15.5q75 0 149.5 -3.5t152.5 -9.5l-20 -124h-261q-35 0 -53 -17t-24 -53l-15 -96l277 -9l-19 -117l-279 -8l-16 -103q-4 -24 2 -39t20.5 -21.5t36.5 -6.5h257l-19 -124q-71 -6 -144 -10 t-153 -5zM485 797q-17 0 -17 17q0 1 0.5 5.5t4 25.5t11.5 70q3 22 23 22h69q17 0 17 -17l-0.5 -5t-4 -26t-11.5 -71q-2 -21 -23 -21h-69zM285 797q-17 0 -17 17q0 1 0.5 5.5t4 25.5t11.5 70q3 22 23 22h69q17 0 17 -17l-0.5 -5t-4 -26t-11.5 -71q-2 -21 -23 -21h-69z" glyph-name="Edieresis" horiz-adv-x="594" unicode="Ë"/>
<glyph d="M62 0l117 740h148l-117 -740h-148zM236 791l-92 140h119l60 -140h-87z" glyph-name="Igrave" horiz-adv-x="272" unicode="Ì"/>
<glyph d="M62 0l117 740h148l-117 -740h-148zM206 791l98 140h127l-130 -140h-95z" glyph-name="Iacute" horiz-adv-x="272" unicode="Í"/>
<glyph d="M62 0l117 740h148l-117 -740h-148zM96 791l131 142h101l76 -142h-86l-53 76l-83 -76h-86z" glyph-name="Icircumflex" horiz-adv-x="272" unicode="Î"/>
<glyph d="M62 0l117 740h148l-117 -740h-148zM319 797q-17 0 -17 17q0 1 0.5 5.5t4 25.5t11.5 70q3 22 23 22h69q17 0 17 -17l-0.5 -5t-4 -26t-11.5 -71q-2 -21 -23 -21h-69zM119 797q-17 0 -17 17q0 1 0.5 5.5t4 25.5t11.5 70q3 22 23 22h69q17 0 17 -17l-0.5 -5t-4 -26t-11.5 -71 q-2 -21 -23 -21h-69z" glyph-name="Idieresis" horiz-adv-x="272" unicode="Ï"/>
<glyph d="M56 325l16 96h324l-16 -96h-324zM62 0l117 740h281q97 0 151.5 -32t76 -89.5t21.5 -136.5q0 -32 -3 -66t-9 -69q-14 -90 -42.5 -155.5t-72.5 -108t-104 -63t-138 -20.5h-278zM231 133h124q43 0 75.5 16t56 46.5t38.5 74.5t24 102q5 34 8 61t3 43q0 47 -13 75.5t-43 42 t-81 13.5h-117z" glyph-name="Eth" horiz-adv-x="687" unicode="Ð"/>
<glyph d="M62 0l117 740h119l232 -488l78 488h148l-118 -740h-118l-232 489l-78 -489h-148zM275 795q17 70 50.5 97t73.5 27q23 0 42.5 -6.5t36.5 -14.5t32.5 -14t30.5 -6q20 0 32 12.5t16 33.5h74q-16 -67 -45.5 -97.5t-77.5 -30.5q-21 0 -41 6.5t-38 14t-34 14t-30 6.5 q-19 0 -31.5 -12t-16.5 -30h-74z" glyph-name="Ntilde" horiz-adv-x="693" unicode="Ñ"/>
<glyph d="M346 -6q-57 0 -104 9.5t-81 35t-52 71t-18 118.5q0 35 4 77t11 85q17 104 45 173t71 109t103.5 57t141.5 17q55 0 101.5 -10t81 -36.5t53.5 -74.5t19 -124q0 -32 -4 -74t-12 -86q-16 -108 -44.5 -176t-71.5 -105t-103 -51.5t-141 -14.5zM370 128q44 0 75.5 12t53 39.5 t36 72t24.5 109.5q6 41 10 77.5t4 60.5q0 48 -14 72t-42 33t-72 9q-42 0 -73.5 -11t-53.5 -37.5t-37.5 -73.5t-26.5 -121q-7 -40 -11 -75.5t-4 -58.5q0 -43 13.5 -66.5t42.5 -32.5t75 -9zM450 791l-92 140h119l60 -140h-87z" glyph-name="Ograve" horiz-adv-x="697" unicode="Ò"/>
<glyph d="M346 -6q-57 0 -104 9.5t-81 35t-52 71t-18 118.5q0 35 4 77t11 85q17 104 45 173t71 109t103.5 57t141.5 17q55 0 101.5 -10t81 -36.5t53.5 -74.5t19 -124q0 -32 -4 -74t-12 -86q-16 -108 -44.5 -176t-71.5 -105t-103 -51.5t-141 -14.5zM370 128q44 0 75.5 12t53 39.5 t36 72t24.5 109.5q6 41 10 77.5t4 60.5q0 48 -14 72t-42 33t-72 9q-42 0 -73.5 -11t-53.5 -37.5t-37.5 -73.5t-26.5 -121q-7 -40 -11 -75.5t-4 -58.5q0 -43 13.5 -66.5t42.5 -32.5t75 -9zM420 791l98 140h127l-130 -140h-95z" glyph-name="Oacute" horiz-adv-x="697" unicode="Ó"/>
<glyph d="M346 -6q-57 0 -104 9.5t-81 35t-52 71t-18 118.5q0 35 4 77t11 85q17 104 45 173t71 109t103.5 57t141.5 17q55 0 101.5 -10t81 -36.5t53.5 -74.5t19 -124q0 -32 -4 -74t-12 -86q-16 -108 -44.5 -176t-71.5 -105t-103 -51.5t-141 -14.5zM370 128q44 0 75.5 12t53 39.5 t36 72t24.5 109.5q6 41 10 77.5t4 60.5q0 48 -14 72t-42 33t-72 9q-42 0 -73.5 -11t-53.5 -37.5t-37.5 -73.5t-26.5 -121q-7 -40 -11 -75.5t-4 -58.5q0 -43 13.5 -66.5t42.5 -32.5t75 -9zM310 791l131 142h101l76 -142h-86l-53 76l-83 -76h-86z" glyph-name="Ocircumflex" horiz-adv-x="697" unicode="Ô"/>
<glyph d="M346 -6q-57 0 -104 9.5t-81 35t-52 71t-18 118.5q0 35 4 77t11 85q17 104 45 173t71 109t103.5 57t141.5 17q55 0 101.5 -10t81 -36.5t53.5 -74.5t19 -124q0 -32 -4 -74t-12 -86q-16 -108 -44.5 -176t-71.5 -105t-103 -51.5t-141 -14.5zM370 128q44 0 75.5 12t53 39.5 t36 72t24.5 109.5q6 41 10 77.5t4 60.5q0 48 -14 72t-42 33t-72 9q-42 0 -73.5 -11t-53.5 -37.5t-37.5 -73.5t-26.5 -121q-7 -40 -11 -75.5t-4 -58.5q0 -43 13.5 -66.5t42.5 -32.5t75 -9zM294 795q17 70 50.5 97t73.5 27q23 0 42.5 -6.5t36.5 -14.5t32.5 -14t30.5 -6 q20 0 32 12.5t16 33.5h74q-16 -67 -45.5 -97.5t-77.5 -30.5q-21 0 -41 6.5t-38 14t-34 14t-30 6.5q-19 0 -31.5 -12t-16.5 -30h-74z" glyph-name="Otilde" horiz-adv-x="697" unicode="Õ"/>
<glyph d="M346 -6q-57 0 -104 9.5t-81 35t-52 71t-18 118.5q0 35 4 77t11 85q17 104 45 173t71 109t103.5 57t141.5 17q55 0 101.5 -10t81 -36.5t53.5 -74.5t19 -124q0 -32 -4 -74t-12 -86q-16 -108 -44.5 -176t-71.5 -105t-103 -51.5t-141 -14.5zM370 128q44 0 75.5 12t53 39.5 t36 72t24.5 109.5q6 41 10 77.5t4 60.5q0 48 -14 72t-42 33t-72 9q-42 0 -73.5 -11t-53.5 -37.5t-37.5 -73.5t-26.5 -121q-7 -40 -11 -75.5t-4 -58.5q0 -43 13.5 -66.5t42.5 -32.5t75 -9zM534 797q-17 0 -17 17q0 1 0.5 5.5t4 25.5t11.5 70q3 22 23 22h69q17 0 17 -17 l-0.5 -5t-4 -26t-11.5 -71q-2 -21 -23 -21h-69zM334 797q-17 0 -17 17q0 1 0.5 5.5t4 25.5t11.5 70q3 22 23 22h69q17 0 17 -17l-0.5 -5t-4 -26t-11.5 -71q-2 -21 -23 -21h-69z" glyph-name="Odieresis" horiz-adv-x="697" unicode="Ö"/>
<glyph d="M215 155l-71 85l367 317l71 -85zM448 155l-267 317l98 85l267 -317z" glyph-name="multiply" unicode="×"/>
<glyph d="M43 0l647 740h84l-647 -740h-84zM346 -6q-57 0 -104 9.5t-81 35t-52 71t-18 118.5q0 35 4 77t11 85q17 104 45 173t71 109t103.5 57t141.5 17q55 0 101.5 -10t81 -36.5t53.5 -74.5t19 -124q0 -32 -4 -74t-12 -86q-16 -108 -44.5 -176t-71.5 -105t-103 -51.5t-141 -14.5z M370 128q44 0 75.5 12t53 39.5t36 72t24.5 109.5q6 41 10 77.5t4 60.5q0 48 -14 72t-42 33t-72 9q-42 0 -73.5 -11t-53.5 -37.5t-37.5 -73.5t-26.5 -121q-7 -40 -11 -75.5t-4 -58.5q0 -43 13.5 -66.5t42.5 -32.5t75 -9z" glyph-name="Oslash" horiz-adv-x="700" unicode="Ø"/>
<glyph d="M345 -6q-119 0 -180.5 52t-61.5 171q0 26 3.5 58.5t9.5 66.5l63 398h148l-66 -420q-4 -25 -7 -48.5t-3 -42.5q0 -53 27 -77.5t87 -24.5q34 0 60.5 8t46 28.5t34 58.5t23.5 98l67 420h148l-70 -442q-16 -97 -44 -157.5t-68.5 -92t-94.5 -43t-122 -11.5zM438 791l-92 140 h119l60 -140h-87z" glyph-name="Ugrave" horiz-adv-x="688" unicode="Ù"/>
<glyph d="M345 -6q-119 0 -180.5 52t-61.5 171q0 26 3.5 58.5t9.5 66.5l63 398h148l-66 -420q-4 -25 -7 -48.5t-3 -42.5q0 -53 27 -77.5t87 -24.5q34 0 60.5 8t46 28.5t34 58.5t23.5 98l67 420h148l-70 -442q-16 -97 -44 -157.5t-68.5 -92t-94.5 -43t-122 -11.5zM408 791l98 140 h127l-130 -140h-95z" glyph-name="Uacute" horiz-adv-x="688" unicode="Ú"/>
<glyph d="M345 -6q-119 0 -180.5 52t-61.5 171q0 26 3.5 58.5t9.5 66.5l63 398h148l-66 -420q-4 -25 -7 -48.5t-3 -42.5q0 -53 27 -77.5t87 -24.5q34 0 60.5 8t46 28.5t34 58.5t23.5 98l67 420h148l-70 -442q-16 -97 -44 -157.5t-68.5 -92t-94.5 -43t-122 -11.5zM298 791l131 142 h101l76 -142h-86l-53 76l-83 -76h-86z" glyph-name="Ucircumflex" horiz-adv-x="688" unicode="Û"/>
<glyph d="M345 -6q-119 0 -180.5 52t-61.5 171q0 26 3.5 58.5t9.5 66.5l63 398h148l-66 -420q-4 -25 -7 -48.5t-3 -42.5q0 -53 27 -77.5t87 -24.5q34 0 60.5 8t46 28.5t34 58.5t23.5 98l67 420h148l-70 -442q-16 -97 -44 -157.5t-68.5 -92t-94.5 -43t-122 -11.5zM521 797 q-17 0 -17 17q0 1 0.5 5.5t4 25.5t11.5 70q3 22 23 22h69q17 0 17 -17l-0.5 -5t-4 -26t-11.5 -71q-2 -21 -23 -21h-69zM321 797q-17 0 -17 17q0 1 0.5 5.5t4 25.5t11.5 70q3 22 23 22h69q17 0 17 -17l-0.5 -5t-4 -26t-11.5 -71q-2 -21 -23 -21h-69z" glyph-name="Udieresis" horiz-adv-x="688" unicode="Ü"/>
<glyph d="M239 0l35 216l-141 524h161l78 -363l203 363h168l-321 -524l-34 -216h-149zM388 791l98 140h127l-130 -140h-95z" glyph-name="Yacute" horiz-adv-x="641" unicode="Ý"/>
<glyph d="M62 0l117 740h148l-117 -740h-148zM367 140q-44 0 -87 7t-77 14l17 112h127q28 0 50 10.5t37 31t19 52.5q2 13 4 27t2 20q0 37 -21 52.5t-60 15.5h-133l21 133h140q58 0 104 -16.5t73 -57t27 -113.5q0 -15 -3 -37t-6 -40q-10 -61 -33 -101.5t-56 -64.5t-70.5 -34.5 t-74.5 -10.5z" glyph-name="Thorn" horiz-adv-x="569" unicode="Þ"/>
<glyph d="M402 -6q-45 0 -84.5 4.5t-61.5 10.5l15 100q30 -2 57 -3t54 -1q30 0 46 6.5t22.5 16t8.5 19.5q1 8 1.5 13t0.5 9q0 16 -11 27t-27.5 22t-33 25t-28 34t-11.5 49q0 30 13 57t32.5 51.5t38.5 47t32 45t13 45.5q0 31 -23 48.5t-64 17.5q-50 0 -78 -33.5t-41 -115.5l-78 -489 h-148l87 555q10 61 43 109.5t90 76.5t138 28q76 0 122.5 -24.5t67 -64t20.5 -84.5q0 -33 -11.5 -61t-29 -50.5t-35.5 -42t-29.5 -37t-11.5 -35.5q0 -15 11 -27.5t27 -25.5t32 -28t27 -36t11 -50q0 -7 -1 -19t-7 -47q-7 -45 -27.5 -73t-49 -43t-60 -21t-59.5 -6z" glyph-name="germandbls" horiz-adv-x="605" unicode="ß"/>
<glyph d="M218 -6q-40 0 -73 19t-53 60t-20 106q0 29 4 60t8 52q13 85 47 140.5t92.5 83.5t144.5 28q45 0 88 -8t79 -22t59 -33l-76 -480h-131l-8 54q-14 -12 -40 -26t-57.5 -24t-63.5 -10zM290 113q33 0 58.5 12.5t44.5 24.5l41 258q-8 5 -27.5 10.5t-46.5 5.5q-40 0 -66.5 -17 t-42 -49t-22.5 -78q-4 -23 -6 -42.5t-2 -31.5q0 -41 17 -67t52 -26zM355 631l-92 140h119l60 -140h-87z" glyph-name="agrave" horiz-adv-x="571" unicode="à"/>
<glyph d="M218 -6q-40 0 -73 19t-53 60t-20 106q0 29 4 60t8 52q13 85 47 140.5t92.5 83.5t144.5 28q45 0 88 -8t79 -22t59 -33l-76 -480h-131l-8 54q-14 -12 -40 -26t-57.5 -24t-63.5 -10zM290 113q33 0 58.5 12.5t44.5 24.5l41 258q-8 5 -27.5 10.5t-46.5 5.5q-40 0 -66.5 -17 t-42 -49t-22.5 -78q-4 -23 -6 -42.5t-2 -31.5q0 -41 17 -67t52 -26zM333 631l98 140h127l-130 -140h-95z" glyph-name="aacute" horiz-adv-x="571" unicode="á"/>
<glyph d="M218 -6q-40 0 -73 19t-53 60t-20 106q0 29 4 60t8 52q13 85 47 140.5t92.5 83.5t144.5 28q45 0 88 -8t79 -22t59 -33l-76 -480h-131l-8 54q-14 -12 -40 -26t-57.5 -24t-63.5 -10zM290 113q33 0 58.5 12.5t44.5 24.5l41 258q-8 5 -27.5 10.5t-46.5 5.5q-40 0 -66.5 -17 t-42 -49t-22.5 -78q-4 -23 -6 -42.5t-2 -31.5q0 -41 17 -67t52 -26zM225 631l131 142h101l76 -142h-86l-53 76l-83 -76h-86z" glyph-name="acircumflex" horiz-adv-x="571" unicode="â"/>
<glyph d="M218 -6q-40 0 -73 19t-53 60t-20 106q0 29 4 60t8 52q13 85 47 140.5t92.5 83.5t144.5 28q45 0 88 -8t79 -22t59 -33l-76 -480h-131l-8 54q-14 -12 -40 -26t-57.5 -24t-63.5 -10zM290 113q33 0 58.5 12.5t44.5 24.5l41 258q-8 5 -27.5 10.5t-46.5 5.5q-40 0 -66.5 -17 t-42 -49t-22.5 -78q-4 -23 -6 -42.5t-2 -31.5q0 -41 17 -67t52 -26zM197 635q17 70 50.5 97t73.5 27q23 0 42.5 -6.5t36.5 -14.5t32.5 -14t30.5 -6q20 0 32 12.5t16 33.5h74q-16 -67 -45.5 -97.5t-77.5 -30.5q-21 0 -41 6.5t-38 14t-34 14t-30 6.5q-19 0 -31.5 -12 t-16.5 -30h-74z" glyph-name="atilde" horiz-adv-x="571" unicode="ã"/>
<glyph d="M218 -6q-40 0 -73 19t-53 60t-20 106q0 29 4 60t8 52q13 85 47 140.5t92.5 83.5t144.5 28q45 0 88 -8t79 -22t59 -33l-76 -480h-131l-8 54q-14 -12 -40 -26t-57.5 -24t-63.5 -10zM290 113q33 0 58.5 12.5t44.5 24.5l41 258q-8 5 -27.5 10.5t-46.5 5.5q-40 0 -66.5 -17 t-42 -49t-22.5 -78q-4 -23 -6 -42.5t-2 -31.5q0 -41 17 -67t52 -26zM445 637q-17 0 -17 17q0 1 0.5 5.5t4 25.5t11.5 70q3 22 23 22h69q17 0 17 -17l-0.5 -5t-4 -26t-11.5 -71q-2 -21 -23 -21h-69zM245 637q-17 0 -17 17q0 1 0.5 5.5t4 25.5t11.5 70q3 22 23 22h69 q17 0 17 -17l-0.5 -5t-4 -26t-11.5 -71q-2 -21 -23 -21h-69z" glyph-name="adieresis" horiz-adv-x="571" unicode="ä"/>
<glyph d="M218 -6q-40 0 -73 19t-53 60t-20 106q0 29 4 60t8 52q13 85 47 140.5t92.5 83.5t144.5 28q45 0 88 -8t79 -22t59 -33l-76 -480h-131l-8 54q-14 -12 -40 -26t-57.5 -24t-63.5 -10zM290 113q33 0 58.5 12.5t44.5 24.5l41 258q-8 5 -27.5 10.5t-46.5 5.5q-40 0 -66.5 -17 t-42 -49t-22.5 -78q-4 -23 -6 -42.5t-2 -31.5q0 -41 17 -67t52 -26zM388 585q-52 0 -82 22t-30 76q0 36 16.5 65t48 46.5t76.5 17.5q53 0 82 -22t29 -75q0 -54 -35.5 -92t-104.5 -38zM395 640q33 0 48 21.5t15 50.5q0 26 -13.5 36t-33.5 10q-34 0 -50 -22t-16 -51 q0 -25 14 -35t36 -10z" glyph-name="aring" horiz-adv-x="571" unicode="å"/>
<glyph d="M221 -6q-40 0 -73.5 18t-53 58t-19.5 107q0 99 21.5 168.5t60 113.5t90 64t112.5 20q26 0 56 -3.5t60 -12t55 -22.5q12 10 32.5 17.5t43.5 12t43.5 7t31.5 2.5q108 0 161.5 -40t53.5 -126q0 -55 -24.5 -94.5t-73.5 -60.5t-127 -21q-24 0 -49.5 2t-46 4.5t-27.5 4.5 q-2 -10 -2.5 -18t-0.5 -17q0 -23 9.5 -40t34 -26t67.5 -9h188l-14 -87q-30 -6 -69 -11.5t-82.5 -8t-83.5 -2.5q-38 0 -71.5 9t-58 26.5t-35.5 41.5q-33 -23 -67 -40.5t-69 -27t-73 -9.5zM286 115q23 0 45.5 8t41.5 21t29 25q-1 8 -1 16.5v17.5q0 35 4.5 71t14.5 70.5 t25 62.5q-10 6 -31 11.5t-41 5.5q-42 0 -71 -17t-46.5 -47t-25.5 -69.5t-8 -85.5q0 -41 15.5 -65.5t48.5 -24.5zM637 285q65 0 92.5 21.5t27.5 55.5t-18.5 51.5t-53.5 17.5q-32 0 -54 -9.5t-36 -27.5t-22.5 -44t-14.5 -59q3 -1 15 -2.5t28.5 -2.5t35.5 -1z" glyph-name="ae" horiz-adv-x="876" unicode="æ"/>
<glyph d="M271 -6q-59 0 -103.5 18.5t-68.5 62.5t-24 123q0 17 3 42t7 53q14 92 48.5 146.5t86 79t114.5 24.5q44 0 92 -8.5t92 -19.5l-14 -86h-136q-41 0 -68.5 -17t-44 -53t-26.5 -91q-3 -20 -4.5 -34t-1.5 -23q0 -38 11 -61t32.5 -33.5t52.5 -10.5h143l-13 -84 q-34 -12 -76.5 -20t-101.5 -8zM132 -201l9 61l19 3q17 2 27 9t14.5 15.5t4.5 15.5q0 10 -8.5 18.5t-31.5 11.5l61 14q32 0 52.5 -14t20.5 -47q0 -21 -12.5 -41t-38.5 -33t-69 -13h-48zM166 -67l64 81h67l-64 -81h-67z" glyph-name="ccedilla" horiz-adv-x="475" unicode="ç"/>
<glyph d="M288 -6q-78 0 -124.5 23.5t-67.5 68.5t-21 108q0 28 3 53.5t7 49.5q14 88 49.5 142t94 79.5t137.5 25.5q39 0 76 -7t65.5 -24.5t45.5 -49t17 -79.5q0 -56 -18 -92t-50.5 -55.5t-74.5 -27t-89 -7.5q-37 0 -67 3.5t-48 7.5q-1 -8 -1.5 -17.5t-0.5 -18.5q0 -38 29 -56 t96 -18h173l-14 -87q-40 -8 -97 -15t-120 -7zM300 285q46 0 75.5 8.5t43 27t13.5 47.5q0 32 -19 47.5t-57 15.5t-62.5 -16t-39 -47t-21.5 -77q14 -2 31.5 -4t35.5 -2zM354 631l-92 140h119l60 -140h-87z" glyph-name="egrave" horiz-adv-x="548" unicode="è"/>
<glyph d="M288 -6q-78 0 -124.5 23.5t-67.5 68.5t-21 108q0 28 3 53.5t7 49.5q14 88 49.5 142t94 79.5t137.5 25.5q39 0 76 -7t65.5 -24.5t45.5 -49t17 -79.5q0 -56 -18 -92t-50.5 -55.5t-74.5 -27t-89 -7.5q-37 0 -67 3.5t-48 7.5q-1 -8 -1.5 -17.5t-0.5 -18.5q0 -38 29 -56 t96 -18h173l-14 -87q-40 -8 -97 -15t-120 -7zM300 285q46 0 75.5 8.5t43 27t13.5 47.5q0 32 -19 47.5t-57 15.5t-62.5 -16t-39 -47t-21.5 -77q14 -2 31.5 -4t35.5 -2zM332 631l98 140h127l-130 -140h-95z" glyph-name="eacute" horiz-adv-x="548" unicode="é"/>
<glyph d="M288 -6q-78 0 -124.5 23.5t-67.5 68.5t-21 108q0 28 3 53.5t7 49.5q14 88 49.5 142t94 79.5t137.5 25.5q39 0 76 -7t65.5 -24.5t45.5 -49t17 -79.5q0 -56 -18 -92t-50.5 -55.5t-74.5 -27t-89 -7.5q-37 0 -67 3.5t-48 7.5q-1 -8 -1.5 -17.5t-0.5 -18.5q0 -38 29 -56 t96 -18h173l-14 -87q-40 -8 -97 -15t-120 -7zM300 285q46 0 75.5 8.5t43 27t13.5 47.5q0 32 -19 47.5t-57 15.5t-62.5 -16t-39 -47t-21.5 -77q14 -2 31.5 -4t35.5 -2zM223 631l131 142h101l76 -142h-86l-53 76l-83 -76h-86z" glyph-name="ecircumflex" horiz-adv-x="548" unicode="ê"/>
<glyph d="M288 -6q-78 0 -124.5 23.5t-67.5 68.5t-21 108q0 28 3 53.5t7 49.5q14 88 49.5 142t94 79.5t137.5 25.5q39 0 76 -7t65.5 -24.5t45.5 -49t17 -79.5q0 -56 -18 -92t-50.5 -55.5t-74.5 -27t-89 -7.5q-37 0 -67 3.5t-48 7.5q-1 -8 -1.5 -17.5t-0.5 -18.5q0 -38 29 -56 t96 -18h173l-14 -87q-40 -8 -97 -15t-120 -7zM300 285q46 0 75.5 8.5t43 27t13.5 47.5q0 32 -19 47.5t-57 15.5t-62.5 -16t-39 -47t-21.5 -77q14 -2 31.5 -4t35.5 -2zM444 637q-17 0 -17 17q0 1 0.5 5.5t4 25.5t11.5 70q3 22 23 22h69q17 0 17 -17l-0.5 -5t-4 -26t-11.5 -71 q-2 -21 -23 -21h-69zM244 637q-17 0 -17 17q0 1 0.5 5.5t4 25.5t11.5 70q3 22 23 22h69q17 0 17 -17l-0.5 -5t-4 -26t-11.5 -71q-2 -21 -23 -21h-69z" glyph-name="edieresis" horiz-adv-x="548" unicode="ë"/>
<glyph d="M54 0l85 537h148l-84 -537h-149zM204 631l-92 140h119l60 -140h-87z" glyph-name="igrave" horiz-adv-x="255" unicode="ì"/>
<glyph d="M54 0l85 537h148l-84 -537h-149zM182 631l98 140h127l-130 -140h-95z" glyph-name="iacute" horiz-adv-x="255" unicode="í"/>
<glyph d="M54 0l85 537h148l-84 -537h-149zM74 631l131 142h101l76 -142h-86l-53 76l-83 -76h-86z" glyph-name="icircumflex" horiz-adv-x="255" unicode="î"/>
<glyph d="M54 0l85 537h148l-84 -537h-149zM294 637q-17 0 -17 17q0 1 0.5 5.5t4 25.5t11.5 70q3 22 23 22h69q17 0 17 -17l-0.5 -5t-4 -26t-11.5 -71q-2 -21 -23 -21h-69zM94 637q-17 0 -17 17q0 1 0.5 5.5t4 25.5t11.5 70q3 22 23 22h69q17 0 17 -17l-0.5 -5t-4 -26t-11.5 -71 q-2 -21 -23 -21h-69z" glyph-name="idieresis" horiz-adv-x="255" unicode="ï"/>
<glyph d="M81 268q13 81 34 132t51.5 79t72 38.5t96.5 10.5q54 0 96 -20t66.5 -55.5t24.5 -83.5q13 -31 26.5 -63t25.5 -63q-14 -100 -49 -154t-93.5 -74.5t-145.5 -20.5q-69 0 -116 21t-71 62t-24 104q0 24 1.5 45t4.5 42zM226 246q-2 -17 -3 -31t-1 -27q0 -30 9.5 -46t27 -22.5 t43.5 -6.5q29 0 49.5 6.5t34 22t23.5 45t17 76.5q4 24 6 44.5t2 37.5q0 37 -19.5 52t-64.5 15q-29 0 -49.5 -7t-34 -25t-23 -50t-17.5 -84zM225 763q124 0 206 -31.5t122 -100t40 -182.5q0 -45 -4.5 -96t-14.5 -110l-113 80q6 38 9 71t3 61q0 82 -28.5 128t-87 64.5 t-148.5 18.5zM606 760l13 -47l-377 -150l-13 47z" glyph-name="eth" horiz-adv-x="574" unicode="ð"/>
<glyph d="M54 0l84 537h123l17 -55q35 26 81.5 44t103.5 18q45 0 75 -16t45.5 -43t15.5 -62q0 -17 -1.5 -39t-10.5 -72l-49 -312h-148l48 307q3 21 4.5 31t1.5 16q0 26 -15 41.5t-50 15.5q-34 0 -63 -12.5t-56 -32.5l-58 -366h-148zM206 635q17 70 50.5 97t73.5 27q23 0 42.5 -6.5 t36.5 -14.5t32.5 -14t30.5 -6q20 0 32 12.5t16 33.5h74q-16 -67 -45.5 -97.5t-77.5 -30.5q-21 0 -41 6.5t-38 14t-34 14t-30 6.5q-19 0 -31.5 -12t-16.5 -30h-74z" glyph-name="ntilde" horiz-adv-x="590" unicode="ñ"/>
<glyph d="M286 -6q-69 0 -116 21t-71 62t-24 104q0 29 2 53.5t6 48.5q13 80 35.5 131t57 79t83 39t113.5 11q85 0 131 -21.5t63 -64.5t17 -110q0 -24 -2.5 -51.5t-6.5 -56.5q-15 -97 -50 -151t-93 -74t-145 -20zM302 113q29 0 49.5 6.5t34 22t23 45t17.5 74.5q4 28 6.5 50.5 t2.5 42.5q0 40 -19 56.5t-63 16.5q-30 0 -50 -7t-34 -25t-23.5 -51t-17.5 -83q-3 -21 -4.5 -39t-1.5 -34q0 -30 9.5 -46t27 -22.5t43.5 -6.5zM353 631l-92 140h119l60 -140h-87z" glyph-name="ograve" horiz-adv-x="574" unicode="ò"/>
<glyph d="M286 -6q-69 0 -116 21t-71 62t-24 104q0 29 2 53.5t6 48.5q13 80 35.5 131t57 79t83 39t113.5 11q85 0 131 -21.5t63 -64.5t17 -110q0 -24 -2.5 -51.5t-6.5 -56.5q-15 -97 -50 -151t-93 -74t-145 -20zM302 113q29 0 49.5 6.5t34 22t23 45t17.5 74.5q4 28 6.5 50.5 t2.5 42.5q0 40 -19 56.5t-63 16.5q-30 0 -50 -7t-34 -25t-23.5 -51t-17.5 -83q-3 -21 -4.5 -39t-1.5 -34q0 -30 9.5 -46t27 -22.5t43.5 -6.5zM331 631l98 140h127l-130 -140h-95z" glyph-name="oacute" horiz-adv-x="574" unicode="ó"/>
<glyph d="M286 -6q-69 0 -116 21t-71 62t-24 104q0 29 2 53.5t6 48.5q13 80 35.5 131t57 79t83 39t113.5 11q85 0 131 -21.5t63 -64.5t17 -110q0 -24 -2.5 -51.5t-6.5 -56.5q-15 -97 -50 -151t-93 -74t-145 -20zM302 113q29 0 49.5 6.5t34 22t23 45t17.5 74.5q4 28 6.5 50.5 t2.5 42.5q0 40 -19 56.5t-63 16.5q-30 0 -50 -7t-34 -25t-23.5 -51t-17.5 -83q-3 -21 -4.5 -39t-1.5 -34q0 -30 9.5 -46t27 -22.5t43.5 -6.5zM222 631l131 142h101l76 -142h-86l-53 76l-83 -76h-86z" glyph-name="ocircumflex" horiz-adv-x="574" unicode="ô"/>
<glyph d="M286 -6q-69 0 -116 21t-71 62t-24 104q0 29 2 53.5t6 48.5q13 80 35.5 131t57 79t83 39t113.5 11q85 0 131 -21.5t63 -64.5t17 -110q0 -24 -2.5 -51.5t-6.5 -56.5q-15 -97 -50 -151t-93 -74t-145 -20zM302 113q29 0 49.5 6.5t34 22t23 45t17.5 74.5q4 28 6.5 50.5 t2.5 42.5q0 40 -19 56.5t-63 16.5q-30 0 -50 -7t-34 -25t-23.5 -51t-17.5 -83q-3 -21 -4.5 -39t-1.5 -34q0 -30 9.5 -46t27 -22.5t43.5 -6.5zM194 635q17 70 50.5 97t73.5 27q23 0 42.5 -6.5t36.5 -14.5t32.5 -14t30.5 -6q20 0 32 12.5t16 33.5h74q-16 -67 -45.5 -97.5 t-77.5 -30.5q-21 0 -41 6.5t-38 14t-34 14t-30 6.5q-19 0 -31.5 -12t-16.5 -30h-74z" glyph-name="otilde" horiz-adv-x="574" unicode="õ"/>
<glyph d="M286 -6q-69 0 -116 21t-71 62t-24 104q0 29 2 53.5t6 48.5q13 80 35.5 131t57 79t83 39t113.5 11q85 0 131 -21.5t63 -64.5t17 -110q0 -24 -2.5 -51.5t-6.5 -56.5q-15 -97 -50 -151t-93 -74t-145 -20zM302 113q29 0 49.5 6.5t34 22t23 45t17.5 74.5q4 28 6.5 50.5 t2.5 42.5q0 40 -19 56.5t-63 16.5q-30 0 -50 -7t-34 -25t-23.5 -51t-17.5 -83q-3 -21 -4.5 -39t-1.5 -34q0 -30 9.5 -46t27 -22.5t43.5 -6.5zM442 637q-17 0 -17 17q0 1 0.5 5.5t4 25.5t11.5 70q3 22 23 22h69q17 0 17 -17l-0.5 -5t-4 -26t-11.5 -71q-2 -21 -23 -21h-69z M242 637q-17 0 -17 17q0 1 0.5 5.5t4 25.5t11.5 70q3 22 23 22h69q17 0 17 -17l-0.5 -5t-4 -26t-11.5 -71q-2 -21 -23 -21h-69z" glyph-name="odieresis" horiz-adv-x="574" unicode="ö"/>
<glyph d="M278 87q-23 0 -20 23l12 79q5 25 28 25h85q26 0 21 -25l-12 -79q-2 -13 -10 -18t-19 -5h-85zM343 498q-10 0 -16 6.5t-5 16.5l13 79q3 25 28 25h85q24 0 21 -25l-12 -79q-2 -13 -10 -18t-19 -5h-85zM127 296l19 120h448l-19 -120h-448z" glyph-name="divide" unicode="÷"/>
<glyph d="M30 0l526 537h69l-526 -537h-69zM286 -6q-69 0 -116 21t-71 62t-24 104q0 29 2 53.5t6 48.5q13 80 35.5 131t57 79t83 39t113.5 11q85 0 131 -21.5t63 -64.5t17 -110q0 -24 -2.5 -51.5t-6.5 -56.5q-15 -97 -50 -151t-93 -74t-145 -20zM302 113q29 0 49.5 6.5t34 22t23 45 t17.5 74.5q4 28 6.5 50.5t2.5 42.5q0 40 -19 56.5t-63 16.5q-30 0 -50 -7t-34 -25t-23.5 -51t-17.5 -83q-3 -21 -4.5 -39t-1.5 -34q0 -30 9.5 -46t27 -22.5t43.5 -6.5z" glyph-name="oslash" horiz-adv-x="570" unicode="ø"/>
<glyph d="M209 -6q-70 0 -101.5 33.5t-31.5 92.5q0 21 1.5 36t3.5 29l56 352h148l-52 -334q-1 -5 -1.5 -10t-0.5 -12q0 -29 17.5 -41.5t45.5 -12.5q37 0 65.5 12.5t55.5 31.5l58 366h148l-84 -537h-132l-8 55q-28 -19 -55.5 -33t-59 -21t-73.5 -7zM372 631l-92 140h119l60 -140h-87 z" glyph-name="ugrave" horiz-adv-x="590" unicode="ù"/>
<glyph d="M209 -6q-70 0 -101.5 33.5t-31.5 92.5q0 21 1.5 36t3.5 29l56 352h148l-52 -334q-1 -5 -1.5 -10t-0.5 -12q0 -29 17.5 -41.5t45.5 -12.5q37 0 65.5 12.5t55.5 31.5l58 366h148l-84 -537h-132l-8 55q-28 -19 -55.5 -33t-59 -21t-73.5 -7zM350 631l98 140h127l-130 -140 h-95z" glyph-name="uacute" horiz-adv-x="590" unicode="ú"/>
<glyph d="M209 -6q-70 0 -101.5 33.5t-31.5 92.5q0 21 1.5 36t3.5 29l56 352h148l-52 -334q-1 -5 -1.5 -10t-0.5 -12q0 -29 17.5 -41.5t45.5 -12.5q37 0 65.5 12.5t55.5 31.5l58 366h148l-84 -537h-132l-8 55q-28 -19 -55.5 -33t-59 -21t-73.5 -7zM242 631l131 142h101l76 -142h-86 l-53 76l-83 -76h-86z" glyph-name="ucircumflex" horiz-adv-x="590" unicode="û"/>
<glyph d="M209 -6q-70 0 -101.5 33.5t-31.5 92.5q0 21 1.5 36t3.5 29l56 352h148l-52 -334q-1 -5 -1.5 -10t-0.5 -12q0 -29 17.5 -41.5t45.5 -12.5q37 0 65.5 12.5t55.5 31.5l58 366h148l-84 -537h-132l-8 55q-28 -19 -55.5 -33t-59 -21t-73.5 -7zM462 637q-17 0 -17 17 q0 1 0.5 5.5t4 25.5t11.5 70q3 22 23 22h69q17 0 17 -17l-0.5 -5t-4 -26t-11.5 -71q-2 -21 -23 -21h-69zM262 637q-17 0 -17 17q0 1 0.5 5.5t4 25.5t11.5 70q3 22 23 22h69q17 0 17 -17l-0.5 -5t-4 -26t-11.5 -71q-2 -21 -23 -21h-69z" glyph-name="udieresis" horiz-adv-x="590" unicode="ü"/>
<glyph d="M96 -237v105q61 13 107 42.5t75 89.5q-47 4 -76.5 20.5t-44.5 47t-20 76.5l-46 393h153l24 -362q2 -21 10.5 -32.5t21 -16t24.5 -5.5l118 289q12 30 21.5 65t10.5 70h139q0 -54 -14 -112.5t-46 -124.5l-142 -300q-41 -88 -88 -139t-102.5 -75.5t-124.5 -30.5zM324 631 l98 140h127l-130 -140h-95z" glyph-name="yacute" horiz-adv-x="575" unicode="ý"/>
<glyph d="M15 -237l159 1000h149l-36 -225q25 3 54.5 4t63.5 1q96 0 136.5 -48t40.5 -144q0 -25 -2.5 -52t-7.5 -55q-13 -85 -47.5 -140t-85.5 -82.5t-116 -27.5q-35 0 -66 5t-53 16l-40 -252h-149zM304 120q36 0 61 15.5t41 49.5t25 87q2 14 3.5 27.5t1.5 26.5q0 49 -17 73.5 t-56 24.5l-95 -1l-46 -289q14 -5 26 -8t25.5 -4.5t30.5 -1.5z" glyph-name="thorn" horiz-adv-x="575" unicode="þ"/>
<glyph d="M54 0l85 537h148l-84 -537h-149z" glyph-name="dotlessi" horiz-adv-x="255" unicode="ı"/>
<glyph d="M139 631l131 142h101l76 -142h-86l-53 76l-83 -76h-86z" glyph-name="circumflex" horiz-adv-x="386" unicode="ˆ"/>
<glyph d="M259 585q-52 0 -82 22t-30 76q0 36 16.5 65t48 46.5t76.5 17.5q53 0 82 -22t29 -75q0 -54 -35.5 -92t-104.5 -38zM266 640q33 0 48 21.5t15 50.5q0 26 -13.5 36t-33.5 10q-34 0 -50 -22t-16 -51q0 -25 14 -35t36 -10z" glyph-name="ring" horiz-adv-x="324" unicode="˚"/>
<glyph d="M132 635q17 70 50.5 97t73.5 27q23 0 42.5 -6.5t36.5 -14.5t32.5 -14t30.5 -6q20 0 32 12.5t16 33.5h74q-16 -67 -45.5 -97.5t-77.5 -30.5q-21 0 -41 6.5t-38 14t-34 14t-30 6.5q-19 0 -31.5 -12t-16.5 -30h-74z" glyph-name="tilde" horiz-adv-x="423" unicode="˜"/>
<glyph d="M-205 637q-17 0 -17 17q0 1 0.5 5.5t4 25.5t11.5 70q3 22 23 22h69q17 0 17 -17l-0.5 -5t-4 -26t-11.5 -71q-2 -21 -23 -21h-69zM-405 637q-17 0 -17 17q0 1 0.5 5.5t4 25.5t11.5 70q3 22 23 22h69q17 0 17 -17l-0.5 -5t-4 -26t-11.5 -71q-2 -21 -23 -21h-69z" glyph-name="uni0308" horiz-adv-x="0" unicode="̈"/>
<glyph d="M262 -6q-32 0 -64 10.5t-58.5 30.5t-42 50t-15.5 68q0 9 1 17.5t2 17.5l55 349h148l-53 -336q0 -5 -0.5 -10.5t-0.5 -10.5q0 -32 18.5 -43.5t48.5 -11.5q34 0 62.5 10.5t53.5 28.5l59 373h148l-84 -537h-123l-10 55q-29 -28 -64.5 -44.5t-80.5 -16.5zM12 -269l82 514h148 l-81 -514h-149z" glyph-name="uni03BC" horiz-adv-x="595" unicode="μ"/>
<glyph d="M264 60l-190 222l255 218l63 -74l-169 -144l125 -147z" glyph-name="guilsinglleft" horiz-adv-x="370" unicode="‹"/>
<glyph d="M117 60l-60 76l170 145l-124 146l86 73l188 -219z" glyph-name="guilsinglright" horiz-adv-x="370" unicode="›"/>
<glyph d="M-13 0l493 770h101l-493 -770h-101z" glyph-name="fraction" horiz-adv-x="491" unicode="⁄"/>
<glyph d="M298 355l16 95h-211l-13 53l205 339h121l-177 -294h90l13 81l32 60h96l-22 -141h45l-14 -80l-46 -18l-16 -95h-119z" glyph-name="uni2074" horiz-adv-x="416" unicode="⁴"/>
<glyph d="M127 296l19 120h448l-19 -120h-448z" glyph-name="minus" unicode="−"/>
</font>
</defs>
</svg>
