<?xml version="1.0" encoding="UTF-8"?>
<!DOCTYPE svg  PUBLIC '-//W3C//DTD SVG 1.1//EN'  'http://www.w3.org/Graphics/SVG/1.1/DTD/svg11.dtd'>
<svg version="1.1" xmlns="http://www.w3.org/2000/svg">
<defs>
<font id="Exo-SemiBoldItalic" horiz-adv-x="609">
<font-face font-family="Exo SemiBold" font-style="italic" font-weight="600" ascent="800" bbox="-418 -270 1139 991" cap-height="738" descent="-200" panose-1="0 0 0 0 0 0 0 0 0 0" slope="-9" underline-position="-125" underline-thickness="50" unicode-range="U+0020-2212" units-per-em="1000" x-height="536"/>
<missing-glyph/>
<glyph glyph-name="space" horiz-adv-x="243" unicode=" "/>
<glyph d="M119 202l70 535h124l-103 -535h-91zM98 -1q-16 0 -16 15v1.5v1.5l15 95q2 19 22 19h71q17 0 17 -14v-2.5v-2.5l-16 -95q-1 -10 -7 -14t-15 -4h-71z" glyph-name="exclam" horiz-adv-x="270" unicode="!"/>
<glyph d="M125 501l20 183l10 67h119l-10 -67l-37 -183h-102zM287 501l20 183l10 67h119l-10 -67l-37 -183h-102z" glyph-name="quotedbl" horiz-adv-x="359" unicode='"'/>
<glyph d="M137 0l71 215h-156l25 82h160l45 136h-162l27 82h164l73 217h82l-73 -217h129l72 217h82l-72 -217h172l-25 -82h-173l-44 -136h172l-25 -82h-179l-71 -215h-83l72 215h-129l-72 -215h-82zM320 297h131l45 136h-132z" glyph-name="numbersign" horiz-adv-x="710" unicode="#"/>
<glyph d="M386 724l2 62l70 38l-3 -62zM249 -89l16 97h71l-16 -97h-71zM304 -6q-48 0 -93 3.5t-82 8t-64 10.5l15 97q45 -4 105 -6t118 -2q44 0 75.5 7t49.5 26t23 54l5 34q2 6 2 12v11q0 32 -21.5 46t-69.5 14h-70q-80 0 -124 39.5t-44 107.5q0 20 3 41l10 61q11 72 44.5 112.5 t86.5 57t123 16.5q22 0 50 -1.5t58 -4.5t59.5 -7t54.5 -10l-15 -97q-33 3 -74 4.5t-80 2.5t-67 1q-35 0 -60.5 -7t-42 -26t-21.5 -55l-5 -33q-1 -7 -2 -13t-1 -12q0 -32 18.5 -45.5t57.5 -13.5h73q90 0 135 -40.5t45 -107.5q0 -18 -3 -40l-11 -69q-9 -63 -40 -101.5 t-85 -56.5t-136 -18z" glyph-name="dollar" unicode="$"/>
<glyph d="M213 0l563 732h82l-560 -732h-85zM225 349q-61 0 -87.5 24t-26.5 70q0 18 3 37l19 121q10 64 44.5 97.5t110.5 33.5h101q63 0 89.5 -24t26.5 -70q0 -8 -0.5 -17.5t-2.5 -19.5l-19 -121q-10 -64 -45.5 -97.5t-111.5 -33.5h-101zM253 429h72q39 0 57 15.5t23 53.5l14 85 q1 7 1.5 13t0.5 11q0 25 -14 35t-45 10h-72q-34 0 -53.5 -13t-26.5 -56l-14 -85q0 -7 -1 -13t-1 -11q0 -24 14 -34.5t45 -10.5zM689 3q-61 0 -87.5 24t-26.5 70q0 17 3 37l19 121q10 64 44.5 97.5t110.5 33.5h102q62 0 88.5 -24t26.5 -70q0 -8 -0.5 -17.5t-2.5 -19.5 l-19 -121q-10 -64 -45 -97.5t-111 -33.5h-102zM717 83h71q40 0 58 15.5t24 53.5l13 85q1 7 1.5 13t0.5 11q0 25 -14 35t-45 10h-71q-34 0 -54 -13t-27 -56l-13 -85q-1 -7 -1.5 -13t-0.5 -11q0 -24 13.5 -34.5t44.5 -10.5z" glyph-name="percent" horiz-adv-x="962" unicode="%"/>
<glyph d="M229 -6q-77 0 -123.5 45.5t-46.5 121.5q0 54 14 95.5t43.5 74t76.5 60.5l71 41l-12 23q-18 34 -24 62.5t-6 52.5q0 48 23 85.5t69.5 59t116.5 21.5q35 0 65 -3t55 -7.5t43 -8.5l-14 -90h-143q-45 0 -68.5 -17t-23.5 -52q0 -19 7.5 -41t25.5 -52l125 -219l167 133l36 -55 l-79 -107l-71 -59l94 -158h-128l-60 96l-41 -32q-50 -39 -95 -54.5t-97 -15.5zM266 108q26 0 53 9t59 35l32 27l-100 168l-41 -23q-34 -19 -52 -39t-25 -43t-7 -51q0 -38 21.5 -60.5t59.5 -22.5z" glyph-name="ampersand" horiz-adv-x="689" unicode="&amp;"/>
<glyph d="M125 501l20 183l10 67h119l-10 -67l-37 -183h-102z" glyph-name="quotesingle" horiz-adv-x="197" unicode="'"/>
<glyph d="M210 -210q-31 49 -54.5 106.5t-37 125.5t-13.5 148q0 74 14 151.5t39.5 153.5t59.5 146.5t75 131t86 107.5h112q-55 -66 -102.5 -147t-83 -171t-56 -182.5t-20.5 -181.5q0 -106 24 -201t69 -187h-112z" glyph-name="parenleft" horiz-adv-x="373" unicode="("/>
<glyph d="M-15 -210q56 70 103.5 152.5t83 172t55 181.5t19.5 180q0 105 -23.5 196.5t-68.5 187.5h111q32 -51 55.5 -108t36.5 -123t13 -146q0 -74 -13.5 -151t-38.5 -152t-59 -145.5t-75.5 -132.5t-87.5 -112h-111z" glyph-name="parenright" horiz-adv-x="372" unicode=")"/>
<glyph d="M365 512l-33 51l129 82l21 -38zM380 406l-113 68l45 56l101 -87zM204 400l-42 14l50 137l62 -16zM126 577l7 47l143 12l-7 -65zM308 588l-26 134l47 15l44 -125z" glyph-name="asterisk" horiz-adv-x="444" unicode="*"/>
<glyph d="M275 132l70 448h101l-70 -448h-101zM129 306l15 100h448l-15 -100h-448z" glyph-name="plus" unicode="+"/>
<glyph d="M86 -85q-16 0 -27 2.5l-11 2.5l6 39q13 0 19.5 4t8.5 15l4 30h-9q-16 0 -16 16q0 2 0.5 6t1.5 9l12 71q2 21 22 21h70q16 0 16 -15q0 -2 -0.5 -6.5t-1.5 -10.5l-20 -121q-4 -26 -16 -40t-28 -18.5t-31 -4.5z" glyph-name="comma" horiz-adv-x="222" unicode=","/>
<glyph d="M60 240l16 100h301l-16 -100h-301z" glyph-name="hyphen" horiz-adv-x="344" unicode="-"/>
<glyph d="M76 -1q-17 0 -17 15v1.5v1.5l16 95q2 19 22 19h71q16 0 16 -14v-2.5v-2.5l-15 -95q-2 -10 -8 -14t-14 -4h-71z" glyph-name="period" horiz-adv-x="222" unicode="."/>
<glyph d="M7 -72l414 842h124l-414 -842h-124z" glyph-name="slash" horiz-adv-x="441" unicode="/"/>
<glyph d="M252 -4q-51 0 -88 16t-56.5 47.5t-19.5 79.5q0 10 1 20.5t2 22.5l59 371q10 63 40.5 105.5t77 64t103.5 21.5h151q80 0 118.5 -38.5t38.5 -106.5q0 -10 -1 -22t-3 -24l-59 -371q-14 -92 -70.5 -139t-143.5 -47h-150zM298 108h90q48 0 74 23.5t33 68.5l54 341q2 7 2 13v12 q0 35 -19.5 51t-55.5 16h-99q-43 0 -70.5 -23.5t-34.5 -68.5l-54 -341q-1 -6 -1.5 -11.5t-0.5 -11.5q0 -35 21.5 -52t60.5 -17z" glyph-name="zero" horiz-adv-x="650" unicode="0"/>
<glyph d="M174 0l99 625l-143 -31l12 80l162 64h111l-117 -738h-124z" glyph-name="one" horiz-adv-x="369" unicode="1"/>
<glyph d="M49 0l15 100l288 251q67 58 97.5 109t30.5 92q0 23 -10 40t-32 26t-60 9h-210l16 97q45 7 101 13.5t121 6.5q73 0 116.5 -20.5t62.5 -56t19 -81.5q0 -71 -36.5 -143.5t-121.5 -147.5l-208 -183h329l-18 -112h-500z" glyph-name="two" horiz-adv-x="589" unicode="2"/>
<glyph d="M316 -6q-79 0 -149.5 4.5t-124.5 13.5l14 93h232q42 0 71.5 7.5t48 27t24.5 53.5q4 23 6 35.5t2 15.5q0 26 -15.5 42.5t-40 25t-55.5 9.5l-169 7l14 88l181 9q49 2 79.5 21t37.5 59l4.5 30t1.5 14.5v7.5q0 40 -30 58t-82 18h-207l15 93q51 7 114 12.5t135 5.5 q60 0 101 -14.5t62 -45.5t21 -81q0 -6 -0.5 -14.5t-3 -27t-8.5 -53.5q-5 -31 -17 -54.5t-28.5 -39.5t-35.5 -26.5t-38 -15.5q16 -5 31 -14t28 -24t20.5 -36t7.5 -47q0 -9 -2.5 -27.5t-7.5 -50.5q-13 -88 -75.5 -133.5t-161.5 -45.5z" glyph-name="three" horiz-adv-x="581" unicode="3"/>
<glyph d="M380 1l27 167h-332l-15 61l334 509h127l-307 -465h210l26 163l37 79h99l-38 -242h85l-14 -85l-88 -20l-27 -167h-124z" glyph-name="four" horiz-adv-x="610" unicode="4"/>
<glyph d="M321 -5q-59 0 -122.5 4t-117.5 10l16 97h247q39 0 66.5 13t43 35.5t19.5 48.5l9 62q1 6 1.5 12.5t0.5 11.5q0 32 -19 49.5t-61 17.5h-65q-38 0 -60 -15.5t-33 -49.5h-118l91 447h435l-18 -111h-316l-42 -204q16 16 42 27.5t60 11.5h83q76 0 112.5 -38.5t36.5 -98.5 q0 -9 -0.5 -18.5t-1.5 -19.5l-18 -109q-9 -63 -44.5 -103.5t-92.5 -60t-134 -19.5z" glyph-name="five" horiz-adv-x="616" unicode="5"/>
<glyph d="M272 -4q-53 0 -91.5 18.5t-59 64.5t-20.5 129q0 90 12 170.5t37.5 147.5t66.5 115.5t98.5 75.5t133.5 27q47 0 96 -3t88 -11l-16 -97h-176q-50 0 -89.5 -23.5t-65.5 -70.5t-38 -119q27 6 57 9.5t62 4.5t64 1q61 0 100 -13.5t58 -41t19 -68.5q0 -9 -1 -19.5t-3 -21.5 l-17 -105q-9 -62 -38 -99t-72.5 -54t-94.5 -17h-110zM314 107h59q25 0 44.5 7.5t32.5 25.5t18 49l9 59q1 7 1.5 12.5t0.5 11.5q0 24 -11.5 36t-33 17t-53.5 5h-147q-5 -33 -7.5 -59.5t-2.5 -48.5q0 -44 10 -69t30 -35.5t50 -10.5z" glyph-name="six" horiz-adv-x="613" unicode="6"/>
<glyph d="M126 0l336 615h-334l20 123h459l25 -55l-361 -683h-145z" glyph-name="seven" horiz-adv-x="550" unicode="7"/>
<glyph d="M249 -4q-62 0 -98 16t-50 42.5t-14 57.5q0 10 1 19l2 18l17 106q5 32 20.5 56.5t37.5 41.5t47 22q-31 16 -43 39t-12 49q0 10 1.5 21t2.5 21l13 86q10 59 38 92.5t69 47t87 13.5h148q66 0 100 -26t34 -85q0 -10 -1 -20.5t-3 -22.5l-13 -85q-2 -14 -8.5 -32t-17.5 -36.5 t-26.5 -31.5t-35.5 -18q37 -8 51.5 -35.5t14.5 -59.5q0 -9 -0.5 -17t-1.5 -16l-18 -107q-9 -60 -37 -94t-68.5 -48t-89.5 -14h-147zM292 102h87q45 0 65.5 18.5t26.5 53.5l12 75q1 5 1.5 10t0.5 9q0 29 -17 42.5t-56 13.5h-85q-14 0 -30 -4t-30 -13.5t-24 -23.5t-13 -34 l-12 -75q-1 -5 -1.5 -9t-0.5 -9q0 -29 21 -41.5t55 -12.5zM344 430h84q29 0 46 10.5t26 28t12 37.5l8 55q2 7 2.5 13.5t0.5 11.5q0 31 -15.5 42t-43.5 11h-86q-39 0 -59.5 -17t-28.5 -61l-8 -55q-1 -6 -1.5 -11.5t-0.5 -10.5q0 -26 15.5 -40t48.5 -14z" glyph-name="eight" horiz-adv-x="633" unicode="8"/>
<glyph d="M457 743q54 0 92 -18.5t58.5 -64t20.5 -129.5q0 -89 -12 -169.5t-37.5 -148t-66.5 -116t-98.5 -75.5t-133.5 -27q-46 0 -95.5 4t-88.5 10l16 97h177q51 0 89.5 23.5t64.5 71.5t38 118q-27 -5 -57 -9t-62 -5t-64 -1q-60 0 -99.5 14t-58.5 41t-19 68q0 10 1.5 20.5 t2.5 21.5l17 105q9 61 38 98t72.5 54t94.5 17h110zM415 632h-59q-24 0 -43.5 -7.5t-33 -25t-18.5 -49.5l-9 -59q-1 -6 -1.5 -12t-0.5 -12q0 -23 11.5 -35.5t33.5 -17t53 -4.5h147q5 32 7.5 58.5t2.5 48.5q0 45 -10 70t-30 35t-50 10z" glyph-name="nine" horiz-adv-x="613" unicode="9"/>
<glyph d="M76 -1q-17 0 -17 15v1.5v1.5l16 95q2 19 22 19h71q16 0 16 -14v-2.5v-2.5l-15 -95q-2 -10 -8 -14t-14 -4h-71zM141 405q-17 0 -17 15v1.5v1.5l16 95q2 19 22 19h71q16 0 16 -14v-2.5v-2.5l-15 -95q-2 -10 -8 -14t-14 -4h-71z" glyph-name="colon" horiz-adv-x="222" unicode=":"/>
<glyph d="M141 405q-17 0 -17 15v1.5v1.5l16 95q2 19 22 19h71q16 0 16 -14v-2.5v-2.5l-15 -95q-2 -10 -8 -14t-14 -4h-71zM86 -85q-16 0 -27 2.5l-11 2.5l6 39q13 0 19.5 4t8.5 15l4 30h-9q-16 0 -16 16q0 2 0.5 6t1.5 9l12 71q2 21 22 21h70q16 0 16 -15q0 -2 -0.5 -6.5 t-1.5 -10.5l-20 -121q-4 -26 -16 -40t-28 -18.5t-31 -4.5z" glyph-name="semicolon" horiz-adv-x="222" unicode=";"/>
<glyph d="M527 159l-394 136l18 110l436 132l-17 -108l-308 -78l282 -84z" glyph-name="less" unicode="&lt;"/>
<glyph d="M110 186l16 100h448l-16 -100h-448zM148 426l16 100h448l-16 -100h-448z" glyph-name="equal" unicode="="/>
<glyph d="M127 159l17 108l308 84l-282 78l17 108l394 -132l-18 -110z" glyph-name="greater" unicode="&gt;"/>
<glyph d="M188 201l29 184h62q42 0 70.5 8.5t45 28.5t21.5 55l7 42q1 9 1.5 16.5t0.5 14.5q0 42 -26.5 60t-79.5 18q-46 0 -89.5 -9t-91.5 -26l14 90q49 26 105 41t118 15q92 0 135.5 -42t43.5 -111q0 -23 -4 -48l-11 -63q-14 -92 -73 -138t-171 -46l-13 -90h-94zM170 -1 q-16 0 -16 15v1.5v1.5l15 95q3 19 22 19h71q17 0 17 -14v-2.5v-2.5l-16 -95q-1 -10 -7 -14t-15 -4h-71z" glyph-name="question" horiz-adv-x="530" unicode="?"/>
<glyph d="M246 -191q-71 0 -114 24.5t-62 65t-19 88.5q0 13 1.5 25.5t2.5 25.5l77 483q9 56 29.5 94t53 62t76 35t99.5 11h371q61 0 101 -22t59.5 -61t19.5 -90q0 -31 -5 -64l-45 -301q-5 -36 -20 -69.5t-41.5 -59.5t-65 -41t-89.5 -15h-79l-19 57q-9 -11 -26.5 -22t-40 -20.5 t-48.5 -15t-51 -5.5q-40 0 -75 18.5t-55.5 60t-20.5 111.5q0 114 38 193.5t101 121t136 41.5q63 0 113 -18t86 -49l-59 -389q18 0 36.5 3.5t36 14.5t30.5 33.5t18 60.5l45 301q2 12 3 22.5t1 20.5q0 51 -31 72t-79 21h-363q-53 0 -83 -19.5t-43.5 -50.5t-19.5 -66l-75 -470 q-3 -17 -3 -32q0 -43 26.5 -70t80.5 -27h385l-11 -69q-25 -4 -69.5 -9t-101.5 -8t-120 -3h-92zM442 90q36 0 75 11t70 37l43 288q-30 11 -54.5 16t-47.5 5q-50 0 -88.5 -30.5t-61 -86.5t-22.5 -132q0 -38 11 -62t30 -35t45 -11z" glyph-name="at" horiz-adv-x="925" unicode="@"/>
<glyph d="M27 0l360 738h156l120 -738h-128l-28 174h-268l-84 -174h-128zM286 285h209l-48 346z" glyph-name="A" horiz-adv-x="689" unicode="A"/>
<glyph d="M66 0l116 738h276q71 0 112 -18.5t57.5 -51.5t16.5 -78q0 -13 -1 -25.5t-3 -25.5q-9 -60 -45.5 -101t-90.5 -53q31 -8 55 -25.5t38.5 -47.5t14.5 -75q0 -10 -0.5 -24t-5.5 -36q-16 -93 -80.5 -135t-176.5 -42h-283zM207 111h158q41 0 67 12t40 36t21 58q1 9 1.5 17 t0.5 15q0 40 -25 61.5t-71 21.5h-157zM257 427h156q47 0 71 25t33 65q2 12 3.5 22t1.5 19q0 37 -23 53t-66 16h-144z" glyph-name="B" horiz-adv-x="628" unicode="B"/>
<glyph d="M329 -6q-119 0 -175 64t-56 180q0 36 3.5 75t9.5 77q18 116 55 195t99 119t154 40q84 0 141 -12.5t93 -24.5l-16 -97q-45 10 -95 16.5t-102 6.5q-43 0 -75.5 -12t-57 -41.5t-42.5 -81.5t-31 -132q-6 -34 -9.5 -68t-3.5 -61q0 -69 31.5 -100.5t109.5 -31.5q69 0 112 3.5 t85 9.5l-16 -97q-49 -16 -105.5 -21.5t-108.5 -5.5z" glyph-name="C" horiz-adv-x="591" unicode="C"/>
<glyph d="M65 0l117 738h275q95 0 147.5 -31t73.5 -88.5t21 -137.5q0 -32 -3 -65.5t-8 -66.5q-14 -87 -41 -152.5t-70 -109t-102 -65.5t-135 -22h-275zM207 111h145q48 0 84 18.5t61 52t41.5 81.5t25.5 107q5 34 8 61.5t3 45.5q0 52 -13.5 85t-46 49t-88.5 16h-139z" glyph-name="D" horiz-adv-x="682" unicode="D"/>
<glyph d="M237 -6q-27 0 -56 6t-52.5 23t-35.5 49t-4 82l68 423q9 62 36.5 97t66.5 50t84 14q75 0 150 -3t151 -8l-16 -103h-268q-37 0 -58 -18t-28 -60l-19 -121l293 -8l-15 -97l-296 -7l-19 -128q-4 -29 2.5 -45.5t23 -23t40.5 -6.5h264l-17 -103q-71 -4 -143.5 -8t-151.5 -5z " glyph-name="E" horiz-adv-x="588" unicode="E"/>
<glyph d="M65 0l92 577q11 66 39.5 101t67.5 48t79 12q83 0 156 -3t145 -8l-16 -103h-269q-38 0 -57.5 -19t-26.5 -58l-22 -140l294 -8l-16 -97l-295 -7l-47 -295h-124z" glyph-name="F" horiz-adv-x="560" unicode="F"/>
<glyph d="M287 -6q-104 0 -147.5 56t-43.5 175q0 41 4.5 84.5t11.5 86.5q19 113 58 191t103 118t157 40q89 0 146 -9.5t102 -23.5l-15 -96q-35 7 -89.5 13t-130.5 6q-68 0 -108.5 -28.5t-63 -87t-37.5 -151.5q-13 -83 -13 -135q0 -62 25 -93.5t84 -31.5q20 0 44.5 3t48 7.5t43 9 t31.5 8.5l27 171h-149l15 97q27 3 69 5.5t99 2.5q15 0 34 -0.5t37 -1t30 -0.5l-65 -410h-92l-10 51q-14 -8 -38.5 -18t-53.5 -18.5t-58.5 -14.5t-54.5 -6z" glyph-name="G" horiz-adv-x="654" unicode="G"/>
<glyph d="M65 0l117 738h124l-51 -319h310l51 319h124l-117 -738h-124l49 308h-310l-49 -308h-124z" glyph-name="H" horiz-adv-x="682" unicode="H"/>
<glyph d="M65 0l117 738h124l-117 -738h-124z" glyph-name="I" horiz-adv-x="255" unicode="I"/>
<glyph d="M146 -6q-32 0 -63 6.5t-50 16.5l16 97q19 -4 39 -5.5t38 -1.5q47 0 72.5 24t33.5 73l85 534h124l-89 -559q-16 -99 -65 -142t-141 -43z" glyph-name="J" horiz-adv-x="377" unicode="J"/>
<glyph d="M65 0l117 738h124l-49 -312h108l220 312h127l-255 -370l154 -368h-124l-132 315h-116l-50 -315h-124z" glyph-name="K" horiz-adv-x="626" unicode="K"/>
<glyph d="M230 0q-65 0 -103 29t-38 97q0 11 1 21.5t2 21.5l90 569h124l-87 -553q-1 -6 -1.5 -11t-0.5 -11q0 -30 17.5 -41t46.5 -11h243l-17 -111h-277z" glyph-name="L" horiz-adv-x="529" unicode="L"/>
<glyph d="M47 0l205 738h116l90 -588l276 588h115l-30 -738h-120l23 516l-231 -516h-116l-67 512l-138 -512h-123z" glyph-name="M" horiz-adv-x="850" unicode="M"/>
<glyph d="M65 0l117 738h100l252 -528l84 528h124l-117 -738h-100l-252 529l-84 -529h-124z" glyph-name="N" horiz-adv-x="684" unicode="N"/>
<glyph d="M344 -6q-56 0 -102 9.5t-79 34t-50.5 69t-17.5 116.5q0 34 4 76t11 87q17 106 45 176t70.5 109.5t101.5 56t138 16.5q55 0 100.5 -9.5t78.5 -35.5t51 -73t18 -121q0 -32 -4 -74t-11 -88q-17 -108 -45.5 -177t-70.5 -106t-101 -51.5t-137 -14.5zM364 106q48 0 83 12.5 t59 41t40.5 78t28.5 123.5q7 43 10.5 80t3.5 63q0 54 -16 81.5t-47.5 37.5t-78.5 10t-81.5 -11.5t-59 -40t-42.5 -80.5t-30 -133q-7 -41 -11 -78t-4 -62q0 -49 15 -75.5t47.5 -36.5t82.5 -10z" glyph-name="O" horiz-adv-x="693" unicode="O"/>
<glyph d="M65 0l117 738h290q52 0 93.5 -16.5t66.5 -57t25 -113.5q0 -15 -3 -36.5t-6 -38.5q-10 -68 -33.5 -112.5t-55.5 -70.5t-69 -37t-74 -11q-48 0 -99 5t-86 10l-42 -260h-124zM245 356h156q31 0 56.5 13.5t43 43t24.5 76.5q2 13 4 28t2 22q0 49 -21.5 68.5t-61.5 19.5h-160z " glyph-name="P" horiz-adv-x="606" unicode="P"/>
<glyph d="M493 -187q-48 0 -86.5 15.5t-61 48.5t-24.5 85h86q5 -33 26 -47t59 -14q20 0 40.5 3t37.5 7l-14 -91q-27 -7 -63 -7zM344 -6q-56 0 -102 9.5t-79 34t-50.5 69t-17.5 116.5q0 34 4 76t11 87q17 106 45 176t70.5 109.5t101.5 56t138 16.5q55 0 100.5 -9.5t78.5 -35.5 t51 -73t18 -121q0 -32 -4 -74t-11 -88q-17 -108 -45.5 -177t-70.5 -106t-101 -51.5t-137 -14.5zM364 106q48 0 83 12.5t59 41t40.5 78t28.5 123.5q7 43 10.5 80t3.5 63q0 54 -16 81.5t-47.5 37.5t-78.5 10t-81.5 -11.5t-59 -40t-42.5 -80.5t-30 -133q-7 -41 -11 -78t-4 -62 q0 -49 15 -75.5t47.5 -36.5t82.5 -10z" glyph-name="Q" horiz-adv-x="693" unicode="Q"/>
<glyph d="M65 0l117 738h278q41 0 76 -9t61 -29.5t40.5 -55t14.5 -84.5q0 -14 -1.5 -29.5t-3.5 -33.5q-9 -55 -27 -90t-40.5 -56t-45.5 -31.5t-41 -15.5l94 -304h-126l-82 284q-13 0 -31.5 0.5t-39 1t-39.5 1t-34 0.5l-46 -287h-124zM250 384h147q35 0 59.5 10.5t41 36.5t24.5 75 q2 10 2 19v17q0 34 -11.5 52t-32 25.5t-45.5 7.5h-147z" glyph-name="R" horiz-adv-x="628" unicode="R"/>
<glyph d="M304 -6q-48 0 -93 3.5t-82 8t-64 10.5l15 97q45 -4 105 -6t118 -2q44 0 75.5 7t49.5 26t23 54l5 34q2 6 2 12v11q0 32 -21.5 46t-69.5 14h-70q-80 0 -124 39.5t-44 107.5q0 20 3 41l10 61q11 72 44.5 112.5t86.5 57t123 16.5q22 0 50 -1.5t58 -4.5t59.5 -7t54.5 -10 l-15 -97q-33 3 -74 4.5t-80 2.5t-67 1q-35 0 -60.5 -7t-42 -26t-21.5 -55l-5 -33q-1 -7 -2 -13t-1 -12q0 -32 18.5 -45.5t57.5 -13.5h73q90 0 135 -40.5t45 -107.5q0 -18 -3 -40l-11 -69q-9 -63 -40 -101.5t-85 -56.5t-136 -18z" glyph-name="S" horiz-adv-x="571" unicode="S"/>
<glyph d="M237 0l99 627h-213l18 111h550l-18 -111h-213l-99 -627h-124z" glyph-name="T" horiz-adv-x="608" unicode="T"/>
<glyph d="M343 -6q-117 0 -177 50t-60 167q0 26 3.5 59t9.5 68l63 400h124l-66 -418q-4 -28 -7 -54t-3 -46q0 -61 31 -88t98 -27q38 0 68 8.5t52.5 31t39 65t27.5 110.5l66 418h124l-69 -436q-16 -99 -44 -160t-68.5 -93t-93 -43.5t-118.5 -11.5z" glyph-name="U" horiz-adv-x="684" unicode="U"/>
<glyph d="M264 0l-120 738h128l92 -603l289 603h127l-360 -738h-156z" glyph-name="V" horiz-adv-x="689" unicode="V"/>
<glyph d="M223 0l-78 738h128l57 -557l228 557h116l46 -556l239 556h129l-318 -738h-128l-55 556l-236 -556h-128z" glyph-name="W" horiz-adv-x="1021" unicode="W"/>
<glyph d="M486 0l-151 325l-197 413h136l154 -332l193 -406h-135zM24 0l307 400l49 -108l-217 -292h-139zM427 332l-48 105l225 301h139z" glyph-name="X" horiz-adv-x="641" unicode="X"/>
<glyph d="M246 0l36 225l-147 513h136l93 -378l225 378h141l-324 -513l-36 -225h-124z" glyph-name="Y" horiz-adv-x="631" unicode="Y"/>
<glyph d="M36 0l17 105l423 522h-341l18 111h483l-17 -105l-423 -522h350l-17 -111h-493z" glyph-name="Z" horiz-adv-x="565" unicode="Z"/>
<glyph d="M214 -210q-58 0 -89.5 21.5t-43.5 54.5t-12 69q0 14 2 28.5t3 27.5l105 661q6 39 19.5 73t37.5 60.5t59.5 41.5t84.5 15h73l-15 -100h-38q-37 0 -63.5 -24t-36.5 -83l-101 -638q-1 -8 -2 -16.5t-1 -16.5q0 -36 17 -55t51 -19h39l-16 -100h-73z" glyph-name="bracketleft" horiz-adv-x="337" unicode="["/>
<glyph d="M288 -72l-148 842h124l148 -842h-124z" glyph-name="backslash" horiz-adv-x="441" unicode="\"/>
<glyph d="M-15 -210l15 100h38q29 0 49 12.5t33 36.5t18 58l101 638q2 10 2.5 18t0.5 16q0 40 -18.5 56.5t-49.5 16.5h-39l16 100h73q54 0 86 -17.5t46 -48.5t14 -71q0 -13 -1 -26t-4 -27l-104 -661q-5 -30 -16.5 -65.5t-34 -66t-59.5 -50t-93 -19.5h-73z" glyph-name="bracketright" horiz-adv-x="337" unicode="]"/>
<glyph d="M128 531l135 136h86l81 -136h-73l-63 77l-92 -77h-74z" glyph-name="asciicircum" horiz-adv-x="390" unicode="^"/>
<glyph d="M-28 -182l15 100h609l-15 -100h-609z" glyph-name="underscore" unicode="_"/>
<glyph d="M236 631l-96 139h101l68 -139h-73z" glyph-name="grave" horiz-adv-x="226" unicode="`"/>
<glyph d="M226 -6q-41 0 -75 19t-54.5 59.5t-20.5 104.5q0 28 4 58t7 51q14 87 47 143.5t90.5 84.5t143.5 28q42 0 83.5 -7.5t76.5 -21.5t59 -33l-76 -480h-109l-6 55q-14 -11 -42 -25.5t-61.5 -25t-66.5 -10.5zM284 94q38 0 68 13.5t56 28.5l45 285q-11 6 -35 13.5t-56 7.5 q-49 0 -79.5 -19t-48 -55.5t-26.5 -91.5q-4 -24 -6 -44t-2 -33q0 -48 21.5 -76.5t62.5 -28.5z" glyph-name="a" horiz-adv-x="568" unicode="a"/>
<glyph d="M358 -6q-31 0 -62 7.5t-58 21t-46 29.5l-24 -52h-109l121 763h124l-42 -266q38 22 81.5 33.5t74.5 11.5q76 0 121 -47.5t45 -137.5q0 -23 -3 -54.5t-9 -66.5q-11 -76 -40 -130t-73 -83t-101 -29zM322 94q54 0 86 41.5t46 132.5q3 20 5 37.5t2 32.5q0 58 -24 81t-59 23 q-31 0 -65 -9t-65 -25l-44 -277q22 -16 50 -26.5t68 -10.5z" glyph-name="b" horiz-adv-x="577" unicode="b"/>
<glyph d="M272 -6q-58 0 -102 18t-67.5 61t-23.5 121q0 18 2.5 42.5t6.5 52.5q15 93 49 148t85 80t115 25q42 0 90 -7t91 -17l-12 -72h-142q-44 0 -74.5 -18t-50 -57.5t-30.5 -103.5q-4 -21 -5.5 -36.5t-1.5 -25.5q0 -44 12.5 -69.5t37 -36.5t59.5 -11h148l-11 -70 q-33 -11 -75.5 -17.5t-100.5 -6.5z" glyph-name="c" horiz-adv-x="477" unicode="c"/>
<glyph d="M231 -6q-73 0 -113 47.5t-40 135.5q0 56 11 113q15 77 42.5 133.5t81 87.5t145.5 31q32 0 60 -4.5t54 -14.5l37 240h124l-121 -763h-109l-6 55q-20 -16 -47 -30t-57 -22.5t-62 -8.5zM283 94q38 0 69 12.5t58 29.5l45 285q-18 10 -40 15.5t-52 5.5q-44 0 -74 -16 t-49 -53.5t-31 -104.5q-3 -19 -5 -36t-2 -34q0 -39 11 -61.5t29.5 -32.5t40.5 -10z" glyph-name="d" horiz-adv-x="572" unicode="d"/>
<glyph d="M293 -6q-77 0 -124 22.5t-68.5 66.5t-21.5 107q0 28 3 54.5t7 51.5q13 85 48 139.5t92.5 81t136.5 26.5q41 0 77 -7t63.5 -24t43.5 -47.5t16 -76.5q0 -55 -19 -90.5t-52.5 -54.5t-76.5 -26.5t-90 -7.5q-40 0 -73 3.5t-51 8.5q-2 -11 -2.5 -22.5t-0.5 -22.5 q0 -47 32.5 -68.5t107.5 -21.5h168l-12 -73q-36 -7 -90 -13t-114 -6zM294 280q52 0 86.5 9t52.5 30t18 56q0 38 -23 55.5t-70 17.5q-46 0 -75.5 -18.5t-46 -54.5t-24.5 -88q17 -3 38.5 -5t43.5 -2z" glyph-name="e" horiz-adv-x="548" unicode="e"/>
<glyph d="M96 0l69 435h-77l13 80l80 21l13 80q6 35 18.5 63t33.5 48.5t53.5 31t78.5 10.5q33 0 65 -2.5t55 -6.5l-14 -90h-85q-30 0 -47.5 -9.5t-26.5 -28.5t-13 -49l-7 -47h142l-16 -101h-142l-69 -435h-124z" glyph-name="f" horiz-adv-x="384" unicode="f"/>
<glyph d="M179 -234l-138 8l14 86h166q42 0 75.5 8.5t56 31t28.5 59.5l16 96q-24 -18 -54.5 -32t-62 -21.5t-60.5 -7.5q-45 0 -77 24t-48.5 65t-16.5 92q0 26 4 59.5t8 62.5q10 68 34 115t60 75.5t82.5 41.5t102.5 13q74 0 132 -9.5t92 -19.5l-91 -573q-9 -54 -35.5 -90.5 t-68.5 -56.5t-97.5 -26t-121.5 -1zM281 94q35 0 65 11t63 31l47 299q-22 3 -45.5 4.5t-47.5 2.5q-42 1 -73 -15t-50 -51.5t-29 -92.5q-5 -31 -7.5 -49.5t-2.5 -37.5q0 -52 22.5 -77t57.5 -25z" glyph-name="g" horiz-adv-x="573" unicode="g"/>
<glyph d="M59 0l121 763h124l-46 -283q36 25 86 44t110 19q65 0 99.5 -32t34.5 -101q0 -25 -4 -58l-57 -352h-123l52 337q2 7 2.5 14t0.5 13q0 38 -20 53t-53 15q-42 0 -75 -13t-67 -36l-61 -383h-124z" glyph-name="h" horiz-adv-x="585" unicode="h"/>
<glyph d="M173 621q-8 0 -13 5t-3 13l14 91q4 20 22 20h94q9 0 12.5 -6t1.5 -14l-14 -91q-3 -18 -20 -18h-94zM59 0l84 536h124l-84 -536h-124z" glyph-name="i" horiz-adv-x="240" unicode="i"/>
<glyph d="M173 621q-8 0 -13 5t-3 13l14 91q4 20 22 20h94q9 0 12.5 -6t1.5 -14l-14 -91q-3 -18 -20 -18h-94zM21 -237l122 773h124l-85 -540q-10 -61 -29 -121t-41 -112h-91z" glyph-name="j" horiz-adv-x="240" unicode="j"/>
<glyph d="M59 0l121 763h124l-68 -425q52 6 93.5 28t72 64t48.5 106h123q-20 -73 -48.5 -121.5t-61.5 -77.5t-65 -45l146 -292h-128l-123 254q-17 -4 -37 -7t-35 -3l-38 -244h-124z" glyph-name="k" horiz-adv-x="550" unicode="k"/>
<glyph d="M231 0q-73 0 -110.5 31.5t-37.5 83.5q0 20 1.5 37.5t3.5 32.5l92 578h124l-86 -538l-3 -21t-3.5 -28t-1.5 -25q0 -30 14.5 -41.5t40.5 -14.5l43 -6l-15 -89h-62z" glyph-name="l" horiz-adv-x="312" unicode="l"/>
<glyph d="M59 0l84 536h102l13 -56q40 26 87.5 44.5t108.5 18.5q51 0 81.5 -19.5t48.5 -60.5q46 41 101.5 60.5t104.5 19.5q75 0 108.5 -33.5t33.5 -95.5q0 -18 -1.5 -36.5t-4.5 -35.5l-54 -342h-124l54 339q1 6 1.5 12t0.5 12q0 69 -77 69q-40 0 -74.5 -14.5t-69.5 -38.5 q1 -9 0.5 -20.5t-3.5 -25.5l-53 -333h-123l52 334q2 10 2.5 16t0.5 14q0 33 -18 50.5t-58 17.5q-43 0 -74.5 -14t-64.5 -35l-61 -383h-124z" glyph-name="m" horiz-adv-x="930" unicode="m"/>
<glyph d="M59 0l84 536h102l13 -56q38 26 87 44.5t107 18.5q46 0 76.5 -16t45 -43.5t14.5 -63.5q0 -15 -1.5 -35.5t-8.5 -68.5l-51 -316h-123l49 312q3 24 4.5 35t1.5 18q0 29 -17 48t-59 19q-40 0 -73 -13t-66 -36l-61 -383h-124z" glyph-name="n" horiz-adv-x="585" unicode="n"/>
<glyph d="M285 -6q-66 0 -112 20t-70 60.5t-24 104.5q0 27 2 51.5t6 48.5q13 81 35 132t56 79.5t81.5 40t111.5 11.5q81 0 125.5 -21t62 -64t17.5 -108q0 -24 -2 -51t-7 -56q-15 -98 -49 -152t-90.5 -75t-142.5 -21zM299 94q32 0 56 7t40.5 24.5t28 50.5t20.5 84q4 29 6.5 51.5 t2.5 42.5q0 50 -23 70t-76 20q-34 0 -57.5 -8t-40.5 -27.5t-28 -56t-20 -92.5q-3 -22 -5 -40.5t-2 -35.5q0 -36 12 -55.5t33.5 -27t52.5 -7.5z" glyph-name="o" horiz-adv-x="571" unicode="o"/>
<glyph d="M21 -237l120 755q61 11 123.5 17.5t136.5 6.5q93 0 134 -47t41 -142q0 -25 -2.5 -52t-7.5 -54q-13 -83 -46 -139.5t-84 -85t-119 -28.5q-38 0 -71.5 6t-60.5 19l-40 -256h-124zM303 99q43 0 71.5 18.5t46 57t27.5 97.5q2 14 4 29.5t2 30.5q0 56 -20.5 83t-65.5 27 l-116 -1l-52 -324q19 -6 34 -10t31.5 -6t37.5 -2z" glyph-name="p" horiz-adv-x="569" unicode="p"/>
<glyph d="M349 -237l46 292q-36 -28 -84 -44.5t-90 -16.5q-71 0 -107 47.5t-36 132.5q0 26 3 53t7 57q11 71 34.5 120.5t58.5 79.5t81.5 44t104.5 14q65 0 127 -8.5t98 -20.5l-119 -750h-124zM280 94q35 0 66.5 12t61.5 30l48 299q-23 3 -44 4.5t-42 2.5q-52 1 -84.5 -17.5t-50 -56 t-27.5 -94.5q-4 -24 -6 -43.5t-2 -33.5q0 -51 22 -77t58 -26z" glyph-name="q" horiz-adv-x="568" unicode="q"/>
<glyph d="M59 0l85 536h109l4 -68q30 29 68 51.5t85 22.5q18 0 32 -1.5t26 -5.5l-18 -123q-15 1 -31.5 2t-34.5 1q-45 0 -81 -14t-61 -32l-59 -369h-124z" glyph-name="r" horiz-adv-x="411" unicode="r"/>
<glyph d="M269 -6q-30 0 -60.5 1.5t-59 4t-53 6.5t-41.5 9l11 73h230q34 0 55.5 11.5t25.5 38.5l4 28q1 5 1 7.5v4.5q0 39 -52 39h-86q-44 0 -77.5 10.5t-51.5 33t-18 58.5q0 10 0.5 21.5t2.5 23.5l7 39q8 41 29.5 72t65 49t115.5 18q30 0 68 -3t74.5 -7.5t60.5 -11.5l-12 -73h-214 q-37 0 -54 -12.5t-23 -39.5l-3 -21q-2 -9 -2.5 -14.5t-0.5 -10.5q0 -17 12.5 -24.5t44.5 -7.5h94q61 0 98.5 -27.5t37.5 -77.5q0 -9 -0.5 -19t-2.5 -20l-7 -48q-11 -72 -69 -101.5t-150 -29.5z" glyph-name="s" horiz-adv-x="510" unicode="s"/>
<glyph d="M276 0q-76 0 -114 29.5t-38 89.5q0 19 2.5 41.5t6.5 49.5l41 226h-85l13 80l91 20l41 150h97l-24 -150h136l-15 -100h-136l-36 -227q-2 -11 -4.5 -27.5t-2.5 -29.5q0 -27 14 -39.5t43 -15.5l62 -6l-15 -91h-77z" glyph-name="t" horiz-adv-x="400" unicode="t"/>
<glyph d="M215 -6q-69 0 -101.5 33.5t-32.5 92.5q0 19 1.5 33.5t3.5 27.5l56 355h124l-53 -341q-1 -6 -1.5 -12t-0.5 -14q0 -33 19 -48.5t55 -15.5q42 0 75 13t66 35l61 383h124l-85 -536h-109l-6 56q-29 -19 -57.5 -33t-61.5 -21.5t-77 -7.5z" glyph-name="u" horiz-adv-x="585" unicode="u"/>
<glyph d="M190 0l-103 536h127l67 -419l142 281q16 36 26.5 70t14.5 76h113q-1 -52 -19.5 -102t-42.5 -97l-183 -345h-142z" glyph-name="v" horiz-adv-x="545" unicode="v"/>
<glyph d="M178 0l-91 536h127l58 -418l171 418h83l74 -418l119 297q5 13 12 35.5t13 47.5t8 46h120q0 -29 -7.5 -61t-18 -62t-21.5 -53l-175 -368h-131l-63 336l-146 -336h-132z" glyph-name="w" horiz-adv-x="840" unicode="w"/>
<glyph d="M404 0l-131 227l-180 309h127l144 -246l168 -290h-128zM15 0l256 302l34 -113l-162 -189h-128zM357 226l-44 101l163 209h134z" glyph-name="x" horiz-adv-x="547" unicode="x"/>
<glyph d="M96 -237v89q57 12 104 45t81 103q-42 4 -69.5 18.5t-43 43t-22.5 75.5l-53 399h128l35 -372q4 -25 13.5 -38t23 -18t27.5 -6l135 317q11 27 20.5 59.5t11.5 65.5h115q0 -48 -12.5 -99.5t-40.5 -109.5l-156 -329q-40 -86 -85 -137t-97 -75.5t-115 -30.5z" glyph-name="y" horiz-adv-x="569" unicode="y"/>
<glyph d="M45 0l14 90l321 346h-278l15 100h421l-14 -90l-321 -346h274l-1 -10.5t-4 -25t-5 -29.5t-4 -25l-2 -10h-416z" glyph-name="z" horiz-adv-x="500" unicode="z"/>
<glyph d="M281 -210q-69 0 -109.5 14.5t-58 42.5t-17.5 67q0 17 5 50.5t12 74t13.5 80t11.5 68.5t5 38q0 27 -15 39t-49 12l18 115q17 2 34.5 7.5t30.5 18t17 35.5l32 204q11 68 38 109t75.5 59t123.5 18l-16 -100q-31 0 -50.5 -8.5t-31.5 -32.5t-19 -70l-31 -199 q-7 -47 -37.5 -70.5t-73.5 -27.5q40 -7 60.5 -28.5t20.5 -52.5q0 -9 -3 -32t-8.5 -54t-11 -65.5t-10.5 -66t-8.5 -54.5t-3.5 -32q0 -35 17 -50t54 -15z" glyph-name="braceleft" horiz-adv-x="315" unicode="{"/>
<glyph d="M65 -72l133 842h100l-133 -842h-100z" glyph-name="bar" horiz-adv-x="252" unicode="|"/>
<glyph d="M-15 -210l15 94q32 0 52 11t31 33t16 54l39 237q6 39 34 63t74 32q-36 3 -58 21.5t-22 55.5q0 11 3.5 40.5t10 67t12 75t9.5 65.5t4 36q0 39 -17.5 53t-51.5 14l16 100q64 0 104.5 -17t58.5 -48.5t18 -74.5q0 -4 -3 -25t-7.5 -50.5t-9.5 -63t-9.5 -63.5t-7.5 -51.5 t-3 -27.5q0 -18 9.5 -28.5t24.5 -15t30 -6.5l-18 -115q-31 0 -53.5 -13.5t-27.5 -47.5l-37 -233q-7 -44 -22 -76.5t-41.5 -53.5t-68.5 -31.5t-104 -10.5z" glyph-name="braceright" horiz-adv-x="315" unicode="}"/>
<glyph d="M364 535q-16 0 -30.5 8t-28 17.5t-27 17.5t-26.5 8q-29 0 -52.5 -11.5t-51.5 -29.5l-10 42q25 26 57 47t69 21q15 0 29.5 -8t28.5 -17.5t27 -17.5t25 -8q19 0 37 7t34 17.5t28 20.5l11 -46q-24 -25 -54.5 -46.5t-65.5 -21.5z" glyph-name="asciitilde" horiz-adv-x="432" unicode="~"/>
<glyph glyph-name="uni00A0" horiz-adv-x="243" unicode=" "/>
<glyph d="M236 336l-70 -535h-124l103 535h91zM257 539q17 0 17 -15v-1.5v-1.5l-16 -95q-2 -19 -22 -19h-71q-16 0 -16 14v3v2l15 95q2 10 8 14t14 4h71z" glyph-name="exclamdown" horiz-adv-x="270" unicode="¡"/>
<glyph d="M214 -90l13 85q-44 4 -80.5 20t-57 55.5t-20.5 114.5q0 77 18.5 141.5t52.5 110.5t78.5 72t97.5 27l14 91h71l-14 -93q32 -2 68 -10t69 -20l-12 -73q-16 4 -57.5 7.5t-100.5 3.5q-38 0 -68.5 -20t-50.5 -55t-30.5 -81t-10.5 -98q0 -41 11.5 -62t34.5 -29t56 -8 q43 0 76 2.5t56.5 5.5t37.5 6l-11 -74q-41 -17 -78.5 -24t-78.5 -10l-13 -85h-71z" glyph-name="cent" horiz-adv-x="486" unicode="¢"/>
<glyph d="M60 0l15 94l101 17l33 211l-97 9l10 62l102 18l14 93q14 89 48 141t89 74.5t132 22.5q47 0 88 -4t67 -8l-15 -99h-153q-37 0 -63.5 -9t-42.5 -33.5t-24 -71.5l-16 -106l191 -12l-11 -68l-195 -9l-33 -211h271l-17 -111h-494z" glyph-name="sterling" unicode="£"/>
<glyph d="M338 183q-42 0 -76.5 20.5t-54.5 55t-20 75.5q0 53 26 97t70.5 71t100.5 27q43 0 77 -21t54.5 -55t20.5 -75q0 -52 -26 -96.5t-71 -71.5t-101 -27zM142 121l-45 53l125 108l48 -53zM506 121l-89 106l61 53l89 -106zM344 249q35 0 63.5 14.5t45.5 42t17 66.5t-26 65 t-66 26q-34 0 -62.5 -15t-45 -42.5t-16.5 -65.5t25.5 -64.5t64.5 -26.5zM242 434l-87 104l61 53l88 -104zM502 432l-44 53l122 106l45 -53z" glyph-name="currency" unicode="¤"/>
<glyph d="M105 261l10 65h452l-10 -65h-452zM84 126l10 66h452l-10 -66h-452zM228 0l36 225l-147 513h135l94 -378l225 378h141l-324 -513l-36 -225h-124z" glyph-name="yen" unicode="¥"/>
<glyph d="M144 429l54 341h100l-54 -341h-100zM65 -72l52 328h100l-52 -328h-100z" glyph-name="brokenbar" horiz-adv-x="252" unicode="¦"/>
<glyph d="M314 -6q-24 0 -54.5 0.5t-62.5 2t-60.5 4t-49.5 5.5l13 88h205q34 0 52 6t26.5 17t10.5 26q4 25 6 38t2 17q0 14 -11.5 19.5t-44.5 5.5h-108q-68 0 -105 19.5t-37 67.5q0 6 1 13.5t2 17.5l6 39q8 45 28 66t58 32q-26 12 -35.5 32.5t-9.5 46.5q0 8 0.5 17t1.5 20l9 53 q8 44 30.5 74.5t63 46.5t101.5 16q22 0 53.5 -1t65 -2.5t62.5 -4t47 -6.5l-13 -86h-213q-23 0 -40.5 -4.5t-27.5 -16.5t-14 -35q-3 -21 -4.5 -31t-1.5 -14q0 -18 13 -25t41 -7h115q71 0 104 -19.5t33 -65.5q0 -14 -3 -30l-7 -44q-6 -36 -25.5 -61t-57.5 -36 q26 -8 36.5 -25.5t10.5 -43.5q0 -8 -0.5 -16.5t-3.5 -22.5l-8 -48q-8 -55 -34.5 -87t-68.5 -45t-97 -13zM281 316h80q29 0 45 3t23 13.5t10 33.5l8 42q0 5 0.5 8.5t0.5 6.5q0 20 -13 27t-44 7h-87q-39 0 -55 -11t-21 -40l-7 -41q0 -3 -0.5 -5.5t-0.5 -5.5q0 -18 14 -28 t47 -10z" glyph-name="section" horiz-adv-x="543" unicode="§"/>
<glyph d="M368 643q-16 0 -16 15q0 1 0.5 5t4 24t10.5 65q3 20 21 20h58q16 0 16 -15l-0.5 -5t-4 -24.5t-10.5 -65.5q-3 -19 -22 -19h-57zM166 643q-16 0 -16 15q0 1 1 5t4 24t10 65q3 20 22 20h57q16 0 16 -15l-0.5 -5t-4 -24.5t-10.5 -65.5q-2 -19 -22 -19h-57z" glyph-name="dieresis" horiz-adv-x="404" unicode="¨"/>
<glyph d="M329 0q-58 0 -101.5 21t-72 58t-43 85t-14.5 103q0 64 12.5 130.5t39 126.5t65.5 107t92.5 74t119.5 27h205q74 0 120.5 -30.5t69.5 -82.5t23 -119q0 -97 -24 -186.5t-66.5 -160.5t-99 -112t-121.5 -41h-205zM403 147q-34 0 -63 12t-46.5 43.5t-17.5 88.5t15 109.5 t42 93.5t62.5 65t76.5 24q20 0 50 -2t62 -6.5t58 -12.5l-10 -58q-28 5 -56 7.5t-51 3.5t-39 1q-32 0 -57 -17.5t-42.5 -47.5t-26.5 -67t-9 -77q0 -48 20.5 -70.5t64.5 -22.5q46 0 86.5 5t72.5 11l-9 -58q-45 -17 -90 -21t-93 -4zM321 67h217q47 0 89 32.5t76 89.5t53.5 134 t19.5 167q0 50 -13.5 89.5t-43.5 62.5t-80 23h-223q-52 0 -97.5 -31t-79.5 -84.5t-53.5 -124t-19.5 -148.5q0 -44 9 -82t27.5 -67t48 -45t70.5 -16z" glyph-name="copyright" horiz-adv-x="822" unicode="©"/>
<glyph d="M76 257l10 60h347l-9 -60h-348zM209 356q-45 0 -78 31.5t-33 103.5q0 20 3.5 43t5.5 38q15 93 64.5 138.5t144.5 45.5q50 0 95.5 -12.5t72.5 -33.5l-56 -350h-91l-6 39q-10 -8 -30 -18.5t-44 -17.5t-48 -7zM258 441q26 0 46 9t37 19l31 190q-8 3 -24 7.5t-37 4.5 q-32 0 -52.5 -12.5t-31.5 -36t-18 -58.5q-7 -34 -7 -57q0 -29 14 -47.5t42 -18.5z" glyph-name="ordfeminine" horiz-adv-x="410" unicode="ª"/>
<glyph d="M267 62l-188 220l252 214l54 -62l-180 -153l133 -155zM517 62l-188 220l252 214l54 -62l-180 -153l133 -155z" glyph-name="guillemotleft" horiz-adv-x="617" unicode="«"/>
<glyph d="M457 186l46 290h101l-46 -290h-101zM148 426l16 100h448l-16 -100h-448z" glyph-name="logicalnot" unicode="¬"/>
<glyph d="M60 240l16 100h301l-16 -100h-301z" glyph-name="uni00AD" horiz-adv-x="344" unicode="­"/>
<glyph d="M329 0q-58 0 -101.5 21t-72 58t-43 85t-14.5 103q0 64 12.5 130.5t39 126.5t65.5 107t92.5 74t119.5 27h205q74 0 120.5 -30.5t69.5 -82.5t23 -119q0 -97 -24 -186.5t-66.5 -160.5t-99 -112t-121.5 -41h-205zM281 153l68 427h183q29 0 54.5 -8t41 -29t15.5 -61 q0 -36 -13 -69.5t-36.5 -56.5t-55.5 -31l67 -172h-72l-63 174l-88 2l-28 -176h-73zM321 67h217q47 0 89 32.5t76 89.5t53.5 134t19.5 167q0 50 -13.5 89.5t-43.5 62.5t-80 23h-223q-52 0 -97.5 -31t-79.5 -84.5t-53.5 -124t-19.5 -148.5q0 -44 9 -82t27.5 -67t48 -45 t70.5 -16zM390 383h110q20 0 35.5 12t24.5 32t9 40q0 26 -13 36t-35 10h-110z" glyph-name="registered" horiz-adv-x="822" unicode="®"/>
<glyph d="M148 656l12 73h276l-12 -73h-276z" glyph-name="macron" horiz-adv-x="364" unicode="¯"/>
<glyph d="M239 486q-54 0 -87 33t-33 87q0 44 19 80.5t55.5 58.5t90.5 22t85.5 -33t31.5 -87q0 -44 -18 -80.5t-54 -58.5t-90 -22zM248 543q42 0 69 27.5t27 72.5q0 30 -18.5 48.5t-51.5 18.5q-43 0 -70.5 -28.5t-27.5 -70.5q0 -31 20 -49.5t52 -18.5z" glyph-name="degree" horiz-adv-x="322" unicode="°"/>
<glyph d="M97 106l16 100h448l-16 -100h-448zM299 282l70 448h101l-70 -448h-101zM153 456l15 100h448l-15 -100h-448z" glyph-name="plusminus" unicode="±"/>
<glyph d="M100 355l12 78l185 162q40 35 58 64.5t18 52.5q0 20 -14 31t-50 11h-134l12 76q32 6 71.5 11t85.5 5q74 0 104.5 -25.5t30.5 -72.5q0 -50 -24.5 -98.5t-88.5 -104.5l-118 -102h200l-14 -88h-334z" glyph-name="uni00B2" horiz-adv-x="417" unicode="²"/>
<glyph d="M286 351q-54 0 -102.5 4t-86.5 10l13 78h153q27 0 45 4t28.5 14t12.5 27l3 20q1 3 1 5v5q0 14 -8 22.5t-21 12.5t-29 4l-122 5l12 75l119 7q30 2 48.5 11t21.5 30l4 21v5v5q0 19 -16.5 28.5t-53.5 9.5h-139l13 77q42 7 87 11t94 4q57 0 87.5 -24.5t31.5 -70.5 q0 -5 -0.5 -11.5t-1.5 -13.5l-6 -37q-4 -25 -15 -43t-27 -29t-35 -17q15 -5 27.5 -15t20 -26t7.5 -38q0 -6 -0.5 -12.5t-1.5 -13.5l-5 -27q-9 -58 -51 -87.5t-108 -29.5z" glyph-name="uni00B3" horiz-adv-x="417" unicode="³"/>
<glyph d="M118 631l106 139h107l-135 -139h-78z" glyph-name="acute" horiz-adv-x="226" unicode="´"/>
<glyph d="M260 -6q-32 0 -63 10.5t-55.5 30t-38.5 48.5t-14 66q0 9 0.5 18.5t1.5 18.5l56 350h124l-55 -343q0 -6 -0.5 -12.5t-0.5 -12.5q0 -37 22 -50.5t57 -13.5q39 0 71.5 11t64.5 32l62 389h123l-84 -536h-101l-8 56q-33 -28 -73 -45t-89 -17zM20 -269l80 509h124l-80 -509 h-124z" glyph-name="uni00B5" horiz-adv-x="593" unicode="µ"/>
<glyph d="M215 -270l94 591q-9 -5 -29.5 -9.5t-47.5 -4.5q-69 0 -100 34.5t-31 84.5q0 7 0.5 16t3.5 25l21 131q8 48 34 79t65 46t83 15h377l-13 -84h-66l-104 -654h-83l104 656h-79l-147 -926h-82zM259 390h60l42 266h-60q-44 0 -67 -20t-29 -58l-16 -101q-1 -10 -2 -17t-1 -12 q0 -25 10.5 -37.5t27.5 -16.5t35 -4z" glyph-name="paragraph" horiz-adv-x="573" unicode="¶"/>
<glyph d="M132 329q-8 0 -13 5.5t-4 13.5l12 73q3 20 23 20h71q20 0 16 -20l-12 -73q-1 -10 -7 -14.5t-15 -4.5h-71z" glyph-name="periodcentered" horiz-adv-x="266" unicode="·"/>
<glyph d="M14 -195l8 51l20 2q19 3 30.5 10.5t16.5 17.5t5 17q0 12 -9.5 21t-37.5 12l52 12q34 0 54 -13.5t20 -44.5q0 -20 -12.5 -39.5t-38 -32.5t-65.5 -13h-43zM47 -64l64 80h57l-65 -80h-56z" glyph-name="cedilla" horiz-adv-x="250" unicode="¸"/>
<glyph d="M223 355l64 403l-105 -16l10 63l119 41h89l-78 -491h-99zM114 355l14 88h317l-14 -88h-317z" glyph-name="uni00B9" horiz-adv-x="417" unicode="¹"/>
<glyph d="M76 257l10 60h347l-9 -60h-348zM257 356q-51 0 -86 14.5t-52.5 45t-18.5 76.5q0 21 2 39t4 35q13 79 38.5 119.5t68.5 55.5t107 15q62 0 95.5 -15.5t47 -47t13.5 -80.5q0 -17 -2 -37t-5 -41q-11 -71 -36.5 -110t-68.5 -54t-107 -15zM269 441q29 0 48 9t30.5 32.5 t18.5 67.5q4 21 5 36.5t1 29.5q-1 30 -16 43t-51 13q-30 0 -49 -9t-29.5 -34t-17.5 -71q-4 -22 -4.5 -34.5t-0.5 -25.5q1 -22 8 -34.5t21.5 -17.5t35.5 -5z" glyph-name="ordmasculine" horiz-adv-x="429" unicode="º"/>
<glyph d="M110 62l-51 64l180 154l-132 155l73 61l185 -217zM360 62l-51 64l180 154l-132 155l73 61l185 -217z" glyph-name="guillemotright" horiz-adv-x="617" unicode="»"/>
<glyph d="M313 0l496 770h86l-497 -770h-85zM958 -44l17 103h-218l-11 47l215 337h102l-192 -301h116l15 95l29 56h80l-24 -151h52l-12 -67l-53 -16l-17 -103h-99zM227 355l64 403l-105 -16l10 63l119 41h89l-78 -491h-99zM118 355l14 88h317l-14 -88h-317z" glyph-name="onequarter" horiz-adv-x="1152" unicode="¼"/>
<glyph d="M313 0l496 770h86l-497 -770h-85zM757 -44l12 78l185 162q40 35 58 64.5t18 52.5q0 20 -14 31t-50 11h-134l12 76q32 6 71.5 11t85.5 5q74 0 104.5 -25.5t30.5 -72.5q0 -50 -24.5 -98.5t-88.5 -104.5l-118 -102h200l-14 -88h-334zM227 355l64 403l-105 -16l10 63l119 41 h89l-78 -491h-99zM118 355l14 88h317l-14 -88h-317z" glyph-name="onehalf" horiz-adv-x="1152" unicode="½"/>
<glyph d="M313 0l496 770h86l-497 -770h-85zM958 -38l17 103h-218l-11 47l215 337h102l-192 -301h116l15 95l29 56h80l-24 -151h52l-12 -67l-53 -16l-17 -103h-99zM296 351q-54 0 -102.5 4t-86.5 10l13 78h153q27 0 45 4t28.5 14t12.5 27l3 20q1 3 1 5v5q0 14 -8 22.5t-21 12.5 t-29 4l-122 5l12 75l119 7q30 2 48.5 11t21.5 30l4 21v5v5q0 19 -16.5 28.5t-53.5 9.5h-139l13 77q42 7 87 11t94 4q57 0 87.5 -24.5t31.5 -70.5q0 -5 -0.5 -11.5t-1.5 -13.5l-6 -37q-4 -25 -15 -43t-27 -29t-35 -17q15 -5 27.5 -15t20 -26t7.5 -38q0 -6 -0.5 -12.5 t-1.5 -13.5l-5 -27q-9 -58 -51 -87.5t-108 -29.5z" glyph-name="threequarters" horiz-adv-x="1151" unicode="¾"/>
<glyph d="M419 337l-28 -184h-63q-41 0 -69.5 -8.5t-44.5 -28t-23 -55.5l-7 -42q-1 -9 -1.5 -16.5t-0.5 -14.5q0 -42 27 -60t79 -18q46 0 89.5 9.5t92.5 25.5l-14 -90q-49 -26 -105 -41t-119 -15q-91 0 -135 42t-44 111q0 23 5 48l10 63q15 92 73.5 138.5t170.5 46.5l14 89h93z M437 539q17 0 17 -15v-1.5v-1.5l-16 -95q-2 -19 -22 -19h-71q-16 0 -16 14v3v2l15 95q2 10 8 14t14 4h71z" glyph-name="questiondown" horiz-adv-x="530" unicode="¿"/>
<glyph d="M27 0l360 738h156l120 -738h-128l-28 174h-268l-84 -174h-128zM286 285h209l-48 346zM450 791l-96 139h101l68 -139h-73z" glyph-name="Agrave" horiz-adv-x="689" unicode="À"/>
<glyph d="M27 0l360 738h156l120 -738h-128l-28 174h-268l-84 -174h-128zM286 285h209l-48 346zM421 791l106 139h107l-135 -139h-78z" glyph-name="Aacute" horiz-adv-x="689" unicode="Á"/>
<glyph d="M27 0l360 738h156l120 -738h-128l-28 174h-268l-84 -174h-128zM286 285h209l-48 346zM306 791l136 139h85l81 -139h-73l-61 83l-94 -83h-74z" glyph-name="Acircumflex" horiz-adv-x="689" unicode="Â"/>
<glyph d="M27 0l360 738h156l120 -738h-128l-28 174h-268l-84 -174h-128zM286 285h209l-48 346zM295 800q15 66 48 91.5t72 25.5q23 0 42 -7t36.5 -16.5t33.5 -16.5t32 -7q22 0 36.5 13.5t18.5 37.5h62q-14 -61 -43 -90.5t-75 -29.5q-22 0 -41.5 7t-37.5 16.5t-34.5 16.5t-32.5 7 q-21 0 -35.5 -13t-19.5 -35h-62z" glyph-name="Atilde" horiz-adv-x="689" unicode="Ã"/>
<glyph d="M27 0l360 738h156l120 -738h-128l-28 174h-268l-84 -174h-128zM286 285h209l-48 346zM532 803q-16 0 -16 15q0 1 0.5 5t4 24t10.5 65q3 20 21 20h58q16 0 16 -15l-0.5 -5t-4 -24.5t-10.5 -65.5q-3 -19 -22 -19h-57zM330 803q-16 0 -16 15q0 1 1 5t4 24t10 65q3 20 22 20 h57q16 0 16 -15l-0.5 -5t-4 -24.5t-10.5 -65.5q-2 -19 -22 -19h-57z" glyph-name="Adieresis" horiz-adv-x="689" unicode="Ä"/>
<glyph d="M27 0l360 738h156l120 -738h-128l-28 174h-268l-84 -174h-128zM286 285h209l-48 346zM469 768q-49 0 -78.5 21t-29.5 74q0 35 16 63.5t46.5 46.5t74.5 18q49 0 77.5 -21.5t28.5 -72.5q0 -54 -34.5 -91.5t-100.5 -37.5zM474 815q37 0 54 24t17 55q0 28 -15.5 39t-36.5 11 q-38 0 -55.5 -24t-17.5 -55q0 -28 15.5 -39t38.5 -11z" glyph-name="Aring" horiz-adv-x="689" unicode="Å"/>
<glyph d="M641 -5q-35 0 -64.5 4.5t-50 17.5t-30.5 35.5t-7 57.5l8 63h-225l-133 -173h-123l411 568q49 68 99.5 105t106.5 51.5t119 13.5q59 0 133 -3t152 -8l-17 -103h-262q-29 0 -46 -5t-25.5 -16t-12.5 -27.5t-7 -39.5l-18 -113l293 -7l-16 -97l-295 -7l-20 -127 q-5 -35 6 -50.5t31 -19.5t40 -4h251l-16 -102q-29 -2 -62.5 -4.5t-68 -4t-65 -2.5t-53 -1.5t-33.5 -1.5zM345 279h169l48 303z" glyph-name="AE" horiz-adv-x="964" unicode="Æ"/>
<glyph d="M329 -6q-119 0 -175 64t-56 180q0 36 3.5 75t9.5 77q18 116 55 195t99 119t154 40q84 0 141 -12.5t93 -24.5l-16 -97q-45 10 -95 16.5t-102 6.5q-43 0 -75.5 -12t-57 -41.5t-42.5 -81.5t-31 -132q-6 -34 -9.5 -68t-3.5 -61q0 -69 31.5 -100.5t109.5 -31.5q69 0 112 3.5 t85 9.5l-16 -97q-49 -16 -105.5 -21.5t-108.5 -5.5zM206 -199l8 51l20 2q19 3 30.5 10.5t16.5 17.5t5 17q0 12 -9.5 21t-37.5 12l52 12q34 0 54 -13.5t20 -44.5q0 -20 -12.5 -39.5t-38 -32.5t-65.5 -13h-43zM239 -68l64 80h57l-65 -80h-56z" glyph-name="Ccedilla" horiz-adv-x="591" unicode="Ç"/>
<glyph d="M237 -6q-27 0 -56 6t-52.5 23t-35.5 49t-4 82l68 423q9 62 36.5 97t66.5 50t84 14q75 0 150 -3t151 -8l-16 -103h-268q-37 0 -58 -18t-28 -60l-19 -121l293 -8l-15 -97l-296 -7l-19 -128q-4 -29 2.5 -45.5t23 -23t40.5 -6.5h264l-17 -103q-71 -4 -143.5 -8t-151.5 -5z M409 791l-96 139h101l68 -139h-73z" glyph-name="Egrave" horiz-adv-x="588" unicode="È"/>
<glyph d="M237 -6q-27 0 -56 6t-52.5 23t-35.5 49t-4 82l68 423q9 62 36.5 97t66.5 50t84 14q75 0 150 -3t151 -8l-16 -103h-268q-37 0 -58 -18t-28 -60l-19 -121l293 -8l-15 -97l-296 -7l-19 -128q-4 -29 2.5 -45.5t23 -23t40.5 -6.5h264l-17 -103q-71 -4 -143.5 -8t-151.5 -5z M379 791l106 139h107l-135 -139h-78z" glyph-name="Eacute" horiz-adv-x="588" unicode="É"/>
<glyph d="M237 -6q-27 0 -56 6t-52.5 23t-35.5 49t-4 82l68 423q9 62 36.5 97t66.5 50t84 14q75 0 150 -3t151 -8l-16 -103h-268q-37 0 -58 -18t-28 -60l-19 -121l293 -8l-15 -97l-296 -7l-19 -128q-4 -29 2.5 -45.5t23 -23t40.5 -6.5h264l-17 -103q-71 -4 -143.5 -8t-151.5 -5z M264 791l136 139h85l81 -139h-73l-61 83l-94 -83h-74z" glyph-name="Ecircumflex" horiz-adv-x="588" unicode="Ê"/>
<glyph d="M237 -6q-27 0 -56 6t-52.5 23t-35.5 49t-4 82l68 423q9 62 36.5 97t66.5 50t84 14q75 0 150 -3t151 -8l-16 -103h-268q-37 0 -58 -18t-28 -60l-19 -121l293 -8l-15 -97l-296 -7l-19 -128q-4 -29 2.5 -45.5t23 -23t40.5 -6.5h264l-17 -103q-71 -4 -143.5 -8t-151.5 -5z M490 803q-16 0 -16 15q0 1 0.5 5t4 24t10.5 65q3 20 21 20h58q16 0 16 -15l-0.5 -5t-4 -24.5t-10.5 -65.5q-3 -19 -22 -19h-57zM288 803q-16 0 -16 15q0 1 1 5t4 24t10 65q3 20 22 20h57q16 0 16 -15l-0.5 -5t-4 -24.5t-10.5 -65.5q-2 -19 -22 -19h-57z" glyph-name="Edieresis" horiz-adv-x="588" unicode="Ë"/>
<glyph d="M65 0l117 738h124l-117 -738h-124zM234 791l-96 139h101l68 -139h-73z" glyph-name="Igrave" horiz-adv-x="255" unicode="Ì"/>
<glyph d="M65 0l117 738h124l-117 -738h-124zM205 791l106 139h107l-135 -139h-78z" glyph-name="Iacute" horiz-adv-x="255" unicode="Í"/>
<glyph d="M65 0l117 738h124l-117 -738h-124zM90 791l136 139h85l81 -139h-73l-61 83l-94 -83h-74z" glyph-name="Icircumflex" horiz-adv-x="255" unicode="Î"/>
<glyph d="M65 0l117 738h124l-117 -738h-124zM315 803q-16 0 -16 15q0 1 0.5 5t4 24t10.5 65q3 20 21 20h58q16 0 16 -15l-0.5 -5t-4 -24.5t-10.5 -65.5q-3 -19 -22 -19h-57zM113 803q-16 0 -16 15q0 1 1 5t4 24t10 65q3 20 22 20h57q16 0 16 -15l-0.5 -5t-4 -24.5t-10.5 -65.5 q-2 -19 -22 -19h-57z" glyph-name="Idieresis" horiz-adv-x="255" unicode="Ï"/>
<glyph d="M57 332l14 82h324l-14 -82h-324zM65 0l117 738h275q95 0 147.5 -31t73.5 -88.5t21 -137.5q0 -32 -3 -65.5t-8 -66.5q-14 -87 -41 -152.5t-70 -109t-102 -65.5t-135 -22h-275zM207 111h145q48 0 84 18.5t61 52t41.5 81.5t25.5 107q5 34 8 61.5t3 45.5q0 52 -13.5 85 t-46 49t-88.5 16h-139z" glyph-name="Eth" horiz-adv-x="682" unicode="Ð"/>
<glyph d="M65 0l117 738h100l252 -528l84 528h124l-117 -738h-100l-252 529l-84 -529h-124zM281 800q15 66 48 91.5t72 25.5q23 0 42 -7t36.5 -16.5t33.5 -16.5t32 -7q22 0 36.5 13.5t18.5 37.5h62q-14 -61 -43 -90.5t-75 -29.5q-22 0 -41.5 7t-37.5 16.5t-34.5 16.5t-32.5 7 q-21 0 -35.5 -13t-19.5 -35h-62z" glyph-name="Ntilde" horiz-adv-x="684" unicode="Ñ"/>
<glyph d="M344 -6q-56 0 -102 9.5t-79 34t-50.5 69t-17.5 116.5q0 34 4 76t11 87q17 106 45 176t70.5 109.5t101.5 56t138 16.5q55 0 100.5 -9.5t78.5 -35.5t51 -73t18 -121q0 -32 -4 -74t-11 -88q-17 -108 -45.5 -177t-70.5 -106t-101 -51.5t-137 -14.5zM364 106q48 0 83 12.5 t59 41t40.5 78t28.5 123.5q7 43 10.5 80t3.5 63q0 54 -16 81.5t-47.5 37.5t-78.5 10t-81.5 -11.5t-59 -40t-42.5 -80.5t-30 -133q-7 -41 -11 -78t-4 -62q0 -49 15 -75.5t47.5 -36.5t82.5 -10zM456 791l-96 139h101l68 -139h-73z" glyph-name="Ograve" horiz-adv-x="693" unicode="Ò"/>
<glyph d="M344 -6q-56 0 -102 9.5t-79 34t-50.5 69t-17.5 116.5q0 34 4 76t11 87q17 106 45 176t70.5 109.5t101.5 56t138 16.5q55 0 100.5 -9.5t78.5 -35.5t51 -73t18 -121q0 -32 -4 -74t-11 -88q-17 -108 -45.5 -177t-70.5 -106t-101 -51.5t-137 -14.5zM364 106q48 0 83 12.5 t59 41t40.5 78t28.5 123.5q7 43 10.5 80t3.5 63q0 54 -16 81.5t-47.5 37.5t-78.5 10t-81.5 -11.5t-59 -40t-42.5 -80.5t-30 -133q-7 -41 -11 -78t-4 -62q0 -49 15 -75.5t47.5 -36.5t82.5 -10zM426 791l106 139h107l-135 -139h-78z" glyph-name="Oacute" horiz-adv-x="693" unicode="Ó"/>
<glyph d="M344 -6q-56 0 -102 9.5t-79 34t-50.5 69t-17.5 116.5q0 34 4 76t11 87q17 106 45 176t70.5 109.5t101.5 56t138 16.5q55 0 100.5 -9.5t78.5 -35.5t51 -73t18 -121q0 -32 -4 -74t-11 -88q-17 -108 -45.5 -177t-70.5 -106t-101 -51.5t-137 -14.5zM364 106q48 0 83 12.5 t59 41t40.5 78t28.5 123.5q7 43 10.5 80t3.5 63q0 54 -16 81.5t-47.5 37.5t-78.5 10t-81.5 -11.5t-59 -40t-42.5 -80.5t-30 -133q-7 -41 -11 -78t-4 -62q0 -49 15 -75.5t47.5 -36.5t82.5 -10zM312 791l136 139h85l81 -139h-73l-61 83l-94 -83h-74z" glyph-name="Ocircumflex" horiz-adv-x="693" unicode="Ô"/>
<glyph d="M344 -6q-56 0 -102 9.5t-79 34t-50.5 69t-17.5 116.5q0 34 4 76t11 87q17 106 45 176t70.5 109.5t101.5 56t138 16.5q55 0 100.5 -9.5t78.5 -35.5t51 -73t18 -121q0 -32 -4 -74t-11 -88q-17 -108 -45.5 -177t-70.5 -106t-101 -51.5t-137 -14.5zM364 106q48 0 83 12.5 t59 41t40.5 78t28.5 123.5q7 43 10.5 80t3.5 63q0 54 -16 81.5t-47.5 37.5t-78.5 10t-81.5 -11.5t-59 -40t-42.5 -80.5t-30 -133q-7 -41 -11 -78t-4 -62q0 -49 15 -75.5t47.5 -36.5t82.5 -10zM301 800q15 66 48 91.5t72 25.5q23 0 42 -7t36.5 -16.5t33.5 -16.5t32 -7 q22 0 36.5 13.5t18.5 37.5h62q-14 -61 -43 -90.5t-75 -29.5q-22 0 -41.5 7t-37.5 16.5t-34.5 16.5t-32.5 7q-21 0 -35.5 -13t-19.5 -35h-62z" glyph-name="Otilde" horiz-adv-x="693" unicode="Õ"/>
<glyph d="M344 -6q-56 0 -102 9.5t-79 34t-50.5 69t-17.5 116.5q0 34 4 76t11 87q17 106 45 176t70.5 109.5t101.5 56t138 16.5q55 0 100.5 -9.5t78.5 -35.5t51 -73t18 -121q0 -32 -4 -74t-11 -88q-17 -108 -45.5 -177t-70.5 -106t-101 -51.5t-137 -14.5zM364 106q48 0 83 12.5 t59 41t40.5 78t28.5 123.5q7 43 10.5 80t3.5 63q0 54 -16 81.5t-47.5 37.5t-78.5 10t-81.5 -11.5t-59 -40t-42.5 -80.5t-30 -133q-7 -41 -11 -78t-4 -62q0 -49 15 -75.5t47.5 -36.5t82.5 -10zM537 803q-16 0 -16 15q0 1 0.5 5t4 24t10.5 65q3 20 21 20h58q16 0 16 -15 l-0.5 -5t-4 -24.5t-10.5 -65.5q-3 -19 -22 -19h-57zM335 803q-16 0 -16 15q0 1 1 5t4 24t10 65q3 20 22 20h57q16 0 16 -15l-0.5 -5t-4 -24.5t-10.5 -65.5q-2 -19 -22 -19h-57z" glyph-name="Odieresis" horiz-adv-x="693" unicode="Ö"/>
<glyph d="M209 162l-60 71l367 317l60 -71zM455 162l-267 317l82 71l267 -317z" glyph-name="multiply" unicode="×"/>
<glyph d="M47 0l646 738h72l-646 -738h-72zM344 -6q-56 0 -102 9.5t-79 34t-50.5 69t-17.5 116.5q0 34 4 76t11 87q17 106 45 176t70.5 109.5t101.5 56t138 16.5q55 0 100.5 -9.5t78.5 -35.5t51 -73t18 -121q0 -32 -4 -74t-11 -88q-17 -108 -45.5 -177t-70.5 -106t-101 -51.5 t-137 -14.5zM364 106q48 0 83 12.5t59 41t40.5 78t28.5 123.5q7 43 10.5 80t3.5 63q0 54 -16 81.5t-47.5 37.5t-78.5 10t-81.5 -11.5t-59 -40t-42.5 -80.5t-30 -133q-7 -41 -11 -78t-4 -62q0 -49 15 -75.5t47.5 -36.5t82.5 -10z" glyph-name="Oslash" horiz-adv-x="696" unicode="Ø"/>
<glyph d="M343 -6q-117 0 -177 50t-60 167q0 26 3.5 59t9.5 68l63 400h124l-66 -418q-4 -28 -7 -54t-3 -46q0 -61 31 -88t98 -27q38 0 68 8.5t52.5 31t39 65t27.5 110.5l66 418h124l-69 -436q-16 -99 -44 -160t-68.5 -93t-93 -43.5t-118.5 -11.5zM442 791l-96 139h101l68 -139h-73z " glyph-name="Ugrave" horiz-adv-x="684" unicode="Ù"/>
<glyph d="M343 -6q-117 0 -177 50t-60 167q0 26 3.5 59t9.5 68l63 400h124l-66 -418q-4 -28 -7 -54t-3 -46q0 -61 31 -88t98 -27q38 0 68 8.5t52.5 31t39 65t27.5 110.5l66 418h124l-69 -436q-16 -99 -44 -160t-68.5 -93t-93 -43.5t-118.5 -11.5zM412 791l106 139h107l-135 -139 h-78z" glyph-name="Uacute" horiz-adv-x="684" unicode="Ú"/>
<glyph d="M343 -6q-117 0 -177 50t-60 167q0 26 3.5 59t9.5 68l63 400h124l-66 -418q-4 -28 -7 -54t-3 -46q0 -61 31 -88t98 -27q38 0 68 8.5t52.5 31t39 65t27.5 110.5l66 418h124l-69 -436q-16 -99 -44 -160t-68.5 -93t-93 -43.5t-118.5 -11.5zM297 791l136 139h85l81 -139h-73 l-61 83l-94 -83h-74z" glyph-name="Ucircumflex" horiz-adv-x="684" unicode="Û"/>
<glyph d="M343 -6q-117 0 -177 50t-60 167q0 26 3.5 59t9.5 68l63 400h124l-66 -418q-4 -28 -7 -54t-3 -46q0 -61 31 -88t98 -27q38 0 68 8.5t52.5 31t39 65t27.5 110.5l66 418h124l-69 -436q-16 -99 -44 -160t-68.5 -93t-93 -43.5t-118.5 -11.5zM523 803q-16 0 -16 15q0 1 0.5 5 t4 24t10.5 65q3 20 21 20h58q16 0 16 -15l-0.5 -5t-4 -24.5t-10.5 -65.5q-3 -19 -22 -19h-57zM321 803q-16 0 -16 15q0 1 1 5t4 24t10 65q3 20 22 20h57q16 0 16 -15l-0.5 -5t-4 -24.5t-10.5 -65.5q-2 -19 -22 -19h-57z" glyph-name="Udieresis" horiz-adv-x="684" unicode="Ü"/>
<glyph d="M246 0l36 225l-147 513h136l93 -378l225 378h141l-324 -513l-36 -225h-124zM388 791l106 139h107l-135 -139h-78z" glyph-name="Yacute" horiz-adv-x="631" unicode="Ý"/>
<glyph d="M65 0l117 738h124l-117 -738h-124zM354 148q-43 0 -86 6t-81 12l15 94h136q32 0 57.5 11t43.5 34.5t24 62.5q2 14 3.5 28.5t1.5 21.5q0 44 -24 61.5t-68 17.5h-143l17 111h150q55 0 98.5 -15.5t69.5 -54.5t26 -108q0 -14 -2.5 -36t-5.5 -39q-9 -60 -32.5 -100.5 t-56 -63.5t-69.5 -33t-74 -10z" glyph-name="Thorn" horiz-adv-x="563" unicode="Þ"/>
<glyph d="M398 -6q-46 0 -87 4.5t-64 10.5l12 83q31 -2 61.5 -3t62.5 -1q34 0 52.5 8.5t26.5 21t10 24.5q2 10 2.5 16.5t0.5 11.5q0 18 -13 30.5t-31.5 23.5t-37.5 24.5t-32 33t-13 50.5q0 30 14.5 57t35.5 51t42 47.5t35 47t14 48.5q0 37 -25.5 56.5t-70.5 19.5q-57 0 -89.5 -35 t-46.5 -120l-80 -504h-124l89 557q9 63 41.5 110.5t87.5 74.5t133 27q72 0 115.5 -23.5t63.5 -61.5t20 -81q0 -34 -13.5 -62.5t-32.5 -52t-39 -43.5t-33 -39.5t-13 -38.5q0 -18 12.5 -31t31 -25.5t37 -27t31 -35t12.5 -51.5q0 -6 -1 -18t-7 -45q-7 -42 -26 -69t-46 -43 t-58 -22t-60 -6z" glyph-name="germandbls" horiz-adv-x="598" unicode="ß"/>
<glyph d="M226 -6q-41 0 -75 19t-54.5 59.5t-20.5 104.5q0 28 4 58t7 51q14 87 47 143.5t90.5 84.5t143.5 28q42 0 83.5 -7.5t76.5 -21.5t59 -33l-76 -480h-109l-6 55q-14 -11 -42 -25.5t-61.5 -25t-66.5 -10.5zM284 94q38 0 68 13.5t56 28.5l45 285q-11 6 -35 13.5t-56 7.5 q-49 0 -79.5 -19t-48 -55.5t-26.5 -91.5q-4 -24 -6 -44t-2 -33q0 -48 21.5 -76.5t62.5 -28.5zM364 631l-96 139h101l68 -139h-73z" glyph-name="agrave" horiz-adv-x="568" unicode="à"/>
<glyph d="M226 -6q-41 0 -75 19t-54.5 59.5t-20.5 104.5q0 28 4 58t7 51q14 87 47 143.5t90.5 84.5t143.5 28q42 0 83.5 -7.5t76.5 -21.5t59 -33l-76 -480h-109l-6 55q-14 -11 -42 -25.5t-61.5 -25t-66.5 -10.5zM284 94q38 0 68 13.5t56 28.5l45 285q-11 6 -35 13.5t-56 7.5 q-49 0 -79.5 -19t-48 -55.5t-26.5 -91.5q-4 -24 -6 -44t-2 -33q0 -48 21.5 -76.5t62.5 -28.5zM341 631l106 139h107l-135 -139h-78z" glyph-name="aacute" horiz-adv-x="568" unicode="á"/>
<glyph d="M226 -6q-41 0 -75 19t-54.5 59.5t-20.5 104.5q0 28 4 58t7 51q14 87 47 143.5t90.5 84.5t143.5 28q42 0 83.5 -7.5t76.5 -21.5t59 -33l-76 -480h-109l-6 55q-14 -11 -42 -25.5t-61.5 -25t-66.5 -10.5zM284 94q38 0 68 13.5t56 28.5l45 285q-11 6 -35 13.5t-56 7.5 q-49 0 -79.5 -19t-48 -55.5t-26.5 -91.5q-4 -24 -6 -44t-2 -33q0 -48 21.5 -76.5t62.5 -28.5zM230 631l136 139h85l81 -139h-73l-61 83l-94 -83h-74z" glyph-name="acircumflex" horiz-adv-x="568" unicode="â"/>
<glyph d="M226 -6q-41 0 -75 19t-54.5 59.5t-20.5 104.5q0 28 4 58t7 51q14 87 47 143.5t90.5 84.5t143.5 28q42 0 83.5 -7.5t76.5 -21.5t59 -33l-76 -480h-109l-6 55q-14 -11 -42 -25.5t-61.5 -25t-66.5 -10.5zM284 94q38 0 68 13.5t56 28.5l45 285q-11 6 -35 13.5t-56 7.5 q-49 0 -79.5 -19t-48 -55.5t-26.5 -91.5q-4 -24 -6 -44t-2 -33q0 -48 21.5 -76.5t62.5 -28.5zM205 640q15 66 48 91.5t72 25.5q23 0 42 -7t36.5 -16.5t33.5 -16.5t32 -7q22 0 36.5 13.5t18.5 37.5h62q-14 -61 -43 -90.5t-75 -29.5q-22 0 -41.5 7t-37.5 16.5t-34.5 16.5 t-32.5 7q-21 0 -35.5 -13t-19.5 -35h-62z" glyph-name="atilde" horiz-adv-x="568" unicode="ã"/>
<glyph d="M226 -6q-41 0 -75 19t-54.5 59.5t-20.5 104.5q0 28 4 58t7 51q14 87 47 143.5t90.5 84.5t143.5 28q42 0 83.5 -7.5t76.5 -21.5t59 -33l-76 -480h-109l-6 55q-14 -11 -42 -25.5t-61.5 -25t-66.5 -10.5zM284 94q38 0 68 13.5t56 28.5l45 285q-11 6 -35 13.5t-56 7.5 q-49 0 -79.5 -19t-48 -55.5t-26.5 -91.5q-4 -24 -6 -44t-2 -33q0 -48 21.5 -76.5t62.5 -28.5zM450 643q-16 0 -16 15q0 1 0.5 5t4 24t10.5 65q3 20 21 20h58q16 0 16 -15l-0.5 -5t-4 -24.5t-10.5 -65.5q-3 -19 -22 -19h-57zM248 643q-16 0 -16 15q0 1 1 5t4 24t10 65 q3 20 22 20h57q16 0 16 -15l-0.5 -5t-4 -24.5t-10.5 -65.5q-2 -19 -22 -19h-57z" glyph-name="adieresis" horiz-adv-x="568" unicode="ä"/>
<glyph d="M226 -6q-41 0 -75 19t-54.5 59.5t-20.5 104.5q0 28 4 58t7 51q14 87 47 143.5t90.5 84.5t143.5 28q42 0 83.5 -7.5t76.5 -21.5t59 -33l-76 -480h-109l-6 55q-14 -11 -42 -25.5t-61.5 -25t-66.5 -10.5zM284 94q38 0 68 13.5t56 28.5l45 285q-11 6 -35 13.5t-56 7.5 q-49 0 -79.5 -19t-48 -55.5t-26.5 -91.5q-4 -24 -6 -44t-2 -33q0 -48 21.5 -76.5t62.5 -28.5zM389 588q-49 0 -78.5 21t-29.5 74q0 35 16 63.5t46.5 46.5t74.5 18q49 0 77.5 -21.5t28.5 -72.5q0 -54 -34.5 -91.5t-100.5 -37.5zM394 635q37 0 54 24t17 55q0 28 -15.5 39 t-36.5 11q-38 0 -55.5 -24t-17.5 -55q0 -28 15.5 -39t38.5 -11z" glyph-name="aring" horiz-adv-x="568" unicode="å"/>
<glyph d="M227 -6q-41 0 -75 18t-53.5 58t-19.5 106q0 92 19.5 161t56.5 114.5t89 68t118 22.5q26 0 57 -4.5t61.5 -13.5t54.5 -24q13 11 33.5 19.5t43.5 13.5t44.5 7.5t36.5 2.5q103 0 155 -39.5t52 -122.5q0 -53 -25.5 -91.5t-75.5 -59.5t-127 -21q-28 0 -56.5 2t-50 5t-29.5 6 q-1 -15 -1.5 -24t-0.5 -20q0 -29 9.5 -49.5t35.5 -31.5t71 -11h193l-12 -73q-30 -6 -68 -10t-80 -6.5t-81 -2.5t-72.5 10t-57 28t-34.5 43q-30 -22 -64 -40.5t-70.5 -29.5t-76.5 -11zM278 95q27 0 53 9.5t48.5 24t35.5 29.5q-1 8 -1.5 18t-0.5 20q0 37 5.5 76.5t17 77.5 t29.5 69q-14 7 -39.5 15t-53.5 8q-48 0 -81.5 -20t-52.5 -54t-27.5 -77.5t-8.5 -91.5t18 -76t58 -28zM641 280q73 0 108 23.5t35 64.5q0 39 -22.5 59.5t-64.5 20.5q-40 0 -66.5 -10.5t-43 -31.5t-26 -51t-16.5 -68q3 -1 17 -2.5t35 -3t44 -1.5z" glyph-name="ae" horiz-adv-x="883" unicode="æ"/>
<glyph d="M272 -6q-58 0 -102 18t-67.5 61t-23.5 121q0 18 2.5 42.5t6.5 52.5q15 93 49 148t85 80t115 25q42 0 90 -7t91 -17l-12 -72h-142q-44 0 -74.5 -18t-50 -57.5t-30.5 -103.5q-4 -21 -5.5 -36.5t-1.5 -25.5q0 -44 12.5 -69.5t37 -36.5t59.5 -11h148l-11 -70 q-33 -11 -75.5 -17.5t-100.5 -6.5zM136 -199l8 51l20 2q19 3 30.5 10.5t16.5 17.5t5 17q0 12 -9.5 21t-37.5 12l52 12q34 0 54 -13.5t20 -44.5q0 -20 -12.5 -39.5t-38 -32.5t-65.5 -13h-43zM169 -68l64 80h57l-65 -80h-56z" glyph-name="ccedilla" horiz-adv-x="477" unicode="ç"/>
<glyph d="M293 -6q-77 0 -124 22.5t-68.5 66.5t-21.5 107q0 28 3 54.5t7 51.5q13 85 48 139.5t92.5 81t136.5 26.5q41 0 77 -7t63.5 -24t43.5 -47.5t16 -76.5q0 -55 -19 -90.5t-52.5 -54.5t-76.5 -26.5t-90 -7.5q-40 0 -73 3.5t-51 8.5q-2 -11 -2.5 -22.5t-0.5 -22.5 q0 -47 32.5 -68.5t107.5 -21.5h168l-12 -73q-36 -7 -90 -13t-114 -6zM294 280q52 0 86.5 9t52.5 30t18 56q0 38 -23 55.5t-70 17.5q-46 0 -75.5 -18.5t-46 -54.5t-24.5 -88q17 -3 38.5 -5t43.5 -2zM363 631l-96 139h101l68 -139h-73z" glyph-name="egrave" horiz-adv-x="548" unicode="è"/>
<glyph d="M293 -6q-77 0 -124 22.5t-68.5 66.5t-21.5 107q0 28 3 54.5t7 51.5q13 85 48 139.5t92.5 81t136.5 26.5q41 0 77 -7t63.5 -24t43.5 -47.5t16 -76.5q0 -55 -19 -90.5t-52.5 -54.5t-76.5 -26.5t-90 -7.5q-40 0 -73 3.5t-51 8.5q-2 -11 -2.5 -22.5t-0.5 -22.5 q0 -47 32.5 -68.5t107.5 -21.5h168l-12 -73q-36 -7 -90 -13t-114 -6zM294 280q52 0 86.5 9t52.5 30t18 56q0 38 -23 55.5t-70 17.5q-46 0 -75.5 -18.5t-46 -54.5t-24.5 -88q17 -3 38.5 -5t43.5 -2zM339 631l106 139h107l-135 -139h-78z" glyph-name="eacute" horiz-adv-x="548" unicode="é"/>
<glyph d="M293 -6q-77 0 -124 22.5t-68.5 66.5t-21.5 107q0 28 3 54.5t7 51.5q13 85 48 139.5t92.5 81t136.5 26.5q41 0 77 -7t63.5 -24t43.5 -47.5t16 -76.5q0 -55 -19 -90.5t-52.5 -54.5t-76.5 -26.5t-90 -7.5q-40 0 -73 3.5t-51 8.5q-2 -11 -2.5 -22.5t-0.5 -22.5 q0 -47 32.5 -68.5t107.5 -21.5h168l-12 -73q-36 -7 -90 -13t-114 -6zM294 280q52 0 86.5 9t52.5 30t18 56q0 38 -23 55.5t-70 17.5q-46 0 -75.5 -18.5t-46 -54.5t-24.5 -88q17 -3 38.5 -5t43.5 -2zM228 631l136 139h85l81 -139h-73l-61 83l-94 -83h-74z" glyph-name="ecircumflex" horiz-adv-x="548" unicode="ê"/>
<glyph d="M293 -6q-77 0 -124 22.5t-68.5 66.5t-21.5 107q0 28 3 54.5t7 51.5q13 85 48 139.5t92.5 81t136.5 26.5q41 0 77 -7t63.5 -24t43.5 -47.5t16 -76.5q0 -55 -19 -90.5t-52.5 -54.5t-76.5 -26.5t-90 -7.5q-40 0 -73 3.5t-51 8.5q-2 -11 -2.5 -22.5t-0.5 -22.5 q0 -47 32.5 -68.5t107.5 -21.5h168l-12 -73q-36 -7 -90 -13t-114 -6zM294 280q52 0 86.5 9t52.5 30t18 56q0 38 -23 55.5t-70 17.5q-46 0 -75.5 -18.5t-46 -54.5t-24.5 -88q17 -3 38.5 -5t43.5 -2zM449 643q-16 0 -16 15q0 1 0.5 5t4 24t10.5 65q3 20 21 20h58q16 0 16 -15 l-0.5 -5t-4 -24.5t-10.5 -65.5q-3 -19 -22 -19h-57zM247 643q-16 0 -16 15q0 1 1 5t4 24t10 65q3 20 22 20h57q16 0 16 -15l-0.5 -5t-4 -24.5t-10.5 -65.5q-2 -19 -22 -19h-57z" glyph-name="edieresis" horiz-adv-x="548" unicode="ë"/>
<glyph d="M59 0l85 536h124l-85 -536h-124zM206 631l-96 139h101l68 -139h-73z" glyph-name="igrave" horiz-adv-x="241" unicode="ì"/>
<glyph d="M59 0l85 536h124l-85 -536h-124zM183 631l106 139h107l-135 -139h-78z" glyph-name="iacute" horiz-adv-x="241" unicode="í"/>
<glyph d="M59 0l85 536h124l-85 -536h-124zM72 631l136 139h85l81 -139h-73l-61 83l-94 -83h-74z" glyph-name="icircumflex" horiz-adv-x="241" unicode="î"/>
<glyph d="M59 0l85 536h124l-85 -536h-124zM292 643q-16 0 -16 15q0 1 0.5 5t4 24t10.5 65q3 20 21 20h58q16 0 16 -15l-0.5 -5t-4 -24.5t-10.5 -65.5q-3 -19 -22 -19h-57zM90 643q-16 0 -16 15q0 1 1 5t4 24t10 65q3 20 22 20h57q16 0 16 -15l-0.5 -5t-4 -24.5t-10.5 -65.5 q-2 -19 -22 -19h-57z" glyph-name="idieresis" horiz-adv-x="241" unicode="ï"/>
<glyph d="M85 267q13 81 34 132.5t51.5 79.5t72.5 39.5t98 11.5q55 0 96.5 -20t64.5 -56.5t23 -86.5q11 -30 22.5 -60.5t20.5 -58.5q-15 -101 -49 -156t-91 -76.5t-143 -21.5q-66 0 -112 20t-70 60.5t-24 104.5q0 24 1.5 45t4.5 43zM206 249q-2 -19 -3.5 -35t-1.5 -30 q0 -36 12 -55.5t33.5 -27t52.5 -7.5q32 0 56 7t40.5 24.5t28.5 51t20 86.5q4 24 6 45t2 39q0 47 -23.5 66t-76.5 19q-33 0 -57.5 -7.5t-40.5 -27.5t-27.5 -56t-20.5 -92zM232 763q116 0 195 -32t119 -101t40 -183q0 -43 -4.5 -93t-13.5 -106l-95 64q6 39 9 74.5t3 64.5 q0 88 -30 138t-89 71t-148 21zM609 759l10 -40l-366 -145l-12 41z" glyph-name="eth" horiz-adv-x="571" unicode="ð"/>
<glyph d="M59 0l84 536h102l13 -56q38 26 87 44.5t107 18.5q46 0 76.5 -16t45 -43.5t14.5 -63.5q0 -15 -1.5 -35.5t-8.5 -68.5l-51 -316h-123l49 312q3 24 4.5 35t1.5 18q0 29 -17 48t-59 19q-40 0 -73 -13t-66 -36l-61 -383h-124zM213 640q15 66 48 91.5t72 25.5q23 0 42 -7 t36.5 -16.5t33.5 -16.5t32 -7q22 0 36.5 13.5t18.5 37.5h62q-14 -61 -43 -90.5t-75 -29.5q-22 0 -41.5 7t-37.5 16.5t-34.5 16.5t-32.5 7q-21 0 -35.5 -13t-19.5 -35h-62z" glyph-name="ntilde" horiz-adv-x="585" unicode="ñ"/>
<glyph d="M285 -6q-66 0 -112 20t-70 60.5t-24 104.5q0 27 2 51.5t6 48.5q13 81 35 132t56 79.5t81.5 40t111.5 11.5q81 0 125.5 -21t62 -64t17.5 -108q0 -24 -2 -51t-7 -56q-15 -98 -49 -152t-90.5 -75t-142.5 -21zM299 94q32 0 56 7t40.5 24.5t28 50.5t20.5 84q4 29 6.5 51.5 t2.5 42.5q0 50 -23 70t-76 20q-34 0 -57.5 -8t-40.5 -27.5t-28 -56t-20 -92.5q-3 -22 -5 -40.5t-2 -35.5q0 -36 12 -55.5t33.5 -27t52.5 -7.5zM361 631l-96 139h101l68 -139h-73z" glyph-name="ograve" horiz-adv-x="571" unicode="ò"/>
<glyph d="M285 -6q-66 0 -112 20t-70 60.5t-24 104.5q0 27 2 51.5t6 48.5q13 81 35 132t56 79.5t81.5 40t111.5 11.5q81 0 125.5 -21t62 -64t17.5 -108q0 -24 -2 -51t-7 -56q-15 -98 -49 -152t-90.5 -75t-142.5 -21zM299 94q32 0 56 7t40.5 24.5t28 50.5t20.5 84q4 29 6.5 51.5 t2.5 42.5q0 50 -23 70t-76 20q-34 0 -57.5 -8t-40.5 -27.5t-28 -56t-20 -92.5q-3 -22 -5 -40.5t-2 -35.5q0 -36 12 -55.5t33.5 -27t52.5 -7.5zM338 631l106 139h107l-135 -139h-78z" glyph-name="oacute" horiz-adv-x="571" unicode="ó"/>
<glyph d="M285 -6q-66 0 -112 20t-70 60.5t-24 104.5q0 27 2 51.5t6 48.5q13 81 35 132t56 79.5t81.5 40t111.5 11.5q81 0 125.5 -21t62 -64t17.5 -108q0 -24 -2 -51t-7 -56q-15 -98 -49 -152t-90.5 -75t-142.5 -21zM299 94q32 0 56 7t40.5 24.5t28 50.5t20.5 84q4 29 6.5 51.5 t2.5 42.5q0 50 -23 70t-76 20q-34 0 -57.5 -8t-40.5 -27.5t-28 -56t-20 -92.5q-3 -22 -5 -40.5t-2 -35.5q0 -36 12 -55.5t33.5 -27t52.5 -7.5zM227 631l136 139h85l81 -139h-73l-61 83l-94 -83h-74z" glyph-name="ocircumflex" horiz-adv-x="571" unicode="ô"/>
<glyph d="M285 -6q-66 0 -112 20t-70 60.5t-24 104.5q0 27 2 51.5t6 48.5q13 81 35 132t56 79.5t81.5 40t111.5 11.5q81 0 125.5 -21t62 -64t17.5 -108q0 -24 -2 -51t-7 -56q-15 -98 -49 -152t-90.5 -75t-142.5 -21zM299 94q32 0 56 7t40.5 24.5t28 50.5t20.5 84q4 29 6.5 51.5 t2.5 42.5q0 50 -23 70t-76 20q-34 0 -57.5 -8t-40.5 -27.5t-28 -56t-20 -92.5q-3 -22 -5 -40.5t-2 -35.5q0 -36 12 -55.5t33.5 -27t52.5 -7.5zM202 640q15 66 48 91.5t72 25.5q23 0 42 -7t36.5 -16.5t33.5 -16.5t32 -7q22 0 36.5 13.5t18.5 37.5h62q-14 -61 -43 -90.5 t-75 -29.5q-22 0 -41.5 7t-37.5 16.5t-34.5 16.5t-32.5 7q-21 0 -35.5 -13t-19.5 -35h-62z" glyph-name="otilde" horiz-adv-x="571" unicode="õ"/>
<glyph d="M285 -6q-66 0 -112 20t-70 60.5t-24 104.5q0 27 2 51.5t6 48.5q13 81 35 132t56 79.5t81.5 40t111.5 11.5q81 0 125.5 -21t62 -64t17.5 -108q0 -24 -2 -51t-7 -56q-15 -98 -49 -152t-90.5 -75t-142.5 -21zM299 94q32 0 56 7t40.5 24.5t28 50.5t20.5 84q4 29 6.5 51.5 t2.5 42.5q0 50 -23 70t-76 20q-34 0 -57.5 -8t-40.5 -27.5t-28 -56t-20 -92.5q-3 -22 -5 -40.5t-2 -35.5q0 -36 12 -55.5t33.5 -27t52.5 -7.5zM447 643q-16 0 -16 15q0 1 0.5 5t4 24t10.5 65q3 20 21 20h58q16 0 16 -15l-0.5 -5t-4 -24.5t-10.5 -65.5q-3 -19 -22 -19h-57z M245 643q-16 0 -16 15q0 1 1 5t4 24t10 65q3 20 22 20h57q16 0 16 -15l-0.5 -5t-4 -24.5t-10.5 -65.5q-2 -19 -22 -19h-57z" glyph-name="odieresis" horiz-adv-x="571" unicode="ö"/>
<glyph d="M285 95q-23 0 -20 23l11 68q5 25 28 25h70q26 0 21 -25l-10 -68q-2 -13 -10 -18t-19 -5h-71zM350 501q-10 0 -16 6.5t-4 16.5l11 68q3 25 28 25h70q24 0 21 -25l-11 -68q-2 -13 -9.5 -18t-18.5 -5h-71zM129 306l16 100h448l-16 -100h-448z" glyph-name="divide" unicode="÷"/>
<glyph d="M38 0l518 536h59l-518 -536h-59zM285 -6q-66 0 -112 20t-70 60.5t-24 104.5q0 27 2 51.5t6 48.5q13 81 35 132t56 79.5t81.5 40t111.5 11.5q81 0 125.5 -21t62 -64t17.5 -108q0 -24 -2 -51t-7 -56q-15 -98 -49 -152t-90.5 -75t-142.5 -21zM299 94q32 0 56 7t40.5 24.5 t28 50.5t20.5 84q4 29 6.5 51.5t2.5 42.5q0 50 -23 70t-76 20q-34 0 -57.5 -8t-40.5 -27.5t-28 -56t-20 -92.5q-3 -22 -5 -40.5t-2 -35.5q0 -36 12 -55.5t33.5 -27t52.5 -7.5z" glyph-name="oslash" horiz-adv-x="568" unicode="ø"/>
<glyph d="M215 -6q-69 0 -101.5 33.5t-32.5 92.5q0 19 1.5 33.5t3.5 27.5l56 355h124l-53 -341q-1 -6 -1.5 -12t-0.5 -14q0 -33 19 -48.5t55 -15.5q42 0 75 13t66 35l61 383h124l-85 -536h-109l-6 56q-29 -19 -57.5 -33t-61.5 -21.5t-77 -7.5zM378 631l-96 139h101l68 -139h-73z " glyph-name="ugrave" horiz-adv-x="585" unicode="ù"/>
<glyph d="M215 -6q-69 0 -101.5 33.5t-32.5 92.5q0 19 1.5 33.5t3.5 27.5l56 355h124l-53 -341q-1 -6 -1.5 -12t-0.5 -14q0 -33 19 -48.5t55 -15.5q42 0 75 13t66 35l61 383h124l-85 -536h-109l-6 56q-29 -19 -57.5 -33t-61.5 -21.5t-77 -7.5zM354 631l106 139h107l-135 -139h-78z " glyph-name="uacute" horiz-adv-x="585" unicode="ú"/>
<glyph d="M215 -6q-69 0 -101.5 33.5t-32.5 92.5q0 19 1.5 33.5t3.5 27.5l56 355h124l-53 -341q-1 -6 -1.5 -12t-0.5 -14q0 -33 19 -48.5t55 -15.5q42 0 75 13t66 35l61 383h124l-85 -536h-109l-6 56q-29 -19 -57.5 -33t-61.5 -21.5t-77 -7.5zM243 631l136 139h85l81 -139h-73 l-61 83l-94 -83h-74z" glyph-name="ucircumflex" horiz-adv-x="585" unicode="û"/>
<glyph d="M215 -6q-69 0 -101.5 33.5t-32.5 92.5q0 19 1.5 33.5t3.5 27.5l56 355h124l-53 -341q-1 -6 -1.5 -12t-0.5 -14q0 -33 19 -48.5t55 -15.5q42 0 75 13t66 35l61 383h124l-85 -536h-109l-6 56q-29 -19 -57.5 -33t-61.5 -21.5t-77 -7.5zM464 643q-16 0 -16 15q0 1 0.5 5t4 24 t10.5 65q3 20 21 20h58q16 0 16 -15l-0.5 -5t-4 -24.5t-10.5 -65.5q-3 -19 -22 -19h-57zM262 643q-16 0 -16 15q0 1 1 5t4 24t10 65q3 20 22 20h57q16 0 16 -15l-0.5 -5t-4 -24.5t-10.5 -65.5q-2 -19 -22 -19h-57z" glyph-name="udieresis" horiz-adv-x="585" unicode="ü"/>
<glyph d="M96 -237v89q57 12 104 45t81 103q-42 4 -69.5 18.5t-43 43t-22.5 75.5l-53 399h128l35 -372q4 -25 13.5 -38t23 -18t27.5 -6l135 317q11 27 20.5 59.5t11.5 65.5h115q0 -48 -12.5 -99.5t-40.5 -109.5l-156 -329q-40 -86 -85 -137t-97 -75.5t-115 -30.5zM326 631l106 139 h107l-135 -139h-78z" glyph-name="yacute" horiz-adv-x="569" unicode="ý"/>
<glyph d="M20 -237l159 1000h125l-36 -226q27 2 60.5 3.5t72.5 1.5q93 0 134 -47t41 -142q0 -25 -2.5 -52t-7.5 -54q-13 -83 -46 -139.5t-84 -85t-119 -28.5q-38 0 -71.5 5.5t-60.5 19.5l-40 -256h-125zM302 99q43 0 72 18.5t46.5 57t27.5 97.5q2 14 4 29.5t2 30.5q0 55 -20.5 82.5 t-66.5 27.5l-115 -1l-51 -324q18 -6 33 -10t31 -6t37 -2z" glyph-name="thorn" horiz-adv-x="572" unicode="þ"/>
<glyph d="M59 0l85 536h124l-85 -536h-124z" glyph-name="dotlessi" horiz-adv-x="241" unicode="ı"/>
<glyph d="M144 631l136 139h85l81 -139h-73l-61 83l-94 -83h-74z" glyph-name="circumflex" horiz-adv-x="390" unicode="ˆ"/>
<glyph d="M261 588q-49 0 -78.5 21t-29.5 74q0 35 16 63.5t46.5 46.5t74.5 18q49 0 77.5 -21.5t28.5 -72.5q0 -54 -34.5 -91.5t-100.5 -37.5zM266 635q37 0 54 24t17 55q0 28 -15.5 39t-36.5 11q-38 0 -55.5 -24t-17.5 -55q0 -28 15.5 -39t38.5 -11z" glyph-name="ring" horiz-adv-x="327" unicode="˚"/>
<glyph d="M140 640q15 66 48 91.5t72 25.5q23 0 42 -7t36.5 -16.5t33.5 -16.5t32 -7q22 0 36.5 13.5t18.5 37.5h62q-14 -61 -43 -90.5t-75 -29.5q-22 0 -41.5 7t-37.5 16.5t-34.5 16.5t-32.5 7q-21 0 -35.5 -13t-19.5 -35h-62z" glyph-name="tilde" horiz-adv-x="432" unicode="˜"/>
<glyph d="M-200 643q-16 0 -16 15q0 1 0.5 5t4 24t10.5 65q3 20 21 20h58q16 0 16 -15l-0.5 -5t-4 -24.5t-10.5 -65.5q-3 -19 -22 -19h-57zM-402 643q-16 0 -16 15q0 1 1 5t4 24t10 65q3 20 22 20h57q16 0 16 -15l-0.5 -5t-4 -24.5t-10.5 -65.5q-2 -19 -22 -19h-57z" glyph-name="uni0308" horiz-adv-x="0" unicode="̈"/>
<glyph d="M260 -6q-32 0 -63 10.5t-55.5 30t-38.5 48.5t-14 66q0 9 0.5 18.5t1.5 18.5l56 350h124l-55 -343q0 -6 -0.5 -12.5t-0.5 -12.5q0 -37 22 -50.5t57 -13.5q39 0 71.5 11t64.5 32l62 389h123l-84 -536h-101l-8 56q-33 -28 -73 -45t-89 -17zM20 -269l80 509h124l-80 -509 h-124z" glyph-name="uni03BC" horiz-adv-x="593" unicode="μ"/>
<glyph d="M267 62l-188 220l252 214l54 -62l-180 -153l133 -155z" glyph-name="guilsinglleft" horiz-adv-x="367" unicode="‹"/>
<glyph d="M110 62l-51 64l180 154l-132 155l73 61l185 -217z" glyph-name="guilsinglright" horiz-adv-x="367" unicode="›"/>
<glyph d="M7 0l496 770h86l-497 -770h-85z" glyph-name="fraction" horiz-adv-x="543" unicode="⁄"/>
<glyph d="M309 355l17 103h-218l-11 47l215 337h102l-192 -301h116l15 95l29 56h80l-24 -151h52l-12 -67l-53 -16l-17 -103h-99z" glyph-name="uni2074" horiz-adv-x="417" unicode="⁴"/>
<glyph d="M129 306l16 100h448l-16 -100h-448z" glyph-name="minus" unicode="−"/>
</font>
</defs>
</svg>
