<?xml version="1.0" encoding="UTF-8"?>
<!DOCTYPE svg  PUBLIC '-//W3C//DTD SVG 1.1//EN'  'http://www.w3.org/Graphics/SVG/1.1/DTD/svg11.dtd'>
<svg version="1.1" xmlns="http://www.w3.org/2000/svg">
<defs>
<font id="Exo-ExtraBoldItalic" horiz-adv-x="609">
<font-face font-family="Exo ExtraBold" font-style="italic" font-weight="800" ascent="800" bbox="-427 -270 1143 994" cap-height="742" descent="-200" panose-1="0 0 0 0 0 0 0 0 0 0" slope="-9" underline-position="-125" underline-thickness="50" unicode-range="U+0020-2212" units-per-em="1000" x-height="538"/>
<missing-glyph/>
<glyph glyph-name="space" horiz-adv-x="248" unicode=" "/>
<glyph d="M104 205l64 536h173l-109 -536h-128zM87 -2q-20 0 -20 18v2v2l18 110q3 23 26 23h101q19 0 19 -16v-3v-4l-18 -110q-1 -12 -8.5 -17t-17.5 -5h-100z" glyph-name="exclam" horiz-adv-x="275" unicode="!"/>
<glyph d="M122 494l20 196l10 67h165l-10 -67l-40 -196h-145zM325 494l20 196l10 67h165l-10 -67l-40 -196h-145z" glyph-name="quotedbl" horiz-adv-x="441" unicode='"'/>
<glyph d="M122 0l69 198h-147l37 117h151l34 101h-153l38 117h157l68 199h117l-68 -199h100l68 199h117l-68 -199h168l-35 -117h-170l-34 -101h169l-34 -117h-180l-69 -198h-117l69 198h-101l-69 -198h-117zM349 315h105l34 101h-105z" glyph-name="numbersign" horiz-adv-x="737" unicode="#"/>
<glyph d="M369 720l12 93l96 11l-12 -93zM238 -90l16 101h97l-16 -101h-97zM308 -6q-57 0 -103.5 4t-83 10t-62.5 13l21 137q46 -4 106 -6.5t118 -2.5q40 0 65 5.5t37.5 18.5t16.5 36l3 18q1 4 1 8v8q0 23 -18 33t-58 10h-49q-88 0 -136.5 46.5t-48.5 120.5q0 20 3 42l9 58 q12 72 47.5 114.5t93.5 61.5t134 19q25 0 53 -1.5t57.5 -5t59.5 -8.5t59 -13l-21 -136q-36 3 -77 4.5t-81 2.5t-72 1q-25 0 -44 -5t-31 -18t-16 -36l-3 -18q-1 -5 -1.5 -10t-0.5 -9q0 -24 14 -35.5t44 -11.5h53q98 0 148.5 -46t50.5 -118q0 -18 -3 -39l-11 -70 q-9 -61 -38.5 -101t-86 -60.5t-149.5 -20.5z" glyph-name="dollar" unicode="$"/>
<glyph d="M198 0l568 732h111l-561 -732h-118zM219 349q-62 0 -89.5 25.5t-27.5 72.5q0 17 3 36l18 115q10 64 46.5 99t112.5 35h101q63 0 90.5 -25.5t27.5 -72.5q0 -8 -0.5 -17t-2.5 -19l-19 -115q-10 -64 -46.5 -99t-112.5 -35h-101zM259 460h57q30 0 41.5 13.5t14.5 35.5l10 63 q1 5 1 9v8q0 19 -9.5 25.5t-30.5 6.5h-57q-21 0 -36 -9t-20 -40l-10 -63q0 -5 -0.5 -9t-0.5 -8q0 -15 8.5 -23.5t31.5 -8.5zM700 3q-62 0 -89.5 25.5t-27.5 72.5q0 17 3 36l19 115q10 64 46 99t112 35h101q63 0 90.5 -25.5t27.5 -72.5q0 -8 -0.5 -17t-2.5 -19l-18 -115 q-10 -64 -47 -99t-113 -35h-101zM740 114h57q30 0 41.5 13.5t15.5 35.5l10 63q1 5 1 9v8q0 19 -10 25.5t-31 6.5h-56q-22 0 -36.5 -9t-19.5 -40l-10 -63q-1 -5 -1.5 -9t-0.5 -8q0 -15 8.5 -23.5t31.5 -8.5z" glyph-name="percent" horiz-adv-x="966" unicode="%"/>
<glyph d="M234 -6q-80 0 -128 47.5t-48 124.5q0 54 14 95t41.5 72.5t69.5 55.5l72 41l-9 18q-17 34 -22 61t-5 48q0 49 23 90t72.5 66t127.5 25q35 0 68.5 -4t62.5 -10.5t47 -11.5l-20 -126h-149q-33 0 -47 -13.5t-14 -34.5q0 -14 8 -33.5t25 -47.5l91 -162l161 125l50 -78 l-77 -116l-60 -52l102 -174h-176l-57 88l-44 -33q-43 -33 -85 -47t-94 -14zM287 152q18 0 35.5 6t36.5 22l26 23l-67 109l-30 -16q-21 -12 -33.5 -25.5t-17 -28.5t-4.5 -33q0 -25 14.5 -41t39.5 -16z" glyph-name="ampersand" horiz-adv-x="707" unicode="&amp;"/>
<glyph d="M122 494l20 196l10 67h165l-10 -67l-40 -196h-145z" glyph-name="quotesingle" horiz-adv-x="238" unicode="'"/>
<glyph d="M202 -210q-31 43 -57 97t-41.5 122.5t-15.5 153.5q0 78 16 159t44 159t64 149.5t76.5 130t82.5 99.5h153q-50 -62 -97.5 -143.5t-84.5 -173t-59 -186.5t-22 -185q0 -108 25 -199t69 -183h-153z" glyph-name="parenleft" horiz-adv-x="401" unicode="("/>
<glyph d="M-20 -210q51 64 98 145.5t84 173t59 186t22 185.5q0 107 -25 197t-69 183h153q31 -43 57 -97t41.5 -121.5t15.5 -153.5q0 -78 -16 -158.5t-43.5 -159t-64 -149.5t-77 -130t-82.5 -101h-153z" glyph-name="parenright" horiz-adv-x="401" unicode=")"/>
<glyph d="M367 502l-43 67l131 81l29 -51zM367 397l-113 67l58 72l100 -89zM205 398l-57 19l47 137l80 -21zM120 569l10 63l142 17l-9 -85zM295 585l-21 137l63 20l42 -126z" glyph-name="asterisk" horiz-adv-x="425" unicode="*"/>
<glyph d="M256 132l70 448h138l-70 -448h-138zM125 287l22 138h448l-22 -138h-448z" glyph-name="plus" unicode="+"/>
<glyph d="M96 -93q-22 0 -38 4l-16 4l9 55q15 0 22.5 3.5t9.5 16.5l3 22h-10q-20 0 -20 19q0 3 1 8t2 13l12 76q3 25 28 25h98q19 0 19 -18q0 -3 -0.5 -9t-2.5 -14l-21 -126q-5 -33 -20.5 -50.5t-35.5 -23t-40 -5.5z" glyph-name="comma" horiz-adv-x="246" unicode=","/>
<glyph d="M56 221l21 138h311l-22 -138h-310z" glyph-name="hyphen" horiz-adv-x="350" unicode="-"/>
<glyph d="M73 -2q-19 0 -19 18v2v2l17 110q3 23 27 23h100q20 0 20 -16v-3v-4l-18 -110q-2 -12 -9 -17t-18 -5h-100z" glyph-name="period" horiz-adv-x="246" unicode="."/>
<glyph d="M2 -72l414 842h177l-414 -842h-177z" glyph-name="slash" horiz-adv-x="484" unicode="/"/>
<glyph d="M245 -5q-57 0 -95 17t-57.5 51t-19.5 82q0 11 1 22.5t3 24.5l56 350q10 67 41.5 112.5t80 69.5t111.5 24h158q81 0 122 -40.5t41 -114.5q0 -12 -1 -25t-3 -26l-56 -350q-15 -94 -73 -145.5t-150 -51.5h-159zM312 150h69q34 0 53 16.5t25 51.5l48 306q1 6 1.5 11t0.5 9 q0 28 -14 38.5t-37 10.5h-82q-32 0 -50 -17t-23 -52l-49 -305q-1 -5 -1.5 -9.5t-0.5 -10.5q0 -26 15.5 -37.5t44.5 -11.5z" glyph-name="zero" horiz-adv-x="644" unicode="0"/>
<glyph d="M150 0l93 586l-126 -16l17 110l153 62h154l-118 -742h-173z" glyph-name="one" horiz-adv-x="376" unicode="1"/>
<glyph d="M43 0l21 138l275 240q47 42 69.5 80.5t22.5 70.5q0 18 -6.5 30t-20.5 18.5t-37 6.5h-218l23 137q45 9 102 18t128 9q75 0 119 -22t63.5 -59.5t19.5 -86.5q0 -75 -30 -144.5t-103 -133.5l-166 -147h272l-25 -155h-509z" glyph-name="two" horiz-adv-x="584" unicode="2"/>
<glyph d="M324 -6q-80 0 -153 6.5t-133 17.5l21 130h222q40 0 64.5 5.5t37 19t16.5 36.5q3 18 4 25t1 9q0 19 -12.5 32t-34 20.5t-52.5 8.5l-157 7l20 124l174 10q43 2 66.5 17t28.5 43q2 11 2.5 16.5t1 8.5t0.5 5q0 34 -26.5 46t-67.5 12h-205l21 129q59 10 126 18t137 8 q62 0 105 -13.5t66 -45t23 -87.5q0 -6 -0.5 -14.5t-3 -27t-7.5 -51.5q-4 -26 -13.5 -48t-23 -39.5t-32.5 -29.5t-41 -19q17 -6 31 -16.5t24.5 -25.5t16 -35t5.5 -43q0 -10 -2 -26t-7 -48q-14 -90 -78.5 -137.5t-164.5 -47.5z" glyph-name="three" horiz-adv-x="577" unicode="3"/>
<glyph d="M369 0l24 146h-316l-20 79l309 517h177l-269 -449h142l19 126l48 91h139l-34 -217h68l-20 -120l-71 -27l-23 -146h-173z" glyph-name="four" horiz-adv-x="628" unicode="4"/>
<glyph d="M304 -6q-57 0 -122.5 6t-125.5 13l22 136h259q34 0 52 11.5t25.5 28.5t8.5 32l7 40q1 5 1.5 10t0.5 10q0 21 -12 32.5t-40 11.5h-51q-28 0 -42 -10.5t-21 -33.5h-165l94 461h454l-25 -155h-289l-28 -141q17 13 38 19.5t43 6.5h78q75 0 110 -39.5t35 -99.5q0 -10 -0.5 -20 t-2.5 -20l-18 -109q-10 -67 -45.5 -109t-95 -61.5t-145.5 -19.5z" glyph-name="five" horiz-adv-x="599" unicode="5"/>
<glyph d="M271 -5q-60 0 -101 18.5t-62.5 65.5t-21.5 131q0 95 12 177t39 148.5t69.5 113.5t102.5 73t139 26q51 0 100 -4.5t87 -14.5l-21 -136h-172q-46 0 -78 -18t-51.5 -52.5t-27.5 -84.5q22 8 45 12t50.5 5.5t62.5 1.5q64 0 100.5 -16t53 -45t16.5 -68q0 -10 -1.5 -22t-3.5 -25 l-17 -107q-9 -64 -39 -103.5t-75 -57.5t-101 -18h-105zM331 150h29q20 0 33 6.5t20.5 19.5t11.5 34l5 37q1 7 1.5 12.5t0.5 10.5q0 16 -6.5 24.5t-20 12t-35.5 3.5h-105q-3 -23 -5.5 -42.5t-2.5 -34.5q0 -32 8 -50.5t24.5 -25.5t41.5 -7z" glyph-name="six" horiz-adv-x="602" unicode="6"/>
<glyph d="M101 0l305 569h-295l28 173h474l32 -71l-343 -671h-201z" glyph-name="seven" horiz-adv-x="558" unicode="7"/>
<glyph d="M241 -5q-71 0 -108 17.5t-50 45t-13 56.5q0 11 1.5 21.5t2.5 20.5l17 105q4 27 16 51t32 42.5t48 24.5q-27 15 -37 35t-10 44q0 12 1.5 25t3.5 26l13 86q10 61 40 94t72.5 46t89.5 13h154q69 0 105.5 -26t36.5 -88q0 -9 -1 -19.5t-3 -21.5l-13 -84q-2 -12 -7.5 -30 t-15 -37t-24 -33t-34.5 -17q36 -9 48 -36t12 -56q0 -11 -1 -20.5t-2 -16.5l-16 -102q-11 -69 -41 -104.5t-73 -48.5t-92 -13h-152zM303 141h63q37 0 49.5 14.5t15.5 39.5l10 55q0 3 0.5 6.5t0.5 6.5q0 20 -12 31.5t-37 11.5h-64q-12 0 -23.5 -3.5t-20.5 -11t-15 -18 t-8 -23.5l-9 -55q-1 -4 -1 -8v-9q0 -20 12.5 -28.5t38.5 -8.5zM352 452h62q21 0 32.5 7t17 21t8.5 32l5 39q1 5 1.5 9t0.5 7q0 23 -11.5 28.5t-28.5 5.5h-62q-25 0 -38.5 -8.5t-19.5 -41.5l-5 -39q-1 -7 -2 -13.5t-1 -11.5q0 -20 10 -27.5t31 -7.5z" glyph-name="eight" horiz-adv-x="623" unicode="8"/>
<glyph d="M447 747q60 0 101 -18.5t62.5 -65.5t21.5 -131q0 -95 -12 -177t-39 -148.5t-69.5 -113.5t-102.5 -73t-139 -26q-51 0 -100 5t-87 14l21 136h172q47 0 78.5 18t51 53t27.5 84q-22 -7 -45 -11.5t-50 -6t-63 -1.5q-63 0 -100 16t-53.5 45t-16.5 68q0 10 1.5 22t3.5 25 l17 107q10 64 39.5 103.5t74.5 57.5t101 18h105zM387 592h-29q-19 0 -32.5 -6.5t-21 -19.5t-11.5 -34l-5 -37q-1 -6 -1.5 -12t-0.5 -11q0 -15 6.5 -24t20.5 -12.5t35 -3.5h105q3 23 5.5 42.5t2.5 34.5q0 33 -8 51t-24.5 25t-41.5 7z" glyph-name="nine" horiz-adv-x="602" unicode="9"/>
<glyph d="M73 -2q-19 0 -19 18v2v2l17 110q3 23 27 23h100q20 0 20 -16v-3v-4l-18 -110q-2 -12 -9 -17t-18 -5h-100zM134 384q-19 0 -19 18v2v2l17 110q3 23 27 23h100q20 0 20 -16v-3v-4l-18 -110q-2 -12 -9 -17t-18 -5h-100z" glyph-name="colon" horiz-adv-x="246" unicode=":"/>
<glyph d="M134 384q-19 0 -19 18v2v2l17 110q3 23 27 23h100q20 0 20 -16v-3v-4l-18 -110q-2 -12 -9 -17t-18 -5h-100zM96 -93q-22 0 -38 4l-16 4l9 55q15 0 22.5 3.5t9.5 16.5l3 22h-10q-20 0 -20 19q0 3 1 8t2 13l12 76q3 25 28 25h98q19 0 19 -18q0 -3 -0.5 -9t-2.5 -14 l-21 -126q-5 -33 -20.5 -50.5t-35.5 -23t-40 -5.5z" glyph-name="semicolon" horiz-adv-x="246" unicode=";"/>
<glyph d="M526 139l-393 136l24 152l436 130l-24 -151l-255 -54l236 -62z" glyph-name="less" unicode="&lt;"/>
<glyph d="M106 167l23 138h448l-23 -138h-448zM144 407l23 138h448l-23 -138h-448z" glyph-name="equal" unicode="="/>
<glyph d="M117 139l24 151l257 63l-238 53l24 151l394 -130l-24 -152z" glyph-name="greater" unicode="&gt;"/>
<glyph d="M173 205l34 211h76q27 0 47.5 6t34 21t16.5 41l4 23q1 5 1 9.5v7.5q0 32 -24 46t-69 14q-41 0 -81 -8.5t-82 -22.5l20 127q41 24 97 41.5t125 17.5q96 0 145 -46t49 -118q0 -20 -3 -40l-10 -54q-15 -95 -74 -144.5t-164 -49.5l-13 -82h-129zM158 -2q-20 0 -20 18v2v2 l18 110q3 23 26 23h100q20 0 20 -16v-3v-4l-18 -110q-2 -12 -9 -17t-17 -5h-100z" glyph-name="question" horiz-adv-x="529" unicode="?"/>
<glyph d="M263 -196q-83 0 -130.5 26.5t-67 69.5t-19.5 93q0 15 1.5 30t3.5 30l75 468q10 66 34 107.5t61 64.5t84 32t105 9h360q67 0 110.5 -24.5t65 -68t21.5 -98.5q0 -36 -6 -74l-41 -275q-7 -48 -24.5 -84t-47 -61t-69.5 -37t-90 -12h-103l-30 54q-7 -9 -20 -19.5t-31 -19.5 t-41.5 -15t-48.5 -6q-39 0 -72.5 19.5t-54 62t-20.5 111.5q0 113 39.5 191t104 118.5t138.5 40.5q66 0 114 -19.5t85 -48.5l-56 -355q18 0 33.5 3t28.5 13t22 29t14 52l40 275q2 12 3 22.5t1 20.5q0 44 -29.5 64t-74.5 20h-349q-48 0 -74.5 -19.5t-38 -48t-16.5 -59.5 l-71 -451q-3 -15 -3 -29q0 -35 20.5 -58.5t73.5 -23.5h386l-15 -96q-25 -4 -69.5 -10t-102 -10t-120.5 -4h-89zM462 125q30 0 60 11.5t48 30.5l36 232q-20 5 -37.5 7.5t-29.5 2.5q-43 0 -74 -25t-48.5 -70.5t-17.5 -106.5q0 -24 6.5 -43t20 -29t36.5 -10z" glyph-name="at" horiz-adv-x="937" unicode="@"/>
<glyph d="M19 0l344 742h216l108 -742h-179l-16 135h-237l-59 -135h-177zM320 290h156l-30 304z" glyph-name="A" horiz-adv-x="703" unicode="A"/>
<glyph d="M60 0l116 742h297q78 0 120 -20t59 -55t17 -80q0 -13 -1 -26t-3 -27q-9 -54 -44.5 -94.5t-91.5 -53.5q35 -10 59 -27.5t36.5 -46.5t12.5 -73q0 -10 -0.5 -24.5t-5.5 -38.5q-16 -98 -85.5 -137t-188.5 -39h-297zM257 155h122q31 0 50 8t29.5 25t14.5 45q2 6 2 12v12 q0 28 -17.5 42t-56.5 14h-120zM302 444h119q35 0 50.5 17.5t21.5 41.5q2 11 3.5 20t1.5 16q0 26 -15.5 37t-46.5 11h-111z" glyph-name="B" horiz-adv-x="643" unicode="B"/>
<glyph d="M342 -6q-129 0 -190.5 69t-61.5 189q0 33 3 69.5t9 74.5q18 117 55.5 195t101.5 117.5t161 39.5q90 0 150 -15.5t94 -30.5l-23 -137q-41 12 -92 20t-98 8q-35 0 -63 -7.5t-49.5 -30.5t-37.5 -68t-28 -121q-5 -34 -8.5 -63.5t-3.5 -52.5q0 -53 28 -77t99 -24q65 0 106 3.5 t83 7.5l-21 -135q-51 -19 -107 -25t-107 -6z" glyph-name="C" horiz-adv-x="592" unicode="C"/>
<glyph d="M58 0l118 742h286q101 0 156.5 -32.5t77.5 -91t22 -136.5q0 -31 -2.5 -66t-8.5 -71q-15 -93 -44.5 -159t-74.5 -107t-107 -60t-141 -19h-282zM256 155h102q38 0 67.5 13.5t50.5 40.5t35 68t23 97q5 34 8 60t3 41q0 42 -12.5 66t-40 35t-73.5 11h-95z" glyph-name="D" horiz-adv-x="692" unicode="D"/>
<glyph d="M247 -6q-28 0 -59.5 6.5t-58 25t-40 52.5t-5.5 89l63 395q11 69 40.5 107.5t73 55.5t94.5 17q75 0 150 -4t153 -10l-23 -146h-254q-33 0 -48 -15.5t-20 -47.5l-11 -70l260 -9l-21 -137l-264 -9l-12 -79q-3 -20 1.5 -33.5t17.5 -19.5t33 -6h251l-23 -145q-70 -7 -143 -12 t-155 -5z" glyph-name="E" horiz-adv-x="599" unicode="E"/>
<glyph d="M58 0l90 567q12 71 44 108.5t75 52t86 14.5q88 0 160 -4t144 -11l-23 -146h-253q-33 0 -48 -15.5t-20 -45.5l-15 -98l262 -8l-23 -137l-263 -9l-43 -268h-173z" glyph-name="F" horiz-adv-x="569" unicode="F"/>
<glyph d="M279 -6q-106 0 -149.5 57t-43.5 178q0 44 5.5 89.5t12.5 87.5q19 116 60.5 191.5t108 113t158.5 37.5q96 0 155.5 -10.5t104.5 -24.5l-21 -135q-29 5 -82.5 10.5t-134.5 5.5q-60 0 -95 -21t-53 -70.5t-32 -134.5q-12 -78 -12 -123q0 -43 18.5 -67.5t60.5 -24.5 q17 0 36.5 2t38.5 4t34 4.5t25 5.5l19 119h-117l22 136q26 3 68.5 6.5t97.5 3.5q17 0 40 -0.5t44 -1t33 -0.5l-68 -432h-130l-15 50q-15 -9 -38.5 -19t-50 -18t-53 -13.5t-47.5 -5.5z" glyph-name="G" horiz-adv-x="662" unicode="G"/>
<glyph d="M58 0l118 742h173l-48 -296h247l48 296h173l-118 -742h-173l46 291h-247l-46 -291h-173z" glyph-name="H" horiz-adv-x="700" unicode="H"/>
<glyph d="M58 0l118 742h173l-118 -742h-173z" glyph-name="I" horiz-adv-x="289" unicode="I"/>
<glyph d="M154 -6q-32 0 -65.5 6t-54.5 16l22 137q17 -1 34 -1.5t34 -0.5q44 0 63.5 19t25.5 54l82 518h173l-88 -556q-17 -105 -69.5 -148.5t-156.5 -43.5z" glyph-name="J" horiz-adv-x="405" unicode="J"/>
<glyph d="M58 0l118 742h173l-47 -292h86l188 292h176l-237 -373l138 -369h-171l-109 295h-96l-46 -295h-173z" glyph-name="K" horiz-adv-x="657" unicode="K"/>
<glyph d="M239 0q-70 0 -112 34.5t-42 108.5q0 11 1 23t3 25l87 551h173l-84 -528q-1 -5 -1 -8.5v-7.5q0 -22 13 -32.5t39 -10.5h223l-25 -155h-275z" glyph-name="L" horiz-adv-x="535" unicode="L"/>
<glyph d="M35 0l209 742h162l76 -542l249 542h160l-29 -742h-167l18 435l-183 -435h-162l-45 428l-117 -428h-171z" glyph-name="M" horiz-adv-x="889" unicode="M"/>
<glyph d="M58 0l118 742h137l213 -449l71 449h173l-118 -742h-137l-213 449l-71 -449h-173z" glyph-name="N" horiz-adv-x="702" unicode="N"/>
<glyph d="M348 -6q-57 0 -105 10t-83 36t-54 73t-19 121q0 34 4 76.5t11 83.5q16 103 44.5 171t72.5 108t105 57.5t144 17.5q57 0 104.5 -10t82.5 -37t55 -76.5t20 -128.5q0 -31 -4 -73t-11 -85q-16 -106 -44.5 -173.5t-72 -104.5t-105.5 -51.5t-145 -14.5zM375 150q41 0 69 12 t47 37.5t31.5 65.5t20.5 96q6 40 10 75.5t4 57.5q0 41 -12 62t-36.5 29t-64.5 8q-38 0 -66 -10t-47.5 -34.5t-33 -67.5t-23.5 -109q-6 -38 -10.5 -73t-4.5 -56q0 -36 12 -56.5t37.5 -28.5t66.5 -8z" glyph-name="O" horiz-adv-x="701" unicode="O"/>
<glyph d="M58 0l118 742h301q57 0 102.5 -18.5t72.5 -63.5t27 -127q0 -16 -3 -39t-6 -41q-10 -67 -34 -112.5t-56.5 -72.5t-70.5 -39.5t-76 -12.5q-47 0 -93 6.5t-71 13.5l-38 -236h-173zM290 371h119q24 0 42.5 12.5t30.5 35.5t16 53q2 13 3.5 26t1.5 18q0 39 -15 55t-45 16h-119z " glyph-name="P" horiz-adv-x="613" unicode="P"/>
<glyph d="M498 -204q-54 0 -97 16.5t-68.5 53t-25.5 94.5h119q3 -24 19.5 -34t51.5 -10q21 0 43 3t40 7l-19 -125q-25 -5 -63 -5zM348 -6q-57 0 -105 10t-83 36t-54 73t-19 121q0 34 4 76.5t11 83.5q16 103 44.5 171t72.5 108t105 57.5t144 17.5q57 0 104.5 -10t82.5 -37t55 -76.5 t20 -128.5q0 -31 -4 -73t-11 -85q-16 -106 -44.5 -173.5t-72 -104.5t-105.5 -51.5t-145 -14.5zM375 150q41 0 69 12t47 37.5t31.5 65.5t20.5 96q6 40 10 75.5t4 57.5q0 41 -12 62t-36.5 29t-64.5 8q-38 0 -66 -10t-47.5 -34.5t-33 -67.5t-23.5 -109q-6 -38 -10.5 -73 t-4.5 -56q0 -36 12 -56.5t37.5 -28.5t66.5 -8z" glyph-name="Q" horiz-adv-x="701" unicode="Q"/>
<glyph d="M58 0l118 742h287q50 0 89 -11t65.5 -33.5t40.5 -58.5t14 -87q0 -14 -1.5 -30.5t-4.5 -34.5q-7 -51 -24 -85.5t-37.5 -55.5t-41.5 -33.5t-36 -19.5l86 -293h-176l-68 265h-23h-24.5h-25h-23.5l-42 -265h-173zM295 402h101q33 0 52 10t29.5 30.5t15.5 55.5q2 8 2 15.5 v14.5q0 20 -7 33t-22 19.5t-37 6.5h-105z" glyph-name="R" horiz-adv-x="639" unicode="R"/>
<glyph d="M308 -6q-57 0 -103.5 4t-83 10t-62.5 13l21 137q46 -4 106 -6.5t118 -2.5q40 0 65 5.5t37.5 18.5t16.5 36l3 18q1 4 1 8v8q0 23 -18 33t-58 10h-49q-88 0 -136.5 46.5t-48.5 120.5q0 20 3 42l9 58q12 72 47.5 114.5t93.5 61.5t134 19q25 0 53 -1.5t57.5 -5t59.5 -8.5 t59 -13l-21 -136q-36 3 -77 4.5t-81 2.5t-72 1q-25 0 -44 -5t-31 -18t-16 -36l-3 -18q-1 -5 -1.5 -10t-0.5 -9q0 -24 14 -35.5t44 -11.5h53q98 0 148.5 -46t50.5 -118q0 -18 -3 -39l-11 -70q-9 -61 -38.5 -101t-86 -60.5t-149.5 -20.5z" glyph-name="S" horiz-adv-x="575" unicode="S"/>
<glyph d="M214 0l93 587h-193l25 155h558l-25 -155h-192l-93 -587h-173z" glyph-name="T" horiz-adv-x="611" unicode="T"/>
<glyph d="M348 -6q-123 0 -185.5 54t-62.5 175q0 26 4 58t9 65l63 396h173l-67 -422q-3 -23 -6.5 -44t-3.5 -38q0 -45 23 -67t77 -22q30 0 52.5 7.5t39.5 26t28.5 52t20.5 85.5l66 422h173l-71 -448q-15 -96 -43 -155t-69.5 -90.5t-96.5 -43t-124 -11.5z" glyph-name="U" horiz-adv-x="692" unicode="U"/>
<glyph d="M243 0l-107 742h179l66 -554l245 554h178l-345 -742h-216z" glyph-name="V" horiz-adv-x="704" unicode="V"/>
<glyph d="M197 0l-60 742h179l31 -484l196 484h157l40 -484l187 484h179l-297 -742h-174l-54 485l-210 -485h-174z" glyph-name="W" horiz-adv-x="1041" unicode="W"/>
<glyph d="M475 0l-143 311l-205 431h188l148 -321l199 -421h-187zM13 0l315 412l67 -146l-191 -266h-191zM461 321l-66 144l199 277h191z" glyph-name="X" horiz-adv-x="668" unicode="X"/>
<glyph d="M233 0l33 208l-136 534h188l63 -348l180 348h196l-318 -534l-33 -208h-173z" glyph-name="Y" horiz-adv-x="651" unicode="Y"/>
<glyph d="M32 0l23 146l369 441h-299l25 155h496l-23 -147l-368 -440h309l-25 -155h-507z" glyph-name="Z" horiz-adv-x="571" unicode="Z"/>
<glyph d="M212 -210q-64 0 -99 22.5t-48 58t-13 74.5q0 15 2 30.5t3 30.5l101 638q8 46 24 82.5t42 62.5t64.5 39.5t89.5 13.5h85l-21 -137h-33q-31 0 -52.5 -19t-29.5 -68l-96 -603q-1 -8 -1.5 -15t-0.5 -14q0 -31 15 -44.5t42 -13.5h32l-21 -138h-85z" glyph-name="bracketleft" horiz-adv-x="342" unicode="["/>
<glyph d="M283 -72l-148 842h177l148 -842h-177z" glyph-name="backslash" horiz-adv-x="484" unicode="\"/>
<glyph d="M-20 -210l21 138h33q22 0 38.5 8.5t27.5 27.5t16 51l96 603q1 8 1.5 15t0.5 13q0 32 -15.5 45.5t-41.5 13.5h-32l21 137h85q58 0 93.5 -17t52 -49t16.5 -77q0 -13 -1 -27t-4 -28l-100 -638q-6 -35 -19 -73t-37.5 -70.5t-65 -52.5t-101.5 -20h-85z" glyph-name="bracketright" horiz-adv-x="342" unicode="]"/>
<glyph d="M117 531l126 139h117l73 -139h-100l-47 59l-69 -59h-100z" glyph-name="asciicircum" horiz-adv-x="382" unicode="^"/>
<glyph d="M-32 -202l22 138h609l-22 -138h-609z" glyph-name="underscore" unicode="_"/>
<glyph d="M224 631l-88 142h138l52 -142h-102z" glyph-name="grave" horiz-adv-x="239" unicode="`"/>
<glyph d="M210 -6q-38 0 -70.5 19.5t-52 60.5t-19.5 107q0 30 4.5 62t7.5 52q13 84 47.5 139t94 82.5t145.5 27.5q49 0 94 -8.5t81 -23t60 -33.5l-76 -479h-154l-10 53q-14 -13 -38.5 -26.5t-54 -23t-59.5 -9.5zM297 132q27 0 47.5 11t34.5 22l36 230q-6 3 -21 7t-35 4 q-33 0 -55 -15t-35.5 -42t-19.5 -65q-4 -22 -6 -41.5t-2 -30.5q0 -32 12.5 -56t43.5 -24z" glyph-name="a" horiz-adv-x="573" unicode="a"/>
<glyph d="M386 -6q-30 0 -59 7t-53.5 19.5t-43.5 29.5l-27 -50h-154l121 763h172l-40 -253q32 16 67.5 25t61.5 9q79 0 124.5 -50t45.5 -141q0 -22 -4 -55.5t-10 -70.5q-11 -75 -39 -127t-69 -79t-93 -27zM331 132q35 0 58 30.5t34 109.5q3 15 4 29t1 24q0 47 -16 64t-40 17 q-21 0 -45.5 -5.5t-43.5 -15.5l-36 -226q15 -13 34 -20t50 -7z" glyph-name="b" horiz-adv-x="586" unicode="b"/>
<glyph d="M271 -6q-61 0 -106 19.5t-69 64t-24 123.5q0 17 2.5 42.5t6.5 53.5q14 91 49 145t86.5 78t115.5 24q45 0 93 -9.5t94 -22.5l-17 -99h-130q-39 0 -63 -17t-37.5 -49t-22.5 -78q-3 -20 -4 -32.5t-1 -18.5q0 -33 9.5 -53.5t28 -30.5t45.5 -10h138l-16 -98q-34 -14 -76 -23 t-102 -9z" glyph-name="c" horiz-adv-x="473" unicode="c"/>
<glyph d="M220 -6q-75 0 -112 50.5t-37 138.5q0 56 12 116q15 77 42.5 131.5t81.5 84t146 29.5q24 0 46.5 -2t41.5 -6l35 227h173l-121 -763h-154l-10 53q-19 -17 -42 -30t-49 -21t-53 -8zM298 132q28 0 48 10.5t35 22.5l37 230q-9 4 -23.5 7.5t-32.5 3.5q-25 0 -47 -10t-39 -38.5 t-27 -87.5q-3 -15 -4.5 -29.5t-1.5 -29.5q0 -30 7.5 -47t20 -24.5t27.5 -7.5z" glyph-name="d" horiz-adv-x="578" unicode="d"/>
<glyph d="M283 -6q-78 0 -124.5 24.5t-67 70.5t-20.5 110q0 27 3 51.5t7 47.5q14 90 51 144t96 78.5t137 24.5q39 0 76 -7.5t67 -25t48.5 -49.5t18.5 -83q0 -57 -18 -93.5t-49.5 -56t-72 -27t-87.5 -7.5q-33 0 -60.5 2.5t-44.5 6.5q-1 -6 -1.5 -13.5t-0.5 -14.5q0 -29 26 -43 t85 -14h176l-16 -101q-43 -9 -102.5 -17t-126.5 -8zM306 290q41 0 64.5 8t33.5 24t10 39q0 26 -15 39t-46 13q-29 0 -49 -13t-32 -39.5t-18 -65.5q12 -1 25.5 -3t26.5 -2z" glyph-name="e" horiz-adv-x="548" unicode="e"/>
<glyph d="M85 0l63 400h-73l18 111l77 27l13 78q7 42 22.5 71t41 47.5t61 26.5t80.5 8q36 0 68 -3t55 -7l-21 -127h-69q-24 0 -40 -6t-24 -20t-11 -39l-3 -29h119l-22 -138h-119l-63 -400h-173z" glyph-name="f" horiz-adv-x="396" unicode="f"/>
<glyph d="M159 -233l-128 11l18 119h172q36 0 63 6t44 22t22 46l13 82q-16 -15 -42.5 -28.5t-56 -22t-56.5 -8.5q-48 0 -79 26.5t-45 69t-14 91.5q0 26 4.5 61.5t8.5 65.5q11 70 37.5 116t65 72t84.5 37t96 11q78 0 141 -12t101 -25l-90 -563q-9 -54 -34.5 -91.5t-69.5 -59 t-107 -27.5t-148 1zM298 132q24 0 44.5 10t37.5 23l37 234q-14 3 -29.5 5t-29.5 2q-25 0 -46.5 -11.5t-37 -37t-23.5 -68.5q-4 -31 -6.5 -46t-2.5 -32q0 -40 15 -59.5t41 -19.5z" glyph-name="g" horiz-adv-x="579" unicode="g"/>
<glyph d="M49 0l121 763h172l-44 -278q29 23 74.5 41t103.5 18q64 0 98.5 -31t34.5 -104q0 -28 -6 -65l-54 -344h-173l51 324q1 5 1 9.5v9.5q0 27 -14 36.5t-36 9.5q-31 0 -55.5 -10.5t-45.5 -29.5l-56 -349h-172z" glyph-name="h" horiz-adv-x="596" unicode="h"/>
<glyph d="M165 611q-9 0 -14.5 6t-3.5 16l16 105q4 23 26 23h134q11 0 15 -6.5t2 -16.5l-16 -105q-4 -22 -24 -22h-135zM49 0l84 538h173l-85 -538h-172z" glyph-name="i" horiz-adv-x="268" unicode="i"/>
<glyph d="M165 611q-9 0 -14.5 6t-3.5 16l16 105q4 23 26 23h134q11 0 15 -6.5t2 -16.5l-16 -105q-4 -22 -24 -22h-135zM11 -237l122 775h173l-86 -542q-10 -62 -33.5 -123t-47.5 -110h-128z" glyph-name="j" horiz-adv-x="268" unicode="j"/>
<glyph d="M49 0l121 763h172l-64 -406q42 10 75 32.5t56 59.5t36 89h173q-20 -74 -48 -123.5t-59 -79t-60 -46.5l136 -289h-177l-103 236q-11 -3 -25.5 -5t-24.5 -2l-36 -229h-172z" glyph-name="k" horiz-adv-x="576" unicode="k"/>
<glyph d="M248 0q-86 0 -129.5 35t-43.5 90q0 18 0.5 33.5t2.5 29.5l92 575h172l-81 -515q-1 -6 -3 -20t-3.5 -27.5t-1.5 -22.5q0 -26 12.5 -35t35.5 -12l33 -6l-19 -125h-67z" glyph-name="l" horiz-adv-x="333" unicode="l"/>
<glyph d="M49 0l84 538h144l21 -53q34 25 76 42t103 17q45 0 76 -17.5t52 -60.5q44 43 95 60.5t93 17.5q80 0 111.5 -35t31.5 -93q0 -23 -2 -45t-6 -43l-52 -328h-173l52 324q1 4 1 8.5v8.5q0 48 -55 48q-26 0 -50.5 -10.5t-47.5 -30.5q-1 -6 -1.5 -13t-1.5 -14l-51 -321h-173 l51 322q1 7 1 11v9q0 26 -14 36.5t-40 10.5q-33 0 -55.5 -12t-41.5 -28l-56 -349h-172z" glyph-name="m" horiz-adv-x="924" unicode="m"/>
<glyph d="M49 0l84 538h144l21 -53q32 25 76.5 42t99.5 17q44 0 74 -15t45.5 -42t15.5 -62q0 -18 -1.5 -41t-10.5 -76l-48 -308h-173l48 302q2 17 3 26.5t1 14.5q0 22 -12 34t-42 12q-27 0 -52 -11t-45 -29l-56 -349h-172z" glyph-name="n" horiz-adv-x="596" unicode="n"/>
<glyph d="M288 -6q-72 0 -120.5 21.5t-72.5 63.5t-24 104q0 30 2 55t6 48q13 81 36 131.5t58 78t85 38t116 10.5q89 0 135.5 -21.5t63 -65.5t16.5 -111q0 -24 -2 -52t-7 -57q-15 -98 -50.5 -151t-94.5 -72.5t-147 -19.5zM306 132q24 0 41 6t28 19.5t19 39t14 65.5q5 28 7 50t2 41 q0 32 -15.5 44t-50.5 12q-25 0 -41.5 -6t-27.5 -22t-19 -45.5t-14 -73.5q-4 -21 -5.5 -38t-1.5 -33q0 -23 7 -36t21 -18t36 -5z" glyph-name="o" horiz-adv-x="577" unicode="o"/>
<glyph d="M11 -237l119 750q73 14 139 22.5t140 8.5q100 0 140 -49t40 -145q0 -25 -2.5 -52.5t-7.5 -56.5q-14 -86 -50 -140.5t-87.5 -80.5t-113.5 -26q-31 0 -59.5 4.5t-45.5 13.5l-40 -249h-172zM307 140q29 0 50 13t35 42.5t22 77.5q2 12 3.5 23.5t1.5 22.5q0 45 -13.5 66 t-45.5 21l-75 -1l-41 -254q8 -4 17.5 -6t21 -3.5t24.5 -1.5z" glyph-name="p" horiz-adv-x="574" unicode="p"/>
<glyph d="M315 -237l46 290q-25 -24 -66.5 -41.5t-84.5 -17.5q-73 0 -106.5 47.5t-33.5 135.5q0 26 3 53.5t7 57.5q11 75 37 125t63 78.5t81.5 40.5t95.5 12q75 0 143.5 -10.5t105.5 -26.5l-118 -744h-173zM295 132q25 0 46.5 10t37.5 23l37 234q-16 3 -29.5 5t-26.5 2 q-36 0 -58 -14.5t-34 -44t-20 -71.5q-4 -21 -5.5 -37.5t-1.5 -26.5q0 -40 14.5 -60t39.5 -20z" glyph-name="q" horiz-adv-x="571" unicode="q"/>
<glyph d="M49 0l85 538h155l7 -71q27 32 61.5 54.5t79.5 22.5q15 0 27 -1t23 -4l-26 -173q-14 0 -29.5 0.5t-30.5 0.5q-43 0 -75 -12t-52 -27l-52 -328h-173z" glyph-name="r" horiz-adv-x="428" unicode="r"/>
<glyph d="M264 -6q-36 0 -66.5 2t-57 5.5t-49 9t-42.5 11.5l16 101h238q19 0 31 7.5t14 20.5l3 16q1 5 1 7v3q0 23 -33 23h-74q-44 0 -79.5 11.5t-56.5 37t-21 65.5q0 11 0.5 22.5t2.5 24.5l6 37q8 42 31.5 75t71.5 52t128 19q34 0 72 -3.5t73.5 -10t61.5 -15.5l-16 -101h-224 q-21 0 -31 -6.5t-14 -22.5l-2 -9q-1 -5 -1.5 -9.5t-0.5 -7.5q0 -10 7 -16t28 -6h85q66 0 106 -29t40 -79q0 -11 -0.5 -23t-2.5 -25l-7 -47q-12 -77 -74.5 -108.5t-163.5 -31.5z" glyph-name="s" horiz-adv-x="514" unicode="s"/>
<glyph d="M285 0q-85 0 -128 30.5t-43 94.5q0 17 2 41t7 54l34 181h-83l18 110l93 27l46 151h137l-24 -151h117l-21 -137h-117l-29 -181q-2 -8 -4 -22t-2 -24q0 -21 11 -29.5t33 -10.5l60 -6l-20 -128h-87z" glyph-name="t" horiz-adv-x="417" unicode="t"/>
<glyph d="M202 -6q-69 0 -100 34t-31 93q0 22 1.5 37.5t3.5 29.5l56 350h172l-51 -327q-1 -5 -1 -8.5v-9.5q0 -26 15.5 -35t36.5 -9q31 0 55 11.5t45 28.5l55 349h173l-85 -538h-154l-10 53q-28 -19 -54 -32t-55.5 -20t-71.5 -7z" glyph-name="u" horiz-adv-x="596" unicode="u"/>
<glyph d="M166 0l-87 538h178l37 -378l98 224q17 40 28 77t15 85h160q-1 -63 -24.5 -122.5t-49.5 -111.5l-156 -312h-199z" glyph-name="v" horiz-adv-x="554" unicode="v"/>
<glyph d="M160 0l-81 538h178l34 -377l150 377h111l66 -378l79 241q5 15 12 40t13.5 53t8.5 52h170q0 -34 -8.5 -73t-21.5 -74t-24 -60l-158 -339h-183l-50 257l-113 -257h-183z" glyph-name="w" horiz-adv-x="860" unicode="w"/>
<glyph d="M389 0l-124 214l-189 324h176l141 -239l173 -299h-177zM0 0l263 315l47 -156l-133 -159h-177zM382 209l-62 140l136 189h185z" glyph-name="x" horiz-adv-x="566" unicode="x"/>
<glyph d="M96 -237v122q65 13 109.5 38.5t70.5 76.5q-54 5 -85 23t-45.5 50t-18.5 77l-39 388h178l13 -351q1 -18 8.5 -28t18.5 -14t22 -5l101 262q12 32 22 69t11 75h163q0 -60 -16.5 -125.5t-50.5 -139.5l-129 -272q-41 -88 -90.5 -140t-109 -76.5t-133.5 -29.5z" glyph-name="y" horiz-adv-x="582" unicode="y"/>
<glyph d="M35 0l20 124l275 277h-243l22 137h442l-19 -123l-276 -277h234l-1.5 -14.5t-5 -34.5t-7 -40.5t-5.5 -34.5l-2 -14h-434z" glyph-name="z" horiz-adv-x="501" unicode="z"/>
<glyph d="M288 -210q-74 0 -120 13.5t-66.5 42t-20.5 72.5q0 18 4 50t11 70t13 75t10 63.5t4 33.5q0 24 -12 34t-43 10l25 159q17 2 32.5 7t26 16.5t13.5 31.5l30 188q12 73 42.5 113.5t84 56.5t133.5 16l-22 -137q-24 0 -37.5 -8t-21 -26.5t-12.5 -51.5l-29 -181 q-7 -53 -38.5 -76.5t-79.5 -27.5q41 -8 64 -29.5t23 -55.5q0 -8 -3.5 -30t-8 -51t-9.5 -61t-9.5 -61t-7.5 -50t-3 -30q0 -23 10.5 -35t37.5 -12z" glyph-name="braceleft" horiz-adv-x="320" unicode="{"/>
<glyph d="M45 -72l133 842h138l-133 -842h-138z" glyph-name="bar" horiz-adv-x="251" unicode="|"/>
<glyph d="M-20 -210l20 129q26 0 39.5 10t20 26.5t9.5 36.5l36 222q7 41 37.5 66t79.5 34q-41 3 -64 21t-23 58q0 11 3.5 38.5t9 63t11 70.5t9 60.5t3.5 32.5q0 27 -11 37t-36 10l22 137q70 0 115.5 -17t67 -49.5t21.5 -78.5q0 -4 -2.5 -23t-7 -46.5t-9.5 -58t-9 -58.5t-6.5 -48 t-2.5 -25q0 -16 7.5 -25.5t21 -13.5t27.5 -6l-25 -159q-29 0 -47.5 -12.5t-23.5 -42.5l-35 -217q-8 -51 -25.5 -84.5t-47.5 -52.5t-75.5 -27t-109.5 -8z" glyph-name="braceright" horiz-adv-x="320" unicode="}"/>
<glyph d="M353 532q-16 0 -30 6.5t-27 14t-26 13.5t-28 6q-29 0 -51.5 -9.5t-48.5 -27.5l-14 60q23 26 57 49t74 23q15 0 29 -6.5t28 -14t26.5 -13.5t24.5 -6q19 0 36 6t32 15.5t27 20.5l14 -66q-22 -25 -54 -48t-69 -23z" glyph-name="asciitilde" horiz-adv-x="413" unicode="~"/>
<glyph glyph-name="uni00A0" horiz-adv-x="248" unicode=" "/>
<glyph d="M257 337l-64 -536h-173l109 536h128zM274 543q19 0 19 -18v-1.5v-1.5l-17 -110q-3 -24 -27 -24h-100q-20 0 -20 17v4v3l18 110q2 13 9.5 17t17.5 4h100z" glyph-name="exclamdown" horiz-adv-x="275" unicode="¡"/>
<glyph d="M202 -93l14 88q-44 5 -80 22.5t-56 58.5t-20 119q0 80 19 143t53 106t78 66.5t96 25.5l14 96h97l-15 -98q31 -3 64 -11t66 -22l-16 -101q-5 1 -46.5 4t-105.5 3q-33 0 -57.5 -15.5t-40.5 -43.5t-24 -66t-8 -83q0 -30 9 -46.5t27.5 -22.5t47.5 -6q45 0 80 2t56 4.5t25 3.5 l-16 -102q-36 -19 -73.5 -27t-76.5 -11l-14 -87h-97z" glyph-name="cent" horiz-adv-x="485" unicode="¢"/>
<glyph d="M56 0l21 132l91 23l24 155l-85 11l13 85l91 24l9 59q15 92 50.5 148.5t95 83t147.5 26.5q54 0 96 -5t70 -10l-22 -139h-161q-31 0 -51 -7.5t-31.5 -25.5t-17.5 -52l-12 -78l168 -15l-15 -94l-173 -11l-24 -155h249l-25 -155h-508z" glyph-name="sterling" unicode="£"/>
<glyph d="M338 175q-45 0 -81 21.5t-57 57.5t-21 79q0 54 27 100.5t73.5 75t104.5 28.5q45 0 81 -22t57.5 -57.5t21.5 -78.5q0 -53 -27 -100t-73.5 -75.5t-105.5 -28.5zM149 113l-59 69l125 108l64 -69zM496 113l-89 106l81 69l89 -106zM346 260q31 0 56.5 13t40.5 38t15 60 q0 34 -23 57.5t-59 23.5q-31 0 -55.5 -13.5t-39.5 -37.5t-15 -60q0 -33 22.5 -57t57.5 -24zM232 426l-87 104l81 69l88 -104zM509 424l-59 69l123 106l59 -69z" glyph-name="currency" unicode="¤"/>
<glyph d="M112 261l14 85h453l-14 -85h-453zM90 118l13 85h454l-14 -85h-453zM211 0l33 208l-135 534h188l62 -348l181 348h195l-318 -534l-33 -208h-173z" glyph-name="yen" unicode="¥"/>
<glyph d="M124 429l54 341h138l-54 -341h-138zM45 -72l52 328h138l-52 -328h-138z" glyph-name="brokenbar" horiz-adv-x="251" unicode="¦"/>
<glyph d="M313 -6q-28 0 -59 0.5t-62.5 2.5t-61.5 5t-55 8l19 122h204q21 0 32 3t16.5 9t6.5 16q3 13 3.5 21t0.5 10q0 9 -7 12.5t-27 3.5h-89q-67 0 -107.5 20t-40.5 74q0 6 0.5 13t1.5 15l5 34q7 43 27.5 65t62.5 37q-27 14 -37 36t-10 50q0 10 0.5 20t1.5 20l9 50q7 41 30 73 t67 51t110 19q25 0 56 -1t63.5 -3t61.5 -5.5t49 -8.5l-18 -119h-207q-17 0 -28 -3.5t-17 -11.5t-8 -19q-1 -11 -2 -16.5t-1 -7.5q0 -11 7 -16t27 -5h88q75 0 112.5 -21.5t37.5 -72.5q0 -13 -3 -28l-5 -36q-5 -31 -26 -58.5t-61 -42.5q26 -9 38.5 -28.5t12.5 -49.5 q0 -7 -0.5 -15t-2.5 -18l-8 -44q-9 -62 -37.5 -97t-71.5 -49t-98 -14zM298 336h45q18 0 28.5 2t16.5 10t9 24l5 33q1 2 1 4v4q0 13 -10 19t-31 6h-47q-25 0 -36.5 -8.5t-14.5 -26.5l-5 -32q0 -2 -0.5 -4t-0.5 -3q0 -14 10.5 -21t29.5 -7z" glyph-name="section" horiz-adv-x="535" unicode="§"/>
<glyph d="M353 632q-19 0 -19 18q0 1 1 5.5t5 27.5t12 75q3 24 25 24h80q19 0 19 -19l-0.5 -5t-4.5 -28t-12 -76q-3 -22 -26 -22h-80zM155 632q-19 0 -19 18q0 1 1 5.5t4.5 27.5t12.5 75q3 24 25 24h80q18 0 18 -19l-0.5 -5t-4 -28t-12.5 -76q-2 -22 -25 -22h-80z" glyph-name="dieresis" horiz-adv-x="394" unicode="¨"/>
<glyph d="M335 0q-59 0 -105.5 19t-78.5 54t-49 82.5t-17 105.5q0 62 10.5 128t34.5 127.5t63 110t97 77t135 28.5h181q77 0 128 -28.5t77 -80t26 -120.5q0 -97 -24 -187.5t-67.5 -161.5t-102 -112.5t-127.5 -41.5h-181zM396 147q-35 0 -65 12.5t-48.5 44t-18.5 90.5q0 53 15 104 t42 93t64 67t81 25q19 0 48.5 -2t61 -7t56.5 -14l-13 -82q-27 4 -51.5 6.5t-45 4t-35.5 1.5q-31 0 -53.5 -14.5t-37 -39.5t-21.5 -55.5t-7 -63.5q0 -42 18.5 -59.5t57.5 -17.5q43 0 79.5 5t65.5 11l-12 -82q-42 -19 -88 -23t-93 -4zM323 93h198q43 0 82.5 28.5t71 80.5 t50 125t18.5 162q0 42 -12.5 76t-40 54t-73.5 20h-207q-54 0 -96.5 -29t-72.5 -79.5t-46 -116t-16 -138.5q0 -41 9 -74.5t27 -58t45 -37.5t63 -13z" glyph-name="copyright" horiz-adv-x="801" unicode="©"/>
<glyph d="M65 251l13 79h364l-12 -79h-365zM195 356q-41 0 -72 32.5t-31 104.5q0 22 3.5 46.5l5.5 38.5q14 88 65.5 133t148.5 45q57 0 104.5 -14t74.5 -34l-55 -348h-128l-9 38q-10 -10 -27.5 -19.5t-38 -16t-41.5 -6.5zM268 474q16 0 28 6.5t20 12.5l23 142q-4 1 -13 2t-18 1 q-20 0 -33 -9t-20.5 -24t-11.5 -35q-8 -31 -8 -53q0 -15 6.5 -29t26.5 -14z" glyph-name="ordfeminine" horiz-adv-x="411" unicode="ª"/>
<glyph d="M261 58l-192 225l258 221l73 -85l-159 -136l118 -138zM511 58l-192 225l258 221l73 -85l-159 -136l118 -138z" glyph-name="guillemotleft" horiz-adv-x="623" unicode="«"/>
<glyph d="M417 167l48 303h138l-49 -303h-137zM144 407l23 138h448l-23 -138h-448z" glyph-name="logicalnot" unicode="¬"/>
<glyph d="M56 221l21 138h311l-22 -138h-310z" glyph-name="uni00AD" horiz-adv-x="350" unicode="­"/>
<glyph d="M335 0q-59 0 -105.5 19t-78.5 54t-49 82.5t-17 105.5q0 62 10.5 128t34.5 127.5t63 110t97 77t135 28.5h181q77 0 128 -28.5t77 -80t26 -120.5q0 -97 -24 -187.5t-67.5 -161.5t-102 -112.5t-127.5 -41.5h-181zM267 153l68 427h186q29 0 55 -8.5t42.5 -30.5t16.5 -62 q0 -36 -11.5 -70.5t-32 -59t-50.5 -34.5l62 -162h-101l-55 166h-52l-26 -166h-102zM323 93h198q43 0 82.5 28.5t71 80.5t50 125t18.5 162q0 42 -12.5 76t-40 54t-73.5 20h-207q-54 0 -96.5 -29t-72.5 -79.5t-46 -116t-16 -138.5q0 -41 9 -74.5t27 -58t45 -37.5t63 -13z M407 394h81q13 0 22.5 9.5t15.5 24.5t6 30q0 17 -8 23t-21 6h-82z" glyph-name="registered" horiz-adv-x="801" unicode="®"/>
<glyph d="M134 639l16 101h287l-16 -101h-287z" glyph-name="macron" horiz-adv-x="353" unicode="¯"/>
<glyph d="M233 475q-57 0 -92 35.5t-35 94.5q0 43 19 81t58 62.5t97 24.5q59 0 92.5 -35.5t33.5 -93.5q0 -44 -18 -83t-56.5 -62.5t-98.5 -23.5zM245 553q37 0 59.5 23t22.5 62q0 26 -15.5 41.5t-43.5 15.5q-37 0 -60 -24t-23 -61q0 -26 16.5 -41.5t43.5 -15.5z" glyph-name="degree" horiz-adv-x="314" unicode="°"/>
<glyph d="M93 87l23 138h448l-23 -138h-448zM280 282l70 448h138l-70 -448h-138zM149 437l22 138h448l-22 -138h-448z" glyph-name="plusminus" unicode="±"/>
<glyph d="M97 355l17 107l165 152q26 26 40.5 47t14.5 33q0 14 -8.5 19t-28.5 5h-136l17 107q33 8 73.5 14.5t92.5 6.5q75 0 105.5 -25.5t30.5 -74.5q0 -52 -23 -97.5t-83 -102.5l-77 -70h157l-20 -121h-337z" glyph-name="uni00B2" horiz-adv-x="415" unicode="²"/>
<glyph d="M292 351q-54 0 -103.5 5t-92.5 14l18 109h144q26 0 39.5 2t19.5 7t6 12l2 10v4v3q0 8 -4.5 13.5t-14.5 8.5t-23 3l-118 5l17 105l112 7q26 2 38.5 7t14.5 16l2 11v2v3q0 11 -12.5 15.5t-43.5 4.5h-136l17 108q51 9 99.5 14.5t96.5 5.5q56 0 88.5 -23.5t33.5 -74.5 q0 -6 -0.5 -12.5t-1.5 -14.5l-6 -32q-3 -21 -10.5 -38.5t-21.5 -30.5t-37 -21q17 -5 27 -16t15 -27t5 -35q0 -7 -0.5 -14.5t-2.5 -14.5l-3 -21q-10 -59 -53 -89.5t-111 -30.5z" glyph-name="uni00B3" horiz-adv-x="415" unicode="³"/>
<glyph d="M113 631l89 142h146l-125 -142h-110z" glyph-name="acute" horiz-adv-x="239" unicode="´"/>
<glyph d="M264 -6q-31 0 -64 10.5t-61.5 31t-45.5 51.5t-17 71q0 9 0.5 16.5t1.5 15.5l55 348h173l-52 -328q0 -5 -0.5 -9.5t-0.5 -8.5q0 -27 15.5 -36.5t40.5 -9.5q28 0 52 10t43 25l57 357h172l-85 -538h-143l-12 53q-26 -28 -57 -43.5t-72 -15.5zM5 -270l83 521h172l-82 -521 h-173z" glyph-name="uni00B5" horiz-adv-x="598" unicode="µ"/>
<glyph d="M197 -270l94 590q-9 -5 -28 -10.5t-45 -5.5q-66 0 -95.5 33t-29.5 81q0 8 1 17.5t5 30.5l22 136q8 48 32.5 79t62.5 46t84 15h397l-18 -114h-55l-100 -628h-111l100 630h-62l-143 -900h-111zM256 415h49l35 215h-49q-33 0 -46 -13t-18 -45l-15 -91q-2 -13 -3 -20t-1 -12 q0 -14 6.5 -21.5t17.5 -10t24 -2.5z" glyph-name="paragraph" horiz-adv-x="574" unicode="¶"/>
<glyph d="M124 312q-10 0 -15.5 6.5t-4.5 15.5l17 104q3 23 26 23h101q24 0 19 -23l-17 -104q-2 -12 -9 -17t-17 -5h-100z" glyph-name="periodcentered" horiz-adv-x="259" unicode="·"/>
<glyph d="M1 -200l11 70l17 3q16 3 25 8.5t12.5 13t3.5 14.5q0 9 -7 17t-26 11l71 15q28 0 50 -14.5t22 -49.5q0 -23 -13 -43t-40 -32.5t-71 -12.5h-55zM37 -63l64 82h77l-64 -82h-77z" glyph-name="cedilla" horiz-adv-x="242" unicode="¸"/>
<glyph d="M203 355l60 371l-91 -5l13 86l111 39h123l-78 -491h-138zM106 355l20 121h331l-20 -121h-331z" glyph-name="uni00B9" horiz-adv-x="415" unicode="¹"/>
<glyph d="M65 251l13 79h364l-12 -79h-365zM258 356q-55 0 -91.5 16.5t-54 47.5t-18.5 75q0 23 2 41.5t4 34.5q13 79 39 118.5t71 53t111 13.5q68 0 103 -16t47.5 -48t12.5 -83q0 -17 -1.5 -37.5t-5.5 -41.5q-11 -71 -37.5 -109t-71 -51.5t-110.5 -13.5zM274 474q20 0 31.5 6.5 t18 23t11.5 46.5q4 21 5 35t1 27q-1 16 -10 22.5t-29 6.5q-21 0 -32.5 -7t-17 -24t-10.5 -49q-4 -22 -4 -33.5v-23.5q0 -10 3.5 -17t11.5 -10t21 -3z" glyph-name="ordmasculine" horiz-adv-x="425" unicode="º"/>
<glyph d="M125 58l-69 88l159 137l-116 136l100 85l189 -221zM375 58l-69 88l159 137l-116 136l100 85l189 -221z" glyph-name="guillemotright" horiz-adv-x="623" unicode="»"/>
<glyph d="M297 0l490 770h117l-490 -770h-117zM934 -66l14 86h-204l-14 60l194 341h140l-161 -287h63l10 67l37 64h111l-20 -131h38l-16 -93l-40 -21l-14 -86h-138zM204 355l60 371l-91 -5l13 86l111 39h123l-78 -491h-138zM107 355l20 121h331l-20 -121h-331z" glyph-name="onequarter" horiz-adv-x="1156" unicode="¼"/>
<glyph d="M297 0l490 770h117l-490 -770h-117zM760 -66l17 107l165 152q26 26 40.5 47t14.5 33q0 14 -8.5 19t-28.5 5h-136l17 107q33 8 73.5 14.5t92.5 6.5q75 0 105.5 -25.5t30.5 -74.5q0 -52 -23 -97.5t-83 -102.5l-77 -70h157l-20 -121h-337zM204 355l60 371l-91 -5l13 86 l111 39h123l-78 -491h-138zM107 355l20 121h331l-20 -121h-331z" glyph-name="onehalf" horiz-adv-x="1156" unicode="½"/>
<glyph d="M297 0l490 770h117l-490 -770h-117zM934 -57l14 86h-204l-14 60l194 341h140l-161 -287h63l10 67l37 64h111l-20 -131h38l-16 -93l-40 -21l-14 -86h-138zM302 351q-54 0 -103.5 5t-92.5 14l18 109h144q26 0 39.5 2t19.5 7t6 12l2 10v4v3q0 8 -4.5 13.5t-14.5 8.5t-23 3 l-118 5l17 105l112 7q26 2 38.5 7t14.5 16l2 11v2v3q0 11 -12.5 15.5t-43.5 4.5h-136l17 108q51 9 99.5 14.5t96.5 5.5q56 0 88.5 -23.5t33.5 -74.5q0 -6 -0.5 -12.5t-1.5 -14.5l-6 -32q-3 -21 -10.5 -38.5t-21.5 -30.5t-37 -21q17 -5 27 -16t15 -27t5 -35q0 -7 -0.5 -14.5 t-2.5 -14.5l-3 -21q-10 -59 -53 -89.5t-111 -30.5z" glyph-name="threequarters" horiz-adv-x="1155" unicode="¾"/>
<glyph d="M439 337l-33 -212h-77q-27 0 -47.5 -6t-33 -20.5t-17.5 -40.5l-4 -24q-1 -4 -1 -8.5v-8.5q0 -32 24 -45.5t69 -13.5q41 0 81 8.5t83 22.5l-21 -128q-41 -24 -97 -41t-124 -17q-96 0 -145.5 45.5t-49.5 118.5q0 19 4 39l9 55q15 95 74 144t164 49l13 83h129zM455 543 q19 0 19 -18v-1.5v-1.5l-18 -110q-2 -24 -26 -24h-100q-20 0 -20 17v4v3l18 110q2 13 9.5 17t16.5 4h101z" glyph-name="questiondown" horiz-adv-x="529" unicode="¿"/>
<glyph d="M19 0l344 742h216l108 -742h-179l-16 135h-237l-59 -135h-177zM320 290h156l-30 304zM442 791l-88 142h138l52 -142h-102z" glyph-name="Agrave" horiz-adv-x="703" unicode="À"/>
<glyph d="M19 0l344 742h216l108 -742h-179l-16 135h-237l-59 -135h-177zM320 290h156l-30 304zM413 791l89 142h146l-125 -142h-110z" glyph-name="Aacute" horiz-adv-x="703" unicode="Á"/>
<glyph d="M19 0l344 742h216l108 -742h-179l-16 135h-237l-59 -135h-177zM320 290h156l-30 304zM306 791l127 144h117l72 -144h-100l-45 68l-71 -68h-100z" glyph-name="Acircumflex" horiz-adv-x="703" unicode="Â"/>
<glyph d="M19 0l344 742h216l108 -742h-179l-16 135h-237l-59 -135h-177zM320 290h156l-30 304zM285 790q18 74 52.5 102.5t76.5 28.5q23 0 42 -5.5t36 -12t32 -12t29 -5.5q17 0 27.5 11t13.5 30h86q-18 -73 -48.5 -104.5t-78.5 -31.5q-21 0 -41.5 5.5t-38.5 12t-33.5 12t-26.5 5.5 q-18 0 -28 -11.5t-14 -24.5h-86z" glyph-name="Atilde" horiz-adv-x="703" unicode="Ã"/>
<glyph d="M19 0l344 742h216l108 -742h-179l-16 135h-237l-59 -135h-177zM320 290h156l-30 304zM528 792q-19 0 -19 18q0 1 1 5.5t5 27.5t12 75q3 24 25 24h80q19 0 19 -19l-0.5 -5t-4.5 -28t-12 -76q-3 -22 -26 -22h-80zM330 792q-19 0 -19 18q0 1 1 5.5t4.5 27.5t12.5 75 q3 24 25 24h80q18 0 18 -19l-0.5 -5t-4 -28t-12.5 -76q-2 -22 -25 -22h-80z" glyph-name="Adieresis" horiz-adv-x="703" unicode="Ä"/>
<glyph d="M19 0l344 742h216l108 -742h-179l-16 135h-237l-59 -135h-177zM320 290h156l-30 304zM474 763q-55 0 -85.5 22t-30.5 78q0 36 17 65.5t49.5 47.5t79.5 18q55 0 85 -23t30 -78t-36.5 -92.5t-108.5 -37.5zM482 825q30 0 43.5 19.5t13.5 46.5q0 22 -12 31t-30 9 q-32 0 -45.5 -20t-13.5 -45q0 -23 12 -32t32 -9z" glyph-name="Aring" horiz-adv-x="703" unicode="Å"/>
<glyph d="M651 -6q-42 0 -73.5 5.5t-52 18.5t-31 34.5t-9.5 52.5l2 30h-209l-100 -135h-169l382 557q54 78 115 117.5t128 53.5t134 14q55 0 133 -4t160 -11l-23 -145h-260q-22 0 -36 -4t-21.5 -12.5t-12 -22.5t-7.5 -35l-10 -60l276 -10l-21 -136l-279 -9l-12 -78q-4 -29 6 -41 t27.5 -15t33.5 -3h249l-23 -143q-30 -4 -68 -7t-77 -5t-72.5 -3.5t-55 -2t-24.5 -1.5zM378 281h133l41 263z" glyph-name="AE" horiz-adv-x="997" unicode="Æ"/>
<glyph d="M342 -6q-129 0 -190.5 69t-61.5 189q0 33 3 69.5t9 74.5q18 117 55.5 195t101.5 117.5t161 39.5q90 0 150 -15.5t94 -30.5l-23 -137q-41 12 -92 20t-98 8q-35 0 -63 -7.5t-49.5 -30.5t-37.5 -68t-28 -121q-5 -34 -8.5 -63.5t-3.5 -52.5q0 -53 28 -77t99 -24q65 0 106 3.5 t83 7.5l-21 -135q-51 -19 -107 -25t-107 -6zM198 -201l11 70l17 3q16 3 25 8.5t12.5 13t3.5 14.5q0 9 -7 17t-26 11l71 15q28 0 50 -14.5t22 -49.5q0 -23 -13 -43t-40 -32.5t-71 -12.5h-55zM234 -64l64 82h77l-64 -82h-77z" glyph-name="Ccedilla" horiz-adv-x="592" unicode="Ç"/>
<glyph d="M247 -6q-28 0 -59.5 6.5t-58 25t-40 52.5t-5.5 89l63 395q11 69 40.5 107.5t73 55.5t94.5 17q75 0 150 -4t153 -10l-23 -146h-254q-33 0 -48 -15.5t-20 -47.5l-11 -70l260 -9l-21 -137l-264 -9l-12 -79q-3 -20 1.5 -33.5t17.5 -19.5t33 -6h251l-23 -145q-70 -7 -143 -12 t-155 -5zM394 791l-88 142h138l52 -142h-102z" glyph-name="Egrave" horiz-adv-x="599" unicode="È"/>
<glyph d="M247 -6q-28 0 -59.5 6.5t-58 25t-40 52.5t-5.5 89l63 395q11 69 40.5 107.5t73 55.5t94.5 17q75 0 150 -4t153 -10l-23 -146h-254q-33 0 -48 -15.5t-20 -47.5l-11 -70l260 -9l-21 -137l-264 -9l-12 -79q-3 -20 1.5 -33.5t17.5 -19.5t33 -6h251l-23 -145q-70 -7 -143 -12 t-155 -5zM366 791l89 142h146l-125 -142h-110z" glyph-name="Eacute" horiz-adv-x="599" unicode="É"/>
<glyph d="M247 -6q-28 0 -59.5 6.5t-58 25t-40 52.5t-5.5 89l63 395q11 69 40.5 107.5t73 55.5t94.5 17q75 0 150 -4t153 -10l-23 -146h-254q-33 0 -48 -15.5t-20 -47.5l-11 -70l260 -9l-21 -137l-264 -9l-12 -79q-3 -20 1.5 -33.5t17.5 -19.5t33 -6h251l-23 -145q-70 -7 -143 -12 t-155 -5zM258 791l127 144h117l72 -144h-100l-45 68l-71 -68h-100z" glyph-name="Ecircumflex" horiz-adv-x="599" unicode="Ê"/>
<glyph d="M247 -6q-28 0 -59.5 6.5t-58 25t-40 52.5t-5.5 89l63 395q11 69 40.5 107.5t73 55.5t94.5 17q75 0 150 -4t153 -10l-23 -146h-254q-33 0 -48 -15.5t-20 -47.5l-11 -70l260 -9l-21 -137l-264 -9l-12 -79q-3 -20 1.5 -33.5t17.5 -19.5t33 -6h251l-23 -145q-70 -7 -143 -12 t-155 -5zM481 792q-19 0 -19 18q0 1 1 5.5t5 27.5t12 75q3 24 25 24h80q19 0 19 -19l-0.5 -5t-4.5 -28t-12 -76q-3 -22 -26 -22h-80zM283 792q-19 0 -19 18q0 1 1 5.5t4.5 27.5t12.5 75q3 24 25 24h80q18 0 18 -19l-0.5 -5t-4 -28t-12.5 -76q-2 -22 -25 -22h-80z" glyph-name="Edieresis" horiz-adv-x="599" unicode="Ë"/>
<glyph d="M58 0l118 742h173l-118 -742h-173zM237 791l-88 142h138l52 -142h-102z" glyph-name="Igrave" horiz-adv-x="289" unicode="Ì"/>
<glyph d="M58 0l118 742h173l-118 -742h-173zM208 791l89 142h146l-125 -142h-110z" glyph-name="Iacute" horiz-adv-x="289" unicode="Í"/>
<glyph d="M58 0l118 742h173l-118 -742h-173zM101 791l127 144h117l72 -144h-100l-45 68l-71 -68h-100z" glyph-name="Icircumflex" horiz-adv-x="289" unicode="Î"/>
<glyph d="M58 0l118 742h173l-118 -742h-173zM323 792q-19 0 -19 18q0 1 1 5.5t5 27.5t12 75q3 24 25 24h80q19 0 19 -19l-0.5 -5t-4.5 -28t-12 -76q-3 -22 -26 -22h-80zM125 792q-19 0 -19 18q0 1 1 5.5t4.5 27.5t12.5 75q3 24 25 24h80q18 0 18 -19l-0.5 -5t-4 -28t-12.5 -76 q-2 -22 -25 -22h-80z" glyph-name="Idieresis" horiz-adv-x="289" unicode="Ï"/>
<glyph d="M55 317l18 112h324l-18 -112h-324zM58 0l118 742h286q101 0 156.5 -32.5t77.5 -91t22 -136.5q0 -31 -2.5 -66t-8.5 -71q-15 -93 -44.5 -159t-74.5 -107t-107 -60t-141 -19h-282zM256 155h102q38 0 67.5 13.5t50.5 40.5t35 68t23 97q5 34 8 60t3 41q0 42 -12.5 66t-40 35 t-73.5 11h-95z" glyph-name="Eth" horiz-adv-x="692" unicode="Ð"/>
<glyph d="M58 0l118 742h137l213 -449l71 449h173l-118 -742h-137l-213 449l-71 -449h-173zM268 790q18 74 52.5 102.5t76.5 28.5q23 0 42 -5.5t36 -12t32 -12t29 -5.5q17 0 27.5 11t13.5 30h86q-18 -73 -48.5 -104.5t-78.5 -31.5q-21 0 -41.5 5.5t-38.5 12t-33.5 12t-26.5 5.5 q-18 0 -28 -11.5t-14 -24.5h-86z" glyph-name="Ntilde" horiz-adv-x="702" unicode="Ñ"/>
<glyph d="M348 -6q-57 0 -105 10t-83 36t-54 73t-19 121q0 34 4 76.5t11 83.5q16 103 44.5 171t72.5 108t105 57.5t144 17.5q57 0 104.5 -10t82.5 -37t55 -76.5t20 -128.5q0 -31 -4 -73t-11 -85q-16 -106 -44.5 -173.5t-72 -104.5t-105.5 -51.5t-145 -14.5zM375 150q41 0 69 12 t47 37.5t31.5 65.5t20.5 96q6 40 10 75.5t4 57.5q0 41 -12 62t-36.5 29t-64.5 8q-38 0 -66 -10t-47.5 -34.5t-33 -67.5t-23.5 -109q-6 -38 -10.5 -73t-4.5 -56q0 -36 12 -56.5t37.5 -28.5t66.5 -8zM444 791l-88 142h138l52 -142h-102z" glyph-name="Ograve" horiz-adv-x="701" unicode="Ò"/>
<glyph d="M348 -6q-57 0 -105 10t-83 36t-54 73t-19 121q0 34 4 76.5t11 83.5q16 103 44.5 171t72.5 108t105 57.5t144 17.5q57 0 104.5 -10t82.5 -37t55 -76.5t20 -128.5q0 -31 -4 -73t-11 -85q-16 -106 -44.5 -173.5t-72 -104.5t-105.5 -51.5t-145 -14.5zM375 150q41 0 69 12 t47 37.5t31.5 65.5t20.5 96q6 40 10 75.5t4 57.5q0 41 -12 62t-36.5 29t-64.5 8q-38 0 -66 -10t-47.5 -34.5t-33 -67.5t-23.5 -109q-6 -38 -10.5 -73t-4.5 -56q0 -36 12 -56.5t37.5 -28.5t66.5 -8zM416 791l89 142h146l-125 -142h-110z" glyph-name="Oacute" horiz-adv-x="701" unicode="Ó"/>
<glyph d="M348 -6q-57 0 -105 10t-83 36t-54 73t-19 121q0 34 4 76.5t11 83.5q16 103 44.5 171t72.5 108t105 57.5t144 17.5q57 0 104.5 -10t82.5 -37t55 -76.5t20 -128.5q0 -31 -4 -73t-11 -85q-16 -106 -44.5 -173.5t-72 -104.5t-105.5 -51.5t-145 -14.5zM375 150q41 0 69 12 t47 37.5t31.5 65.5t20.5 96q6 40 10 75.5t4 57.5q0 41 -12 62t-36.5 29t-64.5 8q-38 0 -66 -10t-47.5 -34.5t-33 -67.5t-23.5 -109q-6 -38 -10.5 -73t-4.5 -56q0 -36 12 -56.5t37.5 -28.5t66.5 -8zM308 791l127 144h117l72 -144h-100l-45 68l-71 -68h-100z" glyph-name="Ocircumflex" horiz-adv-x="701" unicode="Ô"/>
<glyph d="M348 -6q-57 0 -105 10t-83 36t-54 73t-19 121q0 34 4 76.5t11 83.5q16 103 44.5 171t72.5 108t105 57.5t144 17.5q57 0 104.5 -10t82.5 -37t55 -76.5t20 -128.5q0 -31 -4 -73t-11 -85q-16 -106 -44.5 -173.5t-72 -104.5t-105.5 -51.5t-145 -14.5zM375 150q41 0 69 12 t47 37.5t31.5 65.5t20.5 96q6 40 10 75.5t4 57.5q0 41 -12 62t-36.5 29t-64.5 8q-38 0 -66 -10t-47.5 -34.5t-33 -67.5t-23.5 -109q-6 -38 -10.5 -73t-4.5 -56q0 -36 12 -56.5t37.5 -28.5t66.5 -8zM288 790q18 74 52.5 102.5t76.5 28.5q23 0 42 -5.5t36 -12t32 -12t29 -5.5 q17 0 27.5 11t13.5 30h86q-18 -73 -48.5 -104.5t-78.5 -31.5q-21 0 -41.5 5.5t-38.5 12t-33.5 12t-26.5 5.5q-18 0 -28 -11.5t-14 -24.5h-86z" glyph-name="Otilde" horiz-adv-x="701" unicode="Õ"/>
<glyph d="M348 -6q-57 0 -105 10t-83 36t-54 73t-19 121q0 34 4 76.5t11 83.5q16 103 44.5 171t72.5 108t105 57.5t144 17.5q57 0 104.5 -10t82.5 -37t55 -76.5t20 -128.5q0 -31 -4 -73t-11 -85q-16 -106 -44.5 -173.5t-72 -104.5t-105.5 -51.5t-145 -14.5zM375 150q41 0 69 12 t47 37.5t31.5 65.5t20.5 96q6 40 10 75.5t4 57.5q0 41 -12 62t-36.5 29t-64.5 8q-38 0 -66 -10t-47.5 -34.5t-33 -67.5t-23.5 -109q-6 -38 -10.5 -73t-4.5 -56q0 -36 12 -56.5t37.5 -28.5t66.5 -8zM531 792q-19 0 -19 18q0 1 1 5.5t5 27.5t12 75q3 24 25 24h80q19 0 19 -19 l-0.5 -5t-4.5 -28t-12 -76q-3 -22 -26 -22h-80zM333 792q-19 0 -19 18q0 1 1 5.5t4.5 27.5t12.5 75q3 24 25 24h80q18 0 18 -19l-0.5 -5t-4 -28t-12.5 -76q-2 -22 -25 -22h-80z" glyph-name="Odieresis" horiz-adv-x="701" unicode="Ö"/>
<glyph d="M221 149l-82 97l367 317l82 -97zM440 149l-267 317l114 97l267 -317z" glyph-name="multiply" unicode="×"/>
<glyph d="M39 0l648 742h95l-648 -742h-95zM348 -6q-57 0 -105 10t-83 36t-54 73t-19 121q0 34 4 76.5t11 83.5q16 103 44.5 171t72.5 108t105 57.5t144 17.5q57 0 104.5 -10t82.5 -37t55 -76.5t20 -128.5q0 -31 -4 -73t-11 -85q-16 -106 -44.5 -173.5t-72 -104.5t-105.5 -51.5 t-145 -14.5zM375 150q41 0 69 12t47 37.5t31.5 65.5t20.5 96q6 40 10 75.5t4 57.5q0 41 -12 62t-36.5 29t-64.5 8q-38 0 -66 -10t-47.5 -34.5t-33 -67.5t-23.5 -109q-6 -38 -10.5 -73t-4.5 -56q0 -36 12 -56.5t37.5 -28.5t66.5 -8z" glyph-name="Oslash" horiz-adv-x="704" unicode="Ø"/>
<glyph d="M348 -6q-123 0 -185.5 54t-62.5 175q0 26 4 58t9 65l63 396h173l-67 -422q-3 -23 -6.5 -44t-3.5 -38q0 -45 23 -67t77 -22q30 0 52.5 7.5t39.5 26t28.5 52t20.5 85.5l66 422h173l-71 -448q-15 -96 -43 -155t-69.5 -90.5t-96.5 -43t-124 -11.5zM433 791l-88 142h138 l52 -142h-102z" glyph-name="Ugrave" horiz-adv-x="692" unicode="Ù"/>
<glyph d="M348 -6q-123 0 -185.5 54t-62.5 175q0 26 4 58t9 65l63 396h173l-67 -422q-3 -23 -6.5 -44t-3.5 -38q0 -45 23 -67t77 -22q30 0 52.5 7.5t39.5 26t28.5 52t20.5 85.5l66 422h173l-71 -448q-15 -96 -43 -155t-69.5 -90.5t-96.5 -43t-124 -11.5zM405 791l89 142h146 l-125 -142h-110z" glyph-name="Uacute" horiz-adv-x="692" unicode="Ú"/>
<glyph d="M348 -6q-123 0 -185.5 54t-62.5 175q0 26 4 58t9 65l63 396h173l-67 -422q-3 -23 -6.5 -44t-3.5 -38q0 -45 23 -67t77 -22q30 0 52.5 7.5t39.5 26t28.5 52t20.5 85.5l66 422h173l-71 -448q-15 -96 -43 -155t-69.5 -90.5t-96.5 -43t-124 -11.5zM297 791l127 144h117 l72 -144h-100l-45 68l-71 -68h-100z" glyph-name="Ucircumflex" horiz-adv-x="692" unicode="Û"/>
<glyph d="M348 -6q-123 0 -185.5 54t-62.5 175q0 26 4 58t9 65l63 396h173l-67 -422q-3 -23 -6.5 -44t-3.5 -38q0 -45 23 -67t77 -22q30 0 52.5 7.5t39.5 26t28.5 52t20.5 85.5l66 422h173l-71 -448q-15 -96 -43 -155t-69.5 -90.5t-96.5 -43t-124 -11.5zM520 792q-19 0 -19 18 q0 1 1 5.5t5 27.5t12 75q3 24 25 24h80q19 0 19 -19l-0.5 -5t-4.5 -28t-12 -76q-3 -22 -26 -22h-80zM322 792q-19 0 -19 18q0 1 1 5.5t4.5 27.5t12.5 75q3 24 25 24h80q18 0 18 -19l-0.5 -5t-4 -28t-12.5 -76q-2 -22 -25 -22h-80z" glyph-name="Udieresis" horiz-adv-x="692" unicode="Ü"/>
<glyph d="M233 0l33 208l-136 534h188l63 -348l180 348h196l-318 -534l-33 -208h-173zM389 791l89 142h146l-125 -142h-110z" glyph-name="Yacute" horiz-adv-x="651" unicode="Ý"/>
<glyph d="M58 0l118 742h172l-117 -742h-173zM379 131q-44 0 -86.5 8.5t-74.5 16.5l20 130h117q25 0 43.5 10t30.5 28t15 42q2 13 3.5 26t1.5 18q0 31 -17.5 43.5t-52.5 12.5h-122l25 155h131q60 0 108 -17t76.5 -59t28.5 -118q0 -16 -3.5 -39t-6.5 -41q-10 -61 -33.5 -102.5 t-56.5 -66.5t-70.5 -36t-76.5 -11z" glyph-name="Thorn" horiz-adv-x="576" unicode="Þ"/>
<glyph d="M407 -6q-44 0 -82.5 4.5t-60.5 11.5l18 116q31 -2 54 -2.5t46 -0.5q25 0 38.5 4t19 10.5t6.5 14.5q1 6 1.5 10t0.5 6q0 13 -10 23.5t-24 21.5t-28.5 25t-24 34t-9.5 49q0 30 12 57t29.5 51t35 46.5t29.5 43.5t12 41q0 27 -20.5 42t-57.5 15q-44 0 -68 -32t-36 -111 l-75 -474h-173l87 553q10 59 44 108t92.5 78.5t143.5 29.5q80 0 129 -26t70.5 -67t21.5 -87q0 -33 -10.5 -60t-26 -48.5t-31 -40t-26 -35t-10.5 -32.5q0 -12 9 -24t23 -25.5t27.5 -29.5t23 -37t9.5 -49q0 -7 -1 -19t-7 -49q-7 -47 -29 -76t-52 -44t-62 -20.5t-58 -5.5z" glyph-name="germandbls" horiz-adv-x="613" unicode="ß"/>
<glyph d="M210 -6q-38 0 -70.5 19.5t-52 60.5t-19.5 107q0 30 4.5 62t7.5 52q13 84 47.5 139t94 82.5t145.5 27.5q49 0 94 -8.5t81 -23t60 -33.5l-76 -479h-154l-10 53q-14 -13 -38.5 -26.5t-54 -23t-59.5 -9.5zM297 132q27 0 47.5 11t34.5 22l36 230q-6 3 -21 7t-35 4 q-33 0 -55 -15t-35.5 -42t-19.5 -65q-4 -22 -6 -41.5t-2 -30.5q0 -32 12.5 -56t43.5 -24zM346 631l-88 142h138l52 -142h-102z" glyph-name="agrave" horiz-adv-x="573" unicode="à"/>
<glyph d="M210 -6q-38 0 -70.5 19.5t-52 60.5t-19.5 107q0 30 4.5 62t7.5 52q13 84 47.5 139t94 82.5t145.5 27.5q49 0 94 -8.5t81 -23t60 -33.5l-76 -479h-154l-10 53q-14 -13 -38.5 -26.5t-54 -23t-59.5 -9.5zM297 132q27 0 47.5 11t34.5 22l36 230q-6 3 -21 7t-35 4 q-33 0 -55 -15t-35.5 -42t-19.5 -65q-4 -22 -6 -41.5t-2 -30.5q0 -32 12.5 -56t43.5 -24zM326 631l89 142h146l-125 -142h-110z" glyph-name="aacute" horiz-adv-x="573" unicode="á"/>
<glyph d="M210 -6q-38 0 -70.5 19.5t-52 60.5t-19.5 107q0 30 4.5 62t7.5 52q13 84 47.5 139t94 82.5t145.5 27.5q49 0 94 -8.5t81 -23t60 -33.5l-76 -479h-154l-10 53q-14 -13 -38.5 -26.5t-54 -23t-59.5 -9.5zM297 132q27 0 47.5 11t34.5 22l36 230q-6 3 -21 7t-35 4 q-33 0 -55 -15t-35.5 -42t-19.5 -65q-4 -22 -6 -41.5t-2 -30.5q0 -32 12.5 -56t43.5 -24zM219 631l127 144h117l72 -144h-100l-45 68l-71 -68h-100z" glyph-name="acircumflex" horiz-adv-x="573" unicode="â"/>
<glyph d="M210 -6q-38 0 -70.5 19.5t-52 60.5t-19.5 107q0 30 4.5 62t7.5 52q13 84 47.5 139t94 82.5t145.5 27.5q49 0 94 -8.5t81 -23t60 -33.5l-76 -479h-154l-10 53q-14 -13 -38.5 -26.5t-54 -23t-59.5 -9.5zM297 132q27 0 47.5 11t34.5 22l36 230q-6 3 -21 7t-35 4 q-33 0 -55 -15t-35.5 -42t-19.5 -65q-4 -22 -6 -41.5t-2 -30.5q0 -32 12.5 -56t43.5 -24zM188 630q18 74 52.5 102.5t76.5 28.5q23 0 42 -5.5t36 -12t32 -12t29 -5.5q17 0 27.5 11t13.5 30h86q-18 -73 -48.5 -104.5t-78.5 -31.5q-21 0 -41.5 5.5t-38.5 12t-33.5 12 t-26.5 5.5q-18 0 -28 -11.5t-14 -24.5h-86z" glyph-name="atilde" horiz-adv-x="573" unicode="ã"/>
<glyph d="M210 -6q-38 0 -70.5 19.5t-52 60.5t-19.5 107q0 30 4.5 62t7.5 52q13 84 47.5 139t94 82.5t145.5 27.5q49 0 94 -8.5t81 -23t60 -33.5l-76 -479h-154l-10 53q-14 -13 -38.5 -26.5t-54 -23t-59.5 -9.5zM297 132q27 0 47.5 11t34.5 22l36 230q-6 3 -21 7t-35 4 q-33 0 -55 -15t-35.5 -42t-19.5 -65q-4 -22 -6 -41.5t-2 -30.5q0 -32 12.5 -56t43.5 -24zM439 632q-19 0 -19 18q0 1 1 5.5t5 27.5t12 75q3 24 25 24h80q19 0 19 -19l-0.5 -5t-4.5 -28t-12 -76q-3 -22 -26 -22h-80zM241 632q-19 0 -19 18q0 1 1 5.5t4.5 27.5t12.5 75 q3 24 25 24h80q18 0 18 -19l-0.5 -5t-4 -28t-12.5 -76q-2 -22 -25 -22h-80z" glyph-name="adieresis" horiz-adv-x="573" unicode="ä"/>
<glyph d="M210 -6q-38 0 -70.5 19.5t-52 60.5t-19.5 107q0 30 4.5 62t7.5 52q13 84 47.5 139t94 82.5t145.5 27.5q49 0 94 -8.5t81 -23t60 -33.5l-76 -479h-154l-10 53q-14 -13 -38.5 -26.5t-54 -23t-59.5 -9.5zM297 132q27 0 47.5 11t34.5 22l36 230q-6 3 -21 7t-35 4 q-33 0 -55 -15t-35.5 -42t-19.5 -65q-4 -22 -6 -41.5t-2 -30.5q0 -32 12.5 -56t43.5 -24zM387 583q-55 0 -85.5 22t-30.5 78q0 36 17 65.5t49.5 47.5t79.5 18q55 0 85 -23t30 -78t-36.5 -92.5t-108.5 -37.5zM395 645q30 0 43.5 19.5t13.5 46.5q0 22 -12 31t-30 9 q-32 0 -45.5 -20t-13.5 -45q0 -23 12 -32t32 -9z" glyph-name="aring" horiz-adv-x="573" unicode="å"/>
<glyph d="M215 -6q-39 0 -72 18t-52.5 58.5t-19.5 107.5q0 106 23 176.5t63.5 112.5t91.5 59.5t108 17.5q26 0 54.5 -3t58 -10t55.5 -21q11 9 32 15.5t44 10.5t42 6.5t27 2.5q111 0 166.5 -41t55.5 -129q0 -57 -23 -97t-71.5 -61t-126.5 -21q-21 0 -44 1t-42 3.5t-26 4.5 q-1 -7 -1.5 -13.5t-0.5 -12.5q0 -18 9 -31t32 -20.5t63 -7.5h183l-16 -101q-29 -7 -69 -13t-85 -9t-86 -3q-36 0 -70 8.5t-59.5 25t-37.5 39.5q-35 -24 -68.5 -40t-67 -24.5t-70.5 -8.5zM295 134q18 0 37 7t34.5 18t22.5 21v15v15q0 33 4 65.5t12.5 63t20.5 56.5 q-8 4 -23.5 7.5t-28.5 3.5q-35 0 -60 -14t-41 -40t-23.5 -61.5t-7.5 -79.5q0 -34 12.5 -55.5t40.5 -21.5zM633 290q57 0 77.5 19.5t20.5 46.5q0 29 -15 43t-43 14q-25 0 -42.5 -7.5t-28.5 -23t-18 -37.5t-13 -50q4 -1 13.5 -2t22 -2t26.5 -1z" glyph-name="ae" horiz-adv-x="868" unicode="æ"/>
<glyph d="M271 -6q-61 0 -106 19.5t-69 64t-24 123.5q0 17 2.5 42.5t6.5 53.5q14 91 49 145t86.5 78t115.5 24q45 0 93 -9.5t94 -22.5l-17 -99h-130q-39 0 -63 -17t-37.5 -49t-22.5 -78q-3 -20 -4 -32.5t-1 -18.5q0 -33 9.5 -53.5t28 -30.5t45.5 -10h138l-16 -98q-34 -14 -76 -23 t-102 -9zM126 -201l11 70l17 3q16 3 25 8.5t12.5 13t3.5 14.5q0 9 -7 17t-26 11l71 15q28 0 50 -14.5t22 -49.5q0 -23 -13 -43t-40 -32.5t-71 -12.5h-55zM162 -64l64 82h77l-64 -82h-77z" glyph-name="ccedilla" horiz-adv-x="473" unicode="ç"/>
<glyph d="M283 -6q-78 0 -124.5 24.5t-67 70.5t-20.5 110q0 27 3 51.5t7 47.5q14 90 51 144t96 78.5t137 24.5q39 0 76 -7.5t67 -25t48.5 -49.5t18.5 -83q0 -57 -18 -93.5t-49.5 -56t-72 -27t-87.5 -7.5q-33 0 -60.5 2.5t-44.5 6.5q-1 -6 -1.5 -13.5t-0.5 -14.5q0 -29 26 -43 t85 -14h176l-16 -101q-43 -9 -102.5 -17t-126.5 -8zM306 290q41 0 64.5 8t33.5 24t10 39q0 26 -15 39t-46 13q-29 0 -49 -13t-32 -39.5t-18 -65.5q12 -1 25.5 -3t26.5 -2zM345 631l-88 142h138l52 -142h-102z" glyph-name="egrave" horiz-adv-x="548" unicode="è"/>
<glyph d="M283 -6q-78 0 -124.5 24.5t-67 70.5t-20.5 110q0 27 3 51.5t7 47.5q14 90 51 144t96 78.5t137 24.5q39 0 76 -7.5t67 -25t48.5 -49.5t18.5 -83q0 -57 -18 -93.5t-49.5 -56t-72 -27t-87.5 -7.5q-33 0 -60.5 2.5t-44.5 6.5q-1 -6 -1.5 -13.5t-0.5 -14.5q0 -29 26 -43 t85 -14h176l-16 -101q-43 -9 -102.5 -17t-126.5 -8zM306 290q41 0 64.5 8t33.5 24t10 39q0 26 -15 39t-46 13q-29 0 -49 -13t-32 -39.5t-18 -65.5q12 -1 25.5 -3t26.5 -2zM325 631l89 142h146l-125 -142h-110z" glyph-name="eacute" horiz-adv-x="548" unicode="é"/>
<glyph d="M283 -6q-78 0 -124.5 24.5t-67 70.5t-20.5 110q0 27 3 51.5t7 47.5q14 90 51 144t96 78.5t137 24.5q39 0 76 -7.5t67 -25t48.5 -49.5t18.5 -83q0 -57 -18 -93.5t-49.5 -56t-72 -27t-87.5 -7.5q-33 0 -60.5 2.5t-44.5 6.5q-1 -6 -1.5 -13.5t-0.5 -14.5q0 -29 26 -43 t85 -14h176l-16 -101q-43 -9 -102.5 -17t-126.5 -8zM306 290q41 0 64.5 8t33.5 24t10 39q0 26 -15 39t-46 13q-29 0 -49 -13t-32 -39.5t-18 -65.5q12 -1 25.5 -3t26.5 -2zM218 631l127 144h117l72 -144h-100l-45 68l-71 -68h-100z" glyph-name="ecircumflex" horiz-adv-x="548" unicode="ê"/>
<glyph d="M283 -6q-78 0 -124.5 24.5t-67 70.5t-20.5 110q0 27 3 51.5t7 47.5q14 90 51 144t96 78.5t137 24.5q39 0 76 -7.5t67 -25t48.5 -49.5t18.5 -83q0 -57 -18 -93.5t-49.5 -56t-72 -27t-87.5 -7.5q-33 0 -60.5 2.5t-44.5 6.5q-1 -6 -1.5 -13.5t-0.5 -14.5q0 -29 26 -43 t85 -14h176l-16 -101q-43 -9 -102.5 -17t-126.5 -8zM306 290q41 0 64.5 8t33.5 24t10 39q0 26 -15 39t-46 13q-29 0 -49 -13t-32 -39.5t-18 -65.5q12 -1 25.5 -3t26.5 -2zM438 632q-19 0 -19 18q0 1 1 5.5t5 27.5t12 75q3 24 25 24h80q19 0 19 -19l-0.5 -5t-4.5 -28t-12 -76 q-3 -22 -26 -22h-80zM240 632q-19 0 -19 18q0 1 1 5.5t4.5 27.5t12.5 75q3 24 25 24h80q18 0 18 -19l-0.5 -5t-4 -28t-12.5 -76q-2 -22 -25 -22h-80z" glyph-name="edieresis" horiz-adv-x="548" unicode="ë"/>
<glyph d="M49 0l85 538h173l-85 -538h-173zM203 631l-88 142h138l52 -142h-102z" glyph-name="igrave" horiz-adv-x="269" unicode="ì"/>
<glyph d="M49 0l85 538h173l-85 -538h-173zM183 631l89 142h146l-125 -142h-110z" glyph-name="iacute" horiz-adv-x="269" unicode="í"/>
<glyph d="M49 0l85 538h173l-85 -538h-173zM76 631l127 144h117l72 -144h-100l-45 68l-71 -68h-100z" glyph-name="icircumflex" horiz-adv-x="269" unicode="î"/>
<glyph d="M49 0l85 538h173l-85 -538h-173zM296 632q-19 0 -19 18q0 1 1 5.5t5 27.5t12 75q3 24 25 24h80q19 0 19 -19l-0.5 -5t-4.5 -28t-12 -76q-3 -22 -26 -22h-80zM98 632q-19 0 -19 18q0 1 1 5.5t4.5 27.5t12.5 75q3 24 25 24h80q18 0 18 -19l-0.5 -5t-4 -28t-12.5 -76 q-2 -22 -25 -22h-80z" glyph-name="idieresis" horiz-adv-x="269" unicode="ï"/>
<glyph d="M77 269q13 80 34 131t51.5 78.5t71.5 38t95 10.5q52 0 95 -20.5t68.5 -55t25.5 -79.5q16 -33 31.5 -66.5t31.5 -66.5q-15 -99 -50.5 -152.5t-95 -73t-147.5 -19.5q-72 0 -120.5 21.5t-72.5 63.5t-24 104q0 25 1.5 45.5t4.5 40.5zM246 244q-2 -15 -3 -28t-1 -25 q0 -23 7 -36t21 -18t36 -5q24 0 41 6t28 19.5t19 39.5t15 65q3 25 5.5 44.5t2.5 36.5q0 27 -16 38t-52 11q-25 0 -42 -6.5t-28 -22.5t-18.5 -44.5t-14.5 -74.5zM218 763q132 0 216.5 -31t125.5 -99.5t41 -181.5q0 -46 -5.5 -99t-14.5 -113l-132 96q6 36 9 67t3 58 q0 76 -27.5 117.5t-85 58t-148.5 16.5zM604 761l14 -53l-386 -156l-15 53z" glyph-name="eth" horiz-adv-x="577" unicode="ð"/>
<glyph d="M49 0l84 538h144l21 -53q32 25 76.5 42t99.5 17q44 0 74 -15t45.5 -42t15.5 -62q0 -18 -1.5 -41t-10.5 -76l-48 -308h-173l48 302q2 17 3 26.5t1 14.5q0 22 -12 34t-42 12q-27 0 -52 -11t-45 -29l-56 -349h-172zM199 630q18 74 52.5 102.5t76.5 28.5q23 0 42 -5.5t36 -12 t32 -12t29 -5.5q17 0 27.5 11t13.5 30h86q-18 -73 -48.5 -104.5t-78.5 -31.5q-21 0 -41.5 5.5t-38.5 12t-33.5 12t-26.5 5.5q-18 0 -28 -11.5t-14 -24.5h-86z" glyph-name="ntilde" horiz-adv-x="596" unicode="ñ"/>
<glyph d="M288 -6q-72 0 -120.5 21.5t-72.5 63.5t-24 104q0 30 2 55t6 48q13 81 36 131.5t58 78t85 38t116 10.5q89 0 135.5 -21.5t63 -65.5t16.5 -111q0 -24 -2 -52t-7 -57q-15 -98 -50.5 -151t-94.5 -72.5t-147 -19.5zM306 132q24 0 41 6t28 19.5t19 39t14 65.5q5 28 7 50t2 41 q0 32 -15.5 44t-50.5 12q-25 0 -41.5 -6t-27.5 -22t-19 -45.5t-14 -73.5q-4 -21 -5.5 -38t-1.5 -33q0 -23 7 -36t21 -18t36 -5zM344 631l-88 142h138l52 -142h-102z" glyph-name="ograve" horiz-adv-x="577" unicode="ò"/>
<glyph d="M288 -6q-72 0 -120.5 21.5t-72.5 63.5t-24 104q0 30 2 55t6 48q13 81 36 131.5t58 78t85 38t116 10.5q89 0 135.5 -21.5t63 -65.5t16.5 -111q0 -24 -2 -52t-7 -57q-15 -98 -50.5 -151t-94.5 -72.5t-147 -19.5zM306 132q24 0 41 6t28 19.5t19 39t14 65.5q5 28 7 50t2 41 q0 32 -15.5 44t-50.5 12q-25 0 -41.5 -6t-27.5 -22t-19 -45.5t-14 -73.5q-4 -21 -5.5 -38t-1.5 -33q0 -23 7 -36t21 -18t36 -5zM325 631l89 142h146l-125 -142h-110z" glyph-name="oacute" horiz-adv-x="577" unicode="ó"/>
<glyph d="M288 -6q-72 0 -120.5 21.5t-72.5 63.5t-24 104q0 30 2 55t6 48q13 81 36 131.5t58 78t85 38t116 10.5q89 0 135.5 -21.5t63 -65.5t16.5 -111q0 -24 -2 -52t-7 -57q-15 -98 -50.5 -151t-94.5 -72.5t-147 -19.5zM306 132q24 0 41 6t28 19.5t19 39t14 65.5q5 28 7 50t2 41 q0 32 -15.5 44t-50.5 12q-25 0 -41.5 -6t-27.5 -22t-19 -45.5t-14 -73.5q-4 -21 -5.5 -38t-1.5 -33q0 -23 7 -36t21 -18t36 -5zM217 631l127 144h117l72 -144h-100l-45 68l-71 -68h-100z" glyph-name="ocircumflex" horiz-adv-x="577" unicode="ô"/>
<glyph d="M288 -6q-72 0 -120.5 21.5t-72.5 63.5t-24 104q0 30 2 55t6 48q13 81 36 131.5t58 78t85 38t116 10.5q89 0 135.5 -21.5t63 -65.5t16.5 -111q0 -24 -2 -52t-7 -57q-15 -98 -50.5 -151t-94.5 -72.5t-147 -19.5zM306 132q24 0 41 6t28 19.5t19 39t14 65.5q5 28 7 50t2 41 q0 32 -15.5 44t-50.5 12q-25 0 -41.5 -6t-27.5 -22t-19 -45.5t-14 -73.5q-4 -21 -5.5 -38t-1.5 -33q0 -23 7 -36t21 -18t36 -5zM187 630q18 74 52.5 102.5t76.5 28.5q23 0 42 -5.5t36 -12t32 -12t29 -5.5q17 0 27.5 11t13.5 30h86q-18 -73 -48.5 -104.5t-78.5 -31.5 q-21 0 -41.5 5.5t-38.5 12t-33.5 12t-26.5 5.5q-18 0 -28 -11.5t-14 -24.5h-86z" glyph-name="otilde" horiz-adv-x="577" unicode="õ"/>
<glyph d="M288 -6q-72 0 -120.5 21.5t-72.5 63.5t-24 104q0 30 2 55t6 48q13 81 36 131.5t58 78t85 38t116 10.5q89 0 135.5 -21.5t63 -65.5t16.5 -111q0 -24 -2 -52t-7 -57q-15 -98 -50.5 -151t-94.5 -72.5t-147 -19.5zM306 132q24 0 41 6t28 19.5t19 39t14 65.5q5 28 7 50t2 41 q0 32 -15.5 44t-50.5 12q-25 0 -41.5 -6t-27.5 -22t-19 -45.5t-14 -73.5q-4 -21 -5.5 -38t-1.5 -33q0 -23 7 -36t21 -18t36 -5zM438 632q-19 0 -19 18q0 1 1 5.5t5 27.5t12 75q3 24 25 24h80q19 0 19 -19l-0.5 -5t-4.5 -28t-12 -76q-3 -22 -26 -22h-80zM240 632 q-19 0 -19 18q0 1 1 5.5t4.5 27.5t12.5 75q3 24 25 24h80q18 0 18 -19l-0.5 -5t-4 -28t-12.5 -76q-2 -22 -25 -22h-80z" glyph-name="odieresis" horiz-adv-x="577" unicode="ö"/>
<glyph d="M270 80q-23 0 -20 23l13 89q5 25 28 25h100q26 0 21 -25l-14 -89q-2 -13 -10 -18t-19 -5h-99zM336 496q-10 0 -16 6.5t-5 16.5l15 88q3 25 28 25h99q24 0 21 -25l-14 -88q-2 -13 -9.5 -18t-18.5 -5h-100zM125 287l23 138h448l-23 -138h-448z" glyph-name="divide" unicode="÷"/>
<glyph d="M22 0l535 538h78l-535 -538h-78zM288 -6q-72 0 -120.5 21.5t-72.5 63.5t-24 104q0 30 2 55t6 48q13 81 36 131.5t58 78t85 38t116 10.5q89 0 135.5 -21.5t63 -65.5t16.5 -111q0 -24 -2 -52t-7 -57q-15 -98 -50.5 -151t-94.5 -72.5t-147 -19.5zM306 132q24 0 41 6t28 19.5 t19 39t14 65.5q5 28 7 50t2 41q0 32 -15.5 44t-50.5 12q-25 0 -41.5 -6t-27.5 -22t-19 -45.5t-14 -73.5q-4 -21 -5.5 -38t-1.5 -33q0 -23 7 -36t21 -18t36 -5z" glyph-name="oslash" horiz-adv-x="572" unicode="ø"/>
<glyph d="M202 -6q-69 0 -100 34t-31 93q0 22 1.5 37.5t3.5 29.5l56 350h172l-51 -327q-1 -5 -1 -8.5v-9.5q0 -26 15.5 -35t36.5 -9q31 0 55 11.5t45 28.5l55 349h173l-85 -538h-154l-10 53q-28 -19 -54 -32t-55.5 -20t-71.5 -7zM366 631l-88 142h138l52 -142h-102z" glyph-name="ugrave" horiz-adv-x="596" unicode="ù"/>
<glyph d="M202 -6q-69 0 -100 34t-31 93q0 22 1.5 37.5t3.5 29.5l56 350h172l-51 -327q-1 -5 -1 -8.5v-9.5q0 -26 15.5 -35t36.5 -9q31 0 55 11.5t45 28.5l55 349h173l-85 -538h-154l-10 53q-28 -19 -54 -32t-55.5 -20t-71.5 -7zM346 631l89 142h146l-125 -142h-110z" glyph-name="uacute" horiz-adv-x="596" unicode="ú"/>
<glyph d="M202 -6q-69 0 -100 34t-31 93q0 22 1.5 37.5t3.5 29.5l56 350h172l-51 -327q-1 -5 -1 -8.5v-9.5q0 -26 15.5 -35t36.5 -9q31 0 55 11.5t45 28.5l55 349h173l-85 -538h-154l-10 53q-28 -19 -54 -32t-55.5 -20t-71.5 -7zM239 631l127 144h117l72 -144h-100l-45 68l-71 -68 h-100z" glyph-name="ucircumflex" horiz-adv-x="596" unicode="û"/>
<glyph d="M202 -6q-69 0 -100 34t-31 93q0 22 1.5 37.5t3.5 29.5l56 350h172l-51 -327q-1 -5 -1 -8.5v-9.5q0 -26 15.5 -35t36.5 -9q31 0 55 11.5t45 28.5l55 349h173l-85 -538h-154l-10 53q-28 -19 -54 -32t-55.5 -20t-71.5 -7zM460 632q-19 0 -19 18q0 1 1 5.5t5 27.5t12 75 q3 24 25 24h80q19 0 19 -19l-0.5 -5t-4.5 -28t-12 -76q-3 -22 -26 -22h-80zM262 632q-19 0 -19 18q0 1 1 5.5t4.5 27.5t12.5 75q3 24 25 24h80q18 0 18 -19l-0.5 -5t-4 -28t-12.5 -76q-2 -22 -25 -22h-80z" glyph-name="udieresis" horiz-adv-x="596" unicode="ü"/>
<glyph d="M96 -237v122q65 13 109.5 38.5t70.5 76.5q-54 5 -85 23t-45.5 50t-18.5 77l-39 388h178l13 -351q1 -18 8.5 -28t18.5 -14t22 -5l101 262q12 32 22 69t11 75h163q0 -60 -16.5 -125.5t-50.5 -139.5l-129 -272q-41 -88 -90.5 -140t-109 -76.5t-133.5 -29.5zM324 631l89 142 h146l-125 -142h-110z" glyph-name="yacute" horiz-adv-x="582" unicode="ý"/>
<glyph d="M10 -237l159 1000h173l-35 -223q23 2 48.5 3t54.5 1q99 0 139 -49t40 -145q0 -25 -2.5 -52.5t-7.5 -56.5q-14 -86 -50 -140.5t-87 -80.5t-113 -26q-32 0 -60.5 4t-45.5 14l-40 -249h-173zM306 140q29 0 50 13t35.5 42.5t22.5 77.5q2 12 3.5 23.5t1.5 22.5q0 44 -14 65.5 t-46 21.5l-74 -1l-41 -254q8 -4 17.5 -6t20.5 -3.5t24 -1.5z" glyph-name="thorn" horiz-adv-x="578" unicode="þ"/>
<glyph d="M49 0l85 538h173l-85 -538h-173z" glyph-name="dotlessi" horiz-adv-x="269" unicode="ı"/>
<glyph d="M133 631l127 144h117l72 -144h-100l-45 68l-71 -68h-100z" glyph-name="circumflex" horiz-adv-x="382" unicode="ˆ"/>
<glyph d="M257 583q-55 0 -85.5 22t-30.5 78q0 36 17 65.5t49.5 47.5t79.5 18q55 0 85 -23t30 -78t-36.5 -92.5t-108.5 -37.5zM265 645q30 0 43.5 19.5t13.5 46.5q0 22 -12 31t-30 9q-32 0 -45.5 -20t-13.5 -45q0 -23 12 -32t32 -9z" glyph-name="ring" horiz-adv-x="321" unicode="˚"/>
<glyph d="M124 630q18 74 52.5 102.5t76.5 28.5q23 0 42 -5.5t36 -12t32 -12t29 -5.5q17 0 27.5 11t13.5 30h86q-18 -73 -48.5 -104.5t-78.5 -31.5q-21 0 -41.5 5.5t-38.5 12t-33.5 12t-26.5 5.5q-18 0 -28 -11.5t-14 -24.5h-86z" glyph-name="tilde" horiz-adv-x="413" unicode="˜"/>
<glyph d="M-210 632q-19 0 -19 18q0 1 1 5.5t5 27.5t12 75q3 24 25 24h80q19 0 19 -19l-0.5 -5t-4.5 -28t-12 -76q-3 -22 -26 -22h-80zM-408 632q-19 0 -19 18q0 1 1 5.5t4.5 27.5t12.5 75q3 24 25 24h80q18 0 18 -19l-0.5 -5t-4 -28t-12.5 -76q-2 -22 -25 -22h-80z" glyph-name="uni0308" horiz-adv-x="0" unicode="̈"/>
<glyph d="M264 -6q-31 0 -64 10.5t-61.5 31t-45.5 51.5t-17 71q0 9 0.5 16.5t1.5 15.5l55 348h173l-52 -328q0 -5 -0.5 -9.5t-0.5 -8.5q0 -27 15.5 -36.5t40.5 -9.5q28 0 52 10t43 25l57 357h172l-85 -538h-143l-12 53q-26 -28 -57 -43.5t-72 -15.5zM5 -270l83 521h172l-82 -521 h-173z" glyph-name="uni03BC" horiz-adv-x="598" unicode="μ"/>
<glyph d="M261 58l-192 225l258 221l73 -85l-159 -136l118 -138z" glyph-name="guilsinglleft" horiz-adv-x="373" unicode="‹"/>
<glyph d="M125 58l-69 88l159 137l-116 136l100 85l189 -221z" glyph-name="guilsinglright" horiz-adv-x="373" unicode="›"/>
<glyph d="M-33 0l490 770h117l-490 -770h-117z" glyph-name="fraction" horiz-adv-x="440" unicode="⁄"/>
<glyph d="M288 355l14 86h-204l-14 60l194 341h140l-161 -287h63l10 67l37 64h111l-20 -131h38l-16 -93l-40 -21l-14 -86h-138z" glyph-name="uni2074" horiz-adv-x="415" unicode="⁴"/>
<glyph d="M125 287l23 138h448l-23 -138h-448z" glyph-name="minus" unicode="−"/>
</font>
</defs>
</svg>
